<svg width="246" height="104" viewBox="0 0 246 104" fill="none" xmlns="http://www.w3.org/2000/svg">
<g filter="url(#filter0_d_20_234)">
<g filter="url(#filter1_b_20_234)">
<rect x="24" y="16" width="198" height="56" rx="6" fill="url(#paint0_radial_20_234)"/>
</g>
<path d="M31.9286 37.6323L49.4316 46.7354C49.6072 46.8267 49.8022 46.8743 50 46.8743C50.1979 46.8743 50.3929 46.8267 50.5685 46.7354L68.0715 37.6339V53.4464C68.0716 54.8102 67.5498 56.1224 66.6132 57.1137C65.6765 58.105 64.3961 58.7003 63.0345 58.7775L62.7322 58.7857H37.2679C35.9041 58.7858 34.592 58.264 33.6007 57.3274C32.6094 56.3908 32.014 55.1103 31.9368 53.7487L31.9286 53.4464V37.6323ZM37.2679 29.2143H62.7322C64.096 29.2142 65.4081 29.736 66.3994 30.6726C67.3907 31.6092 67.986 32.8897 68.0633 34.2513L68.0715 34.5536V34.8559L50 44.253L31.9286 34.8559V34.5536C31.9285 33.1898 32.4503 31.8776 33.3869 30.8863C34.3236 29.895 35.604 29.2997 36.9656 29.2225L37.2679 29.2143H62.7322H37.2679Z" fill="#FF7243"/>
<path d="M82.27 41.12C81.22 41.12 80.27 40.89 79.42 40.43C78.58 39.96 77.92 39.32 77.44 38.51C76.96 37.69 76.72 36.77 76.72 35.75C76.72 34.73 76.96 33.815 77.44 33.005C77.92 32.185 78.585 31.545 79.435 31.085C80.285 30.615 81.235 30.38 82.285 30.38C83.105 30.38 83.855 30.52 84.535 30.8C85.215 31.07 85.795 31.475 86.275 32.015L85.3 32.96C84.51 32.13 83.525 31.715 82.345 31.715C81.565 31.715 80.86 31.89 80.23 32.24C79.6 32.59 79.105 33.075 78.745 33.695C78.395 34.305 78.22 34.99 78.22 35.75C78.22 36.51 78.395 37.2 78.745 37.82C79.105 38.43 79.6 38.91 80.23 39.26C80.86 39.61 81.565 39.785 82.345 39.785C83.515 39.785 84.5 39.365 85.3 38.525L86.275 39.47C85.795 40.01 85.21 40.42 84.52 40.7C83.84 40.98 83.09 41.12 82.27 41.12ZM91.2729 41.09C90.4829 41.09 89.7729 40.915 89.1429 40.565C88.5129 40.215 88.0179 39.735 87.6579 39.125C87.3079 38.505 87.1329 37.805 87.1329 37.025C87.1329 36.245 87.3079 35.55 87.6579 34.94C88.0179 34.32 88.5129 33.84 89.1429 33.5C89.7729 33.15 90.4829 32.975 91.2729 32.975C92.0629 32.975 92.7679 33.15 93.3879 33.5C94.0179 33.84 94.5079 34.32 94.8579 34.94C95.2179 35.55 95.3979 36.245 95.3979 37.025C95.3979 37.805 95.2179 38.505 94.8579 39.125C94.5079 39.735 94.0179 40.215 93.3879 40.565C92.7679 40.915 92.0629 41.09 91.2729 41.09ZM91.2729 39.83C91.7829 39.83 92.2379 39.715 92.6379 39.485C93.0479 39.245 93.3679 38.915 93.5979 38.495C93.8279 38.065 93.9429 37.575 93.9429 37.025C93.9429 36.475 93.8279 35.99 93.5979 35.57C93.3679 35.14 93.0479 34.81 92.6379 34.58C92.2379 34.35 91.7829 34.235 91.2729 34.235C90.7629 34.235 90.3029 34.35 89.8929 34.58C89.4929 34.81 89.1729 35.14 88.9329 35.57C88.7029 35.99 88.5879 36.475 88.5879 37.025C88.5879 37.575 88.7029 38.065 88.9329 38.495C89.1729 38.915 89.4929 39.245 89.8929 39.485C90.3029 39.715 90.7629 39.83 91.2729 39.83ZM101.634 32.975C102.644 32.975 103.444 33.27 104.034 33.86C104.634 34.44 104.934 35.295 104.934 36.425V41H103.494V36.59C103.494 35.82 103.309 35.24 102.939 34.85C102.569 34.46 102.039 34.265 101.349 34.265C100.569 34.265 99.9544 34.495 99.5044 34.955C99.0544 35.405 98.8294 36.055 98.8294 36.905V41H97.3894V33.05H98.7694V34.25C99.0594 33.84 99.4494 33.525 99.9394 33.305C100.439 33.085 101.004 32.975 101.634 32.975ZM115.248 33.05V39.92C115.248 41.31 114.903 42.335 114.213 42.995C113.523 43.665 112.493 44 111.123 44C110.373 44 109.658 43.895 108.978 43.685C108.298 43.485 107.748 43.195 107.328 42.815L108.018 41.705C108.388 42.025 108.843 42.275 109.383 42.455C109.933 42.645 110.498 42.74 111.078 42.74C112.008 42.74 112.693 42.52 113.133 42.08C113.583 41.64 113.808 40.97 113.808 40.07V39.44C113.468 39.85 113.048 40.16 112.548 40.37C112.058 40.57 111.523 40.67 110.943 40.67C110.183 40.67 109.493 40.51 108.873 40.19C108.263 39.86 107.783 39.405 107.433 38.825C107.083 38.235 106.908 37.565 106.908 36.815C106.908 36.065 107.083 35.4 107.433 34.82C107.783 34.23 108.263 33.775 108.873 33.455C109.493 33.135 110.183 32.975 110.943 32.975C111.543 32.975 112.098 33.085 112.608 33.305C113.128 33.525 113.553 33.85 113.883 34.28V33.05H115.248ZM111.108 39.41C111.628 39.41 112.093 39.3 112.503 39.08C112.923 38.86 113.248 38.555 113.478 38.165C113.718 37.765 113.838 37.315 113.838 36.815C113.838 36.045 113.583 35.425 113.073 34.955C112.563 34.475 111.908 34.235 111.108 34.235C110.298 34.235 109.638 34.475 109.128 34.955C108.618 35.425 108.363 36.045 108.363 36.815C108.363 37.315 108.478 37.765 108.708 38.165C108.948 38.555 109.273 38.86 109.683 39.08C110.103 39.3 110.578 39.41 111.108 39.41ZM119.38 34.385C119.63 33.925 120 33.575 120.49 33.335C120.98 33.095 121.575 32.975 122.275 32.975V34.37C122.195 34.36 122.085 34.355 121.945 34.355C121.165 34.355 120.55 34.59 120.1 35.06C119.66 35.52 119.44 36.18 119.44 37.04V41H118V33.05H119.38V34.385ZM126.93 32.975C128.03 32.975 128.87 33.245 129.45 33.785C130.04 34.325 130.335 35.13 130.335 36.2V41H128.97V39.95C128.73 40.32 128.385 40.605 127.935 40.805C127.495 40.995 126.97 41.09 126.36 41.09C125.47 41.09 124.755 40.875 124.215 40.445C123.685 40.015 123.42 39.45 123.42 38.75C123.42 38.05 123.675 37.49 124.185 37.07C124.695 36.64 125.505 36.425 126.615 36.425H128.895V36.14C128.895 35.52 128.715 35.045 128.355 34.715C127.995 34.385 127.465 34.22 126.765 34.22C126.295 34.22 125.835 34.3 125.385 34.46C124.935 34.61 124.555 34.815 124.245 35.075L123.645 33.995C124.055 33.665 124.545 33.415 125.115 33.245C125.685 33.065 126.29 32.975 126.93 32.975ZM126.6 39.98C127.15 39.98 127.625 39.86 128.025 39.62C128.425 39.37 128.715 39.02 128.895 38.57V37.46H126.675C125.455 37.46 124.845 37.87 124.845 38.69C124.845 39.09 125 39.405 125.31 39.635C125.62 39.865 126.05 39.98 126.6 39.98ZM137.47 40.535C137.26 40.715 137 40.855 136.69 40.955C136.38 41.045 136.06 41.09 135.73 41.09C134.93 41.09 134.31 40.875 133.87 40.445C133.43 40.015 133.21 39.4 133.21 38.6V34.235H131.86V33.05H133.21V31.31H134.65V33.05H136.93V34.235H134.65V38.54C134.65 38.97 134.755 39.3 134.965 39.53C135.185 39.76 135.495 39.875 135.895 39.875C136.335 39.875 136.71 39.75 137.02 39.5L137.47 40.535ZM146.621 33.05V41H145.256V39.8C144.966 40.21 144.581 40.53 144.101 40.76C143.631 40.98 143.116 41.09 142.556 41.09C141.496 41.09 140.661 40.8 140.051 40.22C139.441 39.63 139.136 38.765 139.136 37.625V33.05H140.576V37.46C140.576 38.23 140.761 38.815 141.131 39.215C141.501 39.605 142.031 39.8 142.721 39.8C143.481 39.8 144.081 39.57 144.521 39.11C144.961 38.65 145.181 38 145.181 37.16V33.05H146.621ZM149.362 29.87H150.802V41H149.362V29.87ZM156.447 32.975C157.547 32.975 158.387 33.245 158.967 33.785C159.557 34.325 159.852 35.13 159.852 36.2V41H158.487V39.95C158.247 40.32 157.902 40.605 157.452 40.805C157.012 40.995 156.487 41.09 155.877 41.09C154.987 41.09 154.272 40.875 153.732 40.445C153.202 40.015 152.937 39.45 152.937 38.75C152.937 38.05 153.192 37.49 153.702 37.07C154.212 36.64 155.022 36.425 156.132 36.425H158.412V36.14C158.412 35.52 158.232 35.045 157.872 34.715C157.512 34.385 156.982 34.22 156.282 34.22C155.812 34.22 155.352 34.3 154.902 34.46C154.452 34.61 154.072 34.815 153.762 35.075L153.162 33.995C153.572 33.665 154.062 33.415 154.632 33.245C155.202 33.065 155.807 32.975 156.447 32.975ZM156.117 39.98C156.667 39.98 157.142 39.86 157.542 39.62C157.942 39.37 158.232 39.02 158.412 38.57V37.46H156.192C154.972 37.46 154.362 37.87 154.362 38.69C154.362 39.09 154.517 39.405 154.827 39.635C155.137 39.865 155.567 39.98 156.117 39.98ZM166.986 40.535C166.776 40.715 166.516 40.855 166.206 40.955C165.896 41.045 165.576 41.09 165.246 41.09C164.446 41.09 163.826 40.875 163.386 40.445C162.946 40.015 162.726 39.4 162.726 38.6V34.235H161.376V33.05H162.726V31.31H164.166V33.05H166.446V34.235H164.166V38.54C164.166 38.97 164.271 39.3 164.481 39.53C164.701 39.76 165.011 39.875 165.411 39.875C165.851 39.875 166.226 39.75 166.536 39.5L166.986 40.535ZM168.727 33.05H170.167V41H168.727V33.05ZM169.447 31.52C169.167 31.52 168.932 31.43 168.742 31.25C168.562 31.07 168.472 30.85 168.472 30.59C168.472 30.33 168.562 30.11 168.742 29.93C168.932 29.74 169.167 29.645 169.447 29.645C169.727 29.645 169.957 29.735 170.137 29.915C170.327 30.085 170.422 30.3 170.422 30.56C170.422 30.83 170.327 31.06 170.137 31.25C169.957 31.43 169.727 31.52 169.447 31.52ZM176.322 41.09C175.532 41.09 174.822 40.915 174.192 40.565C173.562 40.215 173.067 39.735 172.707 39.125C172.357 38.505 172.182 37.805 172.182 37.025C172.182 36.245 172.357 35.55 172.707 34.94C173.067 34.32 173.562 33.84 174.192 33.5C174.822 33.15 175.532 32.975 176.322 32.975C177.112 32.975 177.817 33.15 178.437 33.5C179.067 33.84 179.557 34.32 179.907 34.94C180.267 35.55 180.447 36.245 180.447 37.025C180.447 37.805 180.267 38.505 179.907 39.125C179.557 39.735 179.067 40.215 178.437 40.565C177.817 40.915 177.112 41.09 176.322 41.09ZM176.322 39.83C176.832 39.83 177.287 39.715 177.687 39.485C178.097 39.245 178.417 38.915 178.647 38.495C178.877 38.065 178.992 37.575 178.992 37.025C178.992 36.475 178.877 35.99 178.647 35.57C178.417 35.14 178.097 34.81 177.687 34.58C177.287 34.35 176.832 34.235 176.322 34.235C175.812 34.235 175.352 34.35 174.942 34.58C174.542 34.81 174.222 35.14 173.982 35.57C173.752 35.99 173.637 36.475 173.637 37.025C173.637 37.575 173.752 38.065 173.982 38.495C174.222 38.915 174.542 39.245 174.942 39.485C175.352 39.715 175.812 39.83 176.322 39.83ZM186.683 32.975C187.693 32.975 188.493 33.27 189.083 33.86C189.683 34.44 189.983 35.295 189.983 36.425V41H188.543V36.59C188.543 35.82 188.358 35.24 187.988 34.85C187.618 34.46 187.088 34.265 186.398 34.265C185.618 34.265 185.003 34.495 184.553 34.955C184.103 35.405 183.878 36.055 183.878 36.905V41H182.438V33.05H183.818V34.25C184.108 33.84 184.498 33.525 184.988 33.305C185.488 33.085 186.053 32.975 186.683 32.975ZM192.453 30.5H194.148L193.863 37.685H192.723L192.453 30.5ZM193.308 41.09C193.028 41.09 192.793 41 192.603 40.82C192.413 40.63 192.318 40.4 192.318 40.13C192.318 39.86 192.413 39.635 192.603 39.455C192.793 39.265 193.028 39.17 193.308 39.17C193.588 39.17 193.818 39.265 193.998 39.455C194.178 39.635 194.268 39.86 194.268 40.13C194.268 40.4 194.173 40.63 193.983 40.82C193.803 41 193.578 41.09 193.308 41.09Z" fill="#3D3D3D"/>
<path d="M78.2383 53.1445L79.7617 50.2891H80.4805L78.5742 53.7852V56H77.9023V53.8164L76 50.2891H76.7266L78.2383 53.1445ZM84.8672 53.8555C84.8672 54.5534 84.6914 55.099 84.3398 55.4922C83.9883 55.8828 83.5026 56.0781 82.8828 56.0781C82.5 56.0781 82.1602 55.9883 81.8633 55.8086C81.5664 55.6289 81.3372 55.3711 81.1758 55.0352C81.0143 54.6992 80.9336 54.306 80.9336 53.8555C80.9336 53.1576 81.1081 52.6146 81.457 52.2266C81.806 51.8359 82.2904 51.6406 82.9102 51.6406C83.5091 51.6406 83.9844 51.8398 84.3359 52.2383C84.6901 52.6367 84.8672 53.1758 84.8672 53.8555ZM81.6055 53.8555C81.6055 54.4023 81.7148 54.819 81.9336 55.1055C82.1523 55.3919 82.474 55.5352 82.8984 55.5352C83.3229 55.5352 83.6445 55.3932 83.8633 55.1094C84.0846 54.8229 84.1953 54.4049 84.1953 53.8555C84.1953 53.3112 84.0846 52.8984 83.8633 52.6172C83.6445 52.3333 83.3203 52.1914 82.8906 52.1914C82.4661 52.1914 82.1458 52.3307 81.9297 52.6094C81.7135 52.888 81.6055 53.3034 81.6055 53.8555ZM86.6172 51.7188V54.4961C86.6172 54.8451 86.6966 55.1055 86.8555 55.2773C87.0143 55.4492 87.263 55.5352 87.6016 55.5352C88.0495 55.5352 88.3763 55.4128 88.582 55.168C88.7904 54.9232 88.8945 54.5234 88.8945 53.9688V51.7188H89.543V56H89.0078L88.9141 55.4258H88.8789C88.7461 55.6367 88.5612 55.7982 88.3242 55.9102C88.0898 56.0221 87.8216 56.0781 87.5195 56.0781C86.9987 56.0781 86.6081 55.9544 86.3477 55.707C86.0898 55.4596 85.9609 55.0638 85.9609 54.5195V51.7188H86.6172ZM92.875 51.6406C93.0651 51.6406 93.2357 51.6562 93.3867 51.6875L93.2969 52.2891C93.1198 52.25 92.9635 52.2305 92.8281 52.2305C92.4818 52.2305 92.1849 52.3711 91.9375 52.6523C91.6927 52.9336 91.5703 53.2839 91.5703 53.7031V56H90.9219V51.7188H91.457L91.5312 52.5117H91.5625C91.7214 52.2331 91.9128 52.0182 92.1367 51.8672C92.3607 51.7161 92.6068 51.6406 92.875 51.6406ZM99.9531 56L99.2422 54.1836H96.9531L96.25 56H95.5781L97.8359 50.2656H98.3945L100.641 56H99.9531ZM99.0352 53.5859L98.3711 51.8164C98.2852 51.5924 98.1966 51.3177 98.1055 50.9922C98.0482 51.2422 97.9661 51.5169 97.8594 51.8164L97.1875 53.5859H99.0352ZM104.242 55.4258H104.207C103.908 55.8607 103.46 56.0781 102.863 56.0781C102.303 56.0781 101.867 55.8867 101.555 55.5039C101.245 55.1211 101.09 54.5768 101.09 53.8711C101.09 53.1654 101.246 52.6172 101.559 52.2266C101.871 51.8359 102.306 51.6406 102.863 51.6406C103.444 51.6406 103.889 51.8516 104.199 52.2734H104.25L104.223 51.9648L104.207 51.6641V49.9219H104.855V56H104.328L104.242 55.4258ZM102.945 55.5352C103.388 55.5352 103.708 55.4154 103.906 55.1758C104.107 54.9336 104.207 54.5443 104.207 54.0078V53.8711C104.207 53.2643 104.105 52.832 103.902 52.5742C103.702 52.3138 103.38 52.1836 102.938 52.1836C102.557 52.1836 102.266 52.332 102.062 52.6289C101.862 52.9232 101.762 53.3398 101.762 53.8789C101.762 54.4258 101.862 54.8385 102.062 55.1172C102.263 55.3958 102.557 55.5352 102.945 55.5352ZM109.148 55.4258H109.113C108.814 55.8607 108.366 56.0781 107.77 56.0781C107.21 56.0781 106.773 55.8867 106.461 55.5039C106.151 55.1211 105.996 54.5768 105.996 53.8711C105.996 53.1654 106.152 52.6172 106.465 52.2266C106.777 51.8359 107.212 51.6406 107.77 51.6406C108.35 51.6406 108.796 51.8516 109.105 52.2734H109.156L109.129 51.9648L109.113 51.6641V49.9219H109.762V56H109.234L109.148 55.4258ZM107.852 55.5352C108.294 55.5352 108.615 55.4154 108.812 55.1758C109.013 54.9336 109.113 54.5443 109.113 54.0078V53.8711C109.113 53.2643 109.012 52.832 108.809 52.5742C108.608 52.3138 108.286 52.1836 107.844 52.1836C107.464 52.1836 107.172 52.332 106.969 52.6289C106.768 52.9232 106.668 53.3398 106.668 53.8789C106.668 54.4258 106.768 54.8385 106.969 55.1172C107.169 55.3958 107.464 55.5352 107.852 55.5352ZM116.598 56V53.2148C116.598 52.8737 116.525 52.6185 116.379 52.4492C116.233 52.2773 116.007 52.1914 115.699 52.1914C115.296 52.1914 114.997 52.3073 114.805 52.5391C114.612 52.7708 114.516 53.1276 114.516 53.6094V56H113.867V53.2148C113.867 52.8737 113.794 52.6185 113.648 52.4492C113.503 52.2773 113.275 52.1914 112.965 52.1914C112.559 52.1914 112.26 52.3138 112.07 52.5586C111.883 52.8008 111.789 53.1992 111.789 53.7539V56H111.141V51.7188H111.668L111.773 52.3047H111.805C111.927 52.0964 112.099 51.9336 112.32 51.8164C112.544 51.6992 112.794 51.6406 113.07 51.6406C113.74 51.6406 114.177 51.8828 114.383 52.3672H114.414C114.542 52.1432 114.727 51.9661 114.969 51.8359C115.211 51.7057 115.487 51.6406 115.797 51.6406C116.281 51.6406 116.643 51.7656 116.883 52.0156C117.125 52.263 117.246 52.6602 117.246 53.207V56H116.598ZM119.234 56H118.586V51.7188H119.234V56ZM118.531 50.5586C118.531 50.4102 118.568 50.3021 118.641 50.2344C118.714 50.1641 118.805 50.1289 118.914 50.1289C119.018 50.1289 119.108 50.1641 119.184 50.2344C119.259 50.3047 119.297 50.4128 119.297 50.5586C119.297 50.7044 119.259 50.8138 119.184 50.8867C119.108 50.957 119.018 50.9922 118.914 50.9922C118.805 50.9922 118.714 50.957 118.641 50.8867C118.568 50.8138 118.531 50.7044 118.531 50.5586ZM123.371 54.832C123.371 55.2305 123.223 55.5378 122.926 55.7539C122.629 55.9701 122.212 56.0781 121.676 56.0781C121.108 56.0781 120.665 55.9883 120.348 55.8086V55.207C120.553 55.3112 120.773 55.3932 121.008 55.4531C121.245 55.513 121.473 55.543 121.691 55.543C122.03 55.543 122.29 55.4896 122.473 55.3828C122.655 55.2734 122.746 55.1081 122.746 54.8867C122.746 54.7201 122.673 54.5781 122.527 54.4609C122.384 54.3411 122.103 54.2005 121.684 54.0391C121.285 53.8906 121.001 53.7617 120.832 53.6523C120.665 53.5404 120.54 53.4141 120.457 53.2734C120.376 53.1328 120.336 52.9648 120.336 52.7695C120.336 52.4206 120.478 52.1458 120.762 51.9453C121.046 51.7422 121.435 51.6406 121.93 51.6406C122.391 51.6406 122.841 51.7344 123.281 51.9219L123.051 52.4492C122.621 52.2721 122.232 52.1836 121.883 52.1836C121.576 52.1836 121.344 52.2318 121.188 52.3281C121.031 52.4245 120.953 52.5573 120.953 52.7266C120.953 52.8411 120.982 52.9388 121.039 53.0195C121.099 53.1003 121.194 53.1771 121.324 53.25C121.454 53.3229 121.704 53.4284 122.074 53.5664C122.582 53.7513 122.924 53.9375 123.102 54.125C123.281 54.3125 123.371 54.5482 123.371 54.832ZM127.191 54.832C127.191 55.2305 127.043 55.5378 126.746 55.7539C126.449 55.9701 126.033 56.0781 125.496 56.0781C124.928 56.0781 124.486 55.9883 124.168 55.8086V55.207C124.374 55.3112 124.594 55.3932 124.828 55.4531C125.065 55.513 125.293 55.543 125.512 55.543C125.85 55.543 126.111 55.4896 126.293 55.3828C126.475 55.2734 126.566 55.1081 126.566 54.8867C126.566 54.7201 126.493 54.5781 126.348 54.4609C126.204 54.3411 125.923 54.2005 125.504 54.0391C125.105 53.8906 124.822 53.7617 124.652 53.6523C124.486 53.5404 124.361 53.4141 124.277 53.2734C124.197 53.1328 124.156 52.9648 124.156 52.7695C124.156 52.4206 124.298 52.1458 124.582 51.9453C124.866 51.7422 125.255 51.6406 125.75 51.6406C126.211 51.6406 126.661 51.7344 127.102 51.9219L126.871 52.4492C126.441 52.2721 126.052 52.1836 125.703 52.1836C125.396 52.1836 125.164 52.2318 125.008 52.3281C124.852 52.4245 124.773 52.5573 124.773 52.7266C124.773 52.8411 124.802 52.9388 124.859 53.0195C124.919 53.1003 125.014 53.1771 125.145 53.25C125.275 53.3229 125.525 53.4284 125.895 53.5664C126.402 53.7513 126.745 53.9375 126.922 54.125C127.102 54.3125 127.191 54.5482 127.191 54.832ZM128.898 56H128.25V51.7188H128.898V56ZM128.195 50.5586C128.195 50.4102 128.232 50.3021 128.305 50.2344C128.378 50.1641 128.469 50.1289 128.578 50.1289C128.682 50.1289 128.772 50.1641 128.848 50.2344C128.923 50.3047 128.961 50.4128 128.961 50.5586C128.961 50.7044 128.923 50.8138 128.848 50.8867C128.772 50.957 128.682 50.9922 128.578 50.9922C128.469 50.9922 128.378 50.957 128.305 50.8867C128.232 50.8138 128.195 50.7044 128.195 50.5586ZM133.969 53.8555C133.969 54.5534 133.793 55.099 133.441 55.4922C133.09 55.8828 132.604 56.0781 131.984 56.0781C131.602 56.0781 131.262 55.9883 130.965 55.8086C130.668 55.6289 130.439 55.3711 130.277 55.0352C130.116 54.6992 130.035 54.306 130.035 53.8555C130.035 53.1576 130.21 52.6146 130.559 52.2266C130.908 51.8359 131.392 51.6406 132.012 51.6406C132.611 51.6406 133.086 51.8398 133.438 52.2383C133.792 52.6367 133.969 53.1758 133.969 53.8555ZM130.707 53.8555C130.707 54.4023 130.816 54.819 131.035 55.1055C131.254 55.3919 131.576 55.5352 132 55.5352C132.424 55.5352 132.746 55.3932 132.965 55.1094C133.186 54.8229 133.297 54.4049 133.297 53.8555C133.297 53.3112 133.186 52.8984 132.965 52.6172C132.746 52.3333 132.422 52.1914 131.992 52.1914C131.568 52.1914 131.247 52.3307 131.031 52.6094C130.815 52.888 130.707 53.3034 130.707 53.8555ZM138.039 56V53.2305C138.039 52.8815 137.96 52.6211 137.801 52.4492C137.642 52.2773 137.393 52.1914 137.055 52.1914C136.607 52.1914 136.279 52.3125 136.07 52.5547C135.862 52.7969 135.758 53.1966 135.758 53.7539V56H135.109V51.7188H135.637L135.742 52.3047H135.773C135.906 52.0938 136.092 51.931 136.332 51.8164C136.572 51.6992 136.839 51.6406 137.133 51.6406C137.648 51.6406 138.036 51.7656 138.297 52.0156C138.557 52.263 138.688 52.6602 138.688 53.207V56H138.039ZM142.199 56V50.2891H142.863V56H142.199ZM147.098 54.832C147.098 55.2305 146.949 55.5378 146.652 55.7539C146.355 55.9701 145.939 56.0781 145.402 56.0781C144.835 56.0781 144.392 55.9883 144.074 55.8086V55.207C144.28 55.3112 144.5 55.3932 144.734 55.4531C144.971 55.513 145.199 55.543 145.418 55.543C145.757 55.543 146.017 55.4896 146.199 55.3828C146.382 55.2734 146.473 55.1081 146.473 54.8867C146.473 54.7201 146.4 54.5781 146.254 54.4609C146.111 54.3411 145.829 54.2005 145.41 54.0391C145.012 53.8906 144.728 53.7617 144.559 53.6523C144.392 53.5404 144.267 53.4141 144.184 53.2734C144.103 53.1328 144.062 52.9648 144.062 52.7695C144.062 52.4206 144.204 52.1458 144.488 51.9453C144.772 51.7422 145.161 51.6406 145.656 51.6406C146.117 51.6406 146.568 51.7344 147.008 51.9219L146.777 52.4492C146.348 52.2721 145.958 52.1836 145.609 52.1836C145.302 52.1836 145.07 52.2318 144.914 52.3281C144.758 52.4245 144.68 52.5573 144.68 52.7266C144.68 52.8411 144.708 52.9388 144.766 53.0195C144.826 53.1003 144.921 53.1771 145.051 53.25C145.181 53.3229 145.431 53.4284 145.801 53.5664C146.309 53.7513 146.651 53.9375 146.828 54.125C147.008 54.3125 147.098 54.5482 147.098 54.832ZM152.777 50.8008C152.15 50.8008 151.654 51.0104 151.289 51.4297C150.927 51.8464 150.746 52.418 150.746 53.1445C150.746 53.8919 150.921 54.4701 151.27 54.8789C151.621 55.2852 152.121 55.4883 152.77 55.4883C153.168 55.4883 153.622 55.4167 154.133 55.2734V55.8555C153.737 56.0039 153.249 56.0781 152.668 56.0781C151.827 56.0781 151.177 55.8229 150.719 55.3125C150.263 54.8021 150.035 54.0768 150.035 53.1367C150.035 52.5482 150.145 52.0326 150.363 51.5898C150.585 51.1471 150.902 50.806 151.316 50.5664C151.733 50.3268 152.223 50.207 152.785 50.207C153.384 50.207 153.908 50.3164 154.355 50.5352L154.074 51.1055C153.642 50.9023 153.21 50.8008 152.777 50.8008ZM158.977 53.8555C158.977 54.5534 158.801 55.099 158.449 55.4922C158.098 55.8828 157.612 56.0781 156.992 56.0781C156.609 56.0781 156.27 55.9883 155.973 55.8086C155.676 55.6289 155.447 55.3711 155.285 55.0352C155.124 54.6992 155.043 54.306 155.043 53.8555C155.043 53.1576 155.217 52.6146 155.566 52.2266C155.915 51.8359 156.4 51.6406 157.02 51.6406C157.618 51.6406 158.094 51.8398 158.445 52.2383C158.799 52.6367 158.977 53.1758 158.977 53.8555ZM155.715 53.8555C155.715 54.4023 155.824 54.819 156.043 55.1055C156.262 55.3919 156.583 55.5352 157.008 55.5352C157.432 55.5352 157.754 55.3932 157.973 55.1094C158.194 54.8229 158.305 54.4049 158.305 53.8555C158.305 53.3112 158.194 52.8984 157.973 52.6172C157.754 52.3333 157.43 52.1914 157 52.1914C156.576 52.1914 156.255 52.3307 156.039 52.6094C155.823 52.888 155.715 53.3034 155.715 53.8555ZM165.574 56V53.2148C165.574 52.8737 165.501 52.6185 165.355 52.4492C165.21 52.2773 164.983 52.1914 164.676 52.1914C164.272 52.1914 163.974 52.3073 163.781 52.5391C163.589 52.7708 163.492 53.1276 163.492 53.6094V56H162.844V53.2148C162.844 52.8737 162.771 52.6185 162.625 52.4492C162.479 52.2773 162.251 52.1914 161.941 52.1914C161.535 52.1914 161.237 52.3138 161.047 52.5586C160.859 52.8008 160.766 53.1992 160.766 53.7539V56H160.117V51.7188H160.645L160.75 52.3047H160.781C160.904 52.0964 161.076 51.9336 161.297 51.8164C161.521 51.6992 161.771 51.6406 162.047 51.6406C162.716 51.6406 163.154 51.8828 163.359 52.3672H163.391C163.518 52.1432 163.703 51.9661 163.945 51.8359C164.188 51.7057 164.464 51.6406 164.773 51.6406C165.258 51.6406 165.62 51.7656 165.859 52.0156C166.102 52.263 166.223 52.6602 166.223 53.207V56H165.574ZM169.555 56.0781C169.276 56.0781 169.021 56.0273 168.789 55.9258C168.56 55.8216 168.367 55.6628 168.211 55.4492H168.164C168.195 55.6992 168.211 55.9362 168.211 56.1602V57.9219H167.562V51.7188H168.09L168.18 52.3047H168.211C168.378 52.0703 168.572 51.901 168.793 51.7969C169.014 51.6927 169.268 51.6406 169.555 51.6406C170.122 51.6406 170.56 51.8346 170.867 52.2227C171.177 52.6107 171.332 53.1549 171.332 53.8555C171.332 54.5586 171.174 55.1055 170.859 55.4961C170.547 55.8841 170.112 56.0781 169.555 56.0781ZM169.461 52.1914C169.023 52.1914 168.707 52.3125 168.512 52.5547C168.316 52.7969 168.216 53.1823 168.211 53.7109V53.8555C168.211 54.457 168.311 54.888 168.512 55.1484C168.712 55.4062 169.034 55.5352 169.477 55.5352C169.846 55.5352 170.135 55.3854 170.344 55.0859C170.555 54.7865 170.66 54.3737 170.66 53.8477C170.66 53.3138 170.555 52.9049 170.344 52.6211C170.135 52.3346 169.841 52.1914 169.461 52.1914ZM173.117 56H172.469V49.9219H173.117V56ZM176.301 56.0781C175.668 56.0781 175.168 55.8854 174.801 55.5C174.436 55.1146 174.254 54.5794 174.254 53.8945C174.254 53.2044 174.423 52.6562 174.762 52.25C175.103 51.8438 175.56 51.6406 176.133 51.6406C176.669 51.6406 177.094 51.8177 177.406 52.1719C177.719 52.5234 177.875 52.9883 177.875 53.5664V53.9766H174.926C174.939 54.4792 175.065 54.8607 175.305 55.1211C175.547 55.3815 175.887 55.5117 176.324 55.5117C176.785 55.5117 177.241 55.4154 177.691 55.2227V55.8008C177.462 55.8997 177.245 55.9701 177.039 56.0117C176.836 56.056 176.59 56.0781 176.301 56.0781ZM176.125 52.1836C175.781 52.1836 175.507 52.2956 175.301 52.5195C175.098 52.7435 174.978 53.0534 174.941 53.4492H177.18C177.18 53.0404 177.089 52.7279 176.906 52.5117C176.724 52.293 176.464 52.1836 176.125 52.1836ZM180.367 55.543C180.482 55.543 180.592 55.5352 180.699 55.5195C180.806 55.5013 180.891 55.4831 180.953 55.4648V55.9609C180.883 55.9948 180.779 56.0221 180.641 56.043C180.505 56.0664 180.383 56.0781 180.273 56.0781C179.445 56.0781 179.031 55.6419 179.031 54.7695V52.2227H178.418V51.9102L179.031 51.6406L179.305 50.7266H179.68V51.7188H180.922V52.2227H179.68V54.7422C179.68 55 179.741 55.1979 179.863 55.3359C179.986 55.474 180.154 55.543 180.367 55.543ZM183.621 56.0781C182.988 56.0781 182.488 55.8854 182.121 55.5C181.757 55.1146 181.574 54.5794 181.574 53.8945C181.574 53.2044 181.743 52.6562 182.082 52.25C182.423 51.8438 182.88 51.6406 183.453 51.6406C183.99 51.6406 184.414 51.8177 184.727 52.1719C185.039 52.5234 185.195 52.9883 185.195 53.5664V53.9766H182.246C182.259 54.4792 182.385 54.8607 182.625 55.1211C182.867 55.3815 183.207 55.5117 183.645 55.5117C184.105 55.5117 184.561 55.4154 185.012 55.2227V55.8008C184.783 55.8997 184.565 55.9701 184.359 56.0117C184.156 56.056 183.91 56.0781 183.621 56.0781ZM183.445 52.1836C183.102 52.1836 182.827 52.2956 182.621 52.5195C182.418 52.7435 182.298 53.0534 182.262 53.4492H184.5C184.5 53.0404 184.409 52.7279 184.227 52.5117C184.044 52.293 183.784 52.1836 183.445 52.1836ZM189.219 55.4258H189.184C188.884 55.8607 188.436 56.0781 187.84 56.0781C187.28 56.0781 186.844 55.8867 186.531 55.5039C186.221 55.1211 186.066 54.5768 186.066 53.8711C186.066 53.1654 186.223 52.6172 186.535 52.2266C186.848 51.8359 187.283 51.6406 187.84 51.6406C188.421 51.6406 188.866 51.8516 189.176 52.2734H189.227L189.199 51.9648L189.184 51.6641V49.9219H189.832V56H189.305L189.219 55.4258ZM187.922 55.5352C188.365 55.5352 188.685 55.4154 188.883 55.1758C189.083 54.9336 189.184 54.5443 189.184 54.0078V53.8711C189.184 53.2643 189.082 52.832 188.879 52.5742C188.678 52.3138 188.357 52.1836 187.914 52.1836C187.534 52.1836 187.242 52.332 187.039 52.6289C186.839 52.9232 186.738 53.3398 186.738 53.8789C186.738 54.4258 186.839 54.8385 187.039 55.1172C187.24 55.3958 187.534 55.5352 187.922 55.5352Z" fill="#3D3D3D"/>
<path fill-rule="evenodd" clip-rule="evenodd" d="M205 30.5C201.963 30.5 199.5 32.9625 199.5 36C199.5 39.0375 201.963 41.5 205 41.5C208.038 41.5 210.5 39.0375 210.5 36C210.5 32.9625 208.038 30.5 205 30.5ZM207.384 35.07C207.428 35.0198 207.461 34.9614 207.482 34.8981C207.503 34.8348 207.511 34.768 207.506 34.7015C207.501 34.635 207.482 34.5703 207.452 34.5111C207.421 34.4518 207.379 34.3994 207.328 34.3567C207.277 34.314 207.217 34.282 207.154 34.2625C207.09 34.2431 207.023 34.2366 206.957 34.2434C206.89 34.2502 206.826 34.2703 206.767 34.3023C206.709 34.3344 206.658 34.3778 206.616 34.43L204.466 37.0095L203.354 35.8965C203.259 35.8054 203.133 35.755 203.002 35.7562C202.871 35.7573 202.745 35.8099 202.653 35.9026C202.56 35.9953 202.507 36.1207 202.506 36.2518C202.505 36.3829 202.555 36.5092 202.647 36.6035L204.147 38.1035C204.196 38.1526 204.255 38.1909 204.319 38.216C204.384 38.2411 204.453 38.2525 204.523 38.2493C204.592 38.2462 204.66 38.2286 204.722 38.1977C204.784 38.1668 204.84 38.1233 204.884 38.07L207.384 35.07Z" fill="#3CD278"/>
</g>
<defs>
<filter id="filter0_d_20_234" x="0" y="0" width="246" height="104" filterUnits="userSpaceOnUse" color-interpolation-filters="sRGB">
<feFlood flood-opacity="0" result="BackgroundImageFix"/>
<feColorMatrix in="SourceAlpha" type="matrix" values="0 0 0 0 0 0 0 0 0 0 0 0 0 0 0 0 0 0 127 0" result="hardAlpha"/>
<feOffset dy="8"/>
<feGaussianBlur stdDeviation="12"/>
<feColorMatrix type="matrix" values="0 0 0 0 0.1216 0 0 0 0 0.1216 0 0 0 0 0.1984 0 0 0 0.06 0"/>
<feBlend mode="normal" in2="BackgroundImageFix" result="effect1_dropShadow_20_234"/>
<feBlend mode="normal" in="SourceGraphic" in2="effect1_dropShadow_20_234" result="shape"/>
</filter>
<filter id="filter1_b_20_234" x="0" y="-8" width="246" height="104" filterUnits="userSpaceOnUse" color-interpolation-filters="sRGB">
<feFlood flood-opacity="0" result="BackgroundImageFix"/>
<feGaussianBlur in="BackgroundImage" stdDeviation="12"/>
<feComposite in2="SourceAlpha" operator="in" result="effect1_backgroundBlur_20_234"/>
<feBlend mode="normal" in="SourceGraphic" in2="effect1_backgroundBlur_20_234" result="shape"/>
</filter>
<radialGradient id="paint0_radial_20_234" cx="0" cy="0" r="1" gradientUnits="userSpaceOnUse" gradientTransform="translate(123 44) rotate(90) scale(28 99)">
<stop stop-color="white" stop-opacity="0.49"/>
<stop offset="1" stop-color="white" stop-opacity="0.79"/>
</radialGradient>
</defs>
</svg>
