<svg width="80" height="80" viewBox="0 0 80 80" fill="none" xmlns="http://www.w3.org/2000/svg">
<path d="M38.2811 3.43781C17.1391 3.43781 0 20.5769 0 41.7189C0 42.9392 0.0596875 44.1455 0.171406 45.3367L35.228 79.8787C36.2353 79.9583 37.2533 80 38.2811 80C59.4231 80 76.5622 62.8611 76.5622 41.7189C76.5622 20.5767 59.4231 3.43781 38.2811 3.43781Z" fill="#3B3868"/>
<path d="M23.6283 60.0256C22.8108 60.4976 21.7679 60.3662 21.0919 59.7061L20.9457 59.5631L17.7314 61.4189L24.1139 68.1048C24.2546 68.037 24.3943 67.9654 24.5318 67.8861C27.5429 66.1476 28.5746 62.2973 26.8361 59.2861C26.6722 59.0023 26.4897 58.7364 26.291 58.4884L23.6283 60.0256Z" fill="#D3DCFB"/>
<path d="M24.1128 68.1049C24.2534 68.0371 24.3931 67.9655 24.5306 67.8861C25.6584 67.235 26.5084 66.2875 27.0394 65.1989C23.5356 64.5595 23.0891 61.7617 23.1161 60.2356C22.4084 60.4233 21.6322 60.2349 21.0909 59.7063L20.9447 59.5633L17.7305 61.4191L24.1128 68.1049Z" fill="#BEC8F7"/>
<path d="M8.90332 66.2606C15.3489 73.968 24.7694 79.1014 35.4004 79.8925C35.2685 79.5276 35.0621 79.1834 34.7771 78.8848L17.9075 61.213L10.4758 65.5037C9.96348 65.7995 9.4377 66.0511 8.90332 66.2606Z" fill="#E9EFFF"/>
<path d="M24.3652 67.9776L17.9077 61.213L10.476 65.5037C9.96363 65.7995 9.43785 66.0511 8.90332 66.2606C11.5658 69.4444 14.7371 72.1872 18.2904 74.3678C17.6599 67.6653 24.3652 67.9776 24.3652 67.9776Z" fill="#D3DCFB"/>
<path d="M7.33144 41.3061L5.12254 37.4803C4.45191 36.3187 2.96691 35.9209 1.80535 36.5914C0.643941 37.262 0.245972 38.747 0.916597 39.9086L3.1255 43.7343L7.33144 41.3061Z" fill="#E9EFFF"/>
<path d="M5.35082 37.8752C5.3602 37.966 5.36488 38.0582 5.36488 38.1514C5.36488 39.6328 4.16395 40.8338 2.6827 40.8338C2.12941 40.8338 1.61551 40.6661 1.18848 40.3791L3.12566 43.7344L7.3316 41.3061L5.35082 37.8752Z" fill="#D3DCFB"/>
<path d="M33.3344 53.6255C40.6883 50.6931 48.5754 50.2705 55.9129 52.0619L33.6286 13.4645C31.5113 20.7149 27.2018 27.3338 20.9854 32.2363C21.4432 32.4322 21.8447 32.7699 22.1129 33.2342L33.0339 52.1502C33.3019 52.6145 33.3936 53.1311 33.3344 53.6255Z" fill="#D3DCFB"/>
<path d="M41.4227 26.9642L33.6286 13.4645C31.5113 20.7149 27.2018 27.3338 20.9854 32.2363C21.4432 32.4322 21.8447 32.7699 22.1129 33.2342L27.4313 42.4461C33.6566 37.9424 38.4543 32.5177 41.4227 26.9642Z" fill="#BEC8F7"/>
<path d="M20.9572 59.1227L10.0361 40.2067C9.92406 40.0128 9.84484 39.8092 9.79203 39.6024L0.15625 45.1656C0.881406 53.2894 4.14297 60.6819 9.14516 66.5466C9.65828 66.3419 10.1634 66.0997 10.6559 65.8155L21.3586 59.6364C21.2058 59.4869 21.0692 59.3166 20.9572 59.1227Z" fill="#FF7186"/>
<path d="M14.9719 49.8072L14.7281 48.3336L10.0361 40.2067C9.92406 40.0128 9.84484 39.8092 9.79203 39.6024L0.15625 45.1656C0.505469 49.0788 1.44484 52.8213 2.88219 56.3061C3.24609 53.2225 5.39797 52.3978 5.39797 52.3978C5.39797 52.3978 5.86672 52.1895 9.56469 50.0819C13.2627 47.9742 14.9719 49.8072 14.9719 49.8072Z" fill="#FF4155"/>
<path d="M32.4717 55.2314L23.7632 60.2592C22.6213 60.9184 21.1613 60.5272 20.5021 59.3854L9.58096 40.4695C8.92174 39.3276 9.31299 37.8676 10.4547 37.2084L19.1633 32.1805C20.3052 31.5212 21.7652 31.9125 22.4244 33.0542L33.3455 51.9701C34.0047 53.1122 33.6136 54.5722 32.4717 55.2314Z" fill="#FF4155"/>
<path d="M22.4243 33.0544C21.7651 31.9125 20.3051 31.5214 19.1634 32.1806L10.4548 37.2086C9.31294 37.8678 8.92169 39.3278 9.58107 40.4697L14.9722 49.8072C15.5876 47.0864 17.8451 48.3089 17.8451 48.3089L25.0817 44.1309C25.4161 41.5151 27.7239 42.2331 27.7239 42.2331L22.4243 33.0544Z" fill="#E80054"/>
<path d="M14.4341 41.1903C14.0158 41.1903 13.6091 40.9733 13.385 40.585C13.0508 40.0062 13.2492 39.2661 13.828 38.932L18.9686 35.964C19.5473 35.6298 20.2875 35.8282 20.6215 36.407C20.9558 36.9858 20.7575 37.7259 20.1786 38.06L15.038 41.0279C14.8475 41.1379 14.6394 41.1903 14.4341 41.1903Z" fill="#FF7186"/>
<path d="M16.6646 45.0524C16.2463 45.0524 15.8396 44.8353 15.6155 44.447C15.2813 43.8683 15.4796 43.1281 16.0585 42.7941L21.1989 39.8261C21.7777 39.4917 22.5178 39.6903 22.8519 40.2691C23.1861 40.8478 22.9877 41.588 22.4089 41.922L17.2683 44.89C17.078 45 16.8699 45.0524 16.6646 45.0524Z" fill="#FF7186"/>
<path d="M18.894 48.9142C18.4757 48.9142 18.069 48.6972 17.845 48.3089C17.5107 47.7302 17.7092 46.99 18.2879 46.656L23.4285 43.688C24.0073 43.3536 24.7475 43.5522 25.0815 44.1309C25.4156 44.7097 25.2173 45.4499 24.6385 45.7839L19.4979 48.7519C19.3075 48.8619 19.0993 48.9142 18.894 48.9142Z" fill="#FF7186"/>
<path d="M21.1235 52.7761C20.7053 52.7761 20.2985 52.559 20.0745 52.1707C19.7403 51.592 19.9385 50.8518 20.5174 50.5178L25.6579 47.5498C26.2367 47.2154 26.9768 47.414 27.3109 47.9928C27.6451 48.5715 27.4467 49.3117 26.8679 49.6457L21.7273 52.6137C21.537 52.7237 21.3289 52.7761 21.1235 52.7761Z" fill="#FF7186"/>
<path d="M23.353 56.638C22.9348 56.638 22.528 56.4209 22.304 56.0326C21.9698 55.4539 22.168 54.7137 22.7469 54.3797L27.8876 51.4119C28.4663 51.0775 29.2065 51.2761 29.5405 51.8548C29.8748 52.4336 29.6765 53.1737 29.0976 53.5078L23.9569 56.4758C23.7665 56.5858 23.5583 56.638 23.353 56.638Z" fill="#FF7186"/>
<path d="M69.9698 19.0666C69.7266 19.0666 69.5105 18.95 69.3772 18.7464L67.8323 16.3908C67.6498 16.1125 67.3422 15.9464 67.0094 15.9464H59.4875C58.2312 15.9464 57.2092 14.9242 57.2092 13.668V8.12549H51.8134C50.4272 8.12549 49.293 9.25971 49.293 10.646V21.7938C49.293 23.18 50.4272 24.3141 51.8134 24.3141H54.0567C54.3069 24.3141 54.5402 24.44 54.6773 24.6492L56.2222 27.0049C56.5977 27.5774 57.4369 27.5774 57.8123 27.0049L59.3572 24.6492C59.4944 24.44 59.7277 24.3141 59.9777 24.3141H67.4994C68.8856 24.3141 70.0198 23.1799 70.0198 21.7936V19.0636C70.0033 19.0647 69.9867 19.0666 69.9698 19.0666Z" fill="#FFB332"/>
<path d="M62.1559 22.5136V17.9264C62.1559 17.0353 62.7736 16.2835 63.6012 16.0722V15.9466H59.4877C58.2313 15.9466 57.2092 14.9244 57.2092 13.6681V8.12549H51.8134C50.4272 8.12549 49.293 9.25971 49.293 10.646V21.7938C49.293 23.18 50.4272 24.3141 51.8134 24.3141H54.0567C54.3069 24.3141 54.5402 24.44 54.6773 24.6492L56.2222 27.0049C56.5977 27.5774 57.4369 27.5774 57.8123 27.0049L59.3572 24.6492C59.4944 24.44 59.7277 24.3141 59.9777 24.3141H63.4256C62.688 24.0474 62.1559 23.3405 62.1559 22.5136Z" fill="#FF9100"/>
<path d="M66.6109 35.7445C66.83 35.5255 67.1214 35.4045 67.4312 35.4045C67.7412 35.4045 68.0326 35.5253 68.2517 35.7445L73.1842 40.677L75.9903 37.8708C76.4428 37.4184 77.1789 37.4184 77.6312 37.8708L80.0003 40.2397V30.1508C80.0003 29.3666 79.3646 28.731 78.5804 28.731H63.79C63.0057 28.731 62.3701 29.3666 62.3701 30.1508V39.9852L66.6109 35.7445Z" fill="#8AE1FF"/>
<path d="M67.5336 34.4791V30.606C67.5336 29.5747 68.3773 28.731 69.4086 28.731H63.79C63.0057 28.731 62.3701 29.3666 62.3701 30.1508V39.9852L66.6109 35.7444C66.83 35.5253 67.1214 35.4044 67.4312 35.4044C67.5671 35.4044 67.699 35.4289 67.8234 35.4735C67.6409 35.1847 67.5336 34.8442 67.5336 34.4791Z" fill="#42C3FC"/>
<path d="M79.0896 46.2657C79.0345 46.1785 78.9698 46.0955 78.8939 46.0196L68.4353 35.561C67.8807 35.0064 66.9818 35.0064 66.4273 35.561L62.3701 39.6182V44.9413C62.3701 45.7255 63.0057 46.3611 63.79 46.3611H78.5804C78.7603 46.3611 78.9314 46.3265 79.0896 46.2657Z" fill="#65D33C"/>
<path d="M67.9764 39.6634C66.2576 41.3822 64.1873 43.2963 64.1873 43.2963C64.1873 43.2963 63.2526 43.8897 62.3701 43.4188V44.9414C62.3701 45.7256 63.0057 46.3613 63.79 46.3613H78.5804C78.76 46.3613 78.9312 46.3266 79.0895 46.2658C79.0343 46.1786 78.9696 46.0956 78.8937 46.0197L68.4351 35.5611C68.4353 35.5609 69.6951 37.9447 67.9764 39.6634Z" fill="#55BF28"/>
<path d="M77.8146 37.6874C77.26 37.1329 76.3611 37.1329 75.8066 37.6874L67.1328 46.3611H78.5802C79.3644 46.3611 80 45.7255 80 44.9413V39.8729L77.8146 37.6874Z" fill="#89E56A"/>
<path d="M75.263 33.625C75.263 34.7513 74.35 35.6641 73.2238 35.6641C72.0975 35.6641 71.1846 34.7511 71.1846 33.625C71.1846 32.4988 72.0975 31.5858 73.2238 31.5858C74.35 31.5858 75.263 32.4989 75.263 33.625Z" fill="#FFDD40"/>
<path d="M74.6195 33.2419C74.6195 33.7681 74.1929 34.1947 73.6667 34.1947C73.1404 34.1947 72.7139 33.7681 72.7139 33.2419C72.7139 32.7156 73.1404 32.2891 73.6667 32.2891C74.1928 32.2889 74.6195 32.7156 74.6195 33.2419Z" fill="#FCECA9"/>
<path d="M59.0321 53.2528C57.8707 53.9234 56.3855 53.5254 55.7149 52.364L33.2682 13.4851C32.5975 12.3236 32.9955 10.8386 34.1569 10.1679C35.3183 9.49746 36.8035 9.89528 37.4741 11.0567L59.9208 49.9356C60.5914 51.0972 60.1935 52.5823 59.0321 53.2528Z" fill="#E9EFFF"/>
<path d="M42.6314 24.6548C43.4674 24.1722 44.4457 24.1634 45.2589 24.5422L37.4732 11.0569C36.8025 9.89547 35.3174 9.4975 34.156 10.1681C32.9946 10.8387 32.5966 12.3237 33.2671 13.4853L41.2116 27.2455C41.1679 26.2189 41.6804 25.2039 42.6314 24.6548Z" fill="#D3DCFB"/>
<path d="M59.4874 0H75.1735C76.5598 0 77.6938 1.13422 77.6938 2.52031V13.6681C77.6938 15.0544 76.5596 16.1884 75.1735 16.1884H72.9301C72.6799 16.1884 72.4466 16.3144 72.3095 16.5236L70.7646 18.8792C70.3891 19.4517 69.5499 19.4517 69.1745 18.8792L67.6296 16.5236C67.4924 16.3144 67.2591 16.1884 67.009 16.1884H59.4871C58.1009 16.1884 56.9668 15.0542 56.9668 13.668V2.52031C56.967 1.13422 58.1012 0 59.4874 0V0Z" fill="#FFDD40"/>
<path d="M63.7996 13.6681V2.52031C63.7996 1.13406 64.9338 0 66.3199 0H59.4871C58.1009 0 56.9668 1.13422 56.9668 2.52031V13.6681C56.9668 15.0544 58.101 16.1886 59.4871 16.1886H66.3199C64.9337 16.1884 63.7996 15.0544 63.7996 13.6681Z" fill="#FFB332"/>
<path d="M72.9532 5.39904H64.9826C64.3143 5.39904 63.7725 4.85732 63.7725 4.18888C63.7725 3.52044 64.3142 2.97888 64.9826 2.97888H72.9532C73.6215 2.97888 74.1632 3.5206 74.1632 4.18888C74.1632 4.85716 73.6215 5.39904 72.9532 5.39904Z" fill="#FCF9EB"/>
<path d="M72.9537 9.30422H61.7082C61.0399 9.30422 60.498 8.7625 60.498 8.09422C60.498 7.42594 61.0398 6.88422 61.7082 6.88422H72.9537C73.622 6.88422 74.1637 7.42594 74.1637 8.09422C74.1637 8.7625 73.622 9.30422 72.9537 9.30422Z" fill="#FCECA9"/>
<path d="M72.9537 13.2097H61.7082C61.0399 13.2097 60.498 12.668 60.498 11.9997C60.498 11.3314 61.0398 10.7897 61.7082 10.7897H72.9537C73.622 10.7897 74.1637 11.3314 74.1637 11.9997C74.1638 12.6678 73.622 13.2097 72.9537 13.2097Z" fill="#FCECA9"/>
<path d="M66.7469 67.3131C64.9187 63.4294 61.1284 57.7964 54.7276 58.5583C45.6241 59.6419 22.5468 60.8491 42.7879 79.7347C52.266 78.6231 60.6851 74.0506 66.7469 67.3131Z" fill="#47477F"/>
<path d="M3.16016 26.4716C5.42203 41.9335 24.1636 18.2816 25.1481 13.0774C25.7373 9.96252 23.4864 8.22299 21.4883 7.31049C13.3259 11.3016 6.795 18.111 3.16016 26.4716Z" fill="#47477F"/>
</svg>
