<svg width="80" height="80" viewBox="0 0 80 80" fill="none" xmlns="http://www.w3.org/2000/svg">
<g clip-path="url(#clip0_141_3823)">
<path d="M64.9262 70.7714C73.1014 63.7508 78.2809 53.3401 78.2809 41.7189C78.2809 20.5769 61.1419 3.43781 39.9998 3.43781C18.8578 3.43781 1.71875 20.5769 1.71875 41.7189C1.71875 48.2909 3.37578 54.4758 6.29359 59.8797L64.9262 70.7714Z" fill="#3B3868"/>
<path d="M60.5451 9.33031C62.1275 9.33031 63.65 9.58844 65.0767 10.0589V1.57797C65.0767 0.71 64.3667 0 63.4987 0H12.2146C8.90777 0 6.20215 2.70563 6.20215 6.0125C6.20215 9.31938 8.90777 12.025 12.2146 12.025H52.1381C54.512 10.3311 57.4129 9.33031 60.5451 9.33031Z" fill="#1AA9E8"/>
<path d="M12.2146 3.28359H32.2742V2.97156C30.3965 1.09406 32.3639 0 32.3639 0H12.2146C8.90777 0 6.20215 2.70563 6.20215 6.0125C6.20215 6.38609 6.23746 6.75156 6.30356 7.10672C6.82059 4.93906 9.28012 3.28359 12.2146 3.28359Z" fill="#198FD8"/>
<path d="M58.2026 9.52201C57.8364 8.90857 57.6312 8.22638 57.6312 7.50841C57.6312 5.73857 58.8746 4.18341 60.7164 3.34388C60.9068 3.25701 60.8428 2.97107 60.6334 2.97107H12.2146C9.21934 2.97107 6.71746 4.69544 6.27246 6.92935C6.7173 9.80513 9.21934 12.025 12.2146 12.025H52.1381C53.9075 10.7625 55.9693 9.88623 58.2026 9.52201Z" fill="#E9EFFF"/>
<path d="M32.2742 2.97172C32.304 2.97141 32.3339 2.97125 32.3639 2.97125H12.2146C9.21934 2.97125 6.71746 4.69563 6.27246 6.92953C6.7173 9.80532 9.21934 12.0252 12.2146 12.0252H32.3639C32.2676 12.0252 32.1718 12.0228 32.0767 12.0183C26.2828 11.7423 26.474 3.03844 32.2742 2.97172Z" fill="#D3DCFB"/>
<path d="M60.5456 9.33031C60.6031 9.33031 60.6596 9.33406 60.717 9.33468V3.34406C58.8753 4.18359 57.6318 5.73874 57.6318 7.50859C57.6318 8.22671 57.8395 8.90796 58.2061 9.52155C58.9679 9.39749 59.7489 9.33031 60.5456 9.33031Z" fill="#BEC8F7"/>
<path d="M64.7121 54.7299L60.5451 42.4072L56.3779 54.7299C56.3111 54.9279 56.1465 55.0544 55.9381 55.0683C55.7301 55.0836 55.55 54.9786 55.4573 54.7915L53.2798 50.3888C53.1032 50.0318 52.7432 49.8249 52.3698 49.8249C52.219 49.8249 52.066 49.8585 51.922 49.9299L47.5195 52.1072C47.3323 52.1999 47.1265 52.173 46.9693 52.0354C46.8121 51.8979 46.7582 51.6975 46.8251 51.4997L52.1715 35.6899L52.0187 35.5788C48.2718 32.8522 46.035 28.4641 46.035 23.8408C46.035 18.7546 48.6676 14.2743 52.6396 11.6825H12.2146C9.02277 11.6825 6.39184 9.16176 6.21262 6.0127H6.20215V59.7066C12.6418 71.7808 25.3601 80 39.9998 80C49.5917 80 58.3593 76.4721 65.0767 70.6432V55.058C64.9043 55.0219 64.7709 54.9033 64.7121 54.7299Z" fill="#42C3FC"/>
<path d="M29.997 75.0903V33.5391C29.997 32.4725 30.8696 31.5999 31.9362 31.5999H34.7071V22.2395H31.9362C30.8696 22.2395 29.997 21.3669 29.997 20.3003V13.4439C29.997 12.6641 30.4645 11.9895 31.1323 11.6824H12.2146C9.02277 11.6824 6.39184 9.16157 6.21262 6.01251H6.20215V59.7064C11.4743 69.5917 20.9553 76.8917 32.2532 79.2142C30.8987 78.3378 29.997 76.8147 29.997 75.0903Z" fill="#1AA9E8"/>
<path d="M12.7002 68.5514C14.1319 70.008 15.6789 71.3502 17.3271 72.5638V11.6824H12.7002V68.5514Z" fill="#42C3FC"/>
<path d="M46.1207 23.8405C46.1207 23.238 46.161 22.6453 46.231 22.0617H24.1951C23.4326 22.0617 22.8145 22.6798 22.8145 23.4423V30.4703C22.8145 31.2328 23.4326 31.8509 24.1951 31.8509H48.4849C46.9912 29.5431 46.1207 26.7942 46.1207 23.8405Z" fill="#1AA9E8"/>
<path d="M29.8187 30.4703V23.4423C29.8187 22.6798 30.4368 22.0617 31.1993 22.0617H24.1951C23.4326 22.0617 22.8145 22.6798 22.8145 23.4423V30.4703C22.8145 31.2328 23.4326 31.8509 24.1951 31.8509H31.1993C30.437 31.8509 29.8187 31.233 29.8187 30.4703Z" fill="#198FD8"/>
<path d="M42.131 63.3152H38.498C37.7882 63.3152 37.2129 62.7397 37.2129 62.03C37.2129 61.3202 37.7884 60.7447 38.498 60.7447H42.131C42.8408 60.7447 43.4163 61.3202 43.4163 62.03C43.4162 62.7398 42.8407 63.3152 42.131 63.3152Z" fill="#B8F0FF"/>
<path d="M46.0087 58.1729H34.6212C33.9114 58.1729 33.3359 57.5974 33.3359 56.8877C33.3359 56.178 33.9114 55.6025 34.6212 55.6025H46.0087C46.7186 55.6025 47.2939 56.178 47.2939 56.8877C47.2939 57.5974 46.7184 58.1729 46.0087 58.1729Z" fill="#8AE1FF"/>
<path d="M53.3534 75.0664H27.2755C26.5657 75.0664 25.9902 74.4909 25.9902 73.7812C25.9902 73.0714 26.5657 72.4961 27.2755 72.4961H53.3532C54.063 72.4961 54.6384 73.0716 54.6384 73.7812C54.6385 74.4909 54.063 75.0664 53.3534 75.0664Z" fill="#8AE1FF"/>
<path d="M53.3534 69.738H27.2755C26.5657 69.738 25.9902 69.1625 25.9902 68.4528C25.9902 67.743 26.5657 67.1677 27.2755 67.1677H53.3532C54.063 67.1677 54.6384 67.7431 54.6384 68.4528C54.6385 69.1625 54.063 69.738 53.3534 69.738Z" fill="#8AE1FF"/>
<path d="M60.5453 38.2244C57.3475 38.2244 54.3895 37.2045 51.9722 35.4772L46.5817 51.4172C46.3658 52.0555 47.0295 52.6362 47.6336 52.3375L52.0361 50.16C52.4105 49.9748 52.8644 50.1283 53.0495 50.5026L55.227 54.9051C55.5258 55.5092 56.4056 55.4505 56.6216 54.812L62.2659 38.1211C61.7011 38.1869 61.1277 38.2244 60.5453 38.2244Z" fill="#FF4155"/>
<path d="M60.5458 38.2244C57.348 38.2244 54.39 37.2045 51.9727 35.4772L49.3916 43.11C49.4677 43.0767 49.5439 43.0431 49.6224 43.0064C56.0338 40.0003 59.6061 45.9888 59.6061 45.9888L62.2666 38.1216C61.7016 38.1869 61.1282 38.2244 60.5458 38.2244Z" fill="#E80054"/>
<path d="M69.1181 35.4772C66.7005 37.2045 63.7427 38.2244 60.5448 38.2244C59.9623 38.2244 59.3891 38.1869 58.8242 38.1214L64.4684 54.8123C64.6844 55.4508 65.5644 55.5094 65.8631 54.9054L68.0406 50.5029C68.2258 50.1286 68.6795 49.9751 69.0541 50.1603L73.4566 52.3378C74.0606 52.6364 74.7244 52.0558 74.5084 51.4175L69.1181 35.4772Z" fill="#FF7186"/>
<path d="M71.4683 42.4269L69.1181 35.4771C66.7005 37.2044 63.7427 38.2242 60.5448 38.2242C59.9623 38.2242 59.3891 38.1867 58.8242 38.1213L61.4847 45.9884C65.5014 39.6686 71.4683 42.4269 71.4683 42.4269Z" fill="#FF4155"/>
<path d="M60.5457 38.6078C68.7014 38.6078 75.313 31.9962 75.313 23.8405C75.313 15.6847 68.7014 9.07312 60.5457 9.07312C52.3899 9.07312 45.7783 15.6847 45.7783 23.8405C45.7783 31.9962 52.3899 38.6078 60.5457 38.6078Z" fill="#FCECA9"/>
<path d="M73.7955 30.3661C71.5969 30.965 70.8857 29.7695 70.6563 28.9381C70.5596 28.5874 70.2258 28.3449 69.8627 28.3692C69.0513 28.4238 68.6402 28.0049 68.4371 27.6375C68.2797 27.353 67.9616 27.1927 67.6407 27.2447C65.1763 27.6438 64.1902 26.4128 63.8335 25.7027C63.6985 25.4338 63.4197 25.265 63.1191 25.2756C59.6243 25.3985 58.5788 22.7266 58.3054 21.6906C58.2418 21.4495 58.0702 21.2495 57.8375 21.1599C55.7913 20.3702 55.6785 18.6102 55.7979 17.6166C55.8405 17.2614 55.6377 16.9189 55.3018 16.7961C54.6269 16.5492 54.47 15.9028 54.4569 15.4044C54.4475 15.0464 54.186 14.75 53.8368 14.6711C52.0663 14.2714 52.0118 12.7814 52.0933 12.0681C52.1057 11.9605 52.0933 11.8538 52.0616 11.7533C48.2618 14.4252 45.7783 18.8428 45.7783 23.841C45.7783 31.9967 52.3899 38.6081 60.5457 38.6081C66.3586 38.6078 71.3863 35.2486 73.7955 30.3661Z" fill="#FFDD40"/>
<path d="M70.0443 25.3837C70.896 20.1299 67.3274 15.1804 62.0736 14.3288C56.8198 13.4771 51.8703 17.0457 51.0187 22.2995C50.167 27.5533 53.7356 32.5027 58.9894 33.3544C64.2432 34.2061 69.1926 30.6375 70.0443 25.3837Z" fill="#FFDD40"/>
<path d="M69.1104 28.2592C68.7729 28.1176 68.5641 27.8675 68.4369 27.6375C68.2796 27.353 67.9614 27.1926 67.6405 27.2447C65.1761 27.6437 64.19 26.4128 63.8333 25.7026C63.6983 25.4337 63.4196 25.265 63.1189 25.2756C59.6241 25.3984 58.5786 22.7265 58.3052 21.6906C58.2416 21.4495 58.07 21.2495 57.8374 21.1598C55.7911 20.3701 55.6783 18.6101 55.7977 17.6166C55.8404 17.2614 55.6375 16.9189 55.3016 16.7961C54.9764 16.6772 54.7724 16.4651 54.6458 16.2219C52.3722 17.985 50.9072 20.7409 50.9072 23.8408C50.9072 29.1637 55.2224 33.4789 60.5454 33.4789C64.2754 33.4787 67.508 31.3587 69.1104 28.2592Z" fill="#FFB332"/>
<path d="M60.5455 34.7639C54.5224 34.7639 49.6221 29.8638 49.6221 23.8405C49.6221 17.8172 54.5222 12.9171 60.5455 12.9171C66.5686 12.9171 71.4689 17.8172 71.4689 23.8405C71.4689 29.8638 66.5686 34.7639 60.5455 34.7639ZM60.5455 15.4877C55.9397 15.4877 52.1925 19.2347 52.1925 23.8406C52.1925 28.4466 55.9396 32.1936 60.5455 32.1936C65.1513 32.1936 68.8985 28.4464 68.8985 23.8406C68.8985 19.2349 65.1513 15.4877 60.5455 15.4877Z" fill="#FFB332"/>
<path d="M69.8625 28.3692C69.0511 28.4238 68.64 28.0048 68.4369 27.6375C68.3643 27.5059 68.2563 27.4027 68.1305 27.333C66.8055 30.1991 63.9049 32.1936 60.5455 32.1936C55.9397 32.1936 52.1925 28.4464 52.1925 23.8406C52.1925 21.0588 53.5608 18.5917 55.6583 17.0728C55.5714 16.9498 55.4507 16.8503 55.3016 16.7958C54.6268 16.5489 54.4699 15.9025 54.4568 15.4041C54.4519 15.217 54.3769 15.0478 54.2579 14.9166C51.4566 16.8963 49.6221 20.1572 49.6221 23.8406C49.6221 29.8639 54.5224 34.7641 60.5455 34.7641C64.8839 34.7641 68.6391 32.2216 70.4008 28.5484C70.253 28.4256 70.063 28.3556 69.8625 28.3692Z" fill="#FF9100"/>
<path d="M65.3366 23.0665C65.855 22.5611 65.5689 21.6803 64.8522 21.5761L62.8722 21.2884C62.5877 21.2472 62.3416 21.0684 62.2144 20.8104L61.3289 19.0164C61.0083 18.3669 60.0824 18.3669 59.7618 19.0164L58.8763 20.8104C58.7491 21.0684 58.503 21.2472 58.2183 21.2884L56.2383 21.5761C55.5216 21.6803 55.2355 22.5611 55.7541 23.0665L57.1869 24.4631C57.3928 24.6639 57.4868 24.9531 57.4382 25.2365L57.0999 27.2086C56.9775 27.9223 57.7268 28.4667 58.3677 28.1297L60.1386 27.1987C60.3932 27.0648 60.6974 27.0648 60.9519 27.1987L62.7229 28.1297C63.3639 28.4667 64.113 27.9223 63.9907 27.2086L63.6525 25.2365C63.6038 24.9531 63.6979 24.6639 63.9038 24.4631L65.3366 23.0665Z" fill="#FFB332"/>
<path d="M57.0999 27.2086C56.9775 27.9224 57.7268 28.4667 58.3677 28.1297L60.1386 27.1988C60.3932 27.0649 60.6974 27.0649 60.9519 27.1988L62.7229 28.1297C63.3639 28.4667 64.113 27.9224 63.9907 27.2086L63.7002 25.5149C63.5511 25.3585 63.3411 25.2677 63.1186 25.2755C59.6238 25.3983 58.5783 22.7264 58.3049 21.6905C58.2658 21.5424 58.1858 21.4102 58.0761 21.3091L56.2383 21.5761C55.5216 21.6803 55.2355 22.5611 55.7541 23.0666L57.1869 24.4631C57.3929 24.6639 57.4868 24.9531 57.4382 25.2366L57.0999 27.2086Z" fill="#FF9100"/>
</g>
<defs>
<clipPath id="clip0_141_3823">
<rect width="80" height="80" fill="white"/>
</clipPath>
</defs>
</svg>
