<svg width="80" height="80" viewBox="0 0 80 80" fill="none" xmlns="http://www.w3.org/2000/svg">
<g clip-path="url(#clip0_141_3793)">
<path d="M39.9998 3.43781C18.8578 3.43781 1.71875 20.5769 1.71875 41.7189C1.71875 61.3367 16.4766 77.5051 35.4955 79.7348L60.0675 74.3222C70.9958 67.5814 78.2809 55.5017 78.2809 41.7191C78.2809 20.5769 61.1419 3.43781 39.9998 3.43781Z" fill="#746BF9"/>
<path d="M36.8575 15.4752C38.157 15.9002 39.5426 16.1331 40.9821 16.1331C42.4218 16.1331 43.8075 15.9002 45.1068 15.4752L48.6859 23.4125C49.0654 24.0306 49.2664 24.7419 49.2664 25.4672V25.803C49.2417 25.8025 49.2176 25.7992 49.1928 25.7992C47.7623 25.7992 46.5029 26.525 45.7598 27.628C45.6089 27.852 45.3686 27.9661 45.1243 27.9769C44.8553 27.9888 44.5815 27.8747 44.4153 27.628C42.7742 25.1919 39.1925 25.1888 37.5493 27.628C37.3831 27.8747 37.1092 27.9888 36.8403 27.9769C36.5961 27.9661 36.3557 27.852 36.2048 27.628C35.4617 26.5248 34.2023 25.7992 32.7718 25.7992C32.747 25.7992 32.7231 25.8025 32.6982 25.803V25.4672C32.6982 24.7419 32.899 24.0306 33.2786 23.4125L36.8575 15.4752Z" fill="#FCF9EB"/>
<path d="M38.7881 22.7958C38.7881 22.7958 39.6647 19.2195 40.4723 16.1228C39.2153 16.0745 38.0029 15.8497 36.8578 15.4752L33.2787 23.4123C32.8992 24.0305 32.6982 24.7417 32.6982 25.467V25.8028C32.7231 25.8023 32.747 25.7991 32.7718 25.7991C34.2023 25.7991 35.4617 26.5247 36.2048 27.6278C36.3557 27.852 36.5961 27.9659 36.8403 27.9767C37.1093 27.9886 37.3833 27.8745 37.5495 27.6278C38.3709 26.4084 39.6767 25.7995 40.9825 25.7997V25.5033C38.4372 25.5033 38.7881 22.7958 38.7881 22.7958Z" fill="#FCECA9"/>
<path d="M36.8403 35.8203V27.6811C36.6798 27.6703 36.5387 27.5939 36.4503 27.4627C35.6237 26.2358 34.2487 25.5033 32.7718 25.5033C32.7471 25.5033 32.7229 25.5058 32.6982 25.5063V35.8203H36.8403Z" fill="#FFB332"/>
<path d="M36.8404 31.5811C36.6214 31.597 36.4056 31.6731 36.2198 31.8078C34.5039 33.0525 33.2842 31.9698 32.8614 31.4814C32.8123 31.4247 32.7568 31.375 32.6982 31.3293V35.8201H36.8403V31.5811H36.8404Z" fill="#FF9100"/>
<path d="M45.1251 35.8203V27.6811C45.1126 27.6819 45.101 27.6853 45.0882 27.6853C44.9121 27.6853 44.7566 27.6041 44.6613 27.4627C43.8347 26.2358 42.4597 25.5033 40.9829 25.5033C39.506 25.5033 38.131 26.2358 37.3044 27.4627C37.2091 27.6041 37.0536 27.6853 36.8775 27.6853C36.8649 27.6853 36.8532 27.6819 36.8408 27.6811V35.8203H45.1251Z" fill="#FFDD40"/>
<path d="M45.1251 31.5688C44.8886 31.5439 44.6463 31.5884 44.4315 31.7113C41.2985 33.502 38.6874 32.4381 37.511 31.7377C37.3043 31.6145 37.0707 31.5647 36.8408 31.5813V35.8205H45.1251V31.5688Z" fill="#FFB332"/>
<path d="M49.267 35.8203V25.5064C49.2423 25.506 49.2183 25.5033 49.1934 25.5033C47.7166 25.5033 46.3416 26.2358 45.515 27.4627C45.4266 27.5939 45.2853 27.6703 45.125 27.6811V35.8203H49.267Z" fill="#FFB332"/>
<path d="M49.2679 31.4464C49.1158 31.4839 48.971 31.5503 48.8446 31.6492C47.4972 32.7028 46.3405 32.24 45.6893 31.7789C45.5194 31.6586 45.3247 31.5895 45.126 31.5688V35.8205H49.268V31.4464H49.2679Z" fill="#FF9100"/>
<path d="M40.9823 16.4289C39.4983 16.4289 38.0712 16.1878 36.7344 15.7483L39.6342 9.31717C40.1451 8.13638 41.8195 8.13638 42.3306 9.31717L45.2305 15.7483C43.8933 16.1878 42.4664 16.4289 40.9823 16.4289Z" fill="#5F5F9B"/>
<path d="M42.3305 9.31735C41.8195 8.13657 40.1451 8.13657 39.6342 9.31735L36.7344 15.7484C37.8942 16.1297 39.122 16.3611 40.3959 16.4158C40.5987 15.6347 40.7992 14.8752 40.9823 14.2017C41.8745 10.9205 43.5295 11.977 43.5295 11.977L42.3305 9.31735Z" fill="#47477F"/>
<path d="M40.9834 5.08453C40.3086 5.08453 39.7617 4.5375 39.7617 3.86281V1.22172C39.7617 0.547031 40.3087 0 40.9834 0C41.6581 0 42.2051 0.547031 42.2051 1.22172V3.86266C42.2053 4.5375 41.6583 5.08453 40.9834 5.08453Z" fill="#FFDD40"/>
<path d="M45.5418 6.30594C44.9574 5.96859 44.7571 5.22141 45.0946 4.63703L46.4151 2.34984C46.7524 1.76547 47.4996 1.56516 48.084 1.90266C48.6684 2.24 48.8685 2.98719 48.5312 3.57156L47.2107 5.85875C46.8723 6.44516 46.1245 6.64234 45.5418 6.30594Z" fill="#FFDD40"/>
<path d="M30.6441 15.4234H28.003C27.3283 15.4234 26.7812 14.8764 26.7812 14.2017C26.7812 13.5269 27.3283 12.98 28.003 12.98H30.6441C31.3188 12.98 31.8658 13.527 31.8658 14.2017C31.8658 14.8764 31.3188 15.4234 30.6441 15.4234Z" fill="#FFB332"/>
<path d="M31.4188 10.0903L29.1316 8.7697C28.5472 8.4322 28.347 7.68501 28.6844 7.10079C29.0217 6.51626 29.7689 6.31611 30.3533 6.65361L32.6405 7.97423C33.2249 8.31173 33.425 9.05892 33.0877 9.64313C32.7494 10.2292 32.0014 10.4267 31.4188 10.0903Z" fill="#FFB332"/>
<path d="M34.755 5.85877L33.4344 3.57158C33.097 2.98721 33.2972 2.24002 33.8816 1.90267C34.4658 1.56549 35.2131 1.76533 35.5505 2.34986L36.8711 4.63705C37.2086 5.22142 37.0083 5.96861 36.4239 6.30596C35.8414 6.64221 35.0934 6.44517 34.755 5.85877Z" fill="#FFB332"/>
<path d="M68.252 36.7577C68.0993 35.9793 67.4234 35.4136 66.6299 35.4136H18.738C17.9373 35.4136 17.2443 35.9871 17.1126 36.7771C17.0293 37.2769 16.9621 37.783 16.9121 38.295C16.8051 39.39 16.9013 40.4955 17.1895 41.5572L17.5152 42.7583C17.852 43.9996 17.5651 45.3268 16.7451 46.3175C14.1651 49.4346 11.2715 53.1275 11.2715 54.0113C11.2715 55.3764 14.6184 56.6352 15.581 56.9689C15.7345 57.0221 15.8371 57.1663 15.8371 57.3286V59.5958C15.8371 59.7766 15.9182 59.9478 16.058 60.0625L17.6373 61.3574C17.7793 61.4738 17.8413 61.6619 17.7965 61.84L17.6645 62.3641C17.5204 62.9354 17.6927 63.54 18.1163 63.9496L19.2505 65.0461C19.9562 65.7285 20.3546 66.668 20.3546 67.6496V68.9496C20.3546 70.4119 20.8012 71.8399 21.6354 73.0421C22.4593 74.2297 23.8049 74.9485 25.2498 74.9916C26.4471 75.0272 27.6526 74.8377 28.799 74.4382L32.2912 73.2213C32.7818 73.0504 33.1834 73.8552 33.1834 73.8552C34.2291 75.6368 34.8598 77.6272 35.0357 79.68C36.6604 79.8905 38.3173 80 39.9998 80C47.5223 80 54.5369 77.8286 60.4541 74.0808L58.443 67.3483C57.7823 64.8183 58.6032 62.1502 60.5262 60.3782C65.5687 55.7318 68.728 49.0732 68.728 41.6757C68.728 39.993 68.5641 38.3488 68.252 36.7577Z" fill="#F9BA8F"/>
<path d="M49.3988 20.7344C46.2125 20.7344 43.6055 18.1274 43.6055 14.9411C43.6055 11.7549 46.2125 9.14783 49.3988 9.14783C52.585 9.14783 55.192 11.7549 55.192 14.9411C55.192 18.1275 52.585 20.7344 49.3988 20.7344Z" fill="#89E56A"/>
<path d="M51.1612 16.5484L46.0489 13.5565C44.3261 13.5565 44.4269 11.9867 44.4275 11.9775C43.9064 12.8461 43.6055 13.8601 43.6055 14.9412C43.6055 18.1275 46.2125 20.7345 49.3987 20.7345C51.0719 20.7345 52.5845 20.015 53.6445 18.8709C50.9481 19.1125 51.1612 16.5484 51.1612 16.5484Z" fill="#65D33C"/>
<path d="M48.3725 17.6086L46.0483 15.2844C45.5711 14.8073 45.5711 14.0336 46.0483 13.5565C46.5254 13.0795 47.2991 13.0795 47.7761 13.5565L49.2364 15.017L51.5582 12.6953C52.0352 12.2183 52.8089 12.2183 53.286 12.6953C53.7632 13.1723 53.7632 13.9461 53.286 14.4231L50.1004 17.6087C49.6232 18.0858 48.8497 18.0858 48.3725 17.6086Z" fill="#E9EFFF"/>
<path d="M36.8409 35.4138H18.738C17.9373 35.4138 17.2443 35.9872 17.1126 36.7772C17.0293 37.277 16.9621 37.7831 16.9121 38.2952C16.8051 39.3902 16.9013 40.4956 17.1895 41.5574L17.5152 42.7584C17.852 43.9997 17.5651 45.3269 16.7451 46.3177C14.1652 49.4347 11.2715 53.1277 11.2715 54.0114C11.2715 55.3764 14.6184 56.6353 15.5809 56.9691C15.7343 57.0222 15.837 57.1664 15.837 57.3288V59.5959C15.837 59.7767 15.918 59.948 16.0579 60.0627L17.6371 61.3575C17.7791 61.4739 17.8412 61.6619 17.7963 61.8402L17.6643 62.3641C17.5202 62.9353 17.6926 63.54 18.1162 63.9495L19.2504 65.0461C19.956 65.7284 20.3545 66.668 20.3545 67.6495V68.9495C20.3545 70.4119 20.801 71.8399 21.6352 73.042C22.4591 74.2297 23.8048 74.9484 25.2496 74.9916C26.447 75.0272 27.6524 74.8377 28.7987 74.4381L32.2909 73.2211C32.7815 73.0502 33.183 73.855 33.183 73.855C34.2288 75.6366 34.8595 77.627 35.0354 79.6798C36.6604 79.8905 38.3173 80 39.9998 80C43.041 80 45.999 79.6448 48.8352 78.9742C46.3101 74.858 50.3752 67.6916 42.174 67.6916C31.7573 67.6916 35.0907 46.4416 33.6323 41.5863C32.174 36.7311 36.8409 35.4138 36.8409 35.4138Z" fill="#FD995B"/>
</g>
<defs>
<clipPath id="clip0_141_3793">
<rect width="80" height="80" fill="white"/>
</clipPath>
</defs>
</svg>
