<svg width="80" height="80" viewBox="0 0 80 80" fill="none" xmlns="http://www.w3.org/2000/svg">
<g clip-path="url(#clip0_141_3378)">
<path d="M38.2809 1.71893C29.1104 1.71893 20.6943 4.94503 14.1021 10.3224L12.8892 68.6447C18.2185 73.3724 24.8754 76.6355 32.2312 77.8035L47.6334 77.1282C64.2543 72.9546 76.5618 57.9155 76.5618 40C76.5618 18.858 59.4229 1.71893 38.2809 1.71893Z" fill="#746BF9"/>
<path d="M80 57.2944V15.288C80 12.5455 77.7769 10.3224 75.0344 10.3224H14.1023C5.49656 17.3421 0 28.0286 0 40C0 46.2236 1.48656 52.0996 4.12172 57.2943H80V57.2944Z" fill="#47477F"/>
<path d="M15.3195 15.9942C15.3195 13.2467 17.247 10.9289 19.8162 10.3225H14.1022C5.49656 17.342 0 28.0286 0 40C0 46.2236 1.48656 52.0995 4.12172 57.2942H15.3195V15.9942Z" fill="#3B3868"/>
<path d="M15.3196 15.9943C15.3196 15.715 15.3407 15.4407 15.3791 15.1718H9.14584C7.5224 17.0749 6.08271 19.1391 4.85303 21.3369H15.3196V15.9943Z" fill="#3B3868"/>
<path d="M4.84912 20.9777H75.1505V57.2944H4.84912V20.9777Z" fill="#42C3FC"/>
<path d="M4.84912 20.9775H15.3194V57.2943H4.84912V20.9775Z" fill="#1AA9E8"/>
<path d="M75.0345 13.8891H10.2908C9.52326 14.7114 8.79061 15.5666 8.09717 16.4541H73.8683V57.2943C73.8683 58.0025 74.4425 58.5767 75.1508 58.5767C75.859 58.5767 76.4333 58.0025 76.4333 57.2943V15.288C76.4333 14.5166 75.8059 13.8891 75.0345 13.8891Z" fill="#3B3868"/>
<path d="M15.3195 15.9942C15.3195 15.2527 15.4614 14.543 15.7169 13.8892H10.2906C9.52311 14.7116 8.79045 15.5667 8.09717 16.4542H15.3197V15.9942H15.3195Z" fill="#2D2D59"/>
<path d="M3.56689 23.8494V56.1506C3.95111 56.975 4.36361 57.7833 4.80346 58.5745C4.81877 58.575 4.83393 58.5769 4.84939 58.5769C5.55768 58.5769 6.13189 58.0027 6.13189 57.2944V19.2134C5.17424 20.6916 4.31674 22.2403 3.56689 23.8494Z" fill="#2D2D59"/>
<path d="M11.0359 19.9812C10.1778 19.9812 9.49219 19.2815 9.49219 18.4374C9.49219 17.4591 10.3928 16.7344 11.3369 16.9246C12.0766 17.0748 12.5795 17.7154 12.5795 18.4374C12.5797 19.2607 11.9162 19.9812 11.0359 19.9812Z" fill="#FF4155"/>
<path d="M15.3196 19.9812C14.4615 19.9812 13.7759 19.2815 13.7759 18.4374C13.7759 17.4591 14.6765 16.7344 15.6206 16.9246C16.3603 17.0748 16.8632 17.7154 16.8632 18.4374C16.8634 19.2607 16.1999 19.9812 15.3196 19.9812Z" fill="#FFDD40"/>
<path d="M19.6033 19.9812C18.7452 19.9812 18.0596 19.2815 18.0596 18.4374C18.0596 17.4591 18.9602 16.7344 19.9043 16.9246C20.6439 17.0748 21.1469 17.7154 21.1469 18.4374C21.1471 19.2607 20.4836 19.9812 19.6033 19.9812Z" fill="#89E56A"/>
<path d="M39.9998 54.2818C39.2915 54.2818 38.7173 53.7075 38.7173 52.9993V25.2941C38.7173 24.5858 39.2915 24.0116 39.9998 24.0116C40.7081 24.0116 41.2823 24.5858 41.2823 25.2941V52.9993C41.2823 53.7075 40.7081 54.2818 39.9998 54.2818Z" fill="#8AE1FF"/>
<path d="M12.9418 28.2881H10.4759C9.76758 28.2881 9.19336 27.7139 9.19336 27.0056C9.19336 26.2974 9.76758 25.7231 10.4759 25.7231H12.9418C13.6501 25.7231 14.2243 26.2974 14.2243 27.0056C14.2243 27.7139 13.6501 28.2881 12.9418 28.2881Z" fill="#FFDD40"/>
<path d="M12.9418 37.9924H10.4759C9.76758 37.9924 9.19336 37.4181 9.19336 36.7099C9.19336 36.0016 9.76758 35.4274 10.4759 35.4274H12.9418C13.6501 35.4274 14.2243 36.0016 14.2243 36.7099C14.2243 37.4181 13.6501 37.9924 12.9418 37.9924Z" fill="#8AE1FF"/>
<path d="M12.9418 33.1403H10.4759C9.76758 33.1403 9.19336 32.5661 9.19336 31.8578C9.19336 31.1495 9.76758 30.5753 10.4759 30.5753H12.9418C13.6501 30.5753 14.2243 31.1495 14.2243 31.8578C14.2243 32.5661 13.6501 33.1403 12.9418 33.1403Z" fill="#B8F0FF"/>
<path d="M12.9418 42.8446H10.4759C9.76758 42.8446 9.19336 42.2704 9.19336 41.5621C9.19336 40.8538 9.76758 40.2796 10.4759 40.2796H12.9418C13.6501 40.2796 14.2243 40.8538 14.2243 41.5621C14.2243 42.2704 13.6501 42.8446 12.9418 42.8446Z" fill="#FFDD40"/>
<path d="M12.9418 52.5488H10.4759C9.76758 52.5488 9.19336 51.9745 9.19336 51.2663C9.19336 50.558 9.76758 49.9838 10.4759 49.9838H12.9418C13.6501 49.9838 14.2243 50.558 14.2243 51.2663C14.2243 51.9745 13.6501 52.5488 12.9418 52.5488Z" fill="#8AE1FF"/>
<path d="M12.9418 47.6967H10.4759C9.76758 47.6967 9.19336 47.1225 9.19336 46.4142C9.19336 45.7059 9.76758 45.1317 10.4759 45.1317H12.9418C13.6501 45.1317 14.2243 45.7059 14.2243 46.4142C14.2243 47.1225 13.6501 47.6967 12.9418 47.6967Z" fill="#B8F0FF"/>
<path d="M24.2264 28.2881H17.5296C16.8213 28.2881 16.2471 27.7139 16.2471 27.0056C16.2471 26.2974 16.8213 25.7231 17.5296 25.7231H24.2264C24.9347 25.7231 25.5089 26.2974 25.5089 27.0056C25.5089 27.7139 24.9347 28.2881 24.2264 28.2881Z" fill="#8AE1FF"/>
<path d="M26.6589 42.8446H17.5296C16.8213 42.8446 16.2471 42.2704 16.2471 41.5621C16.2471 40.8538 16.8213 40.2796 17.5296 40.2796H26.6589C27.3672 40.2796 27.9415 40.8538 27.9415 41.5621C27.9415 42.2704 27.3674 42.8446 26.6589 42.8446Z" fill="#B8F0FF"/>
<path d="M21.6622 33.1403H17.5296C16.8213 33.1403 16.2471 32.5661 16.2471 31.8578C16.2471 31.1495 16.8213 30.5753 17.5296 30.5753H21.6622C22.3705 30.5753 22.9447 31.1495 22.9447 31.8578C22.9447 32.5661 22.3705 33.1403 21.6622 33.1403Z" fill="#8AE1FF"/>
<path d="M31.2379 28.2881H28.8055C28.0972 28.2881 27.5229 27.7139 27.5229 27.0056C27.5229 26.2974 28.0972 25.7231 28.8055 25.7231H31.2379C31.9462 25.7231 32.5205 26.2974 32.5205 27.0056C32.5205 27.7139 31.9462 28.2881 31.2379 28.2881Z" fill="#B8F0FF"/>
<path d="M26.6779 33.1403H25.7659C25.0576 33.1403 24.4834 32.5661 24.4834 31.8578C24.4834 31.1495 25.0576 30.5753 25.7659 30.5753H26.6779C27.3862 30.5753 27.9604 31.1495 27.9604 31.8578C27.9604 32.5661 27.3864 33.1403 26.6779 33.1403Z" fill="#8AE1FF"/>
<path d="M26.6782 37.9924H22.5457C21.8374 37.9924 21.2632 37.4181 21.2632 36.7099C21.2632 36.0016 21.8374 35.4274 22.5457 35.4274H26.6782C27.3865 35.4274 27.9607 36.0016 27.9607 36.7099C27.9607 37.4181 27.3866 37.9924 26.6782 37.9924Z" fill="#FFDD40"/>
<path d="M18.4416 37.9924H17.5296C16.8213 37.9924 16.2471 37.4181 16.2471 36.7099C16.2471 36.0016 16.8213 35.4274 17.5296 35.4274H18.4416C19.1499 35.4274 19.7241 36.0016 19.7241 36.7099C19.7241 37.4181 19.15 37.9924 18.4416 37.9924Z" fill="#B8F0FF"/>
<path d="M23.4577 47.6967H22.5457C21.8374 47.6967 21.2632 47.1225 21.2632 46.4142C21.2632 45.7059 21.8374 45.1317 22.5457 45.1317H23.4577C24.166 45.1317 24.7402 45.7059 24.7402 46.4142C24.7402 47.1225 24.166 47.6967 23.4577 47.6967Z" fill="#FFDD40"/>
<path d="M33.6695 33.1403H30.8958C30.1875 33.1403 29.6133 32.5661 29.6133 31.8578C29.6133 31.1495 30.1875 30.5753 30.8958 30.5753H33.6695C34.3778 30.5753 34.952 31.1495 34.952 31.8578C34.952 32.5661 34.3778 33.1403 33.6695 33.1403Z" fill="#8AE1FF"/>
<path d="M30.4494 52.5488H29.5374C28.8291 52.5488 28.2549 51.9745 28.2549 51.2663C28.2549 50.558 28.8291 49.9838 29.5374 49.9838H30.4494C31.1577 49.9838 31.7319 50.558 31.7319 51.2663C31.7319 51.9745 31.1577 52.5488 30.4494 52.5488Z" fill="#B8F0FF"/>
<path d="M25.3194 52.5488H22.5457C21.8374 52.5488 21.2632 51.9745 21.2632 51.2663C21.2632 50.558 21.8374 49.9838 22.5457 49.9838H25.3194C26.0277 49.9838 26.6019 50.558 26.6019 51.2663C26.6019 51.9745 26.0279 52.5488 25.3194 52.5488Z" fill="#8AE1FF"/>
<path d="M50.4069 45.1735L45.0377 40.428C44.268 39.7479 44.268 38.5457 45.0377 37.8655L50.4069 33.12C51.1148 32.4944 52.1954 32.5613 52.8207 33.2688C53.4462 33.9764 53.3796 35.0571 52.6719 35.6825L48.7524 39.1468L52.6719 42.611C53.3796 43.2364 53.4462 44.3171 52.8207 45.0247C52.1944 45.7333 51.1137 45.798 50.4069 45.1735Z" fill="#E9EFFF"/>
<path d="M62.1046 45.0245C61.4791 44.3169 61.5457 43.2362 62.2533 42.6108L66.1729 39.1466L62.2533 35.6823C61.5457 35.0569 61.4791 33.9763 62.1046 33.2686C62.7299 32.5609 63.8105 32.4944 64.5183 33.1198L69.8876 37.8653C70.6573 38.5456 70.6573 39.7477 69.8876 40.4278L64.5183 45.1733C63.8127 45.7972 62.7315 45.7341 62.1046 45.0245Z" fill="#E9EFFF"/>
<path d="M55.3447 45.5147C54.4484 45.2167 53.9636 44.2486 54.2617 43.3525L57.4181 33.8616C57.7161 32.9655 58.6842 32.4802 59.5803 32.7786C60.4766 33.0766 60.9614 34.0447 60.6633 34.9408L57.5069 44.4317C57.2078 45.3308 56.2378 45.8121 55.3447 45.5147Z" fill="#E9EFFF"/>
<path d="M57.2427 39.6611C56.5734 39.4386 56.1075 38.8877 55.9595 38.2474L54.2617 43.3525C53.9636 44.2488 54.4484 45.2168 55.3447 45.5147C56.238 45.8121 57.208 45.3308 57.5069 44.4318L59.2581 39.1657C58.7522 39.6877 57.9756 39.905 57.2427 39.6611Z" fill="#D3DCFB"/>
<path d="M32.461 68.2856V75.9524C32.461 76.5842 32.3808 77.205 32.2314 77.8036C34.2022 78.1166 36.2224 78.2811 38.2811 78.2811C41.5077 78.2811 44.6402 77.88 47.6336 77.1283C47.5735 76.7422 47.5389 76.3499 47.5389 75.9524V68.2856C38.3552 68.2856 37.5908 68.2856 32.461 68.2856Z" fill="#BEC8F7"/>
<path d="M37.2541 76.3774C37.2541 73.7494 39.3846 71.6189 42.0125 71.6189H47.5389V68.2856C38.355 68.2856 37.5907 68.2856 32.461 68.2856V75.9524C32.461 76.5842 32.3808 77.205 32.2314 77.8036C33.8733 78.0644 35.5499 78.2203 37.2541 78.2658V76.3774Z" fill="#A2B6F4"/>
<path d="M12.8895 68.6449H75.0345C77.777 68.6449 80.0001 66.4217 80.0001 63.6792V56.9352H3.94336C6.14992 61.4007 9.20133 65.373 12.8895 68.6449Z" fill="#E9EFFF"/>
<path d="M15.3196 63.6483V56.9352H3.94336C6.14992 61.4007 9.20133 65.3731 12.8895 68.6449H18.1584C16.4613 67.6231 15.3196 65.7627 15.3196 63.6483Z" fill="#BEC8F7"/>
<path d="M42.261 63.7337C42.7739 62.4963 42.1866 61.0775 40.9493 60.5646C39.7119 60.0517 38.2931 60.639 37.7802 61.8763C37.2673 63.1137 37.8546 64.5325 39.092 65.0454C40.3293 65.5583 41.7482 64.971 42.261 63.7337Z" fill="#BEC8F7"/>
<path d="M45.0381 40.428L50.4074 45.1734C51.1141 45.798 52.1947 45.7333 52.8211 45.0247C53.4466 44.317 53.3799 43.2364 52.6724 42.6109L48.7528 39.1467C45.9017 39.6245 46.2072 36.8323 46.2072 36.8323L45.0383 37.8655C44.2686 38.5456 44.2684 39.7477 45.0381 40.428Z" fill="#D3DCFB"/>
<path d="M68.6514 41.5196C65.7255 41.5196 66.1719 39.1467 66.1719 39.1467L62.2524 42.6109C61.5447 43.2364 61.4781 44.317 62.1036 45.0246C62.7305 45.7342 63.8117 45.7971 64.5174 45.1734L68.6514 41.5196Z" fill="#D3DCFB"/>
</g>
<defs>
<clipPath id="clip0_141_3378">
<rect width="80" height="80" fill="white"/>
</clipPath>
</defs>
</svg>
