<svg width="140" height="43" viewBox="0 0 140 43" fill="none" xmlns="http://www.w3.org/2000/svg">
<path d="M46.3484 9.83523H51.5281V23.5877C51.5281 24.9357 51.2141 26.1129 50.5863 27.1193C49.9677 28.1165 49.1275 28.892 48.0657 29.446C47.0039 30 45.8129 30.277 44.4925 30.277C43.1353 30.277 41.9258 30.0462 40.864 29.5845C39.8022 29.1229 38.9666 28.4165 38.3572 27.4656C37.7479 26.5053 37.4432 25.282 37.4432 23.7955H42.6644C42.6644 24.7372 42.8214 25.3558 43.1353 25.6513C43.4492 25.9467 43.9016 26.0945 44.4925 26.0945C45.1019 26.0945 45.5636 25.8729 45.8775 25.4297C46.1914 24.9773 46.3484 24.3633 46.3484 23.5877V9.83523ZM53.6609 22.3828C53.6609 20.9148 53.9379 19.6083 54.4918 18.4634C55.0458 17.3093 55.8629 16.3999 56.9432 15.7351C58.0234 15.0703 59.353 14.7379 60.9318 14.7379C62.5291 14.7379 63.8679 15.0703 64.9482 15.7351C66.0376 16.3999 66.8548 17.3093 67.3995 18.4634C67.9535 19.6083 68.2305 20.9148 68.2305 22.3828V22.646C68.2305 24.1048 67.9535 25.4112 67.3995 26.5653C66.8548 27.7195 66.0423 28.6289 64.962 29.2937C63.8817 29.9492 62.5476 30.277 60.9595 30.277C59.3714 30.277 58.0327 29.9492 56.9432 29.2937C55.8629 28.6289 55.0458 27.7195 54.4918 26.5653C53.9379 25.4112 53.6609 24.1048 53.6609 22.646V22.3828ZM58.6605 22.646C58.6605 23.68 58.8082 24.5433 59.1037 25.2358C59.4084 25.919 60.027 26.2607 60.9595 26.2607C61.8736 26.2607 62.483 25.919 62.7876 25.2358C63.0923 24.5433 63.2447 23.68 63.2447 22.646V22.3828C63.2447 21.718 63.18 21.1133 63.0508 20.5685C62.9308 20.0146 62.7045 19.576 62.3722 19.2528C62.0398 18.9205 61.5597 18.7543 60.9318 18.7543C60.3224 18.7543 59.8516 18.9205 59.5192 19.2528C59.196 19.576 58.9698 20.0146 58.8406 20.5685C58.7205 21.1133 58.6605 21.718 58.6605 22.3828V22.646ZM84.2681 22.6183C84.2681 24.1325 84.0604 25.4666 83.6449 26.6207C83.2386 27.7749 82.6062 28.6751 81.7475 29.3214C80.8888 29.9585 79.7855 30.277 78.4375 30.277C77.6527 30.277 76.9695 30.12 76.3878 29.8061C75.8061 29.4922 75.3029 29.0536 74.8782 28.4904L74.6705 30H70.2109V8.72727H75.1967V16.1229C75.603 15.6889 76.0692 15.3519 76.5955 15.1119C77.1218 14.8626 77.7266 14.7379 78.4098 14.7379C79.767 14.7379 80.875 15.0703 81.7337 15.7351C82.6016 16.3999 83.2386 17.3047 83.6449 18.4496C84.0604 19.5852 84.2681 20.8778 84.2681 22.3274V22.6183ZM79.2823 22.3274C79.2823 21.6811 79.2315 21.0902 79.13 20.5547C79.0284 20.0099 78.8253 19.576 78.5206 19.2528C78.2251 18.9205 77.7681 18.7543 77.1495 18.7543C76.2077 18.7543 75.5568 19.0682 75.1967 19.696V25.3466C75.5661 25.9744 76.2262 26.2884 77.1772 26.2884C77.8143 26.2884 78.2805 26.1406 78.576 25.8452C78.8714 25.5405 79.0607 25.1112 79.1438 24.5572C79.2362 24.0032 79.2823 23.3569 79.2823 22.6183V22.3274ZM72.8285 22.3967V22.5629C72.8285 22.5352 72.8331 22.5075 72.8423 22.4798L72.8285 22.3967ZM91.0543 30H86.0547V8.72727H91.0543V16.483C91.516 15.929 92.0607 15.4996 92.6886 15.195C93.3164 14.8903 94.0043 14.7379 94.7521 14.7379C95.7401 14.7379 96.6126 14.9364 97.3697 15.3335C98.136 15.7212 98.7315 16.3583 99.1562 17.2447C99.5902 18.131 99.8072 19.3175 99.8072 20.804V30H94.7937V20.7763C94.7937 19.9638 94.6183 19.4237 94.2674 19.1559C93.9258 18.8881 93.441 18.7543 92.8132 18.7543C92.0007 18.7543 91.4144 18.962 91.0543 19.3775V30ZM110.887 15.0149H115.886V30H111.219L111.081 28.4212C110.619 29.0028 110.06 29.4599 109.405 29.7923C108.749 30.1154 108.006 30.277 107.175 30.277C105.689 30.277 104.479 29.8477 103.547 28.989C102.623 28.1211 102.162 26.6992 102.162 24.7234V15.0149H107.147V24.7511C107.147 25.2219 107.286 25.5913 107.563 25.859C107.849 26.1268 108.274 26.2607 108.837 26.2607C109.354 26.2607 109.774 26.1776 110.097 26.0114C110.43 25.8452 110.693 25.619 110.887 25.3327V15.0149ZM132.409 22.6183C132.409 24.1325 132.201 25.4666 131.786 26.6207C131.379 27.7749 130.747 28.6751 129.888 29.3214C129.029 29.9585 127.926 30.277 126.578 30.277C125.793 30.277 125.11 30.12 124.528 29.8061C123.947 29.4922 123.444 29.0536 123.019 28.4904L122.811 30H118.352V8.72727H123.337V16.1229C123.744 15.6889 124.21 15.3519 124.736 15.1119C125.262 14.8626 125.867 14.7379 126.55 14.7379C127.908 14.7379 129.016 15.0703 129.874 15.7351C130.742 16.3999 131.379 17.3047 131.786 18.4496C132.201 19.5852 132.409 20.8778 132.409 22.3274V22.6183ZM127.423 22.3274C127.423 21.6811 127.372 21.0902 127.271 20.5547C127.169 20.0099 126.966 19.576 126.661 19.2528C126.366 18.9205 125.909 18.7543 125.29 18.7543C124.348 18.7543 123.697 19.0682 123.337 19.696V25.3466C123.707 25.9744 124.367 26.2884 125.318 26.2884C125.955 26.2884 126.421 26.1406 126.717 25.8452C127.012 25.5405 127.201 25.1112 127.284 24.5572C127.377 24.0032 127.423 23.3569 127.423 22.6183V22.3274ZM120.969 22.3967V22.5629C120.969 22.5352 120.974 22.5075 120.983 22.4798L120.969 22.3967Z" fill="#112940"/>
<path d="M9.18748 19.4148C6.8498 20.2086 4.29574 20.1944 1.96783 19.3747C1.60481 19.2483 1.27867 19.0405 1.01666 18.7687C0.754643 18.4969 0.564372 18.169 0.461741 17.8124C-0.153914 15.606 -0.153914 13.2834 0.461741 11.0769C0.567315 10.6638 0.79099 10.2871 1.10768 9.98889C1.42438 9.69071 1.82156 9.4829 2.2547 9.38877C4.43902 8.88027 6.71758 8.87046 8.90658 9.36015C9.36333 9.46698 9.77703 9.7004 10.0959 10.0312C10.4149 10.362 10.6248 10.7755 10.6995 11.22C11.1002 13.3584 11.1002 15.5481 10.6995 17.6865C10.6247 18.0751 10.4461 18.4384 10.1811 18.7413C9.91616 19.0441 9.57384 19.2761 9.18748 19.4148V19.4148Z" fill="#29DCB2"/>
<path d="M26.2159 19.4008C23.1077 20.4984 19.7117 20.4788 16.6165 19.3454C16.1338 19.1705 15.7001 18.8832 15.3518 18.5074C15.0034 18.1316 14.7504 17.6783 14.6139 17.1853C13.7954 14.1344 13.7954 10.9231 14.6139 7.87224C14.7543 7.30107 15.0517 6.78013 15.4728 6.36784C15.8939 5.95555 16.422 5.66821 16.9979 5.53806C19.9022 4.83496 22.9319 4.82141 25.8424 5.4985C26.4497 5.6462 26.9998 5.96894 27.4238 6.42634C27.8479 6.88374 28.127 7.45549 28.2264 8.07006C28.7591 11.0268 28.7591 14.0544 28.2264 17.0112C28.1269 17.5484 27.8894 18.0508 27.5371 18.4695C27.1848 18.8882 26.7296 19.2091 26.2159 19.4008V19.4008Z" fill="#9777FA"/>
<path d="M9.34318 32.4154C7.22033 33.2084 4.90098 33.1942 2.78699 32.3754C2.4561 32.248 2.15912 32.0387 1.9211 31.7652C1.68308 31.4916 1.51098 31.1618 1.41931 30.8035C0.86023 28.5996 0.86023 26.2798 1.41931 24.0759C1.51518 23.6633 1.7183 23.2869 2.00589 22.9891C2.29348 22.6913 2.65417 22.4837 3.0475 22.3897C5.03455 21.88 7.10765 21.8702 9.09895 22.3611C9.51373 22.4678 9.88942 22.7009 10.179 23.0314C10.4686 23.3618 10.6593 23.7748 10.7271 24.2188C11.091 26.3547 11.091 28.5418 10.7271 30.6778C10.6599 31.0692 10.4969 31.4354 10.2542 31.7401C10.0115 32.0448 9.69745 32.2776 9.34318 32.4154V32.4154Z" fill="#FC2E5E"/>
<path d="M24.8461 35.256C22.0864 36.2652 19.0713 36.2472 16.3231 35.2051C15.8929 35.043 15.5069 34.7766 15.1974 34.4284C14.888 34.0803 14.6643 33.6605 14.5451 33.2045C13.8183 30.3995 13.8183 27.447 14.5451 24.642C14.6697 24.1169 14.9338 23.6379 15.3077 23.2589C15.6815 22.8798 16.1504 22.6156 16.6618 22.496C19.2449 21.8472 21.9399 21.8347 24.5286 22.4596C25.0678 22.5954 25.5562 22.8921 25.9327 23.3127C26.3092 23.7332 26.5571 24.2589 26.6453 24.8239C27.1182 27.5424 27.1182 30.326 26.6453 33.0445C26.5579 33.5426 26.3459 34.0086 26.0304 34.3965C25.7149 34.7843 25.3067 35.0806 24.8461 35.256V35.256Z" fill="#FECA16"/>
</svg>
