<svg width="129" height="37" viewBox="0 0 129 37" fill="none" xmlns="http://www.w3.org/2000/svg">
<path fill-rule="evenodd" clip-rule="evenodd" d="M123.76 26.8146H129L115.969 0H112.315L99.3528 26.8146H104.593L106.454 22.7266H118.382L116.934 19.1929H108.109L114.176 6.09738L123.76 26.8146Z" fill="#080A28" fill-opacity="0.3"/>
<path fill-rule="evenodd" clip-rule="evenodd" d="M13.031 0.207764L0 27.0224H5.23998L7.1705 22.9344H19.0294L17.5815 19.4006H8.82523L14.8236 6.30514L24.4073 27.0224H29.6472L16.6162 0.207764H13.031Z" fill="#080A28" fill-opacity="0.3"/>
<path fill-rule="evenodd" clip-rule="evenodd" d="M62.4661 0.207764L49.504 27.0224H54.744L56.6056 22.9344H68.5334L67.0855 19.4006H58.2603L64.3277 6.30514L73.9113 27.0224H79.1513L66.1203 0.207764H62.4661Z" fill="#080A28" fill-opacity="0.3"/>
<path fill-rule="evenodd" clip-rule="evenodd" d="M49.1593 0.138672L39.5756 21.2023L29.992 0.138672H24.752L37.783 26.884H37.9899H41.1614H41.3683L54.3993 0.138672H49.1593Z" fill="#080A28" fill-opacity="0.3"/>
<path fill-rule="evenodd" clip-rule="evenodd" d="M99.1459 0.138672L89.1486 21.6181L79.9786 0.138672H74.7386L86.5286 26.884L81.3576 37.0001H86.3907L104.386 0.138672H99.1459Z" fill="#080A28" fill-opacity="0.3"/>
</svg>
