<svg width="110" height="37" viewBox="0 0 110 37" fill="none" xmlns="http://www.w3.org/2000/svg">
<g clip-path="url(#clip0_16_1426)">
<path fill-rule="evenodd" clip-rule="evenodd" d="M74.5646 0.496826L62.4815 35.2619H71.1212L82.8913 0.496826H74.5646Z" fill="#080A28" fill-opacity="0.3"/>
<path fill-rule="evenodd" clip-rule="evenodd" d="M60.1024 0.496826L46.955 26.1361L46.8924 0.620987L38.1275 0.496826V35.2619H50.5862L68.9926 0.496826H60.1024Z" fill="#080A28" fill-opacity="0.3"/>
<path fill-rule="evenodd" clip-rule="evenodd" d="M103.364 19.3071C102.55 18.1897 101.423 17.0722 99.4195 15.4581C97.5413 13.9682 96.9152 13.2232 96.6022 11.8575V11.2366L96.5396 11.1125C96.5396 9.56047 98.2299 8.31886 100.296 8.31886C101.799 8.31886 103.113 8.62926 104.741 9.31215L105.367 9.62255C106.056 9.93296 106.682 10.3054 107.183 10.8642L110 2.60745L109.812 2.48329C107.433 0.993357 103.552 -0.0620117 100.359 -0.0620117C92.7205 -0.0620117 86.8981 5.09067 86.8981 11.7954C86.8981 13.9061 87.5868 15.8306 88.9015 17.5689C89.5902 18.5001 91.4684 20.2383 92.9084 21.2937L94.2857 22.287C95.2248 22.9699 95.7883 23.9632 95.7883 24.8323C95.7883 26.7568 94.1605 28.0605 91.7814 28.0605C89.152 28.0605 84.8947 26.5705 83.1417 25.0806L83.0165 24.9564L82.8913 24.8323L80.0114 33.3373L80.1366 33.5236C83.3921 35.5722 87.8998 36.8759 91.7814 36.8759C99.169 36.8759 104.991 31.4128 104.991 24.584C104.991 22.5974 104.428 20.8591 103.364 19.3071Z" fill="#080A28" fill-opacity="0.3"/>
<path fill-rule="evenodd" clip-rule="evenodd" d="M106.682 33.9582C106.682 33.3374 106.244 33.1511 105.555 33.1511H104.553V35.8827H105.117V34.7652H105.367L105.993 35.8827H106.682L105.993 34.7031C106.369 34.6411 106.682 34.4548 106.682 33.9582ZM105.618 34.2065H105.117V33.5857H105.555C105.805 33.5857 106.056 33.5857 106.056 33.8961C106.056 34.2065 105.868 34.2065 105.618 34.2065Z" fill="#080A28" fill-opacity="0.3"/>
<path fill-rule="evenodd" clip-rule="evenodd" d="M105.555 31.9714C104.178 31.9714 102.988 32.9026 102.988 34.4547C102.988 36.0688 104.178 36.9379 105.555 36.9379C106.87 36.9379 108.122 36.0067 108.122 34.4547C108.059 32.9026 106.87 31.9714 105.555 31.9714ZM105.555 36.4412C104.553 36.4412 103.739 35.6342 103.739 34.5167C103.739 33.3993 104.553 32.5922 105.555 32.5922C106.557 32.5922 107.371 33.3372 107.371 34.5167C107.371 35.6963 106.494 36.4412 105.555 36.4412Z" fill="#080A28" fill-opacity="0.3"/>
<path fill-rule="evenodd" clip-rule="evenodd" d="M23.2271 0.496826H17.9055L0 35.1378H8.70233L13.2726 26.4465H22.6636V34.8894L22.7888 35.1998H31.4912V0.496826H23.2271ZM16.2151 19.928L22.601 8.31897L22.6636 19.928H16.2151Z" fill="#080A28" fill-opacity="0.3"/>
</g>
<defs>
<clipPath id="clip0_16_1426">
<rect width="110" height="37" fill="white"/>
</clipPath>
</defs>
</svg>
