<svg width="336" height="39" viewBox="0 0 336 39" fill="none" xmlns="http://www.w3.org/2000/svg">
<path d="M51.0954 0H1.67376C0.730369 0 0 0.782407 0 1.71528C0 2.16667 0.182592 2.58796 0.517344 2.88889L11.2599 13.5718C12.2032 14.5046 13.5118 15.0764 14.8508 15.0764H49.6955C52.1605 15.0764 54.2299 17.0023 54.2299 19.4398C54.2299 21.8773 52.2822 23.9236 49.8172 23.9236H25.7759C24.8325 23.9236 24.1022 24.706 24.1022 25.6389C24.1022 26.0903 24.2848 26.5116 24.6195 26.8125L35.3316 37.4954C36.275 38.4282 37.5836 39 38.9226 39H49.7868C63.9681 39 74.6498 24.044 66.7679 9.26852C63.6334 3.55093 57.6383 0 51.0954 0Z" fill="#080A28" fill-opacity="0.3"/>
<path d="M94.7044 5.65747L84.9662 5.71766C84.6314 5.71766 84.2967 5.98849 84.2967 6.37969V32.7408C84.2967 33.0718 84.5706 33.4028 84.9662 33.4028H94.7044C102.952 33.4028 109.16 27.2038 109.16 19.5001C109.16 11.7964 102.952 5.65747 94.7044 5.65747ZM94.7044 28.0163H90.2918V10.9538H94.7044C94.8262 10.9538 94.887 10.9538 94.9783 10.9538C99.5736 11.1343 103.225 14.9561 103.104 19.47C103.165 24.1343 99.4214 27.9561 94.7044 28.0163Z" fill="#080A28" fill-opacity="0.3"/>
<path d="M130.28 5.02539C121.698 5.02539 115.094 11.5555 115.094 19.4698C115.094 27.3842 121.637 33.9143 130.28 33.9143C138.892 33.9143 145.526 27.3842 145.526 19.4698C145.526 11.6458 138.892 5.02539 130.28 5.02539ZM130.28 28.6481C125.228 28.5879 121.089 24.5555 121.089 19.4999C121.089 14.4444 125.228 10.412 130.34 10.412C135.453 10.412 139.531 14.5046 139.531 19.5601C139.531 24.6157 135.362 28.6481 130.28 28.6481Z" fill="#080A28" fill-opacity="0.3"/>
<path d="M166.585 5.02539C157.973 5.02539 151.339 11.5555 151.339 19.4698C151.339 27.3842 158.003 33.9143 166.585 33.9143C175.167 33.9143 181.831 27.3842 181.831 19.4698C181.831 11.5555 175.197 5.02539 166.585 5.02539ZM166.585 28.6481C161.503 28.6481 157.334 24.5555 157.334 19.4999C157.334 14.5046 161.412 10.412 166.524 10.412C171.637 10.412 175.775 14.4444 175.775 19.4999C175.775 24.5555 171.667 28.6481 166.585 28.6481Z" fill="#080A28" fill-opacity="0.3"/>
<path d="M206.786 22.9907C209.859 21.4259 211.837 18.2963 211.776 14.8356C211.776 9.75 207.729 5.6875 202.13 5.6875H190.413C190.078 5.6875 189.744 5.95833 189.744 6.34954L189.865 32.6505C189.865 32.9815 190.139 33.3125 190.535 33.3125H195.069C195.404 33.3125 195.739 33.0417 195.739 32.6505V23.713H200.943L206.147 33.0718C206.268 33.2824 206.481 33.463 206.755 33.463H211.503C211.685 33.463 211.837 33.463 211.959 33.3426C212.233 33.1319 212.355 32.7407 212.142 32.4097L206.786 22.9907ZM205.781 14.8356C205.66 16.8218 203.986 18.3866 201.977 18.2662H195.769V10.9537H201.977C202.038 10.9537 202.16 10.9537 202.251 10.9537C204.26 11.0139 205.842 12.7292 205.781 14.7153C205.781 14.7454 205.781 14.7755 205.781 14.8356Z" fill="#080A28" fill-opacity="0.3"/>
<path d="M231.831 5.74756L222.154 5.80774C221.819 5.80774 221.484 6.07858 221.484 6.46978V32.8911C221.484 33.2221 221.758 33.5531 222.154 33.5531H231.831C240.078 33.5531 246.286 27.4142 246.286 19.6503C246.286 11.9165 240.048 5.74756 231.831 5.74756ZM231.892 28.1966H227.479V11.1341H231.892C231.953 11.1341 232.075 11.1341 232.166 11.1341C236.822 11.3147 240.413 15.1364 240.291 19.6503C240.352 24.3147 236.579 28.1364 231.892 28.1966Z" fill="#080A28" fill-opacity="0.3"/>
<path d="M268.015 6.13893C267.954 5.8681 267.68 5.68754 267.345 5.68754H261.898C261.624 5.62736 261.35 5.8681 261.229 6.13893L250.76 32.4699C250.699 32.5903 250.699 32.6806 250.699 32.801C250.76 33.1922 251.095 33.463 251.49 33.4028H256.299C256.572 33.4028 256.846 33.1922 256.968 32.8912L259.22 26.8125V26.8727H270.084L272.336 32.9514C272.397 33.2824 272.671 33.463 273.006 33.463H277.814C277.936 33.463 278.027 33.463 278.149 33.4028C278.484 33.2223 278.666 32.801 278.483 32.4699L268.015 6.13893ZM261.168 21.6968L264.576 12.5487L267.984 21.6968H261.168Z" fill="#080A28" fill-opacity="0.3"/>
<path d="M290.078 13.1202C290.078 11.5253 291.874 10.141 294.278 10.141C296.012 10.2012 297.625 10.8031 298.934 11.9767C299.208 12.2475 299.664 12.2475 299.938 11.9767L302.616 9.32854C302.677 9.26836 302.677 9.26836 302.677 9.26836C302.89 8.99752 302.89 8.54613 302.616 8.2753C300.212 6.10863 297.138 4.96512 293.882 4.99521C287.887 4.99521 284.083 8.75678 284.083 13.1503C284.083 23.1109 298.264 20.1318 298.203 25.2776C298.203 27.2637 296.256 28.8887 293.213 28.8887C290.961 28.8285 288.739 27.9559 287.096 26.391C286.822 26.1202 286.365 26.1202 286.091 26.391L283.505 28.9489C283.444 29.0091 283.444 29.0091 283.444 29.0091C283.231 29.2799 283.231 29.7313 283.505 30.0021C286.183 32.6503 289.835 34.0947 293.639 34.0346C300.425 34.0346 304.29 30.273 304.29 25.2174C304.29 15.2869 290.078 18.266 290.078 13.1202Z" fill="#080A28" fill-opacity="0.3"/>
<path d="M335.33 5.65747H330.796C330.4 5.65747 330.127 5.9283 330.127 6.31951V16.7315H318.076V6.31951C318.076 5.9283 317.741 5.65747 317.406 5.65747H312.872C312.476 5.65747 312.202 5.98849 312.202 6.31951V32.6204C312.202 33.0116 312.537 33.2825 312.872 33.2825H317.406C317.802 33.2825 318.076 32.9515 318.076 32.6204V22.0579H330.127V32.6505C330.127 33.0417 330.461 33.3126 330.796 33.3126H335.33C335.726 33.3126 336 32.9815 336 32.6505V6.31951C336 5.9283 335.665 5.65747 335.33 5.65747Z" fill="#080A28" fill-opacity="0.3"/>
</svg>
