<svg width="185" height="37" viewBox="0 0 185 37" fill="none" xmlns="http://www.w3.org/2000/svg">
<g clip-path="url(#clip0_16_1388)">
<path d="M101.69 12.2898C98.9248 11.9847 96.4995 12.8563 94.4572 15.3404V14.5559V1.04594V0.915194V0L87.0964 0.915194V36.477H94.4572V34.3852C95.4358 35.126 96.4145 35.9976 97.5633 36.3899C101.861 37.9588 107.52 36.6949 109.477 30.8115C110.753 27.02 110.711 23.1849 109.775 19.3498C108.711 15.0789 105.945 12.7691 101.69 12.2898ZM102.797 27.6737C102.456 30.0271 100.669 31.2473 98.4993 31.073C97.9462 31.0294 97.4782 30.8987 97.0101 30.7244C95.2656 29.6784 94.7551 27.9788 94.5849 26.8893C94.4572 25.2332 94.3296 21.7468 95.138 20.0907C95.8188 18.8269 96.9676 18.1296 98.5419 18.086C100.754 17.9988 102.456 19.1319 102.754 21.4417C103.052 23.5336 103.095 25.669 102.797 27.6737Z" fill="#080A28" fill-opacity="0.3"/>
<path d="M127.773 12.7256C125.22 12.0283 122.624 12.0283 120.071 12.7256C116.242 13.7715 113.689 16.2556 112.881 20.1779C112.413 22.3134 112.327 24.6231 112.455 26.8022C112.71 31.8575 115.774 35.4311 120.497 36.5642C120.582 36.5642 120.624 36.6078 120.71 36.6078C120.71 36.6078 120.71 36.6078 120.752 36.6078C120.922 36.6514 121.135 36.695 121.305 36.695C121.348 36.695 121.433 36.695 121.475 36.695C121.688 36.7386 121.986 36.7821 122.284 36.7821C123.22 36.8693 124.369 36.9565 125.39 36.8257C125.432 36.8257 125.475 36.8257 125.56 36.8257C130.453 36.5642 134.155 33.4264 135.218 28.589C135.814 25.9305 135.814 23.2721 135.218 20.6137C134.282 16.5171 131.815 13.8587 127.773 12.7256ZM128.113 27.3251C128.07 27.4995 128.07 27.6302 128.028 27.8045C127.56 30.0271 125.943 31.2474 123.858 31.1166C121.603 31.0295 120.029 29.6785 119.816 27.3251C119.646 25.6255 119.646 23.9258 119.773 22.2262C119.986 19.5678 121.603 18.086 124.071 18.1296C126.071 18.1732 127.517 19.3499 128.028 21.311C128.496 23.3157 128.155 26.8457 128.113 27.3251Z" fill="#080A28" fill-opacity="0.3"/>
<path d="M17.2746 12.5949H11.9986V9.02132C12.3816 5.66561 17.8703 6.27574 17.8703 6.27574V6.05783V6.01425V0.479505C17.6575 0.435924 6.97792 -2.17892 4.89305 6.14499V6.18857C4.55267 7.23451 4.59522 11.9848 4.59522 12.5949H0V18.9577H4.85051V36.2592H11.9135V18.9577H17.3172L17.8703 12.5949H17.2746Z" fill="#080A28" fill-opacity="0.3"/>
<path d="M34.0812 15.6453C33.9961 15.5582 33.911 15.471 33.8259 15.3839C33.8259 15.3839 33.8259 15.3403 33.7833 15.3403C33.6982 15.2531 33.6131 15.166 33.6131 15.166C31.9538 13.4227 31.3155 13.0305 30.0391 12.6383C25.0609 11.113 20.1679 13.815 18.6361 18.9575C17.7001 22.1389 17.6575 25.3638 18.2107 28.5888C19.402 35.5181 24.4653 37.8715 29.8263 36.6948C31.4857 36.3462 32.7196 35.3002 33.8259 33.8185C33.8259 33.8185 33.911 33.6877 34.0386 33.4263V36.4769H40.8889V12.6383H34.0812V15.6453ZM33.4429 27.6736C33.2302 29.8962 31.4857 31.2036 29.4009 31.1165C27.2734 31.0293 25.9119 29.8962 25.4439 27.8044C24.9333 24.8409 25.5715 21.3544 25.6141 21.0493C26.1672 19.0882 27.5713 18.0859 29.6561 18.1294C31.6985 18.173 33.2302 19.3933 33.4855 21.5723C33.6557 23.577 33.6557 25.6253 33.4429 27.6736Z" fill="#080A28" fill-opacity="0.3"/>
<path d="M61.9078 34.7775C61.6099 33.6008 61.227 32.4241 60.8866 31.2475L60.5462 29.9836C60.5462 29.9836 51.9515 34.2109 50.5899 26.1921C50.4623 24.8847 50.5048 23.4901 50.675 22.1827C51.0154 19.6986 52.462 18.3912 54.8447 18.1733C55.6532 18.0861 56.4616 18.1297 57.2275 18.2604C58.2912 18.4347 59.3549 18.7834 60.5037 19.0885C60.9292 17.8246 61.3121 16.5608 61.695 15.2969C61.7376 15.079 61.8227 14.9483 61.8652 14.774L62.078 14.0331C62.0354 13.9459 61.9078 13.8152 61.7376 13.728C61.5248 13.5537 61.1845 13.423 60.6739 13.2051C60.4611 13.1179 60.2484 13.0743 60.0356 12.9872C59.8655 12.9436 59.7378 12.9 59.7378 12.9C57.4827 12.2463 55.1426 12.2027 52.8024 12.4206C47.8243 12.9436 44.463 15.9506 43.5269 20.9188C43.0163 23.5337 43.0589 26.1921 43.612 28.8069C44.463 32.7292 46.7606 35.2569 50.5474 36.39C53.0152 37.1309 55.5255 37.1744 58.0359 36.7822C59.0996 36.6079 60.5888 36.0413 61.695 35.6491L62.1205 35.5184L61.9078 34.7775Z" fill="#080A28" fill-opacity="0.3"/>
<path d="M84.586 25.4512C84.5435 23.7951 84.586 22.1391 84.3307 20.5266C83.6925 16.0813 81.0545 13.2486 76.7997 12.5077C75.1829 12.2462 73.4384 12.2462 71.779 12.4206C67.2263 12.8564 63.7799 15.7763 63.0991 20.1343C62.6737 22.7928 62.6311 25.5819 62.9715 28.2404C63.4821 32.2498 65.3967 34.7775 68.673 35.9977H68.7155C70.2047 36.4771 77.5656 38.4382 84.0329 35.0825L83.7776 34.1237C83.4798 32.8163 83.0968 31.5525 82.799 30.2451L82.7565 30.1143C82.7565 30.1143 82.6288 30.1579 82.3735 30.2451C82.0757 30.3322 81.8204 30.4194 81.5226 30.5065C81.48 30.5065 81.4375 30.5501 81.3524 30.5501C80.3738 30.8116 78.9697 31.1603 77.4805 31.3782C76.2466 31.5089 74.9701 31.5089 73.7362 31.4217C71.6939 31.0731 70.1196 29.94 70.2047 27.2816H71.3961C75.4381 27.2816 79.4377 27.2816 83.4798 27.2816C83.5649 27.2816 83.6925 27.2816 83.7776 27.2816C83.7776 27.2816 84.6286 27.2816 84.6711 27.2816C84.6711 27.2816 84.6711 27.0637 84.6711 27.0201L84.586 25.4512ZM77.9485 22.1826H69.992C70.0345 20.5702 70.2473 19.0448 71.6513 18.1296C73.1405 17.1709 74.7999 17.1273 76.3317 17.9989C77.9059 18.9141 78.0336 20.483 77.9485 22.1826Z" fill="#080A28" fill-opacity="0.3"/>
<path d="M185 12.8999H177.171L170.406 23.7515V1.08952V0.915194V0L163.045 0.915194V36.477H170.406V25.6254L177.171 36.5206H185L177.639 24.6667L185 12.8999Z" fill="#080A28" fill-opacity="0.3"/>
<path d="M152.876 12.7256C150.323 12.0283 147.728 12.0283 145.175 12.7256C141.345 13.7715 138.793 16.2556 137.984 20.1779C137.516 22.3134 137.431 24.6231 137.559 26.8022C137.814 31.8575 140.877 35.4311 145.6 36.5642C145.685 36.5642 145.728 36.6078 145.813 36.6078C145.813 36.6078 145.813 36.6078 145.856 36.6078C146.026 36.6514 146.239 36.695 146.409 36.695C146.451 36.695 146.536 36.695 146.579 36.695C146.792 36.7386 147.089 36.7821 147.387 36.7821C148.323 36.8693 149.472 36.9565 150.493 36.8257C150.536 36.8257 150.578 36.8257 150.621 36.8257C155.514 36.5642 159.216 33.4264 160.279 28.589C160.875 25.9305 160.875 23.2721 160.279 20.6137C159.429 16.5171 156.961 13.8587 152.876 12.7256ZM153.216 27.3251C153.174 27.4995 153.174 27.6302 153.131 27.8045C152.621 30.0271 151.046 31.2474 148.962 31.1166C146.707 31.0295 145.132 29.6349 144.92 27.3251C144.749 25.6255 144.749 23.9258 144.877 22.2262C145.09 19.5678 146.707 18.086 149.174 18.1296C151.174 18.1732 152.621 19.3499 153.131 21.311C153.599 23.3157 153.259 26.8457 153.216 27.3251Z" fill="#080A28" fill-opacity="0.3"/>
</g>
<defs>
<clipPath id="clip0_16_1388">
<rect width="185" height="37" fill="white"/>
</clipPath>
</defs>
</svg>
