<svg width="144" height="38" viewBox="0 0 144 38" fill="none" xmlns="http://www.w3.org/2000/svg">
<g clip-path="url(#clip0_16_1418)">
<path d="M51.049 21.9657C50.5177 17.3353 48.544 13.9295 45.3558 12.0543C41.7881 9.9496 36.3606 9.79653 32.4892 11.7482C29.7185 13.1641 27.4412 15.8811 26.4164 18.9808C25.3537 22.1953 25.3537 26.4048 26.4164 29.6958C27.0996 31.8006 28.0105 33.3313 29.3769 34.7472C31.0469 36.431 33.2483 37.5025 35.7533 37.8469C36.6642 37.9617 39.4729 38 40.4217 37.8469C40.8772 37.7703 41.6363 37.6173 42.1297 37.4642C46.6842 36.1248 49.7965 32.6042 50.8593 27.5528C51.1249 26.3665 51.2009 23.3816 51.049 21.9657ZM39.5108 35.8569C36.6642 36.6988 34.6526 33.9818 33.8556 28.2799C33.5899 26.4431 33.5899 21.43 33.8556 19.3252C34.4249 14.7331 35.8292 12.437 38.0306 12.437C39.0174 12.437 39.5867 12.6666 40.3458 13.4702C42.2056 15.3454 43.0786 18.9426 43.0786 24.6062C43.0786 29.1218 42.6231 31.9536 41.6363 33.867C41.1808 34.7854 40.2699 35.6273 39.5108 35.8569Z" fill="#080A28" fill-opacity="0.3"/>
<path d="M89.4592 10.9063C88.8519 10.7915 88.2826 10.7533 87.106 10.7915C85.3221 10.8681 84.0696 11.136 82.7412 11.7482C82.2857 11.9396 81.9062 12.1309 81.8682 12.1309C81.8303 12.1309 81.8303 9.4139 81.8682 6.08459C81.9821 1.37764 81.9441 0 81.8682 0C81.5266 0 70.9752 2.0282 70.8614 2.10473C70.7855 2.18127 70.7475 2.41088 70.7475 2.75529C70.7855 3.32931 70.7095 3.29104 72 3.59718C72.3795 3.67372 72.835 3.86506 73.0248 3.97986C73.4423 4.286 73.8218 4.93656 74.0496 5.89325C74.2393 6.65861 74.2773 7.19436 74.3532 12.3223C74.4291 17.5267 74.4291 22.9225 74.2773 32.7573L74.2014 36.852L74.9605 37.0433C76.0612 37.3112 79.1734 37.8087 80.2362 37.9235C81.7544 38.0765 85.2462 38.0383 86.3848 37.8852C91.243 37.1581 94.8867 34.3263 96.5946 29.9638C97.0501 28.8157 97.4676 27.0171 97.6194 25.716C97.8092 24.1853 97.6953 21.0856 97.4296 19.8228C96.4049 15.001 93.4444 11.71 89.4592 10.9063ZM82.6653 35.8187C82.2478 35.7805 82.1719 35.7422 82.058 35.5126C81.9062 35.1682 81.7544 22.9225 81.8303 18.0242L81.8682 14.1974L82.5514 14.006C83.0069 13.853 83.5382 13.8147 84.1835 13.8147C85.0564 13.8147 85.1703 13.853 85.8914 14.1974C87.6753 15.0775 88.8898 17.2971 89.4592 20.6264C89.6869 21.851 89.6869 25.2568 89.4971 26.7493C89.0417 30.3847 87.8651 33.3313 86.271 34.7472C85.6637 35.3213 85.0564 35.6274 84.2973 35.7422C83.8419 35.8953 83.6521 35.8953 82.6653 35.8187Z" fill="#080A28" fill-opacity="0.3"/>
<path d="M117.204 11.4039C114.357 9.94973 109.955 10.0645 106.766 11.6335C103.73 13.126 101.643 15.6134 100.466 19.134C99.8587 20.9709 99.669 22.4633 99.7069 24.8359C99.7449 26.3284 99.8208 27.132 99.9726 27.8208C101.187 33.2166 104.831 36.8903 109.993 37.847C111.131 38.0383 113.674 38.0383 114.851 37.847C116.483 37.5409 118.381 36.8138 119.557 36.0101C120.999 35.0152 122.48 33.5227 122.48 33.0635C122.48 32.7956 121.986 32.1451 121.759 32.1451C121.645 32.1451 121.265 32.3364 120.848 32.6043C119.443 33.5227 118.077 33.9054 116.179 33.9054C113.598 33.9054 111.928 33.2549 110.296 31.5711C109.575 30.8057 109.271 30.423 108.892 29.6959C108.057 28.0504 107.601 26.2136 107.526 24.0706L107.488 23.1521L115.154 23.1139L122.821 23.0756L122.859 22.5399C122.859 22.2337 122.859 21.5066 122.783 20.8561C122.29 16.2257 120.43 13.0112 117.204 11.4039ZM109.499 20.8943L107.564 20.9326V20.5117C107.564 20.2821 107.639 19.6698 107.715 19.1723C108.361 14.9628 109.917 12.4371 111.852 12.4371C113.636 12.4371 114.737 14.9246 114.965 19.4784L115.041 20.7795L113.219 20.8561C112.232 20.8561 110.562 20.8943 109.499 20.8943Z" fill="#080A28" fill-opacity="0.3"/>
<path d="M143.317 25.6779C142.444 23.9176 140.85 22.7313 137.472 21.3154C134.739 20.1673 133.373 19.3637 132.5 18.4453C131.817 17.6799 131.627 17.0676 131.703 15.9579C131.779 14.9246 132.006 14.3123 132.652 13.6235C133.487 12.7434 134.625 12.4372 135.992 12.7051C138.231 13.1643 139.673 14.7333 140.888 18.0626C141.343 19.2489 141.381 19.2872 142.178 18.981L142.672 18.7897V17.4503C142.672 16.7232 142.634 15.1542 142.596 13.9679L142.52 11.8249L142.14 11.6719C140.091 10.7917 136.181 10.2559 133.638 10.4856C130.754 10.7534 128.628 11.6719 126.996 13.3939C125.364 15.0777 124.643 17.0676 124.757 19.4402C124.871 21.3919 125.44 22.8078 126.617 24.0324C127.717 25.1804 128.666 25.7162 131.323 26.7494C135.612 28.4332 136.751 29.4282 136.751 31.5329C136.751 33.2932 135.802 34.5943 134.132 35.1683C133.525 35.3979 132.006 35.3979 131.171 35.1683C129.046 34.5943 127.414 32.7192 126.009 29.2751L125.668 28.3949L125.25 28.4332C125.023 28.4332 124.719 28.5097 124.529 28.5863L124.226 28.7393L124.264 30.27C124.264 31.1119 124.302 32.8723 124.339 34.1734L124.415 36.546L124.909 36.7373C125.896 37.1583 128.818 37.8088 130.678 38.0002C130.906 38.0384 132.158 38.0384 133.487 38.0002C135.764 37.9619 135.916 37.9619 137.054 37.6557C140.432 36.7756 142.596 34.8622 143.582 31.9921C143.886 31.1119 143.924 30.8441 143.962 29.5047C144.038 27.7061 143.886 26.8259 143.317 25.6779Z" fill="#080A28" fill-opacity="0.3"/>
<path d="M13.7016 3.55899H16.9657C20.7232 3.55899 21.3305 3.63553 22.6589 4.28608C24.5946 5.24278 25.9989 7.11791 27.2135 10.3707C27.7069 11.7101 27.7069 11.7101 28.8076 11.3656L29.5287 11.136L29.4528 6.31428C29.4149 3.6738 29.339 1.30119 29.301 1.07158L29.2251 0.650635H14.9541C7.09752 0.650635 0.531365 0.650635 0.341592 0.688903L0 0.72717L0.0379547 1.56906L0.0759093 2.41096L1.13864 2.6023C2.54296 2.75537 3.37797 3.17631 3.90933 3.9034C5.04797 5.54892 5.23774 7.80673 5.23774 18.5217C5.23774 29.9256 5.01002 32.7191 3.90933 34.135C3.34001 34.8621 2.88455 35.13 1.63205 35.3596C-0.0379546 35.6657 0.0379547 35.6275 0.0379547 36.5076C0.0379547 37.0051 0.0759093 37.2347 0.151819 37.273C0.341592 37.3495 18.5978 37.3495 18.7876 37.273C19.0532 37.1582 19.0153 35.8188 18.7876 35.6657C18.6737 35.6275 18.0664 35.4744 17.4212 35.3979C16.776 35.2831 16.0548 35.13 15.8271 35.0535C14.6125 34.5177 13.9673 33.0635 13.7016 30.4613C13.5119 28.5862 13.398 25.1038 13.398 22.5399V20.1673L14.4987 20.2055C16.8519 20.2821 18.1044 20.3969 18.5978 20.6265C19.6605 21.0857 20.5335 22.4251 20.9889 24.3002L21.2167 25.2951L22.0517 25.3334L22.8867 25.3717V19.0958V12.8198L22.0517 12.8581L21.2167 12.8964L20.951 13.8913C20.4576 15.8047 19.6985 16.991 18.5598 17.5268C18.1044 17.7564 17.7628 17.7946 16.6621 17.8712C15.903 17.9094 14.8782 17.9477 14.3469 17.9477H13.398V14.848C13.398 11.7483 13.5498 5.12798 13.6637 4.09474L13.7016 3.55899Z" fill="#080A28" fill-opacity="0.3"/>
<path d="M69.7227 10.3323C68.5082 10.3323 67.8629 10.4853 66.9141 10.9063C65.1302 11.7099 63.8018 13.0493 62.6252 15.2306L62.2456 15.9194L62.2836 14.7331C62.3216 14.0825 62.3595 12.858 62.3975 11.9778L62.4354 10.4471H62.1697C61.8281 10.4471 51.5804 12.5135 51.2768 12.6283C51.087 12.7049 51.049 12.8197 51.049 13.3172C51.049 13.8147 51.087 13.8912 51.2768 13.9295C51.3906 13.9677 51.884 14.0443 52.3395 14.1208C53.2504 14.3121 53.5161 14.4269 53.8956 14.9244C54.5788 15.8429 54.7306 17.4501 54.7306 24.3383C54.7306 29.9637 54.6168 32.7573 54.3511 33.6374C54.0095 34.7089 53.4402 35.2447 52.4533 35.436C52.1118 35.5125 51.6943 35.5891 51.5045 35.6273L51.1249 35.7039L51.087 36.431C51.049 36.9285 51.087 37.1963 51.2008 37.2346C51.2768 37.2729 54.7686 37.3111 58.9815 37.3111L66.6484 37.2729L66.6863 36.4692C66.6863 36.01 66.6863 35.6656 66.6484 35.6656C66.0411 35.6656 64.2193 35.3977 63.9536 35.2829C63.0807 34.9003 62.6632 34.1349 62.4734 32.5659C62.2457 30.6908 62.1318 26.0604 62.2077 22.2719C62.2836 18.4451 62.2836 18.4068 62.5113 18.1772C63.0807 17.5649 64.485 17.1057 65.7375 17.1057C66.7623 17.1057 67.787 17.3736 68.8877 17.9093C69.4191 18.1772 69.9125 18.3685 69.9884 18.3303C70.1402 18.292 72.6452 11.5951 72.6452 11.2507C72.5693 10.7915 71.127 10.3323 69.7227 10.3323Z" fill="#080A28" fill-opacity="0.3"/>
</g>
<defs>
<clipPath id="clip0_16_1418">
<rect width="144" height="38" fill="white"/>
</clipPath>
</defs>
</svg>
