<svg width="136" height="45" viewBox="0 0 136 45" fill="none" xmlns="http://www.w3.org/2000/svg">
<path d="M131.319 27.4648L135.128 30.0042C133.892 31.8251 130.935 34.9493 125.822 34.9493C119.474 34.9493 114.747 30.0377 114.747 23.7895C114.747 17.1406 119.524 12.6299 125.288 12.6299C131.085 12.6299 133.925 17.2406 134.844 19.7298L135.345 20.9996L120.41 27.1808C121.546 29.4195 123.317 30.5555 125.822 30.5555C128.329 30.5555 130.066 29.3192 131.319 27.4648ZM119.608 23.439L129.581 19.2956C129.03 17.9092 127.393 16.9236 125.438 16.9236C122.949 16.9236 119.491 19.1288 119.608 23.439Z" fill="#080A28" fill-opacity="0.3"/>
<path d="M107.936 1.2532H112.747V33.9303H107.936V1.25293V1.2532Z" fill="#080A28" fill-opacity="0.3"/>
<path d="M101.291 13.499H105.936V33.3459C105.936 41.5818 101.074 44.9731 95.327 44.9731C89.9145 44.9731 86.6569 41.3313 85.4373 38.3744L89.6972 36.6034C90.4655 38.4243 92.32 40.5796 95.327 40.5796C99.019 40.5796 101.291 38.2907 101.291 34.0142V32.4105H101.124C100.021 33.7468 97.9165 34.9495 95.2436 34.9495C89.6637 34.9495 84.5515 30.0881 84.5515 23.8235C84.5515 17.5251 89.6637 12.6138 95.2436 12.6138C97.8999 12.6138 100.021 13.7999 101.124 15.103H101.291V13.4993V13.499ZM101.625 23.8235C101.625 19.8808 99.0024 17.0073 95.6612 17.0073C92.2865 17.0073 89.4465 19.8808 89.4465 23.8235C89.4465 27.7158 92.2865 30.5391 95.6612 30.5391C99.0026 30.556 101.625 27.7158 101.625 23.8235H101.625Z" fill="#080A28" fill-opacity="0.3"/>
<path d="M58.2323 23.7397C58.2323 30.1716 53.2207 34.8993 47.0728 34.8993C40.9251 34.8993 35.9132 30.155 35.9132 23.7397C35.9132 17.2745 40.9251 12.5635 47.0728 12.5635C53.2207 12.5635 58.2323 17.2745 58.2323 23.7397ZM53.3542 23.7397C53.3542 19.7305 50.4472 16.9736 47.0728 16.9736C43.6983 16.9736 40.7913 19.7305 40.7913 23.7397C40.7913 27.7156 43.6983 30.5057 47.0728 30.5057C50.4475 30.5057 53.3542 27.7156 53.3542 23.7397Z" fill="#080A28" fill-opacity="0.3"/>
<path d="M82.5515 23.7895C82.5515 30.2214 77.5396 34.949 71.3919 34.949C65.244 34.949 60.2323 30.2211 60.2323 23.7895C60.2323 17.3243 65.244 12.6299 71.3919 12.6299C77.5396 12.6299 82.5515 17.3077 82.5515 23.7895ZM77.6565 23.7895C77.6565 19.7802 74.7497 17.0234 71.375 17.0234C68.0006 17.0234 65.0935 19.7802 65.0935 23.7895C65.0935 27.7654 68.0006 30.5555 71.375 30.5555C74.7664 30.5555 77.6565 27.7488 77.6565 23.7895Z" fill="#080A28" fill-opacity="0.3"/>
<path d="M17.6583 30.0544C10.6584 30.0544 5.179 24.4077 5.179 17.4078C5.179 10.4081 10.6584 4.76145 17.6583 4.76145C21.4339 4.76145 24.1902 6.24821 26.2283 8.15279L29.5864 4.79497C26.7465 2.07192 22.9542 0 17.6583 0C8.06912 0.000268175 0 7.81891 0 17.4078C0 26.9972 8.06912 34.8156 17.6583 34.8156C22.8373 34.8156 26.7465 33.1116 29.8037 29.9375C32.9443 26.7966 33.9132 22.3862 33.9132 18.8111C33.9132 17.6918 33.7796 16.5392 33.6292 15.6872H17.6583V20.3314H29.0351C28.7009 23.2385 27.7821 25.2264 26.4289 26.5794C24.7917 28.2335 22.2025 30.0544 17.6583 30.0544Z" fill="#080A28" fill-opacity="0.3"/>
</svg>
