<svg width="134" height="47" viewBox="0 0 134 47" fill="none" xmlns="http://www.w3.org/2000/svg">
<g clip-path="url(#clip0_16_1434)">
<path d="M7.62042 17.1732C8.46713 16.3316 9.15705 15.7395 9.84696 15.3031C10.5369 14.8668 11.3836 14.6486 12.4185 14.6486C14.0178 14.6486 15.1781 15.2096 15.868 16.3005C16.5579 17.3913 16.9029 18.825 16.9029 20.6327V32.2892C16.9029 32.7879 16.652 33.0995 16.1503 33.2242C15.6485 33.3489 14.99 33.4735 14.1432 33.5359V34.0346H23.6452V33.6294C23.363 33.5982 23.0494 33.567 22.7358 33.5047C22.4222 33.4735 22.1086 33.4112 21.8264 33.3177C21.5441 33.2554 21.2933 33.1307 21.1051 32.9749C20.9169 32.819 20.7915 32.632 20.7915 32.4139V18.825C20.7915 16.7368 20.3211 15.0226 19.3489 13.6824C18.3768 12.3423 16.997 11.6877 15.2095 11.6877C14.3628 11.6877 13.5788 11.8436 12.7948 12.1864C12.0108 12.4981 11.3209 12.9033 10.6623 13.4019C10.0038 13.9006 9.43928 14.4304 8.90617 15.0538C8.40441 15.646 7.96538 16.207 7.62042 16.7368" fill="#080A28" fill-opacity="0.3"/>
<path d="M6.4601 18.0146V32.3515C6.52282 32.6631 6.6169 32.8813 6.77369 33.0371C6.93049 33.1618 7.11865 33.2865 7.33817 33.3488C7.55769 33.4111 7.80857 33.4423 8.0908 33.4735C8.37304 33.4735 8.65528 33.5358 8.96887 33.5981V34.0657H0V33.5981C0.721273 33.5358 1.31711 33.4111 1.85022 33.193C2.35198 32.9748 2.60286 32.632 2.60286 32.1333V16.2381C2.60286 15.9887 2.5715 15.8017 2.54014 15.6771C2.50878 15.5524 2.35198 15.4277 2.13246 15.2719C1.85022 15.116 1.53663 14.929 1.16031 14.742C0.783992 14.555 0.407676 14.368 0.0313597 14.2122V13.9317L6.11514 11.75H6.42874L6.4601 18.0146Z" fill="#080A28" fill-opacity="0.3"/>
<path d="M118.007 17.1732C118.853 16.3316 119.543 15.7395 120.233 15.3031C120.923 14.8668 121.77 14.6486 122.805 14.6486C124.404 14.6486 125.564 15.2096 126.254 16.3005C126.944 17.3913 127.289 18.825 127.289 20.6327V32.2892C127.289 32.7879 127.038 33.0995 126.536 33.2242C126.035 33.3489 125.376 33.4735 124.529 33.5359V34.0346H134.031V33.6294C133.749 33.5982 133.436 33.567 133.122 33.5047C132.808 33.4735 132.495 33.4112 132.213 33.3177C131.93 33.2554 131.679 33.1307 131.491 32.9749C131.303 32.819 131.178 32.632 131.178 32.4139V18.825C131.178 16.7368 130.707 15.0226 129.735 13.6824C128.763 12.3423 127.383 11.6877 125.596 11.6877C124.749 11.6877 123.965 11.8436 123.181 12.1864C122.397 12.4981 121.707 12.9033 121.048 13.4019C120.39 13.9006 119.825 14.4304 119.292 15.0538C118.791 15.646 118.352 16.207 118.007 16.7368" fill="#080A28" fill-opacity="0.3"/>
<path d="M116.846 18.0146V32.3515C116.909 32.6631 117.003 32.8813 117.16 33.0371C117.317 33.1618 117.505 33.2865 117.724 33.3488C117.944 33.4111 118.195 33.4423 118.477 33.4735C118.759 33.4735 119.041 33.5358 119.355 33.5981V34.0657H110.386V33.5981C111.107 33.5358 111.703 33.4111 112.236 33.193C112.738 32.9748 112.989 32.632 112.989 32.1333V16.2381C112.989 15.9887 112.958 15.8017 112.926 15.6771C112.864 15.5524 112.738 15.4277 112.519 15.2719C112.236 15.116 111.923 14.929 111.546 14.742C111.17 14.555 110.794 14.368 110.418 14.2122V13.9317L116.501 11.75H116.815L116.846 18.0146Z" fill="#080A28" fill-opacity="0.3"/>
<path d="M24.8055 34.0345V33.567C25.1818 33.5359 25.5581 33.5047 25.9345 33.4424C26.3108 33.38 26.6557 33.3177 26.938 33.193C27.2516 33.0995 27.5024 32.9437 27.6906 32.7567C27.9101 32.5697 28.0042 32.3204 28.0042 32.0398V15.9265C28.0042 15.6771 27.9728 15.4589 27.9415 15.2719C27.9101 15.0849 27.7533 14.8979 27.5338 14.7421C27.2516 14.5551 26.9066 14.3681 26.5303 14.1811C26.1226 13.9941 25.7149 13.8071 25.2759 13.6513V13.3708L31.6733 11.3137H31.9555V32.3515C32.0182 32.6632 32.1437 32.8814 32.3632 33.0372C32.5827 33.193 32.8022 33.2865 33.0845 33.3489C33.3667 33.4112 33.6803 33.4424 33.9939 33.4735C34.3389 33.4735 34.6525 33.5359 34.9661 33.5982V34.0657H24.8055V34.0345Z" fill="#080A28" fill-opacity="0.3"/>
<path d="M31.5479 6.63855C31.0775 7.10606 30.4816 7.35539 29.7917 7.35539C29.1332 7.35539 28.5373 7.10606 28.0356 6.63855C27.5338 6.13988 27.3143 5.57887 27.3143 4.89319C27.3143 4.20752 27.5652 3.61534 28.0356 3.14783C28.506 2.68033 29.1018 2.46216 29.7917 2.46216C30.4816 2.46216 31.0775 2.68033 31.5479 3.14783C32.0183 3.61534 32.2691 4.17635 32.2691 4.89319C32.2378 5.57887 32.0183 6.13988 31.5479 6.63855Z" fill="#080A28" fill-opacity="0.3"/>
<path d="M93.107 18.4199C93.1697 18.0459 93.3578 17.5161 93.6401 16.7992C93.9223 16.0824 94.33 15.3967 94.8317 14.711C95.3649 14.0253 95.9607 13.402 96.682 12.9033C97.4032 12.3735 98.1872 12.1241 99.0653 12.1241C100.414 12.1241 101.511 12.5293 102.295 13.3708C103.111 14.2123 103.487 15.2097 103.487 16.3629C103.487 16.7992 103.424 17.1421 103.33 17.3602C103.205 17.5784 103.048 17.8277 102.828 18.0771C102.515 18.2017 102.139 18.2952 101.731 18.3264C101.323 18.3576 100.884 18.3576 100.414 18.3576C99.6925 18.3576 99.0339 18.3576 98.4381 18.3887C97.8423 18.3887 97.2464 18.4199 96.7133 18.4199C96.1489 18.4199 95.8353 18.4511 95.2708 18.4511L95.0513 19.1056H108.191C108.097 17.7966 107.783 16.6434 107.282 15.6772C106.78 14.711 106.121 13.9007 105.306 13.2462C104.491 12.5917 103.55 12.1241 102.452 11.8125C101.355 11.5008 100.194 11.345 98.9712 11.345C97.466 11.345 96.0861 11.6566 94.8317 12.3112C93.5774 12.9657 92.5425 13.8072 91.6644 14.8357C90.7863 15.8642 90.1278 17.0486 89.6574 18.3264C89.187 19.6354 88.9361 20.9444 88.9361 22.2535C88.9361 23.8741 89.187 25.4325 89.6888 26.8974C90.1905 28.3622 90.9118 29.6401 91.8526 30.6997C92.7934 31.7906 93.9223 32.6321 95.2394 33.2243C96.5565 33.8165 98.0304 34.1281 99.6298 34.1281C100.916 34.1281 102.107 33.8788 103.173 33.4113C104.24 32.9438 105.149 32.3516 105.902 31.6348C106.654 30.9179 107.25 30.1076 107.689 29.2661C108.128 28.3934 108.41 27.6142 108.536 26.9285L108.16 26.835C107.783 27.9882 106.999 28.9856 105.808 29.7647C104.616 30.5751 103.236 30.9802 101.668 30.9802C100.226 30.9802 98.9399 30.6997 97.8423 30.1699C96.7447 29.6401 95.8353 28.8921 95.0826 27.9882C94.3614 27.0532 93.7969 25.9935 93.4206 24.778C93.0442 23.5625 92.8561 22.3158 92.8561 20.9756C92.8561 20.6328 92.8874 20.2899 92.9188 19.9783C92.9502 19.6354 92.9815 19.3549 92.9815 19.1056L93.107 18.4199Z" fill="#080A28" fill-opacity="0.3"/>
<path d="M40.5794 18.4198C40.6422 18.0458 40.8303 17.516 41.1126 16.7991C41.3948 16.0823 41.8025 15.3966 42.3042 14.7109C42.8373 14.0253 43.4332 13.4019 44.1544 12.9032C44.8757 12.3734 45.6597 12.1241 46.5378 12.1241C47.8862 12.1241 48.9838 12.5292 49.7678 13.3708C50.5832 14.2123 50.9595 15.2096 50.9595 16.3628C50.9595 16.7991 50.8968 17.142 50.8027 17.3601C50.6773 17.5783 50.5205 17.8277 50.3009 18.077C49.9873 18.2017 49.611 18.2952 49.2034 18.3263C48.7957 18.3575 48.3566 18.3887 47.8862 18.3887C47.165 18.3887 46.5064 18.3887 45.9106 18.4198C45.3148 18.4198 44.7503 18.451 44.1858 18.4822C43.6213 18.4822 43.3077 18.5133 42.7433 18.5133L42.5237 19.1678H55.6635C55.5694 17.8588 55.2558 16.7056 54.754 15.7395C54.2523 14.7733 53.5937 13.9629 52.7784 13.3084C51.963 12.6539 51.0222 12.1864 49.9246 11.8747C48.827 11.5631 47.6667 11.4072 46.4437 11.4072C44.9384 11.4072 43.5586 11.7189 42.3042 12.3734C41.0498 13.0279 40.015 13.8694 39.1369 14.8979C38.2588 15.9265 37.6003 17.1108 37.1299 18.3887C36.6595 19.6977 36.4086 21.0067 36.4086 22.3157C36.4086 23.9364 36.6595 25.4948 37.1612 26.9596C37.663 28.4245 38.3843 29.7023 39.3251 30.762C40.2658 31.8528 41.3948 32.6944 42.7119 33.2865C44.029 33.8787 45.5029 34.1904 47.1023 34.1904C48.388 34.1904 49.5797 33.941 50.6459 33.4735C51.7121 33.006 52.6216 32.4139 53.3742 31.697C54.1268 30.9802 54.7227 30.1698 55.1617 29.3283C55.6007 28.4556 55.883 27.6765 56.0084 26.9908L55.6321 26.8973C55.2558 28.0505 54.4718 29.0478 53.2801 29.827C52.0884 30.6373 50.7086 31.0425 49.1406 31.0425C47.6981 31.0425 46.4123 30.762 45.3148 30.2322C44.2172 29.7023 43.3077 28.9543 42.5551 28.0505C41.8338 27.1154 41.2694 26.0558 40.893 24.8402C40.5167 23.6247 40.3286 22.378 40.3286 21.0379C40.3286 20.695 40.3599 20.3522 40.3913 20.0405C40.4226 19.6977 40.454 19.4172 40.454 19.1678L40.5794 18.4198Z" fill="#080A28" fill-opacity="0.3"/>
<path d="M56.9178 34.0345V33.5046C58.3604 33.4111 59.3325 33.2553 59.8029 33.0683C60.2733 32.8501 60.5242 32.5073 60.5242 32.0086V4.95557C60.5242 4.70623 60.4929 4.51923 60.4615 4.39456C60.3988 4.26989 60.2733 4.11406 60.0538 3.95822C59.7716 3.80239 59.3325 3.55305 58.7681 3.24138C58.2036 2.89854 57.7332 2.68037 57.3569 2.52454V2.21286L64.1306 0H64.4755V32.2268C64.4755 32.5385 64.5383 32.7878 64.6951 32.9436C64.8519 33.0995 65.04 33.2241 65.3223 33.2865C65.6045 33.3488 65.9808 33.38 66.4198 33.4111C66.8589 33.4423 67.392 33.4735 67.9878 33.5358V34.0657H56.9178V34.0345Z" fill="#080A28" fill-opacity="0.3"/>
<path d="M85.3925 30.2633C84.8907 31.1672 84.2635 31.884 83.4168 32.445C82.6015 33.006 81.6607 33.4112 80.5944 33.6605C79.5282 33.9099 78.4306 34.0345 77.2703 34.0345C75.8905 34.0345 74.5734 33.9099 73.3503 33.6605C72.1273 33.4112 70.9984 33.0372 69.9321 32.5697V26.3674H70.2771C70.528 27.1154 70.8416 27.9258 71.2179 28.7361C71.5942 29.5776 72.0646 30.3256 72.5977 31.0425C73.1308 31.7593 73.7894 32.3203 74.542 32.7879C75.2946 33.2554 76.2041 33.4735 77.2389 33.4735C78.7442 33.4735 79.9672 33.0372 80.8767 32.1645C81.7861 31.2918 82.2252 29.9828 82.2252 28.1751C82.2252 27.2089 81.9115 26.3986 81.3157 25.7441C80.6885 25.0896 79.8418 24.6844 78.7756 24.4351C77.9289 24.2792 77.1135 24.0922 76.2982 23.9052C75.5142 23.7182 74.7929 23.5001 74.1657 23.2819C72.974 22.8767 72.0019 22.1599 71.2492 21.1625C70.4966 20.1652 70.1203 18.9497 70.1203 17.5471C70.1203 16.581 70.3398 15.7083 70.7475 14.8979C71.1552 14.1188 71.7196 13.4331 72.4095 12.8721C73.0995 12.3111 73.9148 11.8747 74.8243 11.563C75.7337 11.2514 76.7058 11.1267 77.7721 11.1267C79.0892 11.1267 80.2495 11.2514 81.2844 11.4695C82.2879 11.7189 83.26 11.9994 84.1694 12.3422L84.7339 18.1705L84.3576 18.264C83.9186 17.329 83.4795 16.4563 83.0405 15.6459C82.6015 14.8356 82.0997 14.1499 81.5666 13.5889C81.0335 12.9967 80.4376 12.5604 79.7477 12.2487C79.0578 11.9371 78.2738 11.7812 77.3957 11.7812C76.8626 11.7812 76.3295 11.8747 75.7964 12.0617C75.2633 12.2487 74.8242 12.5292 74.4166 12.8721C74.0089 13.2461 73.6953 13.6824 73.4444 14.2434C73.1935 14.8044 73.0681 15.4278 73.0681 16.1446C73.0681 17.2978 73.4131 18.1393 74.0716 18.638C74.7302 19.1367 75.5769 19.5107 76.5804 19.76C77.2703 19.9158 78.0229 20.0717 78.8383 20.2587C79.6536 20.4457 80.3749 20.6015 80.9708 20.7573C82.382 21.1002 83.605 21.817 84.5771 22.9079C85.5806 23.9987 86.0824 25.3701 86.0824 26.9596C86.1138 28.2998 85.8942 29.3595 85.3925 30.2633Z" fill="#080A28" fill-opacity="0.3"/>
<path d="M6.64827 44.6001C6.64827 45.9403 5.55068 46.9999 4.23357 46.9999C2.88511 46.9999 1.81888 45.9091 1.81888 44.6001C1.81888 43.2599 2.91647 42.2002 4.23357 42.2002C5.55068 42.2002 6.64827 43.2599 6.64827 44.6001Z" fill="#080A28" fill-opacity="0.3"/>
<path d="M22.2654 44.6001C22.2654 45.9403 21.1678 46.9999 19.8507 46.9999C18.5022 46.9999 17.436 45.9091 17.436 44.6001C17.436 43.2599 18.5336 42.2002 19.8507 42.2002C21.1992 42.2002 22.2654 43.2599 22.2654 44.6001Z" fill="#080A28" fill-opacity="0.3"/>
<path d="M37.9139 44.6001C37.9139 45.9403 36.8163 46.9999 35.4992 46.9999C34.1507 46.9999 33.0845 45.9091 33.0845 44.6001C33.0845 43.2599 34.1821 42.2002 35.4992 42.2002C36.8476 42.2002 37.9139 43.2599 37.9139 44.6001Z" fill="#080A28" fill-opacity="0.3"/>
<path d="M53.5624 44.6001C53.5624 45.9403 52.4648 46.9999 51.1477 46.9999C49.7992 46.9999 48.733 45.9091 48.733 44.6001C48.733 43.2599 49.8306 42.2002 51.1477 42.2002C52.4648 42.2002 53.5624 43.2599 53.5624 44.6001Z" fill="#080A28" fill-opacity="0.3"/>
<path d="M69.1795 44.6001C69.1795 45.9403 68.0819 46.9999 66.7648 46.9999C65.4163 46.9999 64.3501 45.9091 64.3501 44.6001C64.3501 43.2599 65.4477 42.2002 66.7648 42.2002C68.1133 42.2002 69.1795 43.2599 69.1795 44.6001Z" fill="#080A28" fill-opacity="0.3"/>
<path d="M84.828 44.6001C84.828 45.9403 83.7304 46.9999 82.4133 46.9999C81.0648 46.9999 79.9986 45.9091 79.9986 44.6001C79.9986 43.2599 81.0962 42.2002 82.4133 42.2002C83.7618 42.2002 84.828 43.2599 84.828 44.6001Z" fill="#080A28" fill-opacity="0.3"/>
<path d="M100.476 44.6001C100.476 45.9403 99.3789 46.9999 98.0618 46.9999C96.7133 46.9999 95.6471 45.9091 95.6471 44.6001C95.6471 43.2599 96.7447 42.2002 98.0618 42.2002C99.3789 42.2002 100.476 43.2599 100.476 44.6001Z" fill="#080A28" fill-opacity="0.3"/>
<path d="M131.742 44.6001C131.742 45.9403 130.645 46.9999 129.327 46.9999C127.979 46.9999 126.913 45.9091 126.913 44.6001C126.913 43.2599 128.01 42.2002 129.327 42.2002C130.676 42.2002 131.742 43.2599 131.742 44.6001Z" fill="#080A28" fill-opacity="0.3"/>
<path d="M116.094 44.6001C116.094 45.9403 114.996 46.9999 113.679 46.9999C112.33 46.9999 111.264 45.9091 111.264 44.6001C111.264 43.2599 112.362 42.2002 113.679 42.2002C115.027 42.2002 116.094 43.2599 116.094 44.6001Z" fill="#080A28" fill-opacity="0.3"/>
</g>
<defs>
<clipPath id="clip0_16_1434">
<rect width="134" height="47" fill="white"/>
</clipPath>
</defs>
</svg>
