<svg width="151" height="39" viewBox="0 0 151 39" fill="none" xmlns="http://www.w3.org/2000/svg">
<path d="M34.6793 13.7546C36.3121 13.7546 37.8962 12.3617 38.1643 10.6455C38.4811 8.97904 37.3844 7.58618 35.7516 7.58618C34.1188 7.58618 32.5347 8.97904 32.2666 10.6455C31.9254 12.3617 32.9977 13.7546 34.6793 13.7546Z" fill="#080A28" fill-opacity="0.3"/>
<path d="M145.858 18.7041C145.858 18.7041 149.465 18.7041 149.513 18.7041C150.025 18.7041 150.318 18.5051 150.415 18.0077C150.586 17.3113 150.878 16.1174 150.951 15.794C151.049 15.3712 150.805 15.0479 150.342 15.0479C150.22 15.0479 148.514 15.0479 146.735 15.0479C147.003 13.9783 148.002 10.5459 148.002 8.30743C148.002 3.83039 144.274 0.0249023 139.01 0.0249023C133.039 0.0249023 129.164 4.10398 129.164 9.84952C129.164 11.516 129.773 13.4809 130.529 14.6996C130.212 14.6748 129.895 14.6748 129.554 14.6748C125.021 14.6748 122.17 17.1869 122.17 20.8431C122.17 24.2755 124.826 25.5938 127.312 26.4892C129.53 27.2851 131.552 27.6333 131.552 29.3993C131.552 30.5931 130.431 31.2896 128.238 31.2896C125.63 31.2896 124.192 30.0459 123.851 29.5734C124.095 29.3744 124.46 28.9018 124.46 28.1308C124.46 27.0364 123.705 26.141 122.291 26.141C121.097 26.141 120.098 27.1359 119.854 28.4292C117.954 30.0211 115.858 31.0408 112.909 31.0408C110.009 31.0408 108.498 29.4988 108.498 26.2156C109.18 26.4146 110.959 26.6882 112.129 26.6882C117.052 26.6882 120.391 24.3999 120.391 19.8482C120.391 17.3859 118.27 14.7991 114.103 14.7991C108.595 14.7991 105.525 18.3559 104.184 22.2609C103.819 22.1614 103.429 22.0868 103.063 21.9873C103.356 21.1167 103.575 20.1218 103.575 19.0026C103.575 17.0625 102.405 14.7991 99.2613 14.7991C97.0679 14.7991 94.9964 16.2666 93.5586 18.4554C93.9241 17.0377 94.1435 16.0676 94.1678 16.0179C94.2653 15.6448 94.1191 15.222 93.5342 15.222C92.8031 15.222 90.3173 15.222 90.3173 15.222C89.8543 15.222 89.5374 15.3961 89.4156 15.9184C89.3181 16.2666 88.2214 20.6939 87.1491 25.0217C86.4667 27.7079 82.9574 31.0657 78.5463 31.0657C75.6462 31.0657 74.1352 29.4241 74.1352 26.141C74.8907 26.4394 76.5967 26.713 77.7665 26.713C82.8843 26.713 86.0281 24.4248 86.0281 19.8731C86.0281 17.4107 83.9078 14.824 79.7405 14.824C73.5504 14.824 69.7485 19.7239 69.1149 25.2953C68.8468 27.6084 66.9459 30.7921 64.8501 30.7921C63.8509 30.7921 63.266 30.1454 63.266 29.051C63.266 28.1059 63.924 25.7679 64.6307 22.8578C64.8744 21.8878 65.24 20.3954 65.6299 18.7539C67.4577 18.7539 68.9199 18.7539 68.993 18.7539C69.5048 18.7539 69.7973 18.5549 69.8948 18.0574C70.0654 17.361 70.3578 16.1671 70.4309 15.8438C70.5284 15.4209 70.2847 15.0976 69.8216 15.0976C69.6998 15.0976 66.5073 15.0976 66.5073 15.0976C66.5073 15.0976 68.0426 8.87949 68.067 8.73026C68.2132 8.10845 67.7014 7.73536 67.1653 7.85972C67.1653 7.85972 64.6063 8.38204 64.1433 8.48153C63.6559 8.58102 63.2903 8.85462 63.1197 9.55105C63.0954 9.65054 61.755 15.1225 61.755 15.1225C61.755 15.1225 59.1473 15.1225 59.0986 15.1225C58.5868 15.1225 58.2944 15.3215 58.1969 15.8189C58.0263 16.5153 57.7339 17.7092 57.6607 18.0326C57.5389 18.4554 57.807 18.7787 58.27 18.7787C58.3675 18.7787 59.4642 18.7787 60.8777 18.7787C60.8533 18.8533 59.9272 22.435 59.1961 25.6435C58.8549 27.1856 57.6607 30.7921 55.7355 30.7921C54.59 30.7921 54.1026 30.1952 54.1026 28.9267C54.1026 26.9369 56.0279 21.9127 56.0279 19.6493C56.0279 16.6148 54.4195 14.8489 51.1538 14.8489C49.0823 14.8489 46.9621 16.2169 46.036 17.4107C46.036 17.4107 46.3041 16.4407 46.4015 16.0676C46.499 15.6697 46.3041 15.2717 45.7923 15.2717C45.0612 15.2717 43.2821 15.2717 42.5997 15.2717C41.9174 15.2717 41.7224 15.6448 41.6249 16.0428C41.5762 16.2169 40.4307 20.8183 39.3341 25.2704C38.5786 28.3049 36.7264 30.8419 34.7768 30.8419C33.7776 30.8419 33.3145 30.1952 33.3145 29.1008C33.3145 28.1556 33.9238 25.8176 34.6306 22.9076C35.5079 19.3757 36.2634 16.4407 36.3609 16.1174C36.4583 15.6697 36.2878 15.2966 35.7272 15.2966C35.0449 15.2966 33.2414 15.2966 32.5103 15.2966C31.9254 15.2966 31.7305 15.6199 31.6086 16.0428C31.6086 16.0428 30.7069 19.5498 29.7321 23.4299C29.0253 26.2653 28.2698 29.1257 28.2698 30.4936C28.2698 32.9063 29.3421 34.722 32.2422 34.722C34.4843 34.722 36.2878 33.553 37.6525 32.0606C37.4575 32.8565 37.3357 33.3788 37.3113 33.4286C37.1895 33.8763 37.3357 34.2991 37.8718 34.2991C38.603 34.2991 40.4551 34.2991 41.1619 34.2991C41.7468 34.2991 41.9661 34.0753 42.0636 33.553C42.1854 33.0555 44.6469 23.206 44.6469 23.206C45.3049 20.5447 46.9133 18.8036 49.1554 18.8036C50.2277 18.8036 51.1538 19.5249 51.0563 20.9426C50.9345 22.4847 49.1067 28.0561 49.1067 30.4936C49.1067 32.3342 49.789 34.7468 53.2009 34.7468C55.5161 34.7468 57.2464 33.6027 58.4893 32.1352C58.9524 33.7022 60.1465 34.7468 62.3643 34.7468C66.0442 34.7468 68.2619 32.5083 69.5779 30.2698C70.6502 32.8814 73.1848 34.7468 76.9135 34.7468C80.6909 34.7468 83.6398 33.1301 85.7113 30.8916C85.3457 32.384 85.0776 33.4037 85.0533 33.4783C84.9314 33.9509 85.1264 34.324 85.6625 34.324C86.3693 34.324 88.6114 34.324 88.9282 34.324C89.3668 34.324 89.6837 34.1002 89.8055 33.6027C89.8543 33.3789 90.3417 31.5134 90.9997 28.8769C92.2669 23.8278 94.3141 18.5797 97.3848 18.5797C98.4571 18.5797 98.9201 19.2016 98.9201 20.1716C98.9201 20.6193 98.7982 21.0172 98.6764 21.2411C97.1898 20.9426 95.9956 21.6888 95.9956 23.3055C95.9956 24.375 97.0923 25.3202 98.5545 25.3202C99.6756 25.3202 100.602 25.0466 101.357 24.5243C102.04 24.6735 102.795 24.8227 103.551 25.0217C103.429 25.7928 103.38 26.5389 103.38 27.2354C103.38 31.2896 106.207 34.722 111.3 34.722C115.273 34.722 118.027 33.2296 120.366 31.3393C121.512 33.2296 124.363 34.7717 128.116 34.7717C133.258 34.7717 136.183 32.0357 136.183 28.4292C136.183 25.1709 133.551 23.9522 130.846 22.9573C128.652 22.1365 126.8 21.7137 126.8 20.1218C126.8 18.8285 127.799 18.2315 129.53 18.2315C130.651 18.2315 131.479 18.4803 131.942 18.6046C132.381 19.7488 133.307 20.9924 134.867 20.9924C136.207 20.9924 136.792 19.9229 136.792 18.928C136.792 16.1174 132.21 15.8189 132.21 9.79977C132.21 6.04403 134.282 2.95985 138.595 2.95985C141.593 2.95985 143.543 4.8999 143.543 8.00896C143.543 10.5957 142.007 15.1722 142.007 15.1722C142.007 15.1722 139.473 15.1722 139.4 15.1722C138.888 15.1722 138.595 15.3712 138.498 15.8687C138.327 16.5651 138.035 17.759 137.962 18.0823C137.864 18.5051 138.108 18.8285 138.571 18.8285C138.668 18.8285 141.106 18.8285 141.106 18.8285C141.106 18.8285 138.474 28.7028 138.474 30.5185C138.474 32.9311 139.814 34.7468 142.738 34.7468C146.881 34.7468 149.44 32.0109 150.586 28.0313C150.683 27.7328 150.513 27.4841 150.196 27.4841C149.66 27.4841 148.855 27.4841 148.612 27.4841C148.295 27.4841 148.124 27.6582 148.027 27.9815C147.661 29.3993 146.784 30.8916 145.054 30.8916C144.054 30.8916 143.469 30.2449 143.469 29.1505C143.469 28.2054 144.079 25.9669 144.834 22.9573C145.2 21.3903 145.858 18.7041 145.858 18.7041ZM113.274 18.5549C114.737 18.5549 115.419 19.5498 115.419 20.7188C115.419 22.7086 113.908 23.9273 111.52 23.9273C110.667 23.9273 109.473 23.7283 108.766 23.4796C109.083 21.6639 110.399 18.5549 113.274 18.5549ZM78.9119 18.5549C80.5203 18.5549 81.0565 19.5498 81.0565 20.7188C81.0565 22.7086 79.5455 23.9273 77.1572 23.9273C76.3042 23.9273 75.1101 23.7283 74.4033 23.4796C74.7201 21.6639 75.8655 18.5549 78.9119 18.5549Z" fill="#080A28" fill-opacity="0.3"/>
<path d="M15.6703 0C5.26404 0 0 7.63584 0 13.9783C0 17.8335 1.43786 21.2659 4.48418 22.5344C4.99597 22.7334 5.43464 22.5344 5.58086 21.9624C5.67834 21.5644 5.92205 20.5695 6.01953 20.1716C6.16575 19.5995 6.11701 19.4005 5.70271 18.9279C4.82537 17.8584 4.26485 16.4904 4.26485 14.5255C4.26485 8.85459 8.40785 3.80548 15.061 3.80548C20.9587 3.80548 24.2 7.48661 24.2 12.3865C24.2 18.8533 21.3974 24.3004 17.2544 24.3004C14.9635 24.3004 13.2332 22.3603 13.7937 19.9974C14.4517 17.162 15.719 14.1027 15.719 12.0631C15.719 10.2226 14.7442 8.70536 12.7702 8.70536C10.4306 8.70536 8.5297 11.1926 8.5297 14.5006C8.5297 16.6148 9.23645 18.0325 9.23645 18.0325C9.23645 18.0325 6.82376 28.4292 6.40946 30.2449C5.58086 33.8763 6.28761 38.3036 6.33635 38.7513C6.36072 39.0249 6.70191 39.0746 6.84813 38.8756C7.06746 38.5772 9.87008 35.0702 10.8205 31.5383C11.0886 30.5434 12.3559 25.3948 12.3559 25.3948C13.1114 26.8871 15.3535 28.1805 17.7174 28.1805C24.7605 28.1805 29.5615 21.6142 29.5615 12.8342C29.5615 6.19324 24.0538 0 15.6703 0Z" fill="#080A28" fill-opacity="0.3"/>
</svg>
