<svg width="208" height="32" viewBox="0 0 208 32" fill="none" xmlns="http://www.w3.org/2000/svg">
<path d="M171.738 0.9955L172.147 24.501H171.946L165.173 0.9955H154.071V30.605H161.416L161.006 6.28081H161.208L168.455 30.605H179.082V0.9955H171.738ZM31.7905 0.9955L26.2397 30.9128H34.2604L38.3553 3.69382H38.5243L42.5217 30.9128H50.4774L44.9916 0.9955H31.7905ZM76.6781 0.9955L73.0187 23.8133H72.8172L69.1253 0.9955H57.0032L56.4247 30.9128H63.8735L64.075 4.00164H64.14L69.1188 30.9128H76.6651L81.644 4.00164H81.8454L82.0469 30.9128H89.4957L88.7872 0.9955H76.6781ZM13.7081 22.4183C14.0136 23.0995 13.9096 24.1212 13.8121 24.5993C13.6106 25.621 12.8956 26.6099 10.9327 26.6099C9.03472 26.6099 7.95575 25.5162 7.95575 23.9181V21.0168H0V23.3025C0 30.0221 5.24534 32 10.8352 32C16.1845 32 20.6499 30.1269 21.3648 25.2149C21.7743 22.6214 21.4688 20.9185 21.3648 20.3029C19.9739 13.9894 8.63823 12.221 7.85825 8.70406C7.75337 8.17442 7.75337 7.62911 7.85825 7.09947C8.05975 6.11052 8.73573 5.08883 10.5297 5.08883C12.3236 5.08883 13.3051 6.18257 13.3051 7.7806V9.58822H20.7539V7.50553C20.7539 0.988947 14.8975 0 10.7312 0C5.44683 0 1.08547 1.77487 0.30549 6.58207C0.0366642 7.91527 0.0722263 9.2926 0.409487 10.6099C1.59245 16.7859 12.2261 18.5935 13.7146 22.4118L13.7081 22.4183ZM110.36 22.4183C110.666 23.0995 110.562 24.0229 110.464 24.5993C110.263 25.621 109.548 26.6099 107.585 26.6099C105.687 26.6099 104.608 25.5162 104.608 23.9181V21.0168H96.652V23.3025C96.652 29.9173 101.8 31.9345 107.383 31.9345C112.732 31.9345 117.1 30.1269 117.809 25.1101C118.218 22.5166 117.913 20.912 117.809 20.1981C116.626 13.9894 105.388 12.1163 104.608 8.70406C104.503 8.17442 104.503 7.62911 104.608 7.09947C104.777 6.11052 105.485 5.08883 107.279 5.08883C108.969 5.08883 110.055 6.18257 110.055 7.7806V9.58822H117.399V7.50553C117.399 0.988947 111.647 0 107.481 0C102.196 0 97.9324 1.67008 97.1525 6.58207C96.951 7.87884 96.951 9.10356 97.2175 10.6099C98.4394 16.7859 108.865 18.4888 110.354 22.4118L110.36 22.4183ZM135.378 26.4134C137.477 26.4134 138.049 25.0119 138.257 24.2325C138.361 23.9247 138.361 23.4138 138.361 23.106V1.00205H145.907V22.5231C145.907 23.106 145.907 24.226 145.803 24.501C145.329 30.1269 140.929 31.9345 135.475 31.9345C130.022 31.9345 125.661 30.1269 125.147 24.501C125.147 24.226 125.043 23.0995 125.043 22.5231V1.00205H132.589V23.106C132.589 23.5186 132.589 23.9247 132.693 24.2325C132.693 25.0184 133.304 26.4134 135.365 26.4134H135.378ZM197.366 26.1056C199.57 26.1056 200.246 24.7041 200.447 23.9247C200.551 23.6169 200.551 23.106 200.551 22.8309V18.5018H197.47V14.1007H208V22.1171C208 22.7327 208 23.106 207.896 24.1277C207.389 29.6226 202.716 31.5285 197.47 31.5285C192.186 31.5285 187.552 29.616 187.045 24.1277C186.941 23.106 186.941 22.7262 186.941 22.1171V9.49652C186.941 9.01842 187.045 7.99673 187.045 7.51863C187.721 1.89276 192.192 0.0851444 197.47 0.0851444C202.716 0.0851444 207.285 1.89276 207.896 7.51863C208 8.40279 208 9.49652 208 9.49652V10.5182H200.551V8.8154C200.551 8.8154 200.551 8.10151 200.447 7.68891C200.343 7.00778 199.739 5.50799 197.47 5.50799C195.267 5.50799 194.695 6.90954 194.493 7.68891C194.389 8.10151 194.389 8.61237 194.389 9.12321V22.8375C194.389 23.2108 194.389 23.6234 194.493 23.9312C194.493 24.7171 195.273 26.1122 197.373 26.1122L197.366 26.1056Z" fill="#080A28" fill-opacity="0.3"/>
</svg>
