<svg width="65" height="65" viewBox="0 0 65 65" fill="none" xmlns="http://www.w3.org/2000/svg">
<g clip-path="url(#clip0_134_2709)">
<path d="M56.1743 54.0673C60.8058 48.6365 63.6033 41.5937 63.6033 33.8968C63.6033 16.7189 49.6778 2.79337 32.4999 2.79337C15.322 2.79337 1.39648 16.7189 1.39648 33.8968C1.39648 41.5938 4.19377 48.6365 8.8254 54.0673H56.1743Z" fill="#FF4155"/>
<path d="M53.895 32.5859H11.1052C9.79241 32.5859 8.71826 31.5118 8.71826 30.199V2.38697C8.71826 1.07415 9.79241 0 11.1052 0H53.895C55.2079 0 56.282 1.07415 56.282 2.38697V30.1991C56.282 31.5119 55.2079 32.5859 53.895 32.5859Z" fill="#47477F"/>
<path d="M19.2436 29.1338V3.45224C16.7616 1.53283 19.2436 0 19.2436 0H11.1051C9.79228 0 8.71826 1.07415 8.71826 2.38697V30.1991C8.71826 31.5119 9.79241 32.5861 11.1051 32.5861H19.2436C16.8991 30.8233 19.2436 29.1338 19.2436 29.1338Z" fill="#3B3868"/>
<path d="M53.895 32.5859H50.7461V34.2979C50.7461 34.8344 50.3096 35.2709 49.7731 35.2709H15.2271C14.6905 35.2709 14.2542 34.8344 14.2542 34.2979V32.5859H11.1052C9.79241 32.5859 8.71826 33.6601 8.71826 34.9729V53.9403C10.7877 56.3933 13.2312 58.5198 15.9584 60.2366L26.293 64.3791C28.2989 64.7853 30.3743 65 32.5001 65C34.626 65 36.7014 64.7854 38.7071 64.3789L49.0417 60.2365C51.769 58.5197 54.2124 56.3933 56.2819 53.9402V34.9729C56.282 33.6601 55.2079 32.5859 53.895 32.5859Z" fill="#E9EFFF"/>
<path d="M15.2271 35.271C14.6905 35.271 14.2542 34.8345 14.2542 34.298V32.5861H11.1052C9.79241 32.5861 8.71826 33.6602 8.71826 34.973V53.9405C10.7877 56.3935 13.2312 58.5199 15.9584 60.2367L19.3187 61.5837V42.6165C19.3187 42.6165 19.3187 41.6326 19.3187 40.4583C19.3187 39.8711 19.6007 39.5604 19.8828 39.3963C20.1004 39.2698 20.1684 38.9936 20.0293 38.784C19.6827 38.2625 19.9371 37.8142 20.1737 37.5535C20.3067 37.407 20.3215 37.1937 20.2192 37.0245C19.8522 36.417 20.1886 35.8385 20.3602 35.6072C20.4164 35.5315 20.4468 35.4407 20.4468 35.3465V35.271H15.2271Z" fill="#D3DCFB"/>
<path d="M14.0239 32.5859V34.2979C14.0239 34.9596 14.5654 35.501 15.2271 35.501H49.773C50.4347 35.501 50.9762 34.9596 50.9762 34.2979V32.5859H14.0239Z" fill="#5F5F9B"/>
<path d="M19.2436 34.298V32.5861H14.0239V34.298C14.0239 34.9597 14.5654 35.5012 15.2272 35.5012H20.4469C19.7851 35.5012 19.2436 34.9597 19.2436 34.298Z" fill="#47477F"/>
<path d="M12.1704 6.65616V28.7327C12.1704 28.9542 12.35 29.1338 12.5716 29.1338H52.4285C52.6501 29.1338 52.8297 28.9542 52.8297 28.7327V6.65616H12.1704Z" fill="#E9EFFF"/>
<path d="M18.1286 27.1016V6.65616H12.1704V28.7327C12.1704 28.9542 12.35 29.1338 12.5716 29.1338H19.2435C18.5748 28.7023 18.1286 27.9522 18.1286 27.1016Z" fill="#D3DCFB"/>
<path d="M52.4285 3.45224H12.5716C12.35 3.45224 12.1704 3.63188 12.1704 3.85341V6.963H52.8297V3.85341C52.8297 3.63188 52.6501 3.45224 52.4285 3.45224Z" fill="#5F5F9B"/>
<path d="M18.1286 5.48451C18.1286 4.63379 18.5748 3.88375 19.2436 3.45224H12.5716C12.35 3.45224 12.1704 3.63188 12.1704 3.85341V6.963H18.1286V5.48451Z" fill="#47477F"/>
<path d="M50.9608 38.2629H14.0396C13.4452 38.2629 12.9634 38.7448 12.9634 39.3391V50.5863C12.9634 51.1807 13.4452 51.6627 14.0396 51.6627H50.961C51.5554 51.6627 52.0371 51.1807 52.0371 50.5863V39.3391C52.0371 38.7448 51.5552 38.2629 50.9608 38.2629Z" fill="#D3DCFB"/>
<path d="M12.9629 39.3391V50.5863C12.9629 51.1807 13.4448 51.6627 14.0391 51.6627H19.3184V42.6166C19.3184 42.6166 19.3184 41.6327 19.3184 40.4584C19.3184 39.8712 19.6004 39.5605 19.8825 39.3964C20.1001 39.2699 20.1681 38.9937 20.029 38.7841C19.9062 38.5994 19.8599 38.4242 19.8604 38.263H14.0391C13.4448 38.2629 12.9629 38.7448 12.9629 39.3391Z" fill="#BEC8F7"/>
<path d="M50.9605 52.6147H14.0391C12.9206 52.6147 12.0107 51.7048 12.0107 50.5863V39.339C12.0107 38.2205 12.9206 37.3106 14.0391 37.3106H50.9605C52.0789 37.3106 52.9889 38.2205 52.9889 39.339V50.5863C52.9889 51.7048 52.0789 52.6147 50.9605 52.6147ZM14.0391 39.2152C13.9708 39.2152 13.915 39.2709 13.915 39.3392V50.5865C13.915 50.6549 13.9706 50.7107 14.0391 50.7107H50.9605C51.0289 50.7107 51.0846 50.6549 51.0846 50.5865V39.3392C51.0846 39.2709 51.029 39.2152 50.9605 39.2152H14.0391Z" fill="#BEC8F7"/>
<path d="M19.3188 50.7104H14.0394C13.971 50.7104 13.9154 50.6546 13.9154 50.5862V39.3389C13.9154 39.2706 13.971 39.2149 14.0394 39.2149H20.0538C20.1215 39.0821 20.1193 38.9193 20.0293 38.7839C19.6827 38.2624 19.9372 37.8141 20.1738 37.5533C20.237 37.4836 20.2727 37.3987 20.2826 37.3107H14.0396C12.9211 37.3107 12.0112 38.2206 12.0112 39.3391V50.5863C12.0112 51.7048 12.9211 52.6148 14.0396 52.6148H19.3189V50.7104H19.3188Z" fill="#A2B6F4"/>
<path d="M39.0592 54.5778H25.9409C25.3465 54.5778 24.8647 55.0597 24.8647 55.6539V61.2023C24.8647 61.7967 25.3465 62.2786 25.9409 62.2786H39.0592C39.6536 62.2786 40.1354 61.7967 40.1354 61.2023V55.6539C40.1354 55.0597 39.6536 54.5778 39.0592 54.5778Z" fill="#D3DCFB"/>
<path d="M34.5127 12.8545H30.4869C29.9733 12.8545 29.5557 13.2722 29.5557 13.7857C29.5557 14.2991 29.9733 14.7169 30.4869 14.7169H34.5127C35.0262 14.7169 35.4439 14.2991 35.4439 13.7857C35.4439 13.2723 35.0262 12.8545 34.5127 12.8545Z" fill="#42C3FC"/>
<path d="M38.8094 9.29755H26.1905C25.677 9.29755 25.2593 9.71535 25.2593 10.2287C25.2593 10.7421 25.6771 11.1599 26.1905 11.1599H38.8094C39.3229 11.1599 39.7406 10.7421 39.7406 10.2287C39.7406 9.71535 39.3229 9.29755 38.8094 9.29755Z" fill="#BEC8F7"/>
<path d="M46.9488 20.9828H18.0508C17.5373 20.9828 17.1196 21.4005 17.1196 21.914C17.1196 22.4274 17.5373 22.8452 18.0508 22.8452H46.9488C47.4623 22.8452 47.88 22.4275 47.88 21.914C47.8798 21.4005 47.4622 20.9828 46.9488 20.9828Z" fill="#BEC8F7"/>
<path d="M46.9488 17.2972H18.0508C17.5373 17.2972 17.1196 17.715 17.1196 18.2284C17.1196 18.7418 17.5373 19.1596 18.0508 19.1596H46.9488C47.4623 19.1596 47.88 18.7418 47.88 18.2284C47.88 17.715 47.4622 17.2972 46.9488 17.2972Z" fill="#BEC8F7"/>
<path d="M32.4996 24.6684H18.0508C17.5373 24.6684 17.1196 25.0862 17.1196 25.5996C17.1196 26.1131 17.5373 26.5308 18.0508 26.5308H32.4998C33.0133 26.5308 33.431 26.1131 33.431 25.5996C33.431 25.0862 33.0132 24.6684 32.4996 24.6684Z" fill="#BEC8F7"/>
<path d="M49.6178 43.2834C49.6421 42.5 48.99 41.845 48.1921 41.8831C47.4946 41.9165 46.9473 42.4891 46.9025 43.1818L46.9385 42.7172C46.9618 41.9698 46.3692 41.3392 45.6218 41.316C44.8744 41.2928 44.2437 41.8853 44.2206 42.6328L44.2239 42.1578C44.2471 41.4105 43.6547 40.7799 42.9073 40.7567C42.1598 40.7334 41.5293 41.326 41.506 42.0734L41.5164 41.639C41.5136 40.9659 41.0361 40.3684 40.3668 40.2669C39.5492 40.1428 38.8033 40.7666 38.7784 41.5685V47.6006C38.7724 47.7956 38.5005 47.8697 38.3879 47.7103C37.9617 47.1069 36.7954 45.5696 36.0186 44.9225C35.4889 44.4815 34.7882 44.2701 34.1515 44.5362C33.5459 44.7893 33.3538 45.556 33.7604 46.0713C34.3787 46.8545 35.2958 47.9771 35.916 48.9736C36.3146 49.614 36.7132 50.2577 36.7257 51.0119C36.7421 52.0105 36.9465 53.1403 37.9354 54.6851C38.0236 54.8228 38.8671 55.6843 39.0568 57.0727H47.7425V56.0597C47.7574 55.582 47.9326 55.119 48.2553 54.7666C49.01 53.9425 49.5812 52.8596 49.6176 51.6886C49.6993 49.064 49.5663 44.9409 49.6178 43.2834Z" fill="#F9BA8F"/>
<path d="M49.0712 53.3739C42.7747 56.4144 38.216 54.0497 37.2808 53.4866C37.4473 53.8585 37.66 54.2553 37.9353 54.6853C38.0236 54.8231 38.867 55.6846 39.0567 57.0729H47.7425V56.06C47.7573 55.5822 47.9324 55.1192 48.2552 54.7668C48.6469 54.3391 48.9883 53.8413 49.232 53.2981C49.1784 53.3232 49.1261 53.3474 49.0712 53.3739Z" fill="#FCAD6D"/>
<path d="M30.8482 44.5364C30.2114 44.2704 29.5108 44.4817 28.9811 44.9228C28.2042 45.5698 27.038 47.1071 26.6118 47.7105C26.4991 47.8699 26.2273 47.7958 26.2212 47.6008V41.5688C26.1963 40.7668 25.4503 40.143 24.6327 40.2671C23.9634 40.3687 23.486 40.9661 23.4832 41.6393L23.4936 42.0737C23.4703 41.3263 22.8399 40.7337 22.0924 40.7569C21.345 40.7802 20.7524 41.4107 20.7756 42.1581L20.7789 42.633C20.7557 41.8857 20.1251 41.2931 19.3776 41.3163C18.6301 41.3395 18.0376 41.9701 18.0609 42.7175L18.0969 43.1821C18.0521 42.4893 17.5049 41.9168 16.8073 41.8834C16.0094 41.8453 15.3573 42.5002 15.3817 43.2837C15.4331 44.941 15.3001 49.0641 15.3817 51.689C15.418 52.86 15.9892 53.9429 16.744 54.767C17.0668 55.1194 17.242 55.5825 17.2569 56.0601V57.0731H25.9426C26.1324 55.6847 26.9758 54.8232 27.0641 54.6855C28.0531 53.1407 28.2575 52.0109 28.2739 51.0123C28.2863 50.2581 28.6851 49.6144 29.0837 48.974C29.7039 47.9775 30.621 46.8549 31.2392 46.0717C31.6459 45.5563 31.4539 44.7896 30.8482 44.5364Z" fill="#F9BA8F"/>
<path d="M25.9429 57.0729C26.1327 55.6845 26.9761 54.823 27.0644 54.6853C27.354 54.2331 27.5747 53.8173 27.7446 53.4291C27.0712 53.8558 22.4045 56.5336 15.8609 53.3737C15.835 53.3613 15.8108 53.3503 15.7852 53.3381C16.0276 53.8658 16.3623 54.3495 16.7444 54.7667C17.0673 55.1191 17.2423 55.5822 17.2573 56.0598V57.0728H25.9429V57.0729Z" fill="#FCAD6D"/>
<path d="M38.7026 61.4317V64.3807C41.6299 63.7882 44.4073 62.7835 46.9735 61.4317H38.7026Z" fill="#FFB332"/>
<path d="M44.1036 61.5924V61.4316H38.7026V64.3806C40.2337 64.0707 41.7231 63.6471 43.1633 63.1211C43.1631 63.1133 43.1619 63.1056 43.1619 63.0978V62.7126C43.1617 62.151 43.5688 61.6855 44.1036 61.5924Z" fill="#FF9100"/>
<path d="M48.3737 56.7738H38.6413C38.2663 56.7738 37.9624 57.0777 37.9624 57.4527V61.0795C37.9624 61.4546 38.2663 61.7585 38.6413 61.7585H46.3353C47.2687 61.2941 48.1754 60.7845 49.0526 60.232V57.4527C49.0526 57.0779 48.7487 56.7738 48.3737 56.7738Z" fill="#FFDD40"/>
<path d="M43.4248 61.0795V57.4527C43.4248 57.0777 43.7289 56.7738 44.1038 56.7738H38.6413C38.2663 56.7738 37.9624 57.0777 37.9624 57.4527V61.0795C37.9624 61.4546 38.2663 61.7585 38.6413 61.7585H44.1038C43.7287 61.7585 43.4248 61.4546 43.4248 61.0795Z" fill="#FFB332"/>
<path d="M26.2967 64.3806V61.4316H18.0259C20.5921 62.7834 23.3693 63.7883 26.2967 64.3806Z" fill="#FFB332"/>
<path d="M22.9319 61.4317H18.0259C19.3528 62.1306 20.7366 62.7359 22.1678 63.2403C21.562 62.6351 21.9128 61.4317 22.9319 61.4317Z" fill="#FF9100"/>
<path d="M26.3586 56.7738H16.6262C16.2512 56.7738 15.9473 57.0777 15.9473 57.4527V60.232C16.8245 60.7845 17.7312 61.2941 18.6646 61.7585H26.3584C26.7335 61.7585 27.0374 61.4546 27.0374 61.0795V57.4527C27.0376 57.0779 26.7336 56.7738 26.3586 56.7738Z" fill="#FFDD40"/>
<path d="M21.4098 61.0795V57.4527C21.4098 57.0777 21.7137 56.7738 22.0887 56.7738H16.6262C16.2512 56.7738 15.9473 57.0777 15.9473 57.4527V60.232C16.8245 60.7845 17.7312 61.2941 18.6647 61.7585H22.0887C21.7139 61.7585 21.4098 61.4546 21.4098 61.0795Z" fill="#FFB332"/>
</g>
<defs>
<clipPath id="clip0_134_2709">
<rect width="65" height="65" fill="white"/>
</clipPath>
</defs>
</svg>
