<svg width="63" height="65" viewBox="0 0 63 65" fill="none" xmlns="http://www.w3.org/2000/svg">
<path d="M60.6874 44.6339L60.6875 44.6655C61.926 41.3099 62.6031 37.6826 62.6031 33.8967C62.6031 16.7188 48.6776 2.79333 31.4997 2.79333C14.3218 2.79333 0.396484 16.7187 0.396484 33.8966C0.396484 38.7848 1.52548 43.4088 3.53477 47.5244L60.6874 44.6339Z" fill="#746BF9"/>
<path d="M59.0075 48.2088H10.5991C8.47492 48.2088 6.58459 49.2267 5.38818 50.7998C8.23295 55.1854 12.1519 58.8091 16.7731 61.2981H46.2271C51.6592 58.3724 56.1204 53.8785 59.0075 48.4227V48.2088Z" fill="#E9EFFF"/>
<path d="M25.6787 61.2713H25.5586C24.6173 61.2713 23.847 60.5011 23.847 59.5598V49.9471C23.847 49.0058 24.6173 48.2356 25.5586 48.2356H25.6787V48.2089H10.5991C8.47492 48.2089 6.58459 49.2269 5.38818 50.7999C8.23295 55.1855 12.1519 58.8092 16.7731 61.2981H25.6789V61.2713H25.6787Z" fill="#D3DCFB"/>
<path d="M14.2886 37.8936C14.2886 39.499 15.5945 40.805 17.2 40.805H48.5427V34.9822H17.2C15.5947 34.9822 14.2886 36.2881 14.2886 37.8936Z" fill="#E9EFFF"/>
<path d="M29.071 39.2596V36.5276C29.071 35.6741 29.7629 34.9822 30.6164 34.9822H17.2C15.5945 34.9822 14.2886 36.2881 14.2886 37.8936C14.2886 39.499 15.5945 40.805 17.2 40.805H30.6163C29.7629 40.805 29.071 40.1131 29.071 39.2596Z" fill="#D3DCFB"/>
<path d="M8.8916 23.4602C8.8916 25.7309 10.739 27.5783 13.0097 27.5783H53.9629V19.3419H13.0097C10.739 19.3421 8.8916 21.1895 8.8916 23.4602Z" fill="#E9EFFF"/>
<path d="M25.6954 25.1863V21.7341C25.6954 20.413 26.7663 19.342 28.0874 19.342H13.0097C10.7389 19.342 8.8916 21.1895 8.8916 23.4601C8.8916 25.7308 10.739 27.5783 13.0097 27.5783H28.0873C26.7663 27.5784 25.6954 26.5074 25.6954 25.1863Z" fill="#D3DCFB"/>
<path d="M17.4559 25.5459C16.8546 25.5459 16.3672 25.0584 16.3672 24.4571V19.3421C16.3672 18.7407 16.8547 18.2533 17.4559 18.2533C18.0572 18.2533 18.5447 18.7408 18.5447 19.3421V24.4571C18.5448 25.0584 18.0573 25.5459 17.4559 25.5459Z" fill="#FF4155"/>
<path d="M55.2695 7.82004C55.2695 10.0907 53.4221 11.9381 51.1514 11.9381H10.1982V3.70193H51.1514C53.4221 3.70193 55.2695 5.54936 55.2695 7.82004Z" fill="#E9EFFF"/>
<path d="M22.8301 9.73805V5.90203C22.8301 4.68696 23.8151 3.70193 25.0302 3.70193H10.1982V11.9383H25.0302C23.8151 11.9381 22.8301 10.9531 22.8301 9.73805Z" fill="#D3DCFB"/>
<path d="M47.119 9.90579C46.5178 9.90579 46.0303 9.41829 46.0303 8.81704V3.70197C46.0303 3.10059 46.5178 2.61322 47.119 2.61322C47.7204 2.61322 48.2078 3.10072 48.2078 3.70197V8.81704C48.2079 9.41829 47.7204 9.90579 47.119 9.90579Z" fill="#FF4155"/>
<path d="M60.7442 44.5097C60.725 44.5092 60.7063 44.5068 60.687 44.5068H11.5303V48.4265H59.0049C59.6704 47.1693 60.2534 45.8618 60.7442 44.5097Z" fill="#47477F"/>
<path d="M23.083 46.5148V46.4185C23.083 45.3627 23.9389 44.5068 24.9947 44.5068H11.5303V48.4265H24.9947C23.9389 48.4265 23.083 47.5707 23.083 46.5148Z" fill="#3B3868"/>
<path d="M16.3779 61.0803C20.8547 63.5761 26.0106 65 31.5 65C36.9893 65 42.1452 63.5761 46.622 61.0803H16.3779Z" fill="#47477F"/>
<path d="M24.8673 61.0803H16.3779C18.9508 62.5146 21.7483 63.5941 24.704 64.2535C23.359 63.5993 23.5113 61.5685 24.8673 61.0803Z" fill="#3B3868"/>
<path d="M54.9792 27.3606H13.0825V31.2802H54.9792C56.0616 31.2802 56.9391 30.4029 56.9391 29.3203C56.9391 28.2378 56.0616 27.3606 54.9792 27.3606Z" fill="#42C3FC"/>
<path d="M13.0825 19.5598H54.9792C56.0616 19.5598 56.9391 18.6824 56.9391 17.5999C56.9391 16.5175 56.0617 15.6401 54.9792 15.6401H13.0825V19.5598Z" fill="#42C3FC"/>
<path d="M25.1912 29.3205C25.1912 28.2381 26.0686 27.3606 27.1511 27.3606H13.0825V31.2802H27.1511C26.0687 31.2802 25.1912 30.4029 25.1912 29.3205Z" fill="#1AA9E8"/>
<path d="M25.1912 17.6C25.1912 16.5176 26.0686 15.6401 27.1511 15.6401H13.0825V19.5598H27.1511C26.0687 19.5598 25.1912 18.6824 25.1912 17.6Z" fill="#1AA9E8"/>
<path d="M17.3833 35.1999H49.5819C50.6643 35.1999 51.5418 34.3225 51.5418 33.2401C51.5418 32.1577 50.6644 31.2802 49.5819 31.2802H17.3833V35.1999Z" fill="#89E56A"/>
<path d="M49.5819 40.5873H17.3833V44.507H49.5819C50.6643 44.507 51.5418 43.6296 51.5418 42.5471C51.5418 41.4647 50.6643 40.5873 49.5819 40.5873Z" fill="#89E56A"/>
<path d="M28.0871 33.2401C28.0871 32.1577 28.9645 31.2802 30.047 31.2802H17.3828V35.1999H30.047C28.9645 35.1999 28.0871 34.3225 28.0871 33.2401Z" fill="#65D33C"/>
<path d="M28.0871 42.547C28.0871 41.4646 28.9645 40.5871 30.047 40.5871H17.3828V44.5068H30.047C28.9645 44.5069 28.0871 43.6294 28.0871 42.547Z" fill="#65D33C"/>
<path d="M13.3003 27.3606H13.01C10.8594 27.3606 9.10962 25.6108 9.10962 23.4602C9.10962 21.3096 10.8594 19.5598 13.01 19.5598H13.3003V15.6401H13.01C8.69804 15.6401 5.18994 19.1482 5.18994 23.4602C5.18994 27.7722 8.69804 31.2803 13.01 31.2803H13.3003V27.3606Z" fill="#42C3FC"/>
<path d="M9.18207 11.7205H51.0788V15.6401H9.18207C8.09967 15.6401 7.22217 14.7628 7.22217 13.6802C7.22217 12.598 8.09967 11.7205 9.18207 11.7205Z" fill="#FFB332"/>
<path d="M51.0788 3.91968H9.18207C8.09967 3.91968 7.22217 3.0423 7.22217 1.9599C7.22217 0.877373 8.09967 0 9.18207 0H51.0788V3.91968Z" fill="#FFB332"/>
<path d="M22.4565 13.6804C22.4565 12.598 23.3339 11.7205 24.4164 11.7205H9.18207C8.09967 11.7205 7.22217 12.5978 7.22217 13.6804C7.22217 14.7629 8.09954 15.6403 9.18207 15.6403H24.4164C23.334 15.6401 22.4565 14.7628 22.4565 13.6804Z" fill="#FF9100"/>
<path d="M22.4565 1.9599C22.4565 0.877373 23.334 0 24.4164 0H9.18207C8.09967 0 7.22217 0.877373 7.22217 1.9599C7.22217 3.0423 8.09954 3.91968 9.18207 3.91968H24.4164C23.334 3.91968 22.4565 3.0423 22.4565 1.9599Z" fill="#FF9100"/>
<path d="M50.8608 11.7204H51.1512C53.3019 11.7204 55.0516 9.97064 55.0516 7.82006C55.0516 5.66935 53.3018 3.91968 51.1512 3.91968H50.8608V0H51.1512C55.4631 0 58.9712 3.5081 58.9712 7.82006C58.9712 12.132 55.4631 15.6401 51.1512 15.6401H50.8608V11.7204Z" fill="#FFDD40"/>
<path d="M17.6006 40.5873H17.2002C15.7148 40.5873 14.5066 39.379 14.5066 37.8936C14.5066 36.4083 15.7149 35.1999 17.2002 35.1999H17.6006V31.2802H17.2002C13.5536 31.2802 10.5869 34.2469 10.5869 37.8936C10.5869 41.5402 13.5536 44.507 17.2002 44.507H17.6006V40.5873Z" fill="#89E56A"/>
<path d="M3.47314 47.4006C4.07478 48.6469 4.75854 49.8457 5.51468 50.9928C6.66843 49.4371 8.51763 48.4267 10.5988 48.4267H11.7483V44.507H10.5988C7.83157 44.507 5.31879 45.6115 3.47314 47.4006Z" fill="#47477F"/>
</svg>
