<svg width="65" height="65" viewBox="0 0 65 65" fill="none" xmlns="http://www.w3.org/2000/svg">
<g clip-path="url(#clip0_134_2746)">
<path d="M31.1034 1.39661C25.8764 1.39661 20.9516 2.68797 16.6274 4.96615V60.0338C20.9516 62.3119 25.8764 63.6033 31.1034 63.6033C48.2813 63.6033 62.2068 49.6779 62.2068 32.5C62.2068 15.3221 48.2813 1.39661 31.1034 1.39661Z" fill="#FFDD40"/>
<path d="M58.682 60.1009H39.0627C35.5877 60.1009 32.7446 57.2578 32.7446 53.7828V11.2172C32.7446 7.74225 35.5877 4.89926 39.0627 4.89926H58.682C62.157 4.89913 65.0001 7.74225 65.0001 11.2172V53.7829C65.0001 57.2578 62.157 60.1009 58.682 60.1009Z" fill="#47477F"/>
<path d="M46.3751 4.89914H39.0627C35.5877 4.89914 32.7446 7.74225 32.7446 11.2171V53.7827C32.7446 57.2577 35.5877 60.1008 39.0627 60.1008H46.3106C46.3018 60.0006 46.2637 59.903 46.1923 59.8241C45.3575 58.9022 45.8268 58.0055 46.1883 57.5463C46.3296 57.3668 46.3225 57.1105 46.1747 56.9362C45.5404 56.1881 46.0644 55.4987 46.34 55.2204C46.4312 55.1284 46.4829 55.005 46.4829 54.8754V13.1392C46.4829 13.021 46.4393 12.9063 46.3612 12.8176C45.6772 12.0404 45.9597 11.4129 46.2238 11.0811C46.3489 10.9238 46.3581 10.7105 46.2584 10.536C45.9913 10.0679 46.2202 9.66534 46.3729 9.47351C46.4426 9.38592 46.4829 9.27864 46.4829 9.1668V7.42297C46.4829 7.30503 46.4401 7.19026 46.3619 7.10203C45.5605 6.19812 45.9754 5.45418 46.2709 5.10823C46.3234 5.04679 46.3577 4.9748 46.3751 4.89914Z" fill="#3B3868"/>
<path d="M58.6815 8.83212H57.8488C57.128 8.83212 56.5438 9.41649 56.5438 10.1372C56.5438 11.0986 55.7572 11.8852 54.7957 11.8852H42.948C41.9866 11.8852 41.2 11.0986 41.2 10.1372C41.2 9.41636 40.6156 8.83212 39.8949 8.83212H39.0623C37.7505 8.83212 36.6772 9.90538 36.6772 11.2172V53.7828C36.6772 55.0945 37.7504 56.1677 39.0622 56.1677H58.6817C59.9933 56.1677 61.0666 55.0945 61.0666 53.7828V11.2172C61.0666 9.90538 59.9933 8.83212 58.6815 8.83212Z" fill="#E9EFFF"/>
<path d="M47.3445 55.1753H46.9484C46.0942 55.1753 45.3955 54.4765 45.3955 53.6225V43.095C45.3955 42.2409 46.0942 41.5421 46.9484 41.5421H47.3445V23.4543H46.9484C46.0942 23.4543 45.3955 22.7556 45.3955 21.9014V14.3991C45.3955 13.545 46.0942 12.8463 46.9484 12.8463H47.3445V11.8852H42.948C41.9866 11.8852 41.2 11.0986 41.2 10.1372C41.2 9.41636 40.6156 8.83212 39.8949 8.83212H39.0623C37.7505 8.83212 36.6772 9.90538 36.6772 11.2172V53.7829C36.6772 55.0946 37.7504 56.1677 39.0622 56.1677H47.3446V55.1753H47.3445Z" fill="#D3DCFB"/>
<path d="M52.1983 9.35377H45.5461C44.9597 9.35377 44.4844 8.87846 44.4844 8.29206C44.4844 7.70566 44.9597 7.23035 45.5461 7.23035H52.1983C52.7847 7.23035 53.26 7.70566 53.26 8.29206C53.26 8.87846 52.7846 9.35377 52.1983 9.35377Z" fill="#5F5F9B"/>
<path d="M20.6054 4.89914H16.7544C12.8886 6.913 9.49937 9.71511 6.79883 13.0921L9.6064 54.9762C11.7254 57.0031 14.13 58.7339 16.7544 60.1009H20.6054C24.0803 60.1009 26.9233 57.2578 26.9233 53.7828V11.2172C26.9234 7.74225 24.0803 4.89914 20.6054 4.89914Z" fill="#47477F"/>
<path d="M20.6053 8.83212H19.7726C19.0517 8.83212 18.4675 9.41649 18.4675 10.1372C18.4675 11.0986 17.6809 11.8852 16.7195 11.8852H7.81523C2.95344 17.3735 0 24.5913 0 32.5C0 41.9772 4.23985 50.4628 10.9248 56.1677H20.6054C21.9172 56.1677 22.9903 55.0945 22.9903 53.7828V11.2172C22.9903 9.90538 21.9171 8.83212 20.6053 8.83212Z" fill="#E9EFFF"/>
<path d="M9.98715 23.6452H9.33397C8.44911 23.6452 7.7251 22.9212 7.7251 22.0364V14.264C7.7251 13.3792 8.44899 12.6552 9.33397 12.6552H9.98715V11.8851H7.81523C2.95344 17.3735 0 24.5913 0 32.5C0 40.3589 2.91751 47.5341 7.7251 53.0091V42.9766C7.7251 42.0918 8.44899 41.3678 9.33397 41.3678H9.98715V23.6452Z" fill="#D3DCFB"/>
<path d="M58.682 57.2295H39.0624C37.1619 57.2295 35.6157 55.6833 35.6157 53.7828V11.2172C35.6157 9.31671 37.1619 7.77042 39.0625 7.77042H39.8951C41.2001 7.77042 42.2618 8.83212 42.2618 10.1372C42.2618 10.5092 42.5762 10.8235 42.9482 10.8235H54.7958C55.1679 10.8235 55.4821 10.5092 55.4821 10.1372C55.4821 8.83212 56.5438 7.77042 57.8489 7.77042H58.6816C60.5821 7.77042 62.1284 9.31671 62.1284 11.2172V53.7828C62.1286 55.6833 60.5825 57.2295 58.682 57.2295ZM39.0626 9.89383C38.333 9.89383 37.7393 10.4875 37.7393 11.2172V53.7829C37.7393 54.5125 38.3329 55.1062 39.0625 55.1062H58.682C59.4116 55.1062 60.0052 54.5125 60.0052 53.7829V11.2172C60.0052 10.4875 59.4116 9.89383 58.6818 9.89383H57.8492C57.715 9.89383 57.6058 10.003 57.6058 10.1372C57.6058 11.6865 56.3454 12.9469 54.7961 12.9469H42.9484C41.3991 12.9469 40.1387 11.6865 40.1387 10.1372C40.1387 10.003 40.0295 9.89383 39.8953 9.89383H39.0626Z" fill="#3B3868"/>
<path d="M46.422 55.106H39.0624C38.3328 55.106 37.7391 54.5124 37.7391 53.7828V11.2172C37.7391 10.4875 38.3328 9.89383 39.0625 9.89383H39.8951C40.0292 9.89383 40.1384 10.003 40.1384 10.1372C40.1384 11.6865 41.3988 12.9469 42.9482 12.9469H46.4411C46.421 12.9003 46.3949 12.8562 46.3609 12.8176C45.6769 12.0404 45.9594 11.4128 46.2234 11.0811C46.2841 11.0048 46.317 10.9153 46.324 10.8235H42.9482C42.5761 10.8235 42.2618 10.5092 42.2618 10.1372C42.2618 8.83212 41.2001 7.77042 39.8951 7.77042H39.0625C37.162 7.77042 35.6157 9.31671 35.6157 11.2172V53.7829C35.6157 55.6834 37.1619 57.2296 39.0624 57.2296H46.2887C46.284 57.1247 46.246 57.021 46.1745 56.9364C45.5402 56.1883 46.0642 55.499 46.3398 55.2207C46.3735 55.1866 46.3998 55.1473 46.422 55.106Z" fill="#2D2D59"/>
<path d="M20.6052 7.77042H19.7727C18.4676 7.77042 17.4059 8.83212 17.4059 10.1372C17.4059 10.5092 17.0916 10.8235 16.7196 10.8235H8.80051C8.14086 11.5021 7.51206 12.2106 6.91602 12.9469H16.7196C18.2689 12.9469 19.5293 11.6865 19.5293 10.1372C19.5293 10.003 19.6385 9.89383 19.7727 9.89383H20.6052C21.335 9.89383 21.9286 10.4875 21.9286 11.2172V53.7828C21.9286 54.5124 21.335 55.106 20.6054 55.106H9.74199C10.536 55.8566 11.37 56.5651 12.2397 57.2295H20.6054C22.5059 57.2295 24.052 55.6833 24.052 53.7828V11.2172C24.052 9.31658 22.5059 7.77042 20.6052 7.77042Z" fill="#3B3868"/>
<path d="M14.1217 9.35377C14.7081 9.35377 15.1834 8.87846 15.1834 8.29206C15.1834 7.70566 14.7081 7.23035 14.1217 7.23035H12.9672C12.049 7.89063 11.1683 8.59967 10.3286 9.35377H14.1217Z" fill="#5F5F9B"/>
<path d="M17.1322 40.5846H4.45896C3.49754 40.5846 2.71094 39.798 2.71094 38.8366V26.1634C2.71094 25.202 3.49754 24.4154 4.45896 24.4154H17.1322C18.0936 24.4154 18.8802 25.202 18.8802 26.1634V38.8366C18.8802 39.798 18.0935 40.5846 17.1322 40.5846Z" fill="#42C3FC"/>
<path d="M55.2088 40.5846H42.5356C41.5742 40.5846 40.7876 39.798 40.7876 38.8366V26.1634C40.7876 25.202 41.5742 24.4154 42.5356 24.4154H55.2088C56.1703 24.4154 56.9569 25.202 56.9569 26.1634V38.8366C56.9569 39.798 56.1703 40.5846 55.2088 40.5846Z" fill="#FF4155"/>
<path d="M8.23898 38.8366V26.1634C8.23898 25.202 9.02558 24.4154 9.987 24.4154H4.45895C3.49754 24.4154 2.71094 25.202 2.71094 26.1634V38.8366C2.71094 39.798 3.49754 40.5846 4.45895 40.5846H9.987C9.02558 40.5846 8.23898 39.798 8.23898 38.8366Z" fill="#1AA9E8"/>
<path d="M46.3156 38.8366V26.1634C46.3156 25.202 47.1022 24.4154 48.0637 24.4154H42.5356C41.5742 24.4154 40.7876 25.202 40.7876 26.1634V38.8366C40.7876 39.798 41.5742 40.5846 42.5356 40.5846H48.0637C47.1024 40.5846 46.3156 39.798 46.3156 38.8366Z" fill="#E80054"/>
<path d="M17.1324 41.6463H4.45914C2.9098 41.6463 1.64941 40.3859 1.64941 38.8366V26.1634C1.64941 24.6142 2.9098 23.3536 4.45914 23.3536H17.1324C18.6817 23.3536 19.9421 24.6142 19.9421 26.1634V38.8366C19.9421 40.3859 18.6816 41.6463 17.1324 41.6463ZM4.45914 25.4771C4.08704 25.4771 3.77283 25.7914 3.77283 26.1634V38.8366C3.77283 39.2085 4.08717 39.5229 4.45914 39.5229H17.1324C17.5043 39.5229 17.8187 39.2085 17.8187 38.8366V26.1634C17.8187 25.7914 17.5043 25.4771 17.1324 25.4771H4.45914Z" fill="#8AE1FF"/>
<path d="M55.209 41.6463H42.5358C40.9865 41.6463 39.7261 40.3859 39.7261 38.8366V26.1634C39.7261 24.6142 40.9865 23.3536 42.5358 23.3536H55.209C56.7584 23.3536 58.0187 24.6142 58.0187 26.1634V38.8366C58.0187 40.3859 56.7584 41.6463 55.209 41.6463ZM42.5358 25.4771C42.1638 25.4771 41.8495 25.7914 41.8495 26.1634V38.8366C41.8495 39.2085 42.1638 39.5229 42.5358 39.5229H55.209C55.581 39.5229 55.8953 39.2085 55.8953 38.8366V26.1634C55.8953 25.7914 55.581 25.4771 55.209 25.4771H42.5358Z" fill="#FF7186"/>
<path d="M11.9715 27.9448C11.5367 26.8878 10.0341 26.9212 9.63924 27.9712L6.43164 36.3934C6.22293 36.9413 6.49791 37.5548 7.04584 37.7635C7.5939 37.9722 8.20721 37.6971 8.41592 37.1491L8.95433 35.7354H12.6424L13.1749 37.1461C13.383 37.6977 13.9973 37.9705 14.5431 37.7646C15.0916 37.5576 15.3685 36.945 15.1614 36.3964C11.3058 26.1798 12.0844 28.2174 11.9715 27.9448ZM9.76289 33.612L10.8067 30.8713L11.8411 33.612H9.76289Z" fill="#198FD8"/>
<path d="M51.2829 31.8424C51.5925 31.3676 51.7741 30.8023 51.7741 30.1944C51.7741 28.5251 50.4161 27.1671 48.7467 27.1671H46.2653C45.6789 27.1671 45.2036 27.6425 45.2036 28.2288V36.7713C45.2036 37.3594 45.681 37.833 46.2653 37.833H46.27C46.27 37.833 48.5514 37.8229 49.18 37.8229C51.0333 37.8229 52.5411 36.3152 52.5411 34.4618C52.5412 33.4036 52.0493 32.459 51.2829 31.8424ZM48.7469 29.2904C49.2453 29.2904 49.6508 29.6959 49.6508 30.1943C49.6508 30.6927 49.2453 31.0982 48.7469 31.0982C48.7318 31.0982 48.7233 31.0978 47.3272 31.1006V29.2904H48.7469ZM49.1802 35.6993C48.8392 35.6993 48.0137 35.7024 47.3272 35.705V33.226C48.2074 33.2224 47.9538 33.225 49.1802 33.2241C49.8627 33.2241 50.4178 33.7794 50.4178 34.4618C50.4178 35.1442 49.8627 35.6993 49.1802 35.6993Z" fill="#CC0053"/>
<path d="M56.9567 16.3216H55.6144C55.028 16.3216 54.5527 15.8463 54.5527 15.2599C54.5527 14.6735 55.028 14.1982 55.6144 14.1982H56.9567C57.5431 14.1982 58.0184 14.6735 58.0184 15.2599C58.0184 15.8463 57.5431 16.3216 56.9567 16.3216Z" fill="#A2B6F4"/>
<path d="M42.1302 16.3216H40.7878C40.2014 16.3216 39.7261 15.8463 39.7261 15.2599C39.7261 14.6735 40.2014 14.1982 40.7878 14.1982H42.1302C42.7166 14.1982 43.1919 14.6735 43.1919 15.2599C43.1919 15.8463 42.7166 16.3216 42.1302 16.3216Z" fill="#A2B6F4"/>
<path d="M18.8884 16.3216H17.5461C16.9597 16.3216 16.4844 15.8463 16.4844 15.2599C16.4844 14.6735 16.9597 14.1982 17.5461 14.1982H18.8884C19.4748 14.1982 19.9501 14.6735 19.9501 15.2599C19.9501 15.8463 19.4748 16.3216 18.8884 16.3216Z" fill="#A2B6F4"/>
<path d="M50.6577 45.5282H47.0866C46.5002 45.5282 46.0249 45.0529 46.0249 44.4665C46.0249 43.8801 46.5002 43.4048 47.0866 43.4048H50.6577C51.2441 43.4048 51.7194 43.8801 51.7194 44.4665C51.7194 45.0529 51.2441 45.5282 50.6577 45.5282Z" fill="#A2B6F4"/>
<path d="M12.5815 45.5282H9.01044C8.42404 45.5282 7.94873 45.0529 7.94873 44.4665C7.94873 43.8801 8.42404 43.4048 9.01044 43.4048H12.5815C13.1679 43.4048 13.6432 43.8801 13.6432 44.4665C13.6433 45.0529 13.1679 45.5282 12.5815 45.5282Z" fill="#A2B6F4"/>
<path d="M7.34453 40.5846C7.34453 39.9982 7.81985 39.5229 8.40624 39.5229H4.45914C4.08717 39.5229 3.77283 39.2085 3.77283 38.8366V26.1634C3.77283 25.7914 4.08717 25.4771 4.45914 25.4771H8.40612C7.81985 25.4769 7.34453 25.0016 7.34453 24.4153C7.34453 23.8289 7.81985 23.3536 8.40624 23.3536H4.45914C2.90981 23.3536 1.64941 24.6142 1.64941 26.1634V38.8366C1.64941 40.3859 2.90981 41.6463 4.45914 41.6463H8.40624C7.81985 41.6463 7.34453 41.171 7.34453 40.5846Z" fill="#42C3FC"/>
<path d="M45.4212 40.5846C45.4212 39.9982 45.8965 39.5229 46.4829 39.5229H42.5358C42.1638 39.5229 41.8495 39.2085 41.8495 38.8366V26.1634C41.8495 25.7914 42.1638 25.4771 42.5358 25.4771H46.4828C45.8965 25.4769 45.4212 25.0016 45.4212 24.4153C45.4212 23.8289 45.8965 23.3536 46.4829 23.3536H42.5358C40.9865 23.3536 39.7261 24.6142 39.7261 26.1634V38.8366C39.7261 40.3859 40.9865 41.6463 42.5358 41.6463H46.4829C45.8965 41.6463 45.4212 41.171 45.4212 40.5846Z" fill="#FF4155"/>
</g>
<defs>
<clipPath id="clip0_134_2746">
<rect width="65" height="65" fill="white"/>
</clipPath>
</defs>
</svg>
