<svg width="20" height="20" viewBox="0 0 20 20" fill="none" xmlns="http://www.w3.org/2000/svg">
<path d="M19.1667 20L10 10.8775L0.833336 20V2.5C0.833336 1.83696 1.09673 1.20107 1.56557 0.732233C2.03441 0.263392 2.67029 0 3.33334 0L16.6667 0C17.3297 0 17.9656 0.263392 18.4344 0.732233C18.9033 1.20107 19.1667 1.83696 19.1667 2.5V20ZM10 8.52667L17.5 15.9875V2.5C17.5 2.27899 17.4122 2.06702 17.2559 1.91074C17.0996 1.75446 16.8877 1.66667 16.6667 1.66667H3.33334C3.11232 1.66667 2.90036 1.75446 2.74408 1.91074C2.5878 2.06702 2.5 2.27899 2.5 2.5V15.9875L10 8.52667Z" fill="#BABABA"/>
</svg>
