<svg width="85" height="85" viewBox="0 0 85 85" fill="none" xmlns="http://www.w3.org/2000/svg">
<path d="M40.6737 3.65271C18.2103 3.65271 0 21.863 0 44.3264C0 45.623 0.063418 46.9046 0.182119 48.1703L37.4297 84.8712C38.5 84.9557 39.5816 85 40.6737 85C63.1371 85 81.3473 66.7899 81.3473 44.3264C81.3473 21.8628 63.1371 3.65271 40.6737 3.65271Z" fill="#3B3868"/>
<path d="M25.1046 63.7773C24.236 64.2788 23.1278 64.1392 22.4097 63.4378L22.2543 63.2859L18.8392 65.2577L25.6206 72.3615C25.77 72.2894 25.9184 72.2134 26.0645 72.1291C29.2638 70.282 30.36 66.191 28.5129 62.9916C28.3387 62.6901 28.1448 62.4075 27.9337 62.144L25.1046 63.7773Z" fill="#D3DCFB"/>
<path d="M25.6208 72.3614C25.7702 72.2894 25.9186 72.2133 26.0647 72.129C27.263 71.4372 28.1661 70.4305 28.7302 69.2739C25.0075 68.5945 24.533 65.6219 24.5617 64.0004C23.8099 64.1998 22.9851 63.9995 22.41 63.4379L22.2546 63.286L18.8395 65.2578L25.6208 72.3614Z" fill="#BEC8F7"/>
<path d="M9.45993 70.402C16.3084 78.591 26.3177 84.0453 37.613 84.8858C37.4729 84.4982 37.2536 84.1324 36.9508 83.8152L19.0269 65.0388L11.1307 69.5978C10.5863 69.912 10.0277 70.1793 9.45993 70.402Z" fill="#E9EFFF"/>
<path d="M25.888 72.2263L19.0269 65.0388L11.1307 69.5978C10.5863 69.912 10.0277 70.1793 9.45975 70.402C12.2887 73.7847 15.6581 76.6989 19.4335 79.0158C18.7636 71.8944 25.888 72.2263 25.888 72.2263Z" fill="#D3DCFB"/>
<path d="M7.78949 43.8878L5.44253 39.8229C4.72999 38.5887 3.15217 38.166 1.91801 38.8784C0.68402 39.5909 0.261178 41.1688 0.973717 42.4029L3.32068 46.4678L7.78949 43.8878Z" fill="#E9EFFF"/>
<path d="M5.6848 40.2423C5.69477 40.3388 5.69975 40.4367 5.69975 40.5358C5.69975 42.1098 4.42375 43.3858 2.84992 43.3858C2.26206 43.3858 1.71603 43.2077 1.26231 42.9027L3.32058 46.4677L7.78938 43.8877L5.6848 40.2423Z" fill="#D3DCFB"/>
<path d="M35.4176 56.977C43.2311 53.8614 51.6111 53.4123 59.4072 55.3157L35.7302 14.306C33.4805 22.0095 28.9016 29.0421 22.2967 34.251C22.7831 34.4592 23.2098 34.8179 23.4947 35.3113L35.0983 55.4095C35.3831 55.9029 35.4805 56.4517 35.4176 56.977Z" fill="#D3DCFB"/>
<path d="M44.0114 28.6494L35.7302 14.306C33.4805 22.0095 28.9016 29.0421 22.2967 34.251C22.7831 34.4592 23.2098 34.8179 23.4947 35.3113L29.1455 45.0989C35.7599 40.3137 40.8574 34.55 44.0114 28.6494Z" fill="#BEC8F7"/>
<path d="M22.2668 62.8179L10.6632 42.7197C10.5441 42.5136 10.4599 42.2973 10.4038 42.0775L0.165817 47.9885C0.936296 56.62 4.40171 64.4745 9.71653 70.7058C10.2617 70.4883 10.7985 70.2309 11.3217 69.929L22.6933 63.3637C22.5309 63.2048 22.3858 63.0239 22.2668 62.8179Z" fill="#FF7186"/>
<path d="M15.9074 52.9202L15.6484 51.3545L10.6632 42.7197C10.5441 42.5136 10.4599 42.2973 10.4038 42.0775L0.165817 47.9885C0.536862 52.1462 1.53495 56.1226 3.06213 59.8253C3.44878 56.5489 5.73514 55.6727 5.73514 55.6727C5.73514 55.6727 6.23319 55.4514 10.1623 53.212C14.0914 50.9726 15.9074 52.9202 15.9074 52.9202Z" fill="#FF4155"/>
<path d="M34.5008 58.6834L25.248 64.0255C24.0347 64.7259 22.4835 64.3102 21.783 63.0971L10.1794 42.9989C9.47897 41.7857 9.89467 40.2344 11.1078 39.534L20.3606 34.1918C21.5739 33.4914 23.1251 33.9071 23.8255 35.1202L35.4292 55.2183C36.1296 56.4318 35.7141 57.983 34.5008 58.6834Z" fill="#FF4155"/>
<path d="M23.8257 35.1203C23.1253 33.9071 21.574 33.4915 20.3609 34.192L11.108 39.5342C9.8948 40.2346 9.4791 41.7859 10.1797 42.9991L15.9077 52.9202C16.5617 50.0294 18.9603 51.3283 18.9603 51.3283L26.6491 46.8892C27.0044 44.1099 29.4564 44.8727 29.4564 44.8727L23.8257 35.1203Z" fill="#E80054"/>
<path d="M15.3365 43.7647C14.8921 43.7647 14.46 43.5341 14.2219 43.1215C13.8668 42.5066 14.0776 41.7202 14.6926 41.3652L20.1545 38.2118C20.7694 37.8567 21.5558 38.0675 21.9108 38.6824C22.2659 39.2974 22.0552 40.0838 21.4401 40.4387L15.9782 43.5922C15.7758 43.7091 15.5547 43.7647 15.3365 43.7647Z" fill="#FF7186"/>
<path d="M17.7055 47.868C17.2611 47.868 16.829 47.6374 16.5909 47.2249C16.2358 46.61 16.4465 45.8235 17.0616 45.4686L22.5233 42.3151C23.1382 41.9599 23.9246 42.1709 24.2796 42.7858C24.6347 43.4007 24.4238 44.1871 23.8089 44.5421L18.347 47.6955C18.1448 47.8124 17.9237 47.868 17.7055 47.868Z" fill="#FF7186"/>
<path d="M20.0746 51.9714C19.6302 51.9714 19.1981 51.7408 18.96 51.3283C18.6049 50.7133 18.8157 49.9269 19.4306 49.572L24.8926 46.4185C25.5075 46.0633 26.2939 46.2743 26.6488 46.8892C27.0038 47.5041 26.7931 48.2905 26.1782 48.6455L20.7163 51.7989C20.5139 51.9158 20.2928 51.9714 20.0746 51.9714Z" fill="#FF7186"/>
<path d="M22.4437 56.0746C21.9993 56.0746 21.5672 55.844 21.3291 55.4314C20.974 54.8165 21.1847 54.0301 21.7998 53.6751L27.2615 50.5217C27.8765 50.1664 28.6629 50.3774 29.0178 50.9923C29.3729 51.6072 29.1621 52.3937 28.5472 52.7486L23.0852 55.9021C22.883 56.0189 22.6619 56.0746 22.4437 56.0746Z" fill="#FF7186"/>
<path d="M24.8127 60.1779C24.3683 60.1779 23.9361 59.9473 23.6981 59.5348C23.343 58.9198 23.5536 58.1334 24.1687 57.7785L29.6306 54.6252C30.2456 54.2699 31.032 54.4809 31.3869 55.0958C31.742 55.7108 31.5314 56.4972 30.9163 56.8521L25.4544 60.0056C25.252 60.1225 25.0308 60.1779 24.8127 60.1779Z" fill="#FF7186"/>
<path d="M74.3429 20.2582C74.0844 20.2582 73.8548 20.1344 73.7132 19.918L72.0718 17.4152C71.8779 17.1195 71.551 16.943 71.1974 16.943H63.2054C61.8706 16.943 60.7847 15.857 60.7847 14.5222V8.6333H55.0517C53.5788 8.6333 52.3737 9.83841 52.3737 11.3113V23.1559C52.3737 24.6287 53.5788 25.8337 55.0517 25.8337H57.4352C57.701 25.8337 57.9489 25.9675 58.0946 26.1898L59.736 28.6926C60.1349 29.3009 61.0266 29.3009 61.4255 28.6926L63.0669 26.1898C63.2127 25.9675 63.4606 25.8337 63.7262 25.8337H71.718C73.1909 25.8337 74.396 24.6286 74.396 23.1557V20.2551C74.3784 20.2562 74.3608 20.2582 74.3429 20.2582Z" fill="#FFB332"/>
<path d="M66.0404 23.9207V19.0468C66.0404 18.1 66.6967 17.3011 67.5761 17.0767V16.9432H63.2054C61.8704 16.9432 60.7845 15.8571 60.7845 14.5224V8.6333H55.0515C53.5786 8.6333 52.3735 9.83841 52.3735 11.3113V23.1559C52.3735 24.6287 53.5786 25.8337 55.0515 25.8337H57.435C57.7008 25.8337 57.9486 25.9675 58.0944 26.1898L59.7358 28.6926C60.1347 29.3009 61.0264 29.3009 61.4253 28.6926L63.0667 26.1898C63.2125 25.9675 63.4604 25.8337 63.726 25.8337H67.3895C66.6057 25.5503 66.0404 24.7992 66.0404 23.9207Z" fill="#FF9100"/>
<path d="M70.7738 37.9785C71.0066 37.7458 71.3162 37.6173 71.6454 37.6173C71.9748 37.6173 72.2844 37.7456 72.5172 37.9785L77.758 43.2193L80.7394 40.2377C81.2202 39.7571 82.0023 39.7571 82.4829 40.2377L85.0001 42.7546V32.0352C85.0001 31.202 84.3247 30.5266 83.4915 30.5266H67.7766C66.9434 30.5266 66.268 31.202 66.268 32.0352V42.4842L70.7738 37.9785Z" fill="#8AE1FF"/>
<path d="M71.7542 36.634V32.5188C71.7542 31.4231 72.6506 30.5266 73.7463 30.5266H67.7766C66.9434 30.5266 66.268 31.202 66.268 32.0352V42.4842L70.7738 37.9784C71.0066 37.7456 71.3162 37.6171 71.6454 37.6171C71.7899 37.6171 71.93 37.6432 72.0621 37.6905C71.8682 37.3837 71.7542 37.022 71.7542 36.634Z" fill="#42C3FC"/>
<path d="M84.0323 49.1573C83.9737 49.0647 83.905 48.9765 83.8243 48.8958L72.7121 37.7836C72.1229 37.1944 71.1678 37.1944 70.5786 37.7836L66.2678 42.0943V47.7501C66.2678 48.5834 66.9432 49.2587 67.7764 49.2587H83.4913C83.6824 49.2587 83.8642 49.2219 84.0323 49.1573Z" fill="#65D33C"/>
<path d="M72.2245 42.1423C70.3983 43.9685 68.1986 46.0022 68.1986 46.0022C68.1986 46.0022 67.2055 46.6327 66.2678 46.1323V47.7502C66.2678 48.5834 66.9432 49.2587 67.7764 49.2587H83.4913C83.682 49.2587 83.864 49.2219 84.0322 49.1573C83.9736 49.0647 83.9048 48.9765 83.8241 48.8958L72.7119 37.7836C72.7121 37.7834 74.0506 40.3161 72.2245 42.1423Z" fill="#55BF28"/>
<path d="M82.678 40.0428C82.0888 39.4537 81.1337 39.4537 80.5445 40.0428L71.3287 49.2587H83.4915C84.3247 49.2587 85.0001 48.5833 85.0001 47.7501V42.3649L82.678 40.0428Z" fill="#89E56A"/>
<path d="M79.9672 35.7265C79.9672 36.9231 78.9971 37.893 77.8005 37.893C76.6038 37.893 75.6338 36.923 75.6338 35.7265C75.6338 34.5298 76.6038 33.5598 77.8005 33.5598C78.9971 33.5598 79.9672 34.53 79.9672 35.7265Z" fill="#FFDD40"/>
<path d="M79.2834 35.3195C79.2834 35.8786 78.8301 36.3319 78.271 36.3319C77.7119 36.3319 77.2586 35.8786 77.2586 35.3195C77.2586 34.7604 77.7119 34.3071 78.271 34.3071C78.83 34.307 79.2834 34.7604 79.2834 35.3195Z" fill="#FCECA9"/>
<path d="M62.7212 56.5811C61.4872 57.2936 59.9092 56.8708 59.1967 55.6368L35.3471 14.328C34.6345 13.0938 35.0574 11.516 36.2914 10.8035C37.5253 10.0911 39.1033 10.5138 39.8159 11.7478L63.6655 53.0566C64.378 54.2908 63.9552 55.8687 62.7212 56.5811Z" fill="#E9EFFF"/>
<path d="M45.2964 26.1958C46.1846 25.683 47.224 25.6737 48.0881 26.0761L39.8157 11.748C39.1032 10.514 37.5252 10.0911 36.2912 10.8037C35.0572 11.5162 34.6344 13.094 35.3468 14.3282L43.7878 28.9483C43.7413 27.8576 44.2859 26.7792 45.2964 26.1958Z" fill="#D3DCFB"/>
<path d="M63.2054 0H79.8718C81.3447 0 82.5497 1.20511 82.5497 2.67783V14.5224C82.5497 15.9953 81.3446 17.2002 79.8718 17.2002H77.4882C77.2224 17.2002 76.9745 17.334 76.8288 17.5563L75.1874 20.0592C74.7884 20.6675 73.8968 20.6675 73.4978 20.0592L71.8564 17.5563C71.7107 17.334 71.4628 17.2002 71.197 17.2002H63.205C61.7321 17.2002 60.5272 15.9951 60.5272 14.5222V2.67783C60.5274 1.20511 61.7325 0 63.2054 0V0Z" fill="#FFDD40"/>
<path d="M67.7874 14.5224V2.67783C67.7874 1.20494 68.9925 0 70.4652 0H63.2054C61.7325 0 60.5276 1.20511 60.5276 2.67783V14.5224C60.5276 15.9953 61.7327 17.2004 63.2054 17.2004H70.4652C68.9923 17.2002 67.7874 15.9953 67.7874 14.5224Z" fill="#FFB332"/>
<path d="M77.5127 5.73658H69.0439C68.3338 5.73658 67.7581 5.161 67.7581 4.45079C67.7581 3.74057 68.3337 3.16516 69.0439 3.16516H77.5127C78.2227 3.16516 78.7983 3.74074 78.7983 4.45079C78.7983 5.16084 78.2227 5.73658 77.5127 5.73658Z" fill="#FCF9EB"/>
<path d="M77.5128 9.8857H65.5644C64.8544 9.8857 64.2787 9.31013 64.2787 8.60008C64.2787 7.89003 64.8542 7.31445 65.5644 7.31445H77.5128C78.2228 7.31445 78.7984 7.89003 78.7984 8.60008C78.7984 9.31013 78.2228 9.8857 77.5128 9.8857Z" fill="#FCECA9"/>
<path d="M77.5128 14.0354H65.5644C64.8544 14.0354 64.2787 13.4598 64.2787 12.7497C64.2787 12.0397 64.8542 11.4641 65.5644 11.4641H77.5128C78.2228 11.4641 78.7984 12.0397 78.7984 12.7497C78.7985 13.4596 78.2228 14.0354 77.5128 14.0354Z" fill="#FCECA9"/>
<path d="M70.9178 71.5201C68.9753 67.3936 64.948 61.4086 58.1472 62.2181C48.4748 63.3694 23.9551 64.652 45.4613 84.718C55.5318 83.537 64.4771 78.6787 70.9178 71.5201Z" fill="#47477F"/>
<path d="M3.35736 28.126C5.7606 44.5542 25.6735 19.4241 26.7196 13.8946C27.3456 10.5851 24.954 8.73687 22.831 7.76733C14.1585 12.0079 7.21938 19.2428 3.35736 28.126Z" fill="#47477F"/>
</svg>
