<svg width="23" height="24" viewBox="0 0 23 24" fill="none" xmlns="http://www.w3.org/2000/svg">
<path opacity="0.1" d="M11.3926 0.862671C5.20742 0.862671 0.193359 5.87674 0.193359 12.0619C0.193359 18.2471 5.20742 23.2611 11.3926 23.2611C17.5777 23.2611 22.5918 18.2471 22.5918 12.0619C22.5846 5.87972 17.5748 0.869871 11.3926 0.862671Z" fill="white"/>
<path d="M17.8576 8.51545L11.4693 17.1846C11.317 17.3867 11.0898 17.5192 10.8388 17.5522C10.5879 17.5852 10.3342 17.5159 10.1348 17.36L5.57294 13.7128C5.17039 13.3907 5.10521 12.8032 5.42735 12.4006C5.74949 11.9981 6.33697 11.9329 6.73953 12.2551L10.5435 15.2984L16.355 7.41139C16.5456 7.12543 16.8779 6.96733 17.22 6.99985C17.5621 7.03238 17.8586 7.25028 17.9919 7.56703C18.1251 7.88379 18.0735 8.24815 17.8576 8.51545Z" fill="white"/>
</svg>
