<svg width="24" height="24" viewBox="0 0 24 24" fill="none" xmlns="http://www.w3.org/2000/svg">
<path d="M11.9961 0.659607C5.81094 0.659607 0.796875 5.67367 0.796875 11.8588C0.796875 18.044 5.81094 23.0581 11.9961 23.0581C18.1813 23.0581 23.1953 18.044 23.1953 11.8588C23.1881 5.67666 18.1783 0.666807 11.9961 0.659607Z" fill="#5243C2" fill-opacity="0.103693"/>
<path d="M18.4611 8.3124L12.0728 16.9815C11.9205 17.1837 11.6933 17.3161 11.4424 17.3491C11.1914 17.3821 10.9377 17.3129 10.7383 17.157L6.17646 13.5098C5.7739 13.1876 5.70872 12.6001 6.03087 12.1976C6.35301 11.795 6.94049 11.7299 7.34304 12.052L11.147 15.0954L16.9585 7.20834C17.1491 6.92238 17.4814 6.76428 17.8235 6.79681C18.1656 6.82933 18.4621 7.04723 18.5954 7.36399C18.7286 7.68074 18.677 8.0451 18.4611 8.3124Z" fill="#5243C2"/>
</svg>
