<svg width="85" height="85" viewBox="0 0 85 85" fill="none" xmlns="http://www.w3.org/2000/svg">
<g clip-path="url(#clip0_14_260)">
<path d="M73.4589 70.7034C79.5155 63.6016 83.1737 54.3917 83.1737 44.3265C83.1737 21.8631 64.9634 3.65283 42.5 3.65283C20.0366 3.65283 1.82634 21.8631 1.82634 44.3265C1.82634 54.3919 5.48433 63.6016 11.5411 70.7034H73.4589Z" fill="#FF4155"/>
<path d="M70.4779 42.6124H14.5221C12.8053 42.6124 11.4006 41.2077 11.4006 39.491V3.12143C11.4006 1.40466 12.8053 0 14.5221 0H70.4779C72.1947 0 73.5994 1.40466 73.5994 3.12143V39.4911C73.5994 41.2079 72.1947 42.6124 70.4779 42.6124Z" fill="#47477F"/>
<path d="M25.1647 38.0981V4.51446C21.919 2.00447 25.1647 0 25.1647 0H14.5221C12.8053 0 11.4008 1.40466 11.4008 3.12143V39.4911C11.4008 41.2079 12.8055 42.6126 14.5221 42.6126H25.1647C22.0988 40.3074 25.1647 38.0981 25.1647 38.0981Z" fill="#3B3868"/>
<path d="M70.4779 42.6124H66.3601V44.8511C66.3601 45.5527 65.7893 46.1234 65.0878 46.1234H19.9122C19.2105 46.1234 18.6399 45.5527 18.6399 44.8511V42.6124H14.5221C12.8053 42.6124 11.4006 44.017 11.4006 45.7338V70.5374C14.1068 73.7451 17.3022 76.5259 20.8685 78.7709L34.383 84.188C37.006 84.7192 39.7201 85 42.5 85C45.2799 85 47.994 84.7194 50.6168 84.1878L64.1313 78.7707C67.6977 76.5257 70.893 73.7451 73.5992 70.5372V45.7338C73.5994 44.017 72.1947 42.6124 70.4779 42.6124Z" fill="#E9EFFF"/>
<path d="M19.9122 46.1237C19.2105 46.1237 18.6399 45.5529 18.6399 44.8513V42.6126H14.5221C12.8053 42.6126 11.4006 44.0173 11.4006 45.734V70.5376C14.1068 73.7454 17.3022 76.5261 20.8685 78.7711L25.2628 80.5326V55.7293C25.2628 55.7293 25.2628 54.4427 25.2628 52.9071C25.2628 52.1393 25.6315 51.7328 26.0004 51.5183C26.2849 51.3528 26.3739 50.9917 26.192 50.7177C25.7387 50.0357 26.0714 49.4495 26.3809 49.1085C26.5547 48.9169 26.5741 48.638 26.4403 48.4167C25.9604 47.6223 26.4003 46.8658 26.6248 46.5633C26.6981 46.4643 26.738 46.3456 26.738 46.2225V46.1237H19.9122Z" fill="#D3DCFB"/>
<path d="M18.3389 42.6124V44.8511C18.3389 45.7164 19.047 46.4244 19.9122 46.4244H65.0878C65.953 46.4244 66.6611 45.7164 66.6611 44.8511V42.6124H18.3389Z" fill="#5F5F9B"/>
<path d="M25.1646 44.8513V42.6126H18.3389V44.8513C18.3389 45.7166 19.047 46.4247 19.9124 46.4247H26.7381C25.8727 46.4247 25.1646 45.7166 25.1646 44.8513Z" fill="#47477F"/>
<path d="M15.9151 8.70422V37.5735C15.9151 37.8632 16.15 38.0981 16.4397 38.0981H68.5603C68.85 38.0981 69.0849 37.8632 69.0849 37.5735V8.70422H15.9151Z" fill="#E9EFFF"/>
<path d="M23.7065 35.4405V8.70422H15.9151V37.5735C15.9151 37.8632 16.15 38.0981 16.4397 38.0981H25.1645C24.2901 37.5338 23.7065 36.5528 23.7065 35.4405Z" fill="#D3DCFB"/>
<path d="M68.5603 4.51447H16.4397C16.15 4.51447 15.9151 4.74938 15.9151 5.03907V9.10546H69.0849V5.03907C69.0849 4.74938 68.85 4.51447 68.5603 4.51447Z" fill="#5F5F9B"/>
<path d="M23.7065 7.17204C23.7065 6.05957 24.2901 5.07875 25.1647 4.51447H16.4397C16.15 4.51447 15.9151 4.74938 15.9151 5.03907V9.10546H23.7065V7.17204Z" fill="#47477F"/>
<path d="M66.6408 50.0361H18.3592C17.5819 50.0361 16.9519 50.6663 16.9519 51.4434V66.1514C16.9519 66.9287 17.5819 67.5588 18.3592 67.5588H66.641C67.4183 67.5588 68.0483 66.9287 68.0483 66.1514V51.4434C68.0483 50.6663 67.4181 50.0361 66.6408 50.0361Z" fill="#D3DCFB"/>
<path d="M16.9517 51.4434V66.1514C16.9517 66.9287 17.5819 67.5589 18.359 67.5589H25.2628V55.7294C25.2628 55.7294 25.2628 54.4428 25.2628 52.9072C25.2628 52.1393 25.6315 51.7329 26.0004 51.5184C26.2849 51.3529 26.3739 50.9918 26.192 50.7178C26.0314 50.4762 25.9708 50.2471 25.9715 50.0363H18.359C17.5819 50.0361 16.9517 50.6663 16.9517 51.4434Z" fill="#BEC8F7"/>
<path d="M66.6408 68.8038H18.359C16.8964 68.8038 15.7066 67.614 15.7066 66.1513V51.4433C15.7066 49.9807 16.8964 48.7908 18.359 48.7908H66.6408C68.1034 48.7908 69.2934 49.9807 69.2934 51.4433V66.1513C69.2934 67.614 68.1034 68.8038 66.6408 68.8038ZM18.359 51.2814C18.2697 51.2814 18.1968 51.3543 18.1968 51.4436V66.1516C18.1968 66.2411 18.2695 66.3139 18.359 66.3139H66.6408C66.7303 66.3139 66.8032 66.2411 66.8032 66.1516V51.4436C66.8032 51.3543 66.7305 51.2814 66.6408 51.2814H18.359Z" fill="#BEC8F7"/>
<path d="M25.2629 66.3136H18.3592C18.2697 66.3136 18.197 66.2407 18.197 66.1512V51.4432C18.197 51.3539 18.2697 51.281 18.3592 51.281H26.2242C26.3127 51.1074 26.3098 50.8945 26.1921 50.7174C25.7389 50.0354 26.0716 49.4492 26.381 49.1082C26.4637 49.0171 26.5104 48.906 26.5233 48.791H18.3593C16.8967 48.791 15.7069 49.9808 15.7069 51.4434V66.1514C15.7069 67.614 16.8967 68.804 18.3593 68.804H25.2631V66.3136H25.2629Z" fill="#A2B6F4"/>
<path d="M51.0774 71.3709H33.9226C33.1454 71.3709 32.5153 72.0011 32.5153 72.7782V80.0338C32.5153 80.8111 33.1454 81.4413 33.9226 81.4413H51.0774C51.8546 81.4413 52.4847 80.8111 52.4847 80.0338V72.7782C52.4847 72.0011 51.8546 71.3709 51.0774 71.3709Z" fill="#D3DCFB"/>
<path d="M45.1322 16.8097H39.8677C39.1961 16.8097 38.6499 17.3559 38.6499 18.0274C38.6499 18.6988 39.1961 19.2451 39.8677 19.2451H45.1322C45.8037 19.2451 46.3499 18.6988 46.3499 18.0274C46.3499 17.356 45.8037 16.8097 45.1322 16.8097Z" fill="#42C3FC"/>
<path d="M50.7508 12.1583H34.2492C33.5777 12.1583 33.0315 12.7047 33.0315 13.376C33.0315 14.0474 33.5778 14.5938 34.2492 14.5938H50.7508C51.4223 14.5938 51.9685 14.0474 51.9685 13.376C51.9685 12.7047 51.4223 12.1583 50.7508 12.1583Z" fill="#BEC8F7"/>
<path d="M61.3949 27.4391H23.6053C22.9337 27.4391 22.3875 27.9853 22.3875 28.6568C22.3875 29.3282 22.9337 29.8745 23.6053 29.8745H61.3949C62.0664 29.8745 62.6126 29.3283 62.6126 28.6568C62.6125 27.9853 62.0663 27.4391 61.3949 27.4391Z" fill="#BEC8F7"/>
<path d="M61.3949 22.6194H23.6053C22.9337 22.6194 22.3875 23.1658 22.3875 23.8372C22.3875 24.5085 22.9337 25.0549 23.6053 25.0549H61.3949C62.0664 25.0549 62.6126 24.5085 62.6126 23.8372C62.6126 23.1658 62.0663 22.6194 61.3949 22.6194Z" fill="#BEC8F7"/>
<path d="M42.4998 32.2587H23.6053C22.9337 32.2587 22.3875 32.805 22.3875 33.4764C22.3875 34.1479 22.9337 34.6941 23.6053 34.6941H42.5C43.1715 34.6941 43.7177 34.1479 43.7177 33.4764C43.7177 32.805 43.1714 32.2587 42.4998 32.2587Z" fill="#BEC8F7"/>
<path d="M64.8849 56.6014C64.9167 55.5769 64.0639 54.7204 63.0205 54.7702C62.1084 54.8139 61.3927 55.5626 61.3341 56.4686L61.3813 55.8609C61.4117 54.8836 60.6367 54.059 59.6594 54.0286C58.682 53.9982 57.8573 54.773 57.827 55.7505L57.8314 55.1295C57.8617 54.1521 57.0869 53.3275 56.1096 53.2972C55.1321 53.2668 54.3077 54.0417 54.2771 55.0191L54.2907 54.451C54.2871 53.5708 53.6627 52.7895 52.7875 52.6567C51.7183 52.4945 50.7428 53.3101 50.7103 54.3588V62.2469C50.7025 62.5019 50.3469 62.5989 50.1996 62.3903C49.6423 61.6013 48.1171 59.591 47.1013 58.7448C46.4087 58.1681 45.4924 57.8916 44.6597 58.2396C43.8678 58.5707 43.6166 59.5732 44.1484 60.2471C44.9569 61.2712 46.1562 62.7393 46.9671 64.0424C47.4884 64.8799 48.0097 65.7216 48.026 66.7079C48.0474 68.0138 48.3147 69.4912 49.6079 71.5112C49.7233 71.6914 50.8263 72.8179 51.0744 74.6335H62.4326V73.3088C62.4521 72.6841 62.6812 72.0787 63.1032 71.6178C64.0901 70.5402 64.837 69.1241 64.8847 67.5928C64.9914 64.1606 64.8176 58.7689 64.8849 56.6014Z" fill="#F9BA8F"/>
<path d="M64.1703 69.7967C55.9365 73.7728 49.9752 70.6804 48.7521 69.9441C48.9699 70.4304 49.248 70.9493 49.6081 71.5116C49.7235 71.6917 50.8265 72.8183 51.0745 74.6339H62.4328V73.3092C62.4522 72.6845 62.6812 72.0791 63.1034 71.6182C63.6155 71.0589 64.0619 70.408 64.3807 69.6976C64.3106 69.7304 64.2422 69.762 64.1703 69.7967Z" fill="#FCAD6D"/>
<path d="M40.3403 58.24C39.5076 57.892 38.5913 58.1684 37.8987 58.7451C36.8827 59.5913 35.3577 61.6016 34.8004 62.3907C34.6529 62.599 34.2975 62.5022 34.2895 62.2472V54.3592C34.257 53.3104 33.2815 52.4946 32.2123 52.657C31.3371 52.7898 30.7127 53.5711 30.7091 54.4513L30.7227 55.0194C30.6923 54.0421 29.8679 53.2671 28.8904 53.2975C27.913 53.3279 27.1381 54.1525 27.1685 55.1298L27.1728 55.7509C27.1424 54.7735 26.3178 53.9986 25.3403 54.029C24.3628 54.0593 23.588 54.8839 23.6184 55.8613L23.6655 56.4689C23.6069 55.563 22.8914 54.8142 21.9791 54.7706C20.9357 54.7208 20.0829 55.5772 20.1148 56.6017C20.182 58.769 20.0082 64.1607 20.1148 67.5933C20.1623 69.1246 20.9093 70.5407 21.8963 71.6183C22.3185 72.0792 22.5476 72.6848 22.567 73.3094V74.634H33.9253C34.1735 72.8184 35.2763 71.6919 35.3919 71.5117C36.6851 69.4917 36.9524 68.0143 36.9738 66.7084C36.9901 65.7221 37.5116 64.8804 38.0328 64.0429C38.8438 62.7398 40.0431 61.2717 40.8516 60.2476C41.3834 59.5736 41.1324 58.571 40.3403 58.24Z" fill="#F9BA8F"/>
<path d="M33.9255 74.6338C34.1736 72.8183 35.2765 71.6917 35.392 71.5116C35.7707 70.9202 36.0593 70.3765 36.2815 69.8688C35.4008 70.4268 29.2983 73.9286 20.7413 69.7965C20.7075 69.7802 20.6757 69.7658 20.6422 69.7498C20.9593 70.4399 21.3969 71.0725 21.8966 71.618C22.3188 72.0788 22.5477 72.6845 22.5673 73.309V74.6337H33.9255V74.6338Z" fill="#FCAD6D"/>
<path d="M50.6115 80.3337V84.1901C54.4395 83.4153 58.0714 82.1015 61.4273 80.3337H50.6115Z" fill="#FFB332"/>
<path d="M57.6743 80.5439V80.3337H50.6115V84.1901C52.6137 83.7848 54.5614 83.2308 56.4446 82.543C56.4445 82.5327 56.4428 82.5228 56.4428 82.5125V82.0088C56.4426 81.2743 56.9749 80.6657 57.6743 80.5439Z" fill="#FF9100"/>
<path d="M63.2579 74.2427H50.531C50.0406 74.2427 49.6431 74.6401 49.6431 75.1305V79.8733C49.6431 80.3637 50.0406 80.7611 50.531 80.7611H60.5924C61.8129 80.1538 62.9986 79.4874 64.1458 78.7649V75.1305C64.1458 74.6403 63.7483 74.2427 63.2579 74.2427Z" fill="#FFDD40"/>
<path d="M56.7865 79.8733V75.1305C56.7865 74.6401 57.1841 74.2427 57.6743 74.2427H50.5312C50.0408 74.2427 49.6433 74.6401 49.6433 75.1305V79.8733C49.6433 80.3637 50.0408 80.7611 50.5312 80.7611H57.6743C57.1839 80.7611 56.7865 80.3637 56.7865 79.8733Z" fill="#FFB332"/>
<path d="M34.3887 84.1901V80.3337H23.5729C26.9287 82.1014 30.5605 83.4154 34.3887 84.1901Z" fill="#FFB332"/>
<path d="M29.9884 80.3337H23.5729C25.3081 81.2477 27.1176 82.0392 28.9893 82.6988C28.1971 81.9074 28.6558 80.3337 29.9884 80.3337Z" fill="#FF9100"/>
<path d="M34.4688 74.2427H21.7419C21.2515 74.2427 20.854 74.6401 20.854 75.1305V78.7649C22.0012 79.4874 23.1869 80.1538 24.4074 80.7611H34.4687C34.9591 80.7611 35.3565 80.3637 35.3565 79.8733V75.1305C35.3568 74.6403 34.9592 74.2427 34.4688 74.2427Z" fill="#FFDD40"/>
<path d="M27.9974 79.8733V75.1305C27.9974 74.6401 28.3948 74.2427 28.8852 74.2427H21.7419C21.2515 74.2427 20.854 74.6401 20.854 75.1305V78.7649C22.0012 79.4874 23.1869 80.1538 24.4076 80.7611H28.8852C28.395 80.7611 27.9974 80.3637 27.9974 79.8733Z" fill="#FFB332"/>
</g>
<defs>
<clipPath id="clip0_14_260">
<rect width="85" height="85" fill="white"/>
</clipPath>
</defs>
</svg>
