<svg width="16" height="4" viewBox="0 0 16 4" fill="none" xmlns="http://www.w3.org/2000/svg">
<path d="M15.2406 3.37587C16.0129 2.60359 16.0129 1.35148 15.2406 0.579203C14.4683 -0.193073 13.2162 -0.193073 12.444 0.579203C11.6717 1.35148 11.6717 2.60359 12.444 3.37587C13.2162 4.14815 14.4683 4.14815 15.2406 3.37587Z" fill="#BABABA"/>
<path d="M9.30849 3.37587C10.0808 2.60359 10.0808 1.35148 9.30849 0.579203C8.53621 -0.193073 7.2841 -0.193073 6.51182 0.579203C5.73955 1.35148 5.73955 2.60359 6.51182 3.37587C7.2841 4.14815 8.53621 4.14815 9.30849 3.37587Z" fill="#BABABA"/>
<path d="M3.37587 3.37587C4.14815 2.60359 4.14815 1.35148 3.37587 0.579203C2.6036 -0.193073 1.35148 -0.193073 0.579207 0.579203C-0.193069 1.35148 -0.193069 2.60359 0.579207 3.37587C1.35148 4.14815 2.6036 4.14815 3.37587 3.37587Z" fill="#BABABA"/>
</svg>
