<svg width="40" height="40" viewBox="0 0 40 40" fill="none" xmlns="http://www.w3.org/2000/svg">
<path d="M34.9995 20.7066V18.3333C34.9995 14.3551 33.4192 10.5398 30.6061 7.72671C27.7931 4.91367 23.9778 3.33331 19.9995 3.33331C16.0213 3.33331 12.206 4.91367 9.39291 7.72671C6.57986 10.5398 4.99951 14.3551 4.99951 18.3333V20.7066C3.25144 21.4764 1.82085 22.8232 0.947213 24.5218C0.0735818 26.2203 -0.190054 28.1674 0.20044 30.0371C0.590934 31.9067 1.61186 33.5855 3.09229 34.7924C4.57273 35.9993 6.42282 36.6609 8.33284 36.6666H11.6662V20H8.33284V18.3333C8.33284 15.2391 9.56201 12.2717 11.7499 10.0837C13.9379 7.89581 16.9053 6.66665 19.9995 6.66665C23.0937 6.66665 26.0612 7.89581 28.2491 10.0837C30.437 12.2717 31.6662 15.2391 31.6662 18.3333V20H28.3328V33.3333H21.6662V36.6666H31.6662C33.5762 36.6609 35.4263 35.9993 36.9067 34.7924C38.3872 33.5855 39.4081 31.9067 39.7986 30.0371C40.1891 28.1674 39.9254 26.2203 39.0518 24.5218C38.1782 22.8232 36.7476 21.4764 34.9995 20.7066ZM8.33284 33.3333C7.00676 33.3333 5.73499 32.8065 4.79731 31.8688C3.85963 30.9312 3.33284 29.6594 3.33284 28.3333C3.33284 27.0072 3.85963 25.7355 4.79731 24.7978C5.73499 23.8601 7.00676 23.3333 8.33284 23.3333V33.3333ZM31.6662 33.3333V23.3333C32.9923 23.3333 34.264 23.8601 35.2017 24.7978C36.1394 25.7355 36.6662 27.0072 36.6662 28.3333C36.6662 29.6594 36.1394 30.9312 35.2017 31.8688C34.264 32.8065 32.9923 33.3333 31.6662 33.3333Z" fill="#9777FA"/>
</svg>
