<svg width="18" height="18" viewBox="0 0 18 18" fill="none" xmlns="http://www.w3.org/2000/svg">
<g clip-path="url(#clip0_106_3445)">
<path d="M8.99989 18.006L8.47489 17.556C7.75114 16.95 1.43164 11.4922 1.43164 7.49998C1.43164 5.49276 2.22901 3.56774 3.64833 2.14842C5.06765 0.729099 6.99267 -0.0682678 8.99989 -0.0682678C11.0071 -0.0682678 12.9321 0.729099 14.3515 2.14842C15.7708 3.56774 16.5681 5.49276 16.5681 7.49998C16.5681 11.4922 10.2486 16.95 9.52789 17.559L8.99989 18.006ZM8.99989 1.56823C7.42724 1.57002 5.91952 2.19554 4.80748 3.30757C3.69545 4.41961 3.06993 5.92733 3.06814 7.49998C3.06814 10.008 6.95614 14.0145 8.99989 15.8482C11.0436 14.0137 14.9316 10.005 14.9316 7.49998C14.9299 5.92733 14.3043 4.41961 13.1923 3.30757C12.0803 2.19554 10.5725 1.57002 8.99989 1.56823Z" fill="#A0ABB8"/>
<path d="M9 10.5C8.40666 10.5 7.82664 10.324 7.33329 9.9944C6.83994 9.66475 6.45543 9.19622 6.22836 8.64804C6.0013 8.09986 5.94189 7.49666 6.05765 6.91472C6.1734 6.33277 6.45912 5.79822 6.87868 5.37867C7.29824 4.95911 7.83279 4.67339 8.41473 4.55763C8.99667 4.44187 9.59987 4.50128 10.1481 4.72835C10.6962 4.95541 11.1648 5.33993 11.4944 5.83328C11.8241 6.32662 12 6.90664 12 7.49999C12 8.29564 11.6839 9.0587 11.1213 9.62131C10.5587 10.1839 9.79565 10.5 9 10.5ZM9 5.99999C8.70333 5.99999 8.41332 6.08796 8.16665 6.25278C7.91997 6.4176 7.72771 6.65187 7.61418 6.92596C7.50065 7.20005 7.47095 7.50165 7.52882 7.79262C7.5867 8.08359 7.72956 8.35087 7.93934 8.56065C8.14912 8.77043 8.41639 8.91329 8.70737 8.97116C8.99834 9.02904 9.29994 8.99934 9.57403 8.88581C9.84812 8.77227 10.0824 8.58002 10.2472 8.33334C10.412 8.08667 10.5 7.79666 10.5 7.49999C10.5 7.10216 10.342 6.72063 10.0607 6.43933C9.77936 6.15802 9.39783 5.99999 9 5.99999Z" fill="#A0ABB8"/>
</g>
<defs>
<clipPath id="clip0_106_3445">
<rect width="18" height="18" fill="white"/>
</clipPath>
</defs>
</svg>
