<svg width="28" height="28" viewBox="0 0 28 28" fill="none" xmlns="http://www.w3.org/2000/svg">
<path d="M12.8335 2.33333C18.6295 2.33333 23.3335 7.03733 23.3335 12.8333C23.3335 18.6293 18.6295 23.3333 12.8335 23.3333C7.0375 23.3333 2.3335 18.6293 2.3335 12.8333C2.3335 7.03733 7.0375 2.33333 12.8335 2.33333ZM12.8335 21C17.345 21 21.0002 17.3448 21.0002 12.8333C21.0002 8.32066 17.345 4.66666 12.8335 4.66666C8.32083 4.66666 4.66683 8.32066 4.66683 12.8333C4.66683 17.3448 8.32083 21 12.8335 21ZM22.7327 21.0828L26.0332 24.3822L24.3823 26.033L21.083 22.7325L22.7327 21.0828Z" fill="#BABABA"/>
</svg>
