<svg width="20" height="19" viewBox="0 0 20 19" fill="none" xmlns="http://www.w3.org/2000/svg">
<path d="M9.99544 14.2867V11.9611" stroke="#A0ABB8" stroke-width="1.5" stroke-linecap="round" stroke-linejoin="round"/>
<path fill-rule="evenodd" clip-rule="evenodd" d="M15.6738 3.88606C17.223 3.88606 18.4697 5.1419 18.4697 6.69106V9.8444C16.2147 11.1644 13.2355 11.9619 9.99051 11.9619C6.74551 11.9619 3.77551 11.1644 1.52051 9.8444V6.6819C1.52051 5.13273 2.77634 3.88606 4.32551 3.88606H15.6738Z" stroke="#A0ABB8" stroke-width="1.5" stroke-linecap="round" stroke-linejoin="round"/>
<path d="M13.2038 3.88189V3.54639C13.2038 2.42805 12.2963 1.52055 11.1779 1.52055H8.81294C7.69461 1.52055 6.78711 2.42805 6.78711 3.54639V3.88189" stroke="#A0ABB8" stroke-width="1.5" stroke-linecap="round" stroke-linejoin="round"/>
<path d="M1.54297 13.193L1.71622 15.4929C1.83355 17.043 3.12514 18.2411 4.67889 18.2411H15.3113C16.8651 18.2411 18.1566 17.043 18.274 15.4929L18.4472 13.193" stroke="#A0ABB8" stroke-width="1.5" stroke-linecap="round" stroke-linejoin="round"/>
</svg>
