<svg width="22" height="22" viewBox="0 0 22 22" fill="none" xmlns="http://www.w3.org/2000/svg">
<path d="M20.3242 1.67794C20.1836 1.53738 20.0054 1.44046 19.811 1.39883C19.6166 1.35721 19.4143 1.37266 19.2285 1.44333L2.03973 7.94923H2.0363C1.83811 8.02546 1.66828 8.161 1.55001 8.33736C1.43174 8.51372 1.3708 8.72228 1.3755 8.93457C1.3802 9.14686 1.45032 9.35253 1.57628 9.52347C1.70224 9.69442 1.8779 9.82232 2.07927 9.8897L2.09688 9.89528L7.99649 12.4145C8.11156 12.4495 8.23378 12.4536 8.35095 12.4265C8.46812 12.3995 8.57614 12.3421 8.66423 12.2603L18.1328 3.43751C18.161 3.4093 18.1945 3.38692 18.2314 3.37165C18.2683 3.35638 18.3078 3.34852 18.3477 3.34852C18.3876 3.34852 18.4271 3.35638 18.4639 3.37165C18.5008 3.38692 18.5343 3.4093 18.5625 3.43751C18.5907 3.46572 18.6131 3.49922 18.6284 3.53608C18.6436 3.57294 18.6515 3.61245 18.6515 3.65235C18.6515 3.69225 18.6436 3.73176 18.6284 3.76863C18.6131 3.80549 18.5907 3.83898 18.5625 3.8672L9.73931 13.3315C9.65744 13.4196 9.60011 13.5276 9.57304 13.6448C9.54598 13.7619 9.55011 13.8842 9.58505 13.9992L12.1052 19.9023C12.1077 19.9109 12.1103 19.9186 12.1133 19.9268C12.2508 20.3251 12.5989 20.6061 13.0195 20.625H13.0625C13.2749 20.6262 13.4827 20.5635 13.6589 20.445C13.8352 20.3266 13.9717 20.1578 14.0508 19.9607L20.5558 2.77665C20.6275 2.59072 20.6438 2.388 20.6027 2.19301C20.5616 1.99802 20.4649 1.81912 20.3242 1.67794Z" fill="white"/>
</svg>
