<svg width="18" height="18" viewBox="0 0 18 18" fill="none" xmlns="http://www.w3.org/2000/svg">
<path d="M8.99551 12.858V10.765" stroke="#A0ABB8" stroke-width="1.5" stroke-linecap="round" stroke-linejoin="round"/>
<path fill-rule="evenodd" clip-rule="evenodd" d="M14.1062 3.49745C15.5004 3.49745 16.6224 4.6277 16.6224 6.02195V8.85995C14.5929 10.048 11.9117 10.7657 8.99116 10.7657C6.07066 10.7657 3.39766 10.048 1.36816 8.85995V6.0137C1.36816 4.61945 2.49841 3.49745 3.89266 3.49745H14.1062Z" stroke="#A0ABB8" stroke-width="1.5" stroke-linecap="round" stroke-linejoin="round"/>
<path d="M11.8834 3.4937V3.19175C11.8834 2.18525 11.0666 1.3685 10.0601 1.3685H7.93165C6.92515 1.3685 6.1084 2.18525 6.1084 3.19175V3.4937" stroke="#A0ABB8" stroke-width="1.5" stroke-linecap="round" stroke-linejoin="round"/>
<path d="M1.38867 11.8737L1.5446 13.9436C1.6502 15.3387 2.81262 16.417 4.211 16.417H13.7802C15.1785 16.417 16.341 15.3387 16.4466 13.9436L16.6025 11.8737" stroke="#A0ABB8" stroke-width="1.5" stroke-linecap="round" stroke-linejoin="round"/>
</svg>
