<svg width="30" height="30" viewBox="0 0 30 30" fill="none" xmlns="http://www.w3.org/2000/svg">
<circle cx="15" cy="15" r="14.5" stroke="#CCCCCC"/>
<path d="M15.5 13.55C14.9828 13.55 14.4868 13.7554 14.1211 14.1211C13.7554 14.4868 13.55 14.9828 13.55 15.5C13.55 16.0172 13.7554 16.5132 14.1211 16.8789C14.4868 17.2446 14.9828 17.45 15.5 17.45C16.0172 17.45 16.5132 17.2446 16.8789 16.8789C17.2446 16.5132 17.45 16.0172 17.45 15.5C17.45 14.9828 17.2446 14.4868 16.8789 14.1211C16.5132 13.7554 16.0172 13.55 15.5 13.55ZM15.5 12.25C16.362 12.25 17.1886 12.5924 17.7981 13.2019C18.4076 13.8114 18.75 14.638 18.75 15.5C18.75 16.362 18.4076 17.1886 17.7981 17.7981C17.1886 18.4076 16.362 18.75 15.5 18.75C14.638 18.75 13.8114 18.4076 13.2019 17.7981C12.5924 17.1886 12.25 16.362 12.25 15.5C12.25 14.638 12.5924 13.8114 13.2019 13.2019C13.8114 12.5924 14.638 12.25 15.5 12.25ZM19.725 12.0875C19.725 12.303 19.6394 12.5097 19.487 12.662C19.3347 12.8144 19.128 12.9 18.9125 12.9C18.697 12.9 18.4903 12.8144 18.338 12.662C18.1856 12.5097 18.1 12.303 18.1 12.0875C18.1 11.872 18.1856 11.6653 18.338 11.513C18.4903 11.3606 18.697 11.275 18.9125 11.275C19.128 11.275 19.3347 11.3606 19.487 11.513C19.6394 11.6653 19.725 11.872 19.725 12.0875ZM15.5 10.3C13.8919 10.3 13.6293 10.3046 12.8812 10.3377C12.3716 10.3618 12.0296 10.43 11.7124 10.5535C11.4303 10.6627 11.2269 10.7933 11.0104 11.0104C10.807 11.207 10.6506 11.447 10.5528 11.7124C10.4293 12.0309 10.3611 12.3722 10.3377 12.8812C10.3039 13.5988 10.3 13.8496 10.3 15.5C10.3 17.1081 10.3046 17.3707 10.3377 18.1188C10.3618 18.6278 10.43 18.9703 10.5528 19.2869C10.6633 19.5696 10.7933 19.7731 11.0092 19.9889C11.2282 20.2073 11.4316 20.3379 11.7111 20.4458C12.0322 20.57 12.3742 20.6389 12.8812 20.6623C13.5988 20.6961 13.8496 20.7 15.5 20.7C17.1081 20.7 17.3707 20.6954 18.1188 20.6623C18.6271 20.6382 18.9697 20.57 19.2869 20.4471C19.5683 20.3373 19.7731 20.2066 19.9889 19.9908C20.2079 19.7718 20.3386 19.5683 20.4465 19.2888C20.57 18.9684 20.6389 18.6258 20.6623 18.1188C20.6961 17.4012 20.7 17.1503 20.7 15.5C20.7 13.8919 20.6954 13.6293 20.6623 12.8812C20.6382 12.3728 20.57 12.0296 20.4465 11.7124C20.3485 11.4473 20.1924 11.2074 19.9895 11.0104C19.7931 10.8069 19.5531 10.6505 19.2875 10.5528C18.969 10.4293 18.6271 10.3611 18.1188 10.3377C17.4012 10.3039 17.1503 10.3 15.5 10.3ZM15.5 9C17.266 9 17.4864 9.0065 18.1793 9.039C18.8715 9.0715 19.3428 9.18005 19.7575 9.34125C20.1865 9.50635 20.5479 9.72995 20.9093 10.0907C21.2398 10.4156 21.4956 10.8087 21.6587 11.2425C21.8193 11.6565 21.9285 12.1284 21.961 12.8207C21.9915 13.5136 22 13.7339 22 15.5C22 17.266 21.9935 17.4864 21.961 18.1793C21.9285 18.8715 21.8193 19.3428 21.6587 19.7575C21.496 20.1916 21.2402 20.5847 20.9093 20.9093C20.5843 21.2397 20.1912 21.4954 19.7575 21.6587C19.3434 21.8193 18.8715 21.9285 18.1793 21.961C17.4864 21.9915 17.266 22 15.5 22C13.7339 22 13.5136 21.9935 12.8207 21.961C12.1284 21.9285 11.6572 21.8193 11.2425 21.6587C10.8085 21.4959 10.4154 21.2401 10.0907 20.9093C9.76011 20.5844 9.50436 20.1914 9.34125 19.7575C9.18005 19.3434 9.0715 18.8715 9.039 18.1793C9.00845 17.4864 9 17.266 9 15.5C9 13.7339 9.0065 13.5136 9.039 12.8207C9.0715 12.1278 9.18005 11.6572 9.34125 11.2425C9.5039 10.8084 9.75972 10.4153 10.0907 10.0907C10.4155 9.76 10.8086 9.50422 11.2425 9.34125C11.6572 9.18005 12.1278 9.0715 12.8207 9.039C13.5136 9.00845 13.7339 9 15.5 9Z" fill="#AAAAAA"/>
</svg>
