<svg width="14" height="13" viewBox="0 0 14 13" fill="none" xmlns="http://www.w3.org/2000/svg">
<path d="M7.31396 4.55C6.79679 4.55 6.3008 4.75545 5.93511 5.12114C5.56941 5.48684 5.36396 5.98283 5.36396 6.5C5.36396 7.01717 5.56941 7.51316 5.93511 7.87886C6.3008 8.24455 6.79679 8.45 7.31396 8.45C7.83114 8.45 8.32713 8.24455 8.69282 7.87886C9.05852 7.51316 9.26396 7.01717 9.26396 6.5C9.26396 5.98283 9.05852 5.48684 8.69282 5.12114C8.32713 4.75545 7.83114 4.55 7.31396 4.55ZM7.31396 3.25C8.17592 3.25 9.00257 3.59241 9.61206 4.2019C10.2216 4.8114 10.564 5.63805 10.564 6.5C10.564 7.36195 10.2216 8.1886 9.61206 8.7981C9.00257 9.40759 8.17592 9.75 7.31396 9.75C6.45201 9.75 5.62536 9.40759 5.01587 8.7981C4.40637 8.1886 4.06396 7.36195 4.06396 6.5C4.06396 5.63805 4.40637 4.8114 5.01587 4.2019C5.62536 3.59241 6.45201 3.25 7.31396 3.25V3.25ZM11.539 3.0875C11.539 3.30299 11.4534 3.50965 11.301 3.66202C11.1486 3.8144 10.942 3.9 10.7265 3.9C10.511 3.9 10.3043 3.8144 10.1519 3.66202C9.99957 3.50965 9.91396 3.30299 9.91396 3.0875C9.91396 2.87201 9.99957 2.66535 10.1519 2.51298C10.3043 2.3606 10.511 2.275 10.7265 2.275C10.942 2.275 11.1486 2.3606 11.301 2.51298C11.4534 2.66535 11.539 2.87201 11.539 3.0875V3.0875ZM7.31396 1.3C5.70586 1.3 5.44326 1.30455 4.69511 1.3377C4.18551 1.36175 3.84361 1.43 3.52641 1.5535C3.24431 1.6627 3.04086 1.79335 2.82441 2.01045C2.62097 2.20701 2.46454 2.44698 2.36681 2.71245C2.24331 3.03095 2.17506 3.3722 2.15166 3.88115C2.11786 4.59875 2.11396 4.84965 2.11396 6.5C2.11396 8.1081 2.11851 8.3707 2.15166 9.11885C2.17571 9.6278 2.24396 9.97035 2.36681 10.2869C2.47731 10.5696 2.60731 10.7731 2.82311 10.9889C3.04216 11.2073 3.24561 11.3379 3.52511 11.4458C3.84621 11.57 4.18811 11.6389 4.69511 11.6623C5.41271 11.6961 5.66361 11.7 7.31396 11.7C8.92206 11.7 9.18466 11.6954 9.93281 11.6623C10.4411 11.6382 10.7837 11.57 11.1009 11.4471C11.3823 11.3373 11.5871 11.2066 11.8029 10.9908C12.0219 10.7718 12.1526 10.5683 12.2605 10.2888C12.384 9.9684 12.4529 9.62585 12.4763 9.11885C12.5101 8.40125 12.514 8.15035 12.514 6.5C12.514 4.8919 12.5094 4.6293 12.4763 3.88115C12.4522 3.37285 12.384 3.02965 12.2605 2.71245C12.1625 2.44725 12.0064 2.20737 11.8035 2.01045C11.607 1.8069 11.367 1.65046 11.1015 1.55285C10.783 1.42935 10.4411 1.3611 9.93281 1.3377C9.21521 1.3039 8.96431 1.3 7.31396 1.3ZM7.31396 0C9.08001 0 9.30036 0.00649996 9.99326 0.039C10.6855 0.0715 11.1568 0.18005 11.5715 0.34125C12.0005 0.50635 12.3619 0.72995 12.7233 1.0907C13.0538 1.41563 13.3095 1.80868 13.4727 2.2425C13.6333 2.65655 13.7425 3.12845 13.775 3.8207C13.8055 4.5136 13.814 4.73395 13.814 6.5C13.814 8.26605 13.8075 8.4864 13.775 9.1793C13.7425 9.87155 13.6333 10.3428 13.4727 10.7575C13.31 11.1916 13.0542 11.5847 12.7233 11.9093C12.3982 12.2397 12.0052 12.4954 11.5715 12.6587C11.1574 12.8193 10.6855 12.9285 9.99326 12.961C9.30036 12.9915 9.08001 13 7.31396 13C5.54791 13 5.32756 12.9935 4.63466 12.961C3.94241 12.9285 3.47116 12.8193 3.05646 12.6587C2.62248 12.4959 2.22936 12.2401 1.90466 11.9093C1.57408 11.5844 1.31832 11.1914 1.15521 10.7575C0.994015 10.3434 0.885465 9.87155 0.852965 9.1793C0.822415 8.4864 0.813965 8.26605 0.813965 6.5C0.813965 4.73395 0.820465 4.5136 0.852965 3.8207C0.885465 3.1278 0.994015 2.6572 1.15521 2.2425C1.31787 1.80842 1.57369 1.41526 1.90466 1.0907C2.22945 0.76 2.62254 0.504224 3.05646 0.34125C3.47116 0.18005 3.94176 0.0715 4.63466 0.039C5.32756 0.00844996 5.54791 0 7.31396 0Z" fill="#5192FF"/>
</svg>
