<svg width="15" height="13" viewBox="0 0 15 13" fill="none" xmlns="http://www.w3.org/2000/svg">
<path d="M3.70269 1.44509C3.7025 1.82816 3.55014 2.19546 3.27914 2.46619C3.00813 2.73693 2.64068 2.88892 2.25761 2.88873C1.87454 2.88854 1.50723 2.73618 1.2365 2.46517C0.965763 2.19417 0.813773 1.82671 0.813965 1.44364C0.814157 1.06057 0.966514 0.693269 1.23752 0.422534C1.50853 0.151798 1.87598 -0.000191354 2.25905 1.80807e-07C2.64212 0.000191715 3.00942 0.152549 3.28016 0.423555C3.55089 0.694562 3.70289 1.06202 3.70269 1.44509ZM3.74602 3.95828H0.857296V13H3.74602V3.95828ZM8.31021 3.95828H5.43593V13H8.28133V8.25526C8.28133 5.61208 11.7261 5.36654 11.7261 8.25526V13H14.5788V7.2731C14.5788 2.81723 9.48015 2.98333 8.28133 5.17155L8.31021 3.95828Z" fill="#AAAAAA"/>
</svg>
