<svg width="30" height="30" viewBox="0 0 30 30" fill="none" xmlns="http://www.w3.org/2000/svg">
<circle cx="15" cy="15" r="14.5" fill="#5192FF" stroke="#5192FF"/>
<path d="M10.8887 10.4451C10.8885 10.8282 10.7362 11.1955 10.4652 11.4662C10.1942 11.7369 9.82671 11.8889 9.44364 11.8887C9.06057 11.8885 8.69327 11.7362 8.42253 11.4652C8.1518 11.1942 7.99981 10.8267 8 10.4436C8.00019 10.0606 8.15255 9.69327 8.42356 9.42253C8.69456 9.1518 9.06202 8.99981 9.44509 9C9.82816 9.00019 10.1955 9.15255 10.4662 9.42356C10.7369 9.69456 10.8889 10.062 10.8887 10.4451ZM10.9321 12.9583H8.04333V22H10.9321V12.9583ZM15.4963 12.9583H12.622V22H15.4674V17.2553C15.4674 14.6121 18.9122 14.3665 18.9122 17.2553V22H21.7648V16.2731C21.7648 11.8172 16.6662 11.9833 15.4674 14.1715L15.4963 12.9583Z" fill="white"/>
</svg>
