<svg width="19" height="19" viewBox="0 0 19 19" fill="none" xmlns="http://www.w3.org/2000/svg">
<g clip-path="url(#clip0_50_196)">
<path d="M9.5 19.0064L8.94583 18.5314C8.18187 17.8917 1.51129 12.1307 1.51129 7.91669C1.51129 5.79795 2.35296 3.76599 3.85113 2.26782C5.3493 0.769644 7.38126 -0.0720215 9.5 -0.0720215C11.6187 -0.0720215 13.6507 0.769644 15.1489 2.26782C16.647 3.76599 17.4887 5.79795 17.4887 7.91669C17.4887 12.1307 10.8181 17.8917 10.0573 18.5345L9.5 19.0064ZM9.5 1.6554C7.83998 1.65728 6.24849 2.31756 5.07468 3.49137C3.90087 4.66518 3.24059 6.25667 3.23871 7.91669C3.23871 10.564 7.34271 14.7931 9.5 16.7287C11.6573 14.7923 15.7613 10.5609 15.7613 7.91669C15.7594 6.25667 15.0991 4.66518 13.9253 3.49137C12.7515 2.31756 11.16 1.65728 9.5 1.6554Z" fill="#BABABA"/>
<path d="M9.5 11.0833C8.87369 11.0833 8.26145 10.8976 7.74069 10.5497C7.21994 10.2017 6.81406 9.70713 6.57438 9.1285C6.3347 8.54987 6.27199 7.91316 6.39418 7.29888C6.51636 6.68461 6.81796 6.12036 7.26083 5.6775C7.70369 5.23463 8.26794 4.93303 8.88221 4.81085C9.49648 4.68866 10.1332 4.75137 10.7118 4.99105C11.2905 5.23073 11.785 5.63661 12.133 6.15736C12.4809 6.67812 12.6667 7.29036 12.6667 7.91667C12.6667 8.75652 12.333 9.56197 11.7392 10.1558C11.1453 10.7497 10.3398 11.0833 9.5 11.0833ZM9.5 6.33333C9.18684 6.33333 8.88072 6.4262 8.62034 6.60017C8.35997 6.77415 8.15703 7.02144 8.03719 7.31075C7.91735 7.60007 7.88599 7.91842 7.94709 8.22556C8.00818 8.5327 8.15898 8.81482 8.38041 9.03625C8.60184 9.25769 8.88397 9.40849 9.1911 9.46958C9.49824 9.53067 9.8166 9.49932 10.1059 9.37948C10.3952 9.25964 10.6425 9.0567 10.8165 8.79632C10.9905 8.53594 11.0833 8.22982 11.0833 7.91667C11.0833 7.49674 10.9165 7.09402 10.6196 6.79708C10.3226 6.50015 9.91992 6.33333 9.5 6.33333Z" fill="#BABABA"/>
</g>
<defs>
<clipPath id="clip0_50_196">
<rect width="19" height="19" fill="white"/>
</clipPath>
</defs>
</svg>
