<svg width="85" height="85" viewBox="0 0 85 85" fill="none" xmlns="http://www.w3.org/2000/svg">
<g clip-path="url(#clip0_14_718)">
<path d="M22.0535 79.4924C28.0611 82.9928 35.0457 85 42.5 85C49.7675 85 56.5884 83.0919 62.4929 79.7524L77.213 65.5326C80.9934 59.3577 83.1736 52.0968 83.1736 44.3263C83.1736 21.8629 64.9636 3.65265 42.5 3.65265C20.0366 3.65265 1.82632 21.8629 1.82632 44.3263C1.82632 52.1 4.00843 59.3635 7.7916 65.5401L22.0535 79.4924Z" fill="#746BF9"/>
<path d="M57.2959 59.5502C65.4726 51.3735 65.4726 38.1165 57.2959 29.9398C49.1192 21.7631 35.8622 21.7631 27.6855 29.9398C19.5088 38.1165 19.5088 51.3735 27.6855 59.5502C35.8622 67.7269 49.1192 67.7269 57.2959 59.5502Z" fill="#5858F4"/>
<path d="M52.2788 14.785V2.74258C52.2788 1.91549 51.6083 1.24512 50.7814 1.24512H29.6512C28.8241 1.24512 28.1537 1.91549 28.1537 2.74258V14.785H52.2788Z" fill="#42C3FC"/>
<path d="M35.3733 2.49023C34.9398 2.05677 34.8072 1.62479 34.8186 1.24512H29.6512C28.8241 1.24512 28.1537 1.91549 28.1537 2.74258V14.785H34.1974C34.1974 11.9634 34.1974 5.24095 34.1974 4.17446C34.1974 2.81878 35.3733 2.49023 35.3733 2.49023Z" fill="#1AA9E8"/>
<path d="M19.7397 58.5092H10.7865C9.6908 58.5092 8.79431 59.4057 8.79431 60.5014V67.0985C12.0768 71.9475 16.3779 76.0504 21.3906 79.1C21.6059 78.7819 21.7319 78.3992 21.7319 77.9883V60.5014C21.7319 59.4057 20.8354 58.5092 19.7397 58.5092Z" fill="#FFDD40"/>
<path d="M14.1113 58.5092H10.7865C9.6908 58.5092 8.79431 59.4057 8.79431 60.5014V67.0985C9.99593 68.8737 11.3355 70.5477 12.7951 72.1077C12.7951 69.4478 12.7951 64.9026 12.7951 63.8848C12.7951 62.4247 14.4875 61.9389 14.4875 61.9389L14.1113 58.5092Z" fill="#FFB332"/>
<path d="M51.0337 16.0301C50.3461 16.0301 49.7886 15.4727 49.7886 14.785V2.74258C49.7886 2.60346 49.6754 2.49023 49.5362 2.49023H30.8963C30.7572 2.49023 30.644 2.60346 30.644 2.74258V14.785C30.644 15.4727 30.0865 16.0301 29.3989 16.0301C28.7112 16.0301 28.1537 15.4727 28.1537 14.785V2.74258C28.1537 1.23034 29.3841 0 30.8963 0H49.5362C51.0485 0 52.2788 1.23034 52.2788 2.74258V14.785C52.2788 15.4727 51.7213 16.0301 51.0337 16.0301Z" fill="#47477F"/>
<path d="M30.8963 0C29.3841 0 28.1537 1.23034 28.1537 2.74258V14.785C28.1537 15.4727 28.7112 16.0301 29.3989 16.0301C30.0865 16.0301 30.644 15.4727 30.644 14.785V2.74258C30.644 2.60346 30.7572 2.49023 30.8963 2.49023H35.3734C34.1232 1.23997 35.3734 0 35.3734 0L30.8963 0Z" fill="#3B3868"/>
<path d="M42.6318 21.1011V18.6447C39.6891 18.6447 39.4443 18.6447 37.8007 18.6447V21.1011C37.8007 21.9463 37.3649 22.7319 36.6477 23.1793H43.7846C43.0676 22.7319 42.6318 21.9463 42.6318 21.1011Z" fill="#BEC8F7"/>
<path d="M39.3558 22.3462V21.4127C39.3558 20.5717 40.0377 19.8898 40.8787 19.8898H42.6317V18.6447C39.6892 18.6447 39.4443 18.6447 37.8006 18.6447V21.1011C37.8006 21.9463 37.3648 22.7319 36.6476 23.1793H39.2084C39.304 22.9158 39.3558 22.6347 39.3558 22.3462Z" fill="#A2B6F4"/>
<path d="M42.1253 56.8875L36.8581 51.3699L34.5299 52.7142C34.1736 52.9199 33.7965 53.0537 33.4141 53.1274L36.7339 56.6051C37.2604 57.1566 37.9844 57.4763 38.7465 57.4939L38.8848 57.4971C39.5585 57.5127 40.1984 57.7954 40.6637 58.2828C41.049 58.6864 41.6885 58.7013 42.0921 58.316C42.4957 57.9305 42.5106 57.291 42.1253 56.8875Z" fill="#E9EFFF"/>
<path d="M36.8581 51.3697L34.5299 52.7139C34.1736 52.9196 33.7966 53.0534 33.4141 53.1271L36.1982 56.0435C36.0131 53.0722 38.8754 53.4829 38.8754 53.4829L36.8581 51.3697Z" fill="#BEC8F7"/>
<path d="M48.5531 35.5731C47.9576 35.2292 47.7536 34.4677 48.0974 33.8722L49.3661 31.6748C49.7099 31.0792 50.4714 30.8751 51.0669 31.2191C51.6624 31.5629 51.8664 32.3245 51.5226 32.92L50.2539 35.1173C49.9089 35.7148 49.1468 35.916 48.5531 35.5731Z" fill="#FFDD40"/>
<path d="M51.7331 38.7532C51.3893 38.1577 51.5933 37.3962 52.1888 37.0524L54.3862 35.7837C54.9817 35.4397 55.7432 35.6439 56.087 36.2394C56.4308 36.8349 56.2268 37.5965 55.6313 37.9403L53.4339 39.209C52.8411 39.5513 52.0786 39.3514 51.7331 38.7532Z" fill="#FFDD40"/>
<path d="M56.6797 44.3422H54.1423C53.4547 44.3422 52.8972 43.7847 52.8972 43.0971C52.8972 42.4095 53.4547 41.852 54.1423 41.852H56.6797C57.3674 41.852 57.9248 42.4095 57.9248 43.0971C57.9248 43.7847 57.3674 44.3422 56.6797 44.3422Z" fill="#FFDD40"/>
<path d="M77.4507 65.137V62.4187C77.4507 62.001 77.1121 61.6623 76.6944 61.6623H73.3744V70.8033C74.8885 69.0394 76.2533 67.144 77.4507 65.137Z" fill="#BEC8F7"/>
<path d="M19.7397 57.2641H10.7865C9.00133 57.2641 7.54919 58.7164 7.54919 60.5014V65.1371C8.31287 66.4169 9.14427 67.6514 10.0394 68.8352V60.5016C10.0394 60.0907 10.3756 59.7545 10.7865 59.7545H12.3031C12.5252 59.7545 12.7051 59.9345 12.7051 60.1566C12.7051 61.1369 13.5072 61.9391 14.4877 61.9391H16.0387C17.0191 61.9391 17.8211 61.1371 17.8211 60.1566C17.8211 59.9345 18.001 59.7545 18.2232 59.7545H19.7397C20.1506 59.7545 20.4868 60.0907 20.4868 60.5016V77.9885C20.4868 78.1555 20.4292 78.3086 20.3357 78.4334C21.0312 78.8863 21.7409 79.3186 22.4649 79.7292C22.7874 79.2258 22.977 78.6295 22.977 77.9887V60.5014C22.977 58.7164 21.5249 57.2641 19.7397 57.2641Z" fill="#47477F"/>
<path d="M37.7269 50.8031L34.3377 44.933C34.303 44.8727 34.2784 44.8096 34.262 44.7454L30.9407 46.663C29.2239 47.6543 28.6355 49.8495 29.6268 51.5663C30.6181 53.2831 32.8133 53.8714 34.5301 52.8801L37.8514 50.9625C37.8041 50.9162 37.7616 50.8632 37.7269 50.8031Z" fill="#FF7186"/>
<path d="M35.9225 48.0041L36.0093 47.8281L34.3377 44.933C34.303 44.8727 34.2784 44.8096 34.262 44.7454L30.9407 46.663C29.2239 47.6543 28.6355 49.8495 29.6268 51.5663C30.1461 52.4658 30.9966 53.0516 31.9351 53.2666C29.8553 50.5093 32.2235 48.7561 33.4143 48.0041C34.6717 47.2099 35.9225 48.0041 35.9225 48.0041Z" fill="#FF4155"/>
<path d="M41.5678 49.0971C43.85 48.187 46.2976 48.0558 48.5746 48.6118L41.6591 36.6338C41.002 38.8838 39.6646 40.9379 37.7355 42.4593C37.8776 42.52 38.0021 42.6248 38.0853 42.7691L41.4745 48.6392C41.5578 48.7833 41.5862 48.9437 41.5678 49.0971Z" fill="#D3DCFB"/>
<path d="M44.1852 41.0091L41.6591 36.6338C41.002 38.8838 39.6646 40.9379 37.7355 42.4593C37.8774 42.52 38.0021 42.6248 38.0853 42.7691L39.819 45.7718C41.7537 44.3791 43.2518 42.7111 44.1852 41.0091Z" fill="#BEC8F7"/>
<path d="M41.3002 49.5955L38.5976 51.1559C38.2433 51.3604 37.7901 51.2391 37.5856 50.8848L34.1964 45.0147C33.9918 44.6604 34.1132 44.2072 34.4675 44.0026L37.17 42.4423C37.5243 42.2377 37.9775 42.3591 38.1821 42.7134L41.5713 48.5835C41.7758 48.9378 41.6545 49.3908 41.3002 49.5955Z" fill="#FF4155"/>
<path d="M36.5399 46.7927L38.5503 45.6319C38.9908 45.3776 39.5212 45.4227 39.9082 45.703L38.1821 42.7132C37.9776 42.3589 37.5244 42.2374 37.1701 42.4421L34.4675 44.0025C34.1132 44.207 33.9917 44.6602 34.1964 45.0145L35.9225 48.0041C35.8733 47.529 36.0995 47.047 36.5399 46.7927Z" fill="#E80054"/>
<path d="M48.3061 48.4125L41.5507 36.7121C41.0273 35.8053 41.3379 34.6458 42.2447 34.1222C43.1514 33.5986 44.3109 33.9094 44.8345 34.8162L51.5898 46.5166C52.1133 47.4234 51.8027 48.5828 50.8959 49.1064C49.9948 49.6267 48.8328 49.3248 48.3061 48.4125Z" fill="#E9EFFF"/>
<path d="M45.1451 38.938C45.7949 38.5628 46.5589 38.568 47.1821 38.8826L44.8345 34.8163C44.3109 33.9096 43.1516 33.5988 42.2447 34.1224C41.3379 34.6458 41.0273 35.8055 41.5507 36.7122L44.1034 41.1336C43.9664 40.2812 44.3534 39.3951 45.1451 38.938Z" fill="#D3DCFB"/>
<path d="M47.2287 7.72388H33.2037C32.5161 7.72388 31.9586 7.1664 31.9586 6.47876C31.9586 5.79112 32.5161 5.23364 33.2037 5.23364H47.2287C47.9164 5.23364 48.4739 5.79112 48.4739 6.47876C48.4739 7.1664 47.9164 7.72388 47.2287 7.72388Z" fill="#8AE1FF"/>
<path d="M47.2287 11.9586H33.2037C32.5161 11.9586 31.9586 11.4011 31.9586 10.7135C31.9586 10.0259 32.5161 9.46838 33.2037 9.46838H47.2287C47.9164 9.46838 48.4739 10.0259 48.4739 10.7135C48.4739 11.4011 47.9164 11.9586 47.2287 11.9586Z" fill="#8AE1FF"/>
<path d="M44.0947 24.4244H36.3378C35.6502 24.4244 35.0927 23.867 35.0927 23.1793C35.0927 22.4917 35.6502 21.9342 36.3378 21.9342H44.0947C44.7823 21.9342 45.3398 22.4917 45.3398 23.1793C45.3398 23.867 44.7823 24.4244 44.0947 24.4244Z" fill="#E9EFFF"/>
<path d="M38.6612 23.1793C38.6612 22.4917 39.2187 21.9342 39.9063 21.9342H36.3378C35.6502 21.9342 35.0927 22.4917 35.0927 23.1793C35.0927 23.867 35.6502 24.4244 36.3378 24.4244H39.9063C39.2185 24.4244 38.6612 23.867 38.6612 23.1793Z" fill="#D3DCFB"/>
<path d="M40.2162 31.783C39.5286 31.783 38.9711 31.2255 38.9711 30.5379V26.8699C38.9711 26.1823 39.5286 25.6248 40.2162 25.6248C40.9039 25.6248 41.4614 26.1823 41.4614 26.8699V30.5379C41.4614 31.2255 40.9039 31.783 40.2162 31.783Z" fill="#8F8FF9"/>
<path d="M56.7938 57.0778C56.5826 57.0778 56.3684 57.024 56.1724 56.9108L51.7676 54.3677C51.1721 54.0239 50.9681 53.2624 51.3119 52.6669C51.6557 52.0713 52.4172 51.8671 53.0127 52.2112L57.4175 54.7542C58.013 55.0981 58.217 55.8596 57.8732 56.4551C57.6426 56.8543 57.2241 57.0778 56.7938 57.0778Z" fill="#8F8FF9"/>
<path d="M23.6026 57.0987C23.1723 57.0987 22.7538 56.8754 22.5232 56.476C22.1793 55.8805 22.3834 55.119 22.9789 54.7752L25.6018 53.2608C26.1973 52.9168 26.9588 53.121 27.3026 53.7165C27.6464 54.312 27.4424 55.0735 26.8469 55.4173L24.224 56.9317C24.0279 57.0448 23.8138 57.0987 23.6026 57.0987Z" fill="#8F8FF9"/>
<path d="M17.8375 67.8352H12.6887C12.0011 67.8352 11.4436 67.2777 11.4436 66.5901C11.4436 65.9025 12.0011 65.345 12.6887 65.345H17.8375C18.5252 65.345 19.0826 65.9025 19.0826 66.5901C19.0826 67.2777 18.5252 67.8352 17.8375 67.8352Z" fill="#FCF9EB"/>
<path d="M17.8375 69.0814H12.6889C12.0013 69.0814 11.4438 69.6389 11.4438 70.3265C11.4438 70.4335 11.4587 70.5367 11.4841 70.6358C11.7257 70.9204 11.9707 71.2018 12.2199 71.4795C12.3648 71.5384 12.5229 71.5717 12.6891 71.5717H17.8379C18.5255 71.5717 19.083 71.0142 19.083 70.3265C19.0827 69.6389 18.5252 69.0814 17.8375 69.0814Z" fill="#FCECA9"/>
<path d="M17.8375 72.8181H13.4768C14.3301 73.6873 15.2221 74.5182 16.1502 75.3083H17.8374C18.525 75.3083 19.0825 74.7508 19.0825 74.0632C19.0825 73.3755 18.5252 72.8181 17.8375 72.8181Z" fill="#FCECA9"/>
<path d="M72.4018 58.5092H60.448C59.8286 58.5092 59.3265 59.0112 59.3265 59.6307V78.0167C59.3265 79.1013 60.2058 79.9805 61.2903 79.9805H62.0851C66.4488 77.5783 70.3232 74.3982 73.5234 70.6274V59.6308C73.5234 59.0112 73.0212 58.5092 72.4018 58.5092Z" fill="#E9EFFF"/>
<path d="M66.4249 58.5092H60.448C59.8286 58.5092 59.3265 59.0112 59.3265 59.6307V78.0167C59.3265 79.1013 60.2058 79.9805 61.2903 79.9805H62.0851C63.2032 79.3651 64.2884 78.6977 65.3391 77.9833C65.3391 75.5901 65.3391 71.1855 65.3391 69.7193C65.3391 67.668 66.4249 67.1012 66.4249 67.1012V62.9905C63.9819 60.5476 66.4249 58.5092 66.4249 58.5092Z" fill="#D3DCFB"/>
<path d="M69.6892 62.9904H63.1604C62.8121 62.9904 62.5298 63.2728 62.5298 63.6211V66.4704C62.5298 66.8187 62.8121 67.1011 63.1604 67.1011H69.6892C70.0375 67.1011 70.3199 66.8187 70.3199 66.4704V63.6211C70.3199 63.2728 70.0375 62.9904 69.6892 62.9904Z" fill="#FF4155"/>
<path d="M65.7332 66.4704V63.6211C65.7332 63.2728 66.0156 62.9904 66.3639 62.9904H63.1606C62.8123 62.9904 62.5299 63.2728 62.5299 63.6211V66.4704C62.5299 66.8187 62.8123 67.1011 63.1606 67.1011H66.3639C66.0156 67.1011 65.7332 66.8187 65.7332 66.4704Z" fill="#E80054"/>
<path d="M69.0534 72.2095H63.7961C63.1085 72.2095 62.551 71.652 62.551 70.9644C62.551 70.2767 63.1085 69.7192 63.7961 69.7192H69.0534C69.741 69.7192 70.2985 70.2767 70.2985 70.9644C70.2985 71.652 69.7412 72.2095 69.0534 72.2095Z" fill="#BEC8F7"/>
<path d="M69.0534 73.9538H63.7961C63.1085 73.9538 62.551 74.5113 62.551 75.1989C62.551 75.8866 63.1085 76.444 63.7961 76.444H67.4558C68.3157 75.7748 69.1483 75.0722 69.9512 74.3376C69.7246 74.1015 69.4066 73.9538 69.0534 73.9538Z" fill="#BEC8F7"/>
<path d="M12.5876 57.2641H10.7863C9.00135 57.2641 7.54904 58.7164 7.54904 60.5014V65.1371C8.31271 66.4169 9.14412 67.6514 10.0393 68.8352V60.5016C10.0393 60.0907 10.3755 59.7545 10.7863 59.7545H12.3029C10.9774 58.4289 12.5876 57.2641 12.5876 57.2641Z" fill="#3B3868"/>
<path d="M28.1537 14.6768V17.3355C28.1537 18.1626 28.8241 18.833 29.6512 18.833H50.7814C51.6084 18.833 52.2788 18.1626 52.2788 17.3355V14.6768H28.1537Z" fill="#E9EFFF"/>
<path d="M34.1974 16.0301C34.1974 16.0301 34.1974 15.5053 34.1974 14.6768H28.1537V17.3355C28.1537 18.1626 28.8241 18.833 29.6512 18.833H36.1343C33.9484 18.833 34.1974 16.0301 34.1974 16.0301Z" fill="#BEC8F7"/>
</g>
<defs>
<clipPath id="clip0_14_718">
<rect width="85" height="85" fill="white"/>
</clipPath>
</defs>
</svg>
