<svg width="85" height="85" viewBox="0 0 85 85" fill="none" xmlns="http://www.w3.org/2000/svg">
<path d="M44.1974 41.9206C43.5897 41.7213 42.9983 41.5288 42.4086 41.3309C42.3753 41.3197 42.336 41.264 42.3358 41.229C42.3315 40.4991 42.3317 39.7691 42.3356 39.0393C42.3358 39.0031 42.3719 38.9452 42.4041 38.9344C42.99 38.7374 43.5778 38.546 44.1654 38.3537C44.1718 38.3517 44.1798 38.3551 44.1974 38.3569C44.1974 39.5389 44.1974 40.7217 44.1974 41.9206Z" fill="#FDCB02"/>
<path d="M41.9474 41.2237C41.9344 41.2289 41.9241 41.2368 41.9138 41.2368C41.5909 41.2347 41.2673 41.2426 40.9451 41.2255C40.6708 41.2112 40.4541 40.9823 40.4491 40.7147C40.4418 40.3259 40.4409 39.9366 40.4493 39.5478C40.4557 39.2506 40.6985 39.0341 41.0248 39.0262C41.3061 39.0195 41.5875 39.0253 41.869 39.0231C41.9305 39.0226 41.9581 39.0397 41.9579 39.1053C41.9563 39.7973 41.9567 40.4892 41.956 41.1813C41.956 41.1957 41.9503 41.21 41.9474 41.2237Z" fill="#FDCB02"/>
<path d="M44.579 40.1229C44.579 39.5317 44.5763 38.9404 44.582 38.3492C44.5829 38.26 44.6064 38.161 44.6512 38.0844C44.7279 37.9527 44.8617 37.906 45.0145 37.9276C45.1645 37.9487 45.2794 38.0547 45.313 38.2003C45.3239 38.2472 45.3296 38.2964 45.3296 38.3447C45.3306 39.5384 45.3308 40.7321 45.3299 41.9258C45.3296 42.1297 45.236 42.2703 45.0739 42.322C44.8206 42.4026 44.5818 42.2277 44.579 41.9527C44.5754 41.5711 44.5781 41.1894 44.5781 40.8078C44.5781 40.5796 44.5781 40.3513 44.5781 40.1231C44.5786 40.1229 44.5788 40.1229 44.579 40.1229Z" fill="#FDCB02"/>
<path d="M42.2513 41.9725C42.3422 41.9725 42.4272 41.983 42.5073 41.9689C42.5649 41.9588 42.6313 41.9271 42.6667 41.8837C42.7058 41.8363 42.732 41.824 42.7873 41.8453C42.8715 41.8777 42.9583 41.9037 43.0556 41.9363C42.9257 42.3085 42.632 42.3667 42.2803 42.3413C42.2959 42.517 42.3054 42.6791 42.3253 42.8404C42.3621 43.1381 42.1419 43.4105 41.8316 43.444C41.5233 43.4772 41.2504 43.2594 41.2182 42.959C41.1732 42.539 41.1248 42.1194 41.0782 41.6995C41.0755 41.6741 41.075 41.6488 41.0728 41.6059C41.1874 41.6059 41.2961 41.6059 41.405 41.6059C41.5914 41.6059 41.7777 41.6054 41.964 41.6061C42.1785 41.6068 42.2098 41.6351 42.2301 41.8399C42.2344 41.8833 42.244 41.9266 42.2513 41.9725Z" fill="#FDCB02"/>
<path d="M46.8402 38.8787C46.8172 38.9063 46.7845 38.9768 46.7295 39.0058C46.4854 39.1336 46.2362 39.252 45.9862 39.3686C45.8747 39.4205 45.7676 39.3832 45.724 39.29C45.6781 39.1918 45.713 39.0948 45.8245 39.0393C46.0679 38.918 46.312 38.7983 46.5587 38.6832C46.6971 38.6188 46.8364 38.6996 46.8402 38.8787Z" fill="#FDCB02"/>
<path d="M46.84 41.0209C46.8366 41.1849 46.7055 41.2763 46.5792 41.2199C46.3136 41.1011 46.0528 40.972 45.7939 40.8399C45.7055 40.7949 45.6829 40.6912 45.7242 40.6056C45.7644 40.522 45.8633 40.4722 45.9539 40.5137C46.225 40.6382 46.4931 40.7696 46.7578 40.9073C46.8028 40.9308 46.8242 40.998 46.84 41.0209Z" fill="#FDCB02"/>
<path d="M46.2698 40.1303C46.1481 40.1301 46.0264 40.133 45.9046 40.1294C45.7809 40.1258 45.7035 40.0517 45.7044 39.9454C45.7053 39.841 45.7861 39.7657 45.909 39.7644C46.1485 39.7617 46.3881 39.7619 46.6279 39.7641C46.7592 39.7655 46.8407 39.8407 46.8391 39.9499C46.8375 40.0557 46.761 40.1262 46.6347 40.1298C46.5135 40.133 46.3915 40.1303 46.2698 40.1303Z" fill="#FDCB02"/>
<g clip-path="url(#clip0_9_164)">
<path d="M40.6736 1.82635C30.93 1.82635 21.9879 5.25408 14.9837 10.9675L13.6949 72.935C19.3574 77.9581 26.4303 81.4252 34.2459 82.6662L50.6107 81.9486C68.2704 77.5142 81.3471 61.5352 81.3471 42.5C81.3471 20.0366 63.1371 1.82635 40.6736 1.82635Z" fill="#746BF9"/>
<path d="M85 60.8753V16.2435C85 13.3296 82.6379 10.9675 79.724 10.9675H14.9837C5.8401 18.4259 0 29.7804 0 42.5C0 49.1126 1.57947 55.3558 4.37933 60.8751H85V60.8753Z" fill="#47477F"/>
<path d="M16.277 16.9939C16.277 14.0747 18.325 11.612 21.0548 10.9677H14.9836C5.8401 18.426 0 29.7804 0 42.5001C0 49.1126 1.57947 55.3558 4.37933 60.8752H16.277V16.9939Z" fill="#3B3868"/>
<path d="M16.277 16.9938C16.277 16.6972 16.2994 16.4056 16.3403 16.1199H9.71741C7.99251 18.142 6.46284 20.3352 5.1563 22.6704H16.277V16.9938Z" fill="#3B3868"/>
<path d="M5.1523 22.2888H79.8475V60.8753H5.1523V22.2888Z" fill="#42C3FC"/>
<path d="M5.15245 22.2886H16.2772V60.8751H5.15245V22.2886Z" fill="#1AA9E8"/>
<path d="M79.724 14.7571H10.9338C10.1183 15.6309 9.33988 16.5395 8.6031 17.4825H78.4849V60.8751C78.4849 61.6277 79.095 62.2378 79.8475 62.2378C80.6001 62.2378 81.2102 61.6277 81.2102 60.8751V16.2435C81.2102 15.4239 80.5436 14.7571 79.724 14.7571Z" fill="#3B3868"/>
<path d="M16.277 16.9939C16.277 16.206 16.4278 15.4519 16.6992 14.7573H10.9338C10.1183 15.6311 9.33988 16.5397 8.60327 17.4826H16.2772V16.9939H16.277Z" fill="#2D2D59"/>
<path d="M3.78979 25.34V59.6601C4.19803 60.536 4.63631 61.3948 5.10364 62.2355C5.11991 62.236 5.13602 62.238 5.15245 62.238C5.905 62.238 6.51511 61.6278 6.51511 60.8753V20.4143C5.4976 21.9848 4.5865 23.6304 3.78979 25.34Z" fill="#2D2D59"/>
<path d="M11.7255 21.2299C10.8138 21.2299 10.0853 20.4865 10.0853 19.5897C10.0853 18.5503 11.0422 17.7803 12.0453 17.9823C12.8312 18.1419 13.3656 18.8226 13.3656 19.5897C13.3658 20.4644 12.6609 21.2299 11.7255 21.2299Z" fill="#FF4155"/>
<path d="M16.277 21.2299C15.3652 21.2299 14.6368 20.4865 14.6368 19.5897C14.6368 18.5503 15.5937 17.7803 16.5967 17.9823C17.3827 18.1419 17.9171 18.8226 17.9171 19.5897C17.9172 20.4644 17.2123 21.2299 16.277 21.2299Z" fill="#FFDD40"/>
<path d="M20.8285 21.2299C19.9167 21.2299 19.1883 20.4865 19.1883 19.5897C19.1883 18.5503 20.1452 17.7803 21.1482 17.9823C21.9342 18.1419 22.4686 18.8226 22.4686 19.5897C22.4687 20.4644 21.7638 21.2299 20.8285 21.2299Z" fill="#89E56A"/>
<path d="M42.5 57.6744C41.7475 57.6744 41.1373 57.0643 41.1373 56.3117V26.875C41.1373 26.1224 41.7475 25.5123 42.5 25.5123C43.2525 25.5123 43.8627 26.1224 43.8627 26.875V56.3117C43.8627 57.0643 43.2525 57.6744 42.5 57.6744Z" fill="#8AE1FF"/>
<path d="M13.7507 30.0561H11.1307C10.3781 30.0561 9.76802 29.446 9.76802 28.6935C9.76802 27.9409 10.3781 27.3308 11.1307 27.3308H13.7507C14.5033 27.3308 15.1134 27.9409 15.1134 28.6935C15.1134 29.446 14.5033 30.0561 13.7507 30.0561Z" fill="#FFDD40"/>
<path d="M13.7507 40.3669H11.1307C10.3781 40.3669 9.76802 39.7567 9.76802 39.0042C9.76802 38.2516 10.3781 37.6415 11.1307 37.6415H13.7507C14.5033 37.6415 15.1134 38.2516 15.1134 39.0042C15.1134 39.7567 14.5033 40.3669 13.7507 40.3669Z" fill="#8AE1FF"/>
<path d="M13.7507 35.2116H11.1307C10.3781 35.2116 9.76802 34.6015 9.76802 33.8489C9.76802 33.0964 10.3781 32.4863 11.1307 32.4863H13.7507C14.5033 32.4863 15.1134 33.0964 15.1134 33.8489C15.1134 34.6015 14.5033 35.2116 13.7507 35.2116Z" fill="#B8F0FF"/>
<path d="M13.7507 45.5224H11.1307C10.3781 45.5224 9.76802 44.9123 9.76802 44.1597C9.76802 43.4072 10.3781 42.7971 11.1307 42.7971H13.7507C14.5033 42.7971 15.1134 43.4072 15.1134 44.1597C15.1134 44.9123 14.5033 45.5224 13.7507 45.5224Z" fill="#FFDD40"/>
<path d="M13.7507 55.833H11.1307C10.3781 55.833 9.76802 55.2229 9.76802 54.4704C9.76802 53.7178 10.3781 53.1077 11.1307 53.1077H13.7507C14.5033 53.1077 15.1134 53.7178 15.1134 54.4704C15.1134 55.2229 14.5033 55.833 13.7507 55.833Z" fill="#8AE1FF"/>
<path d="M13.7507 50.6778H11.1307C10.3781 50.6778 9.76802 50.0677 9.76802 49.3151C9.76802 48.5626 10.3781 47.9525 11.1307 47.9525H13.7507C14.5033 47.9525 15.1134 48.5626 15.1134 49.3151C15.1134 50.0677 14.5033 50.6778 13.7507 50.6778Z" fill="#B8F0FF"/>
<path d="M25.7405 30.0561H18.6251C17.8726 30.0561 17.2625 29.446 17.2625 28.6935C17.2625 27.9409 17.8726 27.3308 18.6251 27.3308H25.7405C26.4931 27.3308 27.1032 27.9409 27.1032 28.6935C27.1032 29.446 26.4931 30.0561 25.7405 30.0561Z" fill="#8AE1FF"/>
<path d="M28.3249 45.5224H18.625C17.8724 45.5224 17.2623 44.9123 17.2623 44.1597C17.2623 43.4072 17.8724 42.7971 18.625 42.7971H28.3249C29.0775 42.7971 29.6876 43.4072 29.6876 44.1597C29.6876 44.9123 29.0776 45.5224 28.3249 45.5224Z" fill="#B8F0FF"/>
<path d="M23.0159 35.2116H18.625C17.8724 35.2116 17.2623 34.6015 17.2623 33.8489C17.2623 33.0964 17.8724 32.4863 18.625 32.4863H23.0159C23.7685 32.4863 24.3786 33.0964 24.3786 33.8489C24.3786 34.6015 23.7685 35.2116 23.0159 35.2116Z" fill="#8AE1FF"/>
<path d="M33.1899 30.0561H30.6053C29.8528 30.0561 29.2427 29.446 29.2427 28.6935C29.2427 27.9409 29.8528 27.3308 30.6053 27.3308H33.1899C33.9424 27.3308 34.5525 27.9409 34.5525 28.6935C34.5525 29.446 33.9424 30.0561 33.1899 30.0561Z" fill="#B8F0FF"/>
<path d="M28.3453 35.2116H27.3763C26.6238 35.2116 26.0137 34.6015 26.0137 33.8489C26.0137 33.0964 26.6238 32.4863 27.3763 32.4863H28.3453C29.0979 32.4863 29.708 33.0964 29.708 33.8489C29.708 34.6015 29.0981 35.2116 28.3453 35.2116Z" fill="#8AE1FF"/>
<path d="M28.3453 40.3669H23.9545C23.202 40.3669 22.5919 39.7567 22.5919 39.0042C22.5919 38.2516 23.202 37.6415 23.9545 37.6415H28.3453C29.0979 37.6415 29.708 38.2516 29.708 39.0042C29.708 39.7567 29.098 40.3669 28.3453 40.3669Z" fill="#FFDD40"/>
<path d="M19.594 40.3669H18.625C17.8724 40.3669 17.2623 39.7567 17.2623 39.0042C17.2623 38.2516 17.8724 37.6415 18.625 37.6415H19.594C20.3465 37.6415 20.9566 38.2516 20.9566 39.0042C20.9566 39.7567 20.3467 40.3669 19.594 40.3669Z" fill="#B8F0FF"/>
<path d="M24.9236 50.6778H23.9545C23.202 50.6778 22.5919 50.0677 22.5919 49.3151C22.5919 48.5626 23.202 47.9525 23.9545 47.9525H24.9236C25.6761 47.9525 26.2862 48.5626 26.2862 49.3151C26.2862 50.0677 25.6761 50.6778 24.9236 50.6778Z" fill="#FFDD40"/>
<path d="M35.7742 35.2116H32.8271C32.0746 35.2116 31.4645 34.6015 31.4645 33.8489C31.4645 33.0964 32.0746 32.4863 32.8271 32.4863H35.7742C36.5268 32.4863 37.1369 33.0964 37.1369 33.8489C37.1369 34.6015 36.5268 35.2116 35.7742 35.2116Z" fill="#8AE1FF"/>
<path d="M32.3525 55.833H31.3834C30.6309 55.833 30.0208 55.2229 30.0208 54.4704C30.0208 53.7178 30.6309 53.1077 31.3834 53.1077H32.3525C33.105 53.1077 33.7151 53.7178 33.7151 54.4704C33.7151 55.2229 33.105 55.833 32.3525 55.833Z" fill="#B8F0FF"/>
<path d="M26.9017 55.833H23.9545C23.202 55.833 22.5919 55.2229 22.5919 54.4704C22.5919 53.7178 23.202 53.1077 23.9545 53.1077H26.9017C27.6542 53.1077 28.2643 53.7178 28.2643 54.4704C28.2643 55.2229 27.6544 55.833 26.9017 55.833Z" fill="#8AE1FF"/>
<path d="M53.5578 47.9968L47.853 42.9547C47.0352 42.232 47.0352 40.9547 47.853 40.2321L53.5578 35.19C54.3099 34.5253 55.458 34.5963 56.1224 35.348C56.787 36.0999 56.7162 37.2481 55.9644 37.9126L51.7999 41.5934L55.9644 45.2741C56.7162 45.9387 56.787 47.0868 56.1224 47.8387C55.457 48.5916 54.3087 48.6603 53.5578 47.9968Z" fill="#E9EFFF"/>
<path d="M65.9857 47.8385C65.3212 47.0866 65.3919 45.9385 66.1438 45.2739L70.3083 41.5932L66.1438 37.9125C65.3919 37.2479 65.3212 36.0997 65.9857 35.3478C66.6501 34.596 67.7983 34.5252 68.5503 35.1898L74.2551 40.2319C75.0729 40.9547 75.0729 42.2318 74.2551 42.9545L68.5503 47.9966C67.8006 48.6595 66.6518 48.5924 65.9857 47.8385Z" fill="#E9EFFF"/>
<path d="M58.8039 48.3594C57.8516 48.0428 57.3365 47.0141 57.6532 46.062L61.0069 35.9779C61.3235 35.0258 62.3522 34.5102 63.3043 34.8273C64.2565 35.1439 64.7717 36.1725 64.4549 37.1246L61.1012 47.2087C60.7835 48.164 59.7528 48.6753 58.8039 48.3594Z" fill="#E9EFFF"/>
<path d="M60.8205 42.1399C60.1095 41.9035 59.6144 41.3181 59.4572 40.6378L57.6532 46.062C57.3365 47.0143 57.8516 48.0428 58.8039 48.3594C59.753 48.6753 60.7836 48.164 61.1012 47.2087L62.9619 41.6135C62.4244 42.1682 61.5993 42.3991 60.8205 42.1399Z" fill="#D3DCFB"/>
<path d="M34.4898 72.5535V80.6994C34.4898 81.3708 34.4046 82.0304 34.2459 82.6664C36.3398 82.9989 38.4862 83.1737 40.6737 83.1737C44.1019 83.1737 47.4302 82.7475 50.6107 81.9488C50.5468 81.5386 50.5101 81.1218 50.5101 80.6994V72.5535C40.7524 72.5535 39.9402 72.5535 34.4898 72.5535Z" fill="#BEC8F7"/>
<path d="M39.5826 81.151C39.5826 78.3588 41.8462 76.0951 44.6384 76.0951H50.5103V72.5535C40.7524 72.5535 39.9402 72.5535 34.4899 72.5535V80.6994C34.4899 81.3708 34.4047 82.0304 34.246 82.6664C35.9905 82.9434 37.7719 83.1091 39.5826 83.1574V81.151Z" fill="#A2B6F4"/>
<path d="M13.695 72.9351H79.724C82.6379 72.9351 85 70.5731 85 67.6592V60.4936H4.18973C6.5342 65.2382 9.77632 69.4588 13.695 72.9351Z" fill="#E9EFFF"/>
<path d="M16.277 67.6263V60.4936H4.18973C6.5342 65.2382 9.77632 69.4589 13.695 72.9351H19.2932C17.4901 71.8496 16.277 69.8728 16.277 67.6263Z" fill="#BEC8F7"/>
<path d="M44.902 67.717C45.447 66.4024 44.823 64.8948 43.5083 64.3499C42.1936 63.805 40.6861 64.429 40.1411 65.7436C39.5962 67.0583 40.2202 68.5658 41.5349 69.1108C42.8496 69.6557 44.3571 69.0317 44.902 67.717Z" fill="#BEC8F7"/>
<path d="M47.853 42.9547L53.5578 47.9968C54.3087 48.6603 55.4569 48.5916 56.1224 47.8387C56.787 47.0868 56.7161 45.9387 55.9644 45.2741L51.7999 41.5934C48.7706 42.101 49.0951 39.1343 49.0951 39.1343L47.8532 40.232C47.0354 40.9547 47.0352 42.2319 47.853 42.9547Z" fill="#D3DCFB"/>
<path d="M72.9426 44.1146C69.8338 44.1146 70.3081 41.5933 70.3081 41.5933L66.1436 45.2741C65.3917 45.9386 65.321 47.0868 65.9856 47.8387C66.6516 48.5926 67.8005 48.6595 68.5502 47.9967L72.9426 44.1146Z" fill="#D3DCFB"/>
</g>
<defs>
<clipPath id="clip0_9_164">
<rect width="85" height="85" fill="white"/>
</clipPath>
</defs>
</svg>
