<svg width="40" height="40" viewBox="0 0 40 40" fill="none" xmlns="http://www.w3.org/2000/svg">
<g clip-path="url(#clip0_148_2792)">
<path d="M20 40.0132L18.8333 39.0132C17.225 37.6665 3.18164 25.5382 3.18164 16.6665C3.18164 12.206 4.95357 7.92823 8.10762 4.77418C11.2617 1.62013 15.5395 -0.151794 20 -0.151794C24.4605 -0.151794 28.7383 1.62013 31.8923 4.77418C35.0464 7.92823 36.8183 12.206 36.8183 16.6665C36.8183 25.5382 22.775 37.6665 21.1733 39.0199L20 40.0132ZM20 3.48487C16.5052 3.48884 13.1547 4.8789 10.6835 7.35008C8.21233 9.82126 6.82228 13.1718 6.81831 16.6665C6.81831 22.2399 15.4583 31.1432 20 35.2182C24.5416 31.1415 33.1816 22.2332 33.1816 16.6665C33.1777 13.1718 31.7876 9.82126 29.3164 7.35008C26.8453 4.8789 23.4947 3.48884 20 3.48487Z" fill="#9777FA"/>
<path d="M19.9997 23.3333C18.6811 23.3333 17.3922 22.9423 16.2959 22.2098C15.1995 21.4773 14.3451 20.4361 13.8405 19.2179C13.3359 17.9997 13.2039 16.6593 13.4611 15.3661C13.7183 14.0729 14.3533 12.885 15.2856 11.9526C16.218 11.0203 17.4059 10.3853 18.6991 10.1281C19.9923 9.87087 21.3327 10.0029 22.5509 10.5075C23.7691 11.0121 24.8103 11.8665 25.5428 12.9629C26.2754 14.0592 26.6663 15.3481 26.6663 16.6667C26.6663 18.4348 25.964 20.1305 24.7137 21.3807C23.4635 22.631 21.7678 23.3333 19.9997 23.3333ZM19.9997 13.3333C19.3404 13.3333 18.6959 13.5288 18.1478 13.8951C17.5996 14.2614 17.1724 14.782 16.9201 15.3911C16.6678 16.0001 16.6018 16.6704 16.7304 17.317C16.859 17.9636 17.1765 18.5575 17.6427 19.0237C18.1088 19.4899 18.7028 19.8073 19.3494 19.936C19.996 20.0646 20.6662 19.9986 21.2753 19.7463C21.8844 19.494 22.405 19.0667 22.7712 18.5186C23.1375 17.9704 23.333 17.3259 23.333 16.6667C23.333 15.7826 22.9818 14.9348 22.3567 14.3096C21.7316 13.6845 20.8837 13.3333 19.9997 13.3333Z" fill="#9777FA"/>
</g>
<defs>
<clipPath id="clip0_148_2792">
<rect width="40" height="40" fill="white"/>
</clipPath>
</defs>
</svg>
