<svg width="85" height="85" viewBox="0 0 85 85" fill="none" xmlns="http://www.w3.org/2000/svg">
<g clip-path="url(#clip0_14_876)">
<path d="M40.6169 1.88318C18.1849 1.88318 0 20.068 0 42.5001C0 48.8769 1.47117 54.9094 4.08989 60.2796L4.09089 60.2793L58.4982 78.9766C71.9639 72.363 81.2339 58.5152 81.2339 42.5003C81.2339 20.068 63.049 1.88318 40.6169 1.88318Z" fill="#42C3FC"/>
<path d="M63.0719 58.2257L67.1089 62.2627C67.272 61.5515 67.6293 60.8762 68.1822 60.3232C68.7351 59.7703 69.4105 59.413 70.1217 59.2499L66.0847 55.2129C65.6437 55.7616 65.1697 56.2926 64.6606 56.8016C64.1516 57.3107 63.6208 57.7847 63.0719 58.2257Z" fill="#E9EFFF"/>
<path d="M58.4983 60.963C56.1443 61.9696 53.5544 62.5277 50.8365 62.5277C40.0564 62.5277 31.2863 53.7575 31.2863 42.9774C31.2863 32.1973 40.0564 23.4271 50.8365 23.4271C53.5544 23.4271 56.1443 23.9853 58.4983 24.9918V23.2894L35.6283 7.81592C26.8965 7.81592 18.5247 7.81592 18.0154 7.81592C16.1585 7.81592 14.3778 8.55349 13.0648 9.8665L6.14164 16.7896C4.8288 18.1025 4.09106 19.8833 4.09106 21.7401V60.2791C10.6843 73.8003 24.5617 83.1169 40.6171 83.1169C47.0343 83.1169 53.1026 81.6265 58.4984 78.9764V60.963H58.4983Z" fill="#E9EFFF"/>
<path d="M19.2238 13.8946C19.2238 11.0843 21.0534 8.68222 23.5798 7.81616C20.4185 7.81616 18.2658 7.81616 18.0153 7.81616C16.1583 7.81616 14.3776 8.55374 13.0646 9.86675L6.14147 16.7899C4.82846 18.1029 4.09089 19.8836 4.09089 21.7404V60.2792C7.46012 67.1886 12.7319 72.999 19.2238 77.0304V13.8946Z" fill="#D3DCFB"/>
<path d="M6.14147 16.7899C4.82863 18.1029 4.09089 19.8836 4.09089 21.7405V22.6217C4.09089 19.47 7.19354 18.9191 8.74329 18.8405H12.401C13.9 18.8405 15.1152 17.6253 15.1152 16.1263V12.7812C15.1152 9.43637 18.0153 7.81616 18.0153 7.81616C16.1583 7.81616 14.3776 8.55374 13.0646 9.86675L6.14147 16.7899Z" fill="#BEC8F7"/>
<path d="M58.4982 10.2971C58.4982 8.92692 57.3875 7.81616 56.0171 7.81616H35.2372L58.4982 23.5544V10.2971Z" fill="#746BF9"/>
<path d="M33.1092 26.9192H29.4797C28.826 26.9192 28.2962 26.3893 28.2962 25.7357C28.2962 25.082 28.826 24.5521 29.4797 24.5521H33.1092C33.7629 24.5521 34.2928 25.082 34.2928 25.7357C34.2928 26.3893 33.7629 26.9192 33.1092 26.9192Z" fill="#BEC8F7"/>
<path d="M36.9829 22.1837H25.6063C24.9527 22.1837 24.4228 21.6539 24.4228 21.0002C24.4228 20.3465 24.9527 19.8167 25.6063 19.8167H36.9829C37.6366 19.8167 38.1665 20.3465 38.1665 21.0002C38.1663 21.6539 37.6365 22.1837 36.9829 22.1837Z" fill="#BEC8F7"/>
<path d="M64.816 56.9678C72.5421 49.2417 72.5421 36.7151 64.816 28.989C57.0898 21.2628 44.5633 21.2628 36.8372 28.989C29.111 36.7151 29.111 49.2417 36.8372 56.9678C44.5633 64.6939 57.0898 64.6939 64.816 56.9678Z" fill="#8F8FF9"/>
<path d="M62.6143 58.6796C61.14 58.3903 60.9736 57.2491 61.006 56.5906C61.0188 56.332 60.8653 56.0946 60.6216 56.0072C59.8552 55.7322 59.7065 55.1133 59.7013 54.6937C59.6982 54.4364 59.5155 54.2177 59.2686 54.1454C55.1565 52.9417 55.5607 49.7296 55.912 48.433C55.9912 48.1404 55.8369 47.8309 55.5499 47.7332C53.8394 47.1515 53.8145 45.782 53.9491 45.0232C54.0003 44.7347 53.8327 44.4582 53.5555 44.3632C52.1543 43.8824 52.2197 42.6117 52.3102 42.0948C52.3364 41.9451 52.3054 41.791 52.2193 41.6655L50.1283 38.6203C50.035 38.4843 49.8921 38.385 49.7288 38.3623C49.0764 38.271 48.954 37.789 48.9574 37.4283C48.9597 37.1789 48.8068 36.9574 48.5731 36.8706C44.6362 35.4049 45.1238 31.5305 45.4416 30.1394C45.5036 29.8677 45.359 29.5998 45.1059 29.4832C44.3462 29.1336 44.2909 28.4388 44.3545 27.9706C44.3898 27.7113 44.2302 27.464 43.9794 27.3894C42.6355 26.9897 42.6504 25.9537 42.8013 25.324C42.8358 25.1801 42.8132 25.0357 42.7487 24.9141C35.8531 28.0063 31.0497 34.9306 31.0497 42.9772C31.0497 53.9052 39.9087 62.7642 50.8367 62.7642C55.3273 62.7642 59.4679 61.2674 62.7886 58.7466C62.7355 58.7156 62.6773 58.6919 62.6143 58.6796Z" fill="#746BF9"/>
<path d="M66.3265 43.633C66.6952 35.0667 60.0498 27.8234 51.4835 27.4547C42.9172 27.086 35.6739 33.7314 35.3052 42.2977C34.9365 50.864 41.582 58.1073 50.1483 58.476C58.7146 58.8447 65.9578 52.1992 66.3265 43.633Z" fill="#E9EFFF"/>
<path d="M50.8365 58.5038C54.2431 58.5038 57.3963 57.4002 59.9591 55.5328C59.7587 55.2581 59.7045 54.9413 59.7013 54.6936C59.6982 54.4363 59.5155 54.2177 59.2686 54.1454C55.1565 52.9416 55.5607 49.7296 55.912 48.433C55.9913 48.1404 55.8369 47.8308 55.5499 47.7332C53.8394 47.1514 53.8145 45.7819 53.9491 45.0231C54.0004 44.7346 53.8327 44.4581 53.5556 44.3631C52.1543 43.8824 52.2197 42.6116 52.3102 42.0947C52.3364 41.945 52.3054 41.791 52.2193 41.6655L50.1283 38.6202C50.035 38.4843 49.8921 38.3849 49.7288 38.3622C49.0764 38.2709 48.9541 37.789 48.9574 37.4282C48.9597 37.1789 48.8068 36.9574 48.5731 36.8705C44.6362 35.4048 45.1238 31.5304 45.4416 30.1393C45.5036 29.8676 45.359 29.5997 45.1059 29.4832C44.7526 29.3205 44.5528 29.083 44.4454 28.8285C39.0632 31.2693 35.3103 36.6933 35.3103 42.9775C35.3103 51.5388 42.2754 58.5038 50.8365 58.5038Z" fill="#BEC8F7"/>
<path d="M50.8365 59.6874C41.6227 59.6874 34.1268 52.1914 34.1268 42.9777C34.1268 33.7639 41.6227 26.2679 50.8365 26.2679C60.0503 26.2679 67.5462 33.7639 67.5462 42.9777C67.5462 52.1914 60.0503 59.6874 50.8365 59.6874ZM50.8365 28.635C42.928 28.635 36.4939 35.0691 36.4939 42.9777C36.4939 50.8862 42.928 57.3203 50.8365 57.3203C58.7451 57.3203 65.1792 50.8862 65.1792 42.9777C65.1792 35.0691 58.7451 28.635 50.8365 28.635Z" fill="#746BF9"/>
<path d="M50.8365 59.6873C54.6282 59.6873 58.1282 58.4171 60.9354 56.281C60.8693 56.1571 60.7609 56.0571 60.6216 56.0072C59.8552 55.7322 59.7065 55.1133 59.7013 54.6937C59.6997 54.5628 59.6511 54.4419 59.5717 54.3453C57.1511 56.2097 54.1214 57.3203 50.8365 57.3203C42.928 57.3203 36.4939 50.8862 36.4939 42.9776C36.4939 37.0037 40.1653 31.8722 45.37 29.7184C45.309 29.6189 45.2191 29.5355 45.1059 29.4833C44.3462 29.1336 44.2909 28.4388 44.3545 27.9707C44.3721 27.8412 44.3411 27.7147 44.2743 27.6111C38.3132 30.1665 34.1268 36.0919 34.1268 42.9774C34.1268 52.1914 41.6227 59.6873 50.8365 59.6873Z" fill="#5858F4"/>
<path d="M50.8365 36.8817C46.8229 36.8817 43.2584 38.8328 41.036 41.8348C40.5355 42.5111 40.5355 43.4439 41.036 44.12C43.2584 47.1222 46.8229 49.0733 50.8365 49.0733C54.8502 49.0733 58.4147 47.1222 60.637 44.12C61.1375 43.4439 61.1375 42.5109 60.637 41.8348C58.4147 38.8328 54.8502 36.8817 50.8365 36.8817Z" fill="#42C3FC"/>
<path d="M41.036 41.835C40.5355 42.5112 40.5355 43.4441 41.036 44.1202C43.2584 47.1224 46.8229 49.0735 50.8365 49.0735C52.6252 49.0735 54.3241 48.6852 55.8553 47.9899C55.7896 47.8735 55.6852 47.7795 55.5498 47.7334C53.8392 47.1517 53.8143 45.7822 53.9489 45.0234C54.0002 44.7349 53.8326 44.4584 53.5554 44.3634C52.1542 43.8826 52.2195 42.6119 52.31 42.0949C52.3362 41.9452 52.3052 41.7912 52.2192 41.6657L50.1281 38.6204C50.0348 38.4845 49.8919 38.3852 49.7286 38.3625C49.0762 38.2711 48.9539 37.7892 48.9572 37.4285C48.9585 37.2862 48.908 37.1541 48.8221 37.0498C45.6438 37.581 42.8784 39.3459 41.036 41.835Z" fill="#1AA9E8"/>
<path d="M46.2657 37.7721C45.8288 38.5386 45.5779 39.4238 45.5779 40.3673C45.5779 43.2669 47.9368 45.626 50.8365 45.626C53.7361 45.626 56.0952 43.2669 56.0952 40.3673C56.0952 39.4238 55.8442 38.5386 55.4074 37.7721C53.9954 37.1984 52.4524 36.8817 50.8365 36.8817C49.2206 36.8817 47.6777 37.1984 46.2657 37.7721Z" fill="#8AE1FF"/>
<path d="M45.5779 40.3675C45.5779 43.2671 47.9368 45.626 50.8363 45.626C51.9735 45.626 53.0265 45.2621 53.8878 44.646C53.819 44.5176 53.7036 44.4141 53.5555 44.3632C52.1543 43.8824 52.2196 42.6117 52.3102 42.0948C52.3364 41.9451 52.3054 41.7911 52.2193 41.6656L50.1283 38.6203C50.0349 38.4843 49.892 38.385 49.7287 38.3623C49.0764 38.271 48.954 37.789 48.9574 37.4283C48.9587 37.287 48.9088 37.1556 48.8239 37.0516C47.9356 37.2002 47.0785 37.4421 46.2659 37.7723C45.8288 38.5386 45.5779 39.424 45.5779 40.3675Z" fill="#42C3FC"/>
<path d="M51.681 42.3279C52.781 41.8719 53.3031 40.6106 52.8471 39.5106C52.3912 38.4106 51.1298 37.8885 50.0299 38.3445C48.9299 38.8004 48.4078 40.0618 48.8637 41.1618C49.3197 42.2617 50.581 42.7838 51.681 42.3279Z" fill="#E9EFFF"/>
<path d="M48.2201 68.2858H14.369C13.7153 68.2858 13.1855 67.7557 13.1855 67.1022C13.1855 66.4485 13.7153 65.9187 14.369 65.9187H48.2201C48.8738 65.9187 49.4037 66.4485 49.4037 67.1022C49.4037 67.7559 48.8737 68.2858 48.2201 68.2858Z" fill="#BEC8F7"/>
<path d="M26.9255 38.8452H14.369C13.7153 38.8452 13.1855 38.3154 13.1855 37.6617C13.1855 37.008 13.7153 36.4781 14.369 36.4781H26.9255C27.5792 36.4781 28.109 37.008 28.109 37.6617C28.109 38.3154 27.5792 38.8452 26.9255 38.8452Z" fill="#BEC8F7"/>
<path d="M29.0447 33.9386H14.369C13.7153 33.9386 13.1855 33.4088 13.1855 32.7551C13.1855 32.1014 13.7153 31.5715 14.369 31.5715H29.0447C29.6984 31.5715 30.2282 32.1014 30.2282 32.7551C30.2282 33.4086 29.6984 33.9386 29.0447 33.9386Z" fill="#BEC8F7"/>
<path d="M28.5764 53.5657H14.369C13.7153 53.5657 13.1855 53.0358 13.1855 52.3821C13.1855 51.7285 13.7153 51.1986 14.369 51.1986H28.5764C29.2301 51.1986 29.7599 51.7285 29.7599 52.3821C29.7599 53.0357 29.2301 53.5657 28.5764 53.5657Z" fill="#BEC8F7"/>
<path d="M26.7161 48.6587H14.369C13.7153 48.6587 13.1855 48.1288 13.1855 47.4752C13.1855 46.8215 13.7153 46.2916 14.369 46.2916H26.7161C27.3698 46.2916 27.8996 46.8215 27.8996 47.4752C27.8996 48.1288 27.3698 48.6587 26.7161 48.6587Z" fill="#BEC8F7"/>
<path d="M26.2025 43.7521H14.369C13.7153 43.7521 13.1855 43.2222 13.1855 42.5685C13.1855 41.9149 13.7153 41.385 14.369 41.385H26.2025C26.8562 41.385 27.386 41.9149 27.386 42.5685C27.386 43.2222 26.8562 43.7521 26.2025 43.7521Z" fill="#BEC8F7"/>
<path d="M36.4667 63.379H14.369C13.7153 63.379 13.1855 62.849 13.1855 62.1955C13.1855 61.5418 13.7153 61.012 14.369 61.012H36.4667C37.1204 61.012 37.6502 61.542 37.6502 62.1955C37.6502 62.8492 37.1204 63.379 36.4667 63.379Z" fill="#BEC8F7"/>
<path d="M31.6941 58.4723H14.369C13.7153 58.4723 13.1855 57.9424 13.1855 57.2888C13.1855 56.6351 13.7153 56.1052 14.369 56.1052H31.6941C32.3478 56.1052 32.8776 56.6351 32.8776 57.2888C32.8776 57.9424 32.3478 58.4723 31.6941 58.4723Z" fill="#BEC8F7"/>
<path d="M48.2201 73.1925H14.369C13.7153 73.1925 13.1855 72.6627 13.1855 72.009C13.1855 71.3553 13.7153 70.8254 14.369 70.8254H48.2201C48.8738 70.8254 49.4037 71.3553 49.4037 72.009C49.4037 72.6625 48.8737 73.1925 48.2201 73.1925Z" fill="#BEC8F7"/>
<path d="M75.7161 73.8827L77.7264 75.8932C79.3904 77.5572 82.088 77.5572 83.752 75.8932C85.416 74.2292 85.416 71.5316 83.752 69.8676L81.7415 67.8573L75.7161 73.8827Z" fill="#FF7186"/>
<path d="M80.8174 72.9643L78.7261 70.8728L75.7161 73.8828L77.7265 75.8931C79.3905 77.5571 82.0881 77.5571 83.7521 75.8931C84.2717 75.3735 84.629 74.7532 84.8241 74.0948C83.4315 74.4276 81.9041 74.0511 80.8174 72.9643Z" fill="#FF4155"/>
<path d="M76.0508 62.1662L74.0403 60.1559C72.3764 58.492 69.6787 58.492 68.0148 60.1559C66.3508 61.8199 66.3508 64.5176 68.0148 66.1815L70.0251 68.192L76.0508 62.1662Z" fill="#FF7186"/>
<path d="M71.1058 63.2526C69.9614 62.1082 69.6041 60.4751 70.0338 59.0253C69.2939 59.202 68.5922 59.5785 68.0149 60.1559C66.3511 61.8199 66.3509 64.5175 68.0149 66.1815L70.0254 68.1918L73.0354 65.182L71.1058 63.2526Z" fill="#FF4155"/>
<path d="M69.8434 68.0254L75.8681 62.0007L81.8928 68.0254L75.8681 74.0501L69.8434 68.0254Z" fill="#FF4155"/>
<path d="M69.8431 68.0255L72.8526 65.016L78.8773 71.0407L75.8678 74.0502L69.8431 68.0255Z" fill="#E80054"/>
<path d="M12.401 18.8404C13.9 18.8404 15.1152 17.6252 15.1152 16.1262C9.97042 17.0652 10.3272 12.6041 10.3272 12.6041L6.14147 16.7898C4.82863 18.1029 4.09089 19.8837 4.09089 21.7405V22.6216C4.09089 19.4699 7.19354 18.919 8.74329 18.8404H12.401Z" fill="#A2B6F4"/>
<path d="M64.4235 35.501C61.337 35.501 58.8116 32.9756 58.8116 29.8891C58.8116 26.8025 61.337 24.2771 64.4235 24.2771C67.5101 24.2771 70.0355 26.8025 70.0355 29.8891C70.0355 32.9756 67.5101 35.501 64.4235 35.501Z" fill="#89E56A"/>
<path d="M66.131 31.446L61.1786 28.5478C59.5097 28.5478 59.6073 27.027 59.608 27.0181C59.1032 27.8594 58.8117 28.8417 58.8117 29.8891C58.8117 32.9757 61.3371 35.5011 64.4237 35.5011C66.0444 35.5011 67.5098 34.8041 68.5366 33.6958C65.9245 33.9299 66.131 31.446 66.131 31.446Z" fill="#65D33C"/>
<path d="M63.4302 32.473L61.1786 30.2215C60.7164 29.7593 60.7164 29.01 61.1786 28.5477C61.6408 28.0855 62.3902 28.0855 62.8524 28.5477L64.267 29.9624L66.5161 27.7134C66.9783 27.2511 67.7276 27.2511 68.1898 27.7134C68.652 28.1756 68.652 28.9249 68.1898 29.3871L65.1039 32.4732C64.6415 32.9352 63.8924 32.9352 63.4302 32.473Z" fill="#E9EFFF"/>
</g>
<defs>
<clipPath id="clip0_14_876">
<rect width="85" height="85" fill="white"/>
</clipPath>
</defs>
</svg>
