<svg width="34" height="34" viewBox="0 0 34 34" fill="none" xmlns="http://www.w3.org/2000/svg">
<path d="M9.20842 14.1665C8.8925 14.1665 8.58933 14.2147 8.28758 14.2586C8.38533 13.9299 8.48592 13.5956 8.64742 13.2952C8.80892 12.8589 9.06108 12.4807 9.31183 12.0996C9.5215 11.6873 9.89125 11.4082 10.1632 11.0555C10.448 10.7127 10.8362 10.4846 11.1436 10.1998C11.4453 9.90232 11.8406 9.75357 12.1551 9.5439C12.4838 9.35548 12.7699 9.14723 13.0759 9.04807L13.8395 8.73357L14.511 8.45448L13.8239 5.70898L12.9782 5.91298C12.7076 5.98098 12.3775 6.06032 12.0021 6.15523C11.6182 6.22607 11.2088 6.42015 10.7526 6.59723C10.3021 6.7984 9.78075 6.9344 9.29625 7.2574C8.80892 7.56623 8.2465 7.82407 7.75067 8.23773C7.27042 8.66415 6.691 9.0339 6.26317 9.57648C5.79567 10.0837 5.33383 10.6163 4.97542 11.2227C4.56033 11.8007 4.27842 12.4353 3.98092 13.0629C3.71175 13.6905 3.495 14.3322 3.31792 14.9556C2.98217 16.2051 2.832 17.3922 2.77392 18.408C2.72575 19.4252 2.75408 20.2709 2.81358 20.8829C2.83483 21.1719 2.8745 21.4524 2.90283 21.6465L2.93825 21.8845L2.97508 21.876C3.22705 23.053 3.8071 24.1346 4.64812 24.9957C5.48913 25.8569 6.55676 26.4623 7.72749 26.742C8.89822 27.0217 10.1242 26.9642 11.2637 26.5762C12.4031 26.1883 13.4094 25.4856 14.1662 24.5496C14.923 23.6136 15.3993 22.4825 15.5401 21.2871C15.6809 20.0917 15.4803 18.8808 14.9617 17.7946C14.443 16.7084 13.6275 15.7912 12.6093 15.1492C11.5912 14.5071 10.4121 14.1664 9.20842 14.1665ZM24.7917 14.1665C24.4758 14.1665 24.1727 14.2147 23.8709 14.2586C23.9687 13.9299 24.0693 13.5956 24.2307 13.2952C24.3923 12.8589 24.6444 12.4807 24.8952 12.0996C25.1048 11.6873 25.4746 11.4082 25.7466 11.0555C26.0313 10.7127 26.4195 10.4846 26.7269 10.1998C27.0287 9.90232 27.4239 9.75357 27.7384 9.5439C28.0671 9.35548 28.3532 9.14723 28.6592 9.04807L29.4228 8.73357L30.0943 8.45448L29.4072 5.70898L28.5615 5.91298C28.2909 5.98098 27.9608 6.06032 27.5854 6.15523C27.2015 6.22607 26.7921 6.42015 26.3359 6.59723C25.8868 6.79982 25.3641 6.9344 24.8796 7.25882C24.3923 7.56765 23.8298 7.82548 23.334 8.23915C22.8538 8.66557 22.2743 9.03532 21.8465 9.57648C21.379 10.0837 20.9172 10.6163 20.5588 11.2227C20.1437 11.8007 19.8617 12.4353 19.5643 13.0629C19.2951 13.6905 19.0783 14.3322 18.9012 14.9556C18.5655 16.2051 18.4153 17.3922 18.3573 18.408C18.3091 19.4252 18.3374 20.2709 18.3969 20.8829C18.4182 21.1719 18.4578 21.4524 18.4862 21.6465L18.5216 21.8845L18.5584 21.876C18.8104 23.053 19.3904 24.1346 20.2314 24.9957C21.0725 25.8569 22.1401 26.4623 23.3108 26.742C24.4816 27.0217 25.7075 26.9642 26.847 26.5762C27.9864 26.1883 28.9927 25.4856 29.7495 24.5496C30.5063 23.6136 30.9826 22.4825 31.1234 21.2871C31.2642 20.0917 31.0637 18.8808 30.545 17.7946C30.0264 16.7084 29.2108 15.7912 28.1927 15.1492C27.1745 14.5071 25.9954 14.1664 24.7917 14.1665Z" fill="#5192FF" fill-opacity="0.2"/>
</svg>
