<svg width="18" height="18" viewBox="0 0 18 18" fill="none" xmlns="http://www.w3.org/2000/svg">
<path d="M9 17.9262C13.9706 17.9262 18 13.9133 18 8.96311C18 4.01292 13.9706 0 9 0C4.02944 0 0 4.01292 0 8.96311C0 13.9133 4.02944 17.9262 9 17.9262Z" fill="white"/>
<path d="M9 0C4.02963 0 0 4.01311 0 8.96311C0 12.7623 2.37037 16.0082 5.71852 17.3139C5.63704 16.6057 5.57037 15.5139 5.74815 14.7393C5.91111 14.0385 6.8 10.2836 6.8 10.2836C6.8 10.2836 6.53333 9.74508 6.53333 8.95574C6.53333 7.70902 7.25926 6.77951 8.16296 6.77951C8.93333 6.77951 9.3037 7.35492 9.3037 8.04098C9.3037 8.8082 8.81482 9.95902 8.55556 11.0287C8.34074 11.9213 9.00741 12.6516 9.88889 12.6516C11.4889 12.6516 12.7185 10.9697 12.7185 8.55C12.7185 6.40328 11.1704 4.90574 8.95555 4.90574C6.39259 4.90574 4.88889 6.81639 4.88889 8.79344C4.88889 9.56066 5.18518 10.3869 5.55556 10.8369C5.62963 10.9254 5.63704 11.0066 5.61481 11.0951C5.54815 11.3754 5.39259 11.9877 5.36296 12.1131C5.32593 12.2754 5.22963 12.3123 5.05926 12.2311C3.93333 11.7074 3.22963 10.077 3.22963 8.75656C3.22963 5.93115 5.28889 3.33443 9.17778 3.33443C12.2963 3.33443 14.7259 5.54754 14.7259 8.51311C14.7259 11.6041 12.7704 14.0902 10.0593 14.0902C9.14815 14.0902 8.28889 13.618 8 13.0574C8 13.0574 7.54815 14.7689 7.43704 15.1893C7.23704 15.9713 6.68889 16.9451 6.31852 17.5426C7.16296 17.8008 8.05185 17.941 8.98518 17.941C13.9556 17.941 17.9852 13.9279 17.9852 8.97787C18 4.01311 13.9704 0 9 0Z" fill="#E60019"/>
</svg>
