<svg width="18" height="18" viewBox="0 0 18 18" fill="none" xmlns="http://www.w3.org/2000/svg">
<path d="M0 9C0 4.02944 4.02944 0 9 0C13.9706 0 18 4.02944 18 9C18 13.9706 13.9706 18 9 18C4.02944 18 0 13.9706 0 9Z" fill="#55ACEE"/>
<path d="M8.73045 7.31534L8.74934 7.62676L8.43457 7.58862C7.28882 7.44245 6.28787 6.94672 5.438 6.11414L5.02251 5.70104L4.91549 6.0061C4.68886 6.68614 4.83365 7.40431 5.3058 7.88733C5.55761 8.15427 5.50095 8.1924 5.06658 8.03351C4.91549 7.98267 4.78329 7.94453 4.7707 7.9636C4.72663 8.00809 4.87772 8.58644 4.99733 8.81524C5.16101 9.13302 5.49466 9.44444 5.85979 9.62875L6.16826 9.77492L5.80313 9.78128C5.45059 9.78128 5.438 9.78763 5.47577 9.9211C5.60168 10.3342 6.09901 10.7727 6.653 10.9634L7.04331 11.0969L6.70336 11.3002C6.19973 11.5926 5.60798 11.7578 5.01622 11.7706C4.73293 11.7769 4.5 11.8023 4.5 11.8214C4.5 11.885 5.26803 12.2409 5.715 12.3807C7.0559 12.7938 8.64861 12.6158 9.84472 11.9104C10.6946 11.4083 11.5445 10.4105 11.9411 9.44444C12.1551 8.92964 12.3691 7.98902 12.3691 7.53778C12.3691 7.24543 12.388 7.20729 12.7406 6.85774C12.9483 6.65436 13.1435 6.43192 13.1812 6.36837C13.2442 6.24761 13.2379 6.24761 12.9168 6.35565C12.3817 6.54632 12.3062 6.5209 12.5706 6.2349C12.7657 6.03152 12.9987 5.6629 12.9987 5.55486C12.9987 5.53579 12.9042 5.56757 12.7972 5.62477C12.6839 5.68832 12.4321 5.78366 12.2432 5.84086L11.9033 5.9489L11.5948 5.73917C11.4248 5.62477 11.1856 5.49766 11.0597 5.45953C10.7387 5.37055 10.2476 5.38326 9.95804 5.48495C9.17112 5.77095 8.67379 6.50819 8.73045 7.31534Z" fill="white"/>
</svg>
