<svg width="20" height="20" viewBox="0 0 20 20" fill="none" xmlns="http://www.w3.org/2000/svg">
<g clip-path="url(#clip0_50_205)">
<path d="M9.95666 20.0076L9.66166 19.8767C9.33333 19.7326 1.66666 16.2701 1.66666 10.0001V4.5634C1.66696 4.04021 1.83232 3.53045 2.1392 3.10671C2.44608 2.68297 2.87883 2.36687 3.37583 2.2034L10 0.00756836L16.6242 2.2034C17.1212 2.36687 17.5539 2.68297 17.8608 3.10671C18.1677 3.53045 18.333 4.04021 18.3333 4.5634V10.0001C18.3333 17.1476 10.5933 19.7959 10.2633 19.9059L9.95666 20.0076ZM10 1.75507L3.90333 3.77674C3.73745 3.83092 3.59297 3.9362 3.49058 4.07751C3.3882 4.21881 3.33315 4.3889 3.33333 4.5634V10.0001C3.33333 14.5784 8.7 17.5484 10.0392 18.2176C11.3758 17.6801 16.6667 15.2192 16.6667 10.0001V4.5634C16.6668 4.3889 16.6118 4.21881 16.5094 4.07751C16.407 3.9362 16.2625 3.83092 16.0967 3.77674L10 1.75507Z" fill="#BABABA"/>
<path d="M9.25916 12.1183H9.23166C9.02074 12.1151 8.81266 12.0691 8.62001 11.9831C8.42736 11.8972 8.25414 11.7731 8.11083 11.6183L6.18916 9.61829L7.38999 8.46662L9.26 10.4166L13.5775 6.09912L14.7558 7.27745L10.3717 11.6616C10.2256 11.8075 10.0521 11.923 9.86116 12.0014C9.6702 12.0798 9.46558 12.1195 9.25916 12.1183Z" fill="#BABABA"/>
</g>
<defs>
<clipPath id="clip0_50_205">
<rect width="20" height="20" fill="white"/>
</clipPath>
</defs>
</svg>
