<svg width="22" height="21" viewBox="0 0 22 21" fill="none" xmlns="http://www.w3.org/2000/svg">
<path d="M11.6046 0.405323C11.4816 0.15728 11.2279 0.000244141 10.95 0.000244141C10.6721 0.000244141 10.4184 0.15728 10.2954 0.405323L7.30694 6.4331L0.625112 7.399C0.350117 7.43876 0.121642 7.63048 0.0357603 7.89355C-0.0501214 8.15662 0.0214855 8.44542 0.220471 8.6385L5.05563 13.3302L3.9139 19.9557C3.86691 20.2283 3.9795 20.5039 4.2043 20.6665C4.42911 20.829 4.72715 20.8505 4.9731 20.7218L10.95 17.5936L16.9269 20.7218C17.1729 20.8505 17.4709 20.829 17.6957 20.6665C17.9205 20.5039 18.0331 20.2283 17.9861 19.9557L16.8444 13.3302L21.6795 8.6385C21.8785 8.44542 21.9501 8.15662 21.8642 7.89355C21.7784 7.63048 21.5499 7.43876 21.2749 7.399L14.5931 6.4331L11.6046 0.405323Z" fill="#F5BE3D"/>
</svg>
