<svg width="85" height="85" viewBox="0 0 85 85" fill="none" xmlns="http://www.w3.org/2000/svg">
<g clip-path="url(#clip0_14_779)">
<path d="M10.9568 70.0032C15.5551 75.6452 21.6358 80.0308 28.6063 82.5641L56.3521 82.5787C63.3401 80.0476 69.4358 75.6563 74.0433 70.003L83.1329 46.0999C83.1582 45.5116 83.1738 44.9209 83.1738 44.3264C83.1738 21.863 64.9637 3.65271 42.5003 3.65271C20.0369 3.65271 1.82629 21.863 1.82629 44.3264V44.3272L10.9568 70.0032Z" fill="#42C3FC"/>
<path d="M71.2469 73.0824C87.1286 57.2008 87.1286 31.4516 71.2469 15.5699C55.3653 -0.311747 29.616 -0.311745 13.7344 15.5699C-2.14729 31.4516 -2.14729 57.2008 13.7344 73.0824C29.616 88.9641 55.3653 88.9641 71.2469 73.0824Z" fill="#42C3FC"/>
<path d="M78.0859 10.7283H66.127C66.1087 10.8851 66.0871 11.0413 66.0587 11.1957C65.987 11.5855 66.124 11.9869 66.4163 12.2431L67.6216 13.3006C67.8326 13.4855 67.8836 13.7963 67.7433 14.0395L66.9672 15.3837C66.8269 15.6268 66.5322 15.7377 66.2664 15.6477L64.7446 15.1314C64.376 15.0061 63.9623 15.0869 63.6641 15.3419C62.9949 15.914 62.2359 16.3531 61.4086 16.647C61.0356 16.7789 60.7565 17.0982 60.6805 17.48L60.3672 19.0539C60.3124 19.3291 60.0691 19.529 59.7885 19.529H58.4474L58.5661 19.8743C58.598 19.9671 58.6314 20.0528 58.6682 20.1356C58.7793 20.3863 58.8854 20.6421 58.9836 20.8958C59.4008 21.9717 60.3219 22.7517 61.4476 22.9819L63.6542 23.433C64.9717 23.7023 65.9281 24.8739 65.9281 26.2189V28.3047C65.9281 29.6496 64.9718 30.8214 63.6542 31.0906L61.4478 31.5417C60.3221 31.7716 59.4008 32.5516 58.9836 33.6277C58.885 33.8824 58.7789 34.1382 58.6682 34.388C58.1992 35.4472 58.298 36.6528 58.9322 37.6131L60.1738 39.4925C60.9149 40.615 60.7627 42.1197 59.8117 43.0707L58.3367 44.5457C57.3856 45.4965 55.881 45.6487 54.7589 44.9076L52.8791 43.6662C51.9189 43.0322 50.7132 42.9332 49.6542 43.4022C49.403 43.5133 49.1472 43.6195 48.8937 43.7176C47.8176 44.1348 47.0378 45.0559 46.8079 46.1815L46.3568 48.388C46.0872 49.7055 44.9156 50.6619 43.5708 50.6619H41.4848C40.1397 50.6619 38.9683 49.7057 38.699 48.388L38.2478 46.1815C38.0177 45.0559 37.2378 44.1348 36.1616 43.7176C35.9111 43.6205 35.6553 43.5143 35.4015 43.4024C34.9587 43.2061 34.4905 43.1094 34.025 43.1094C33.3772 43.1094 32.7352 43.2971 32.1764 43.666L30.2966 44.9076C29.1744 45.6487 27.6696 45.4967 26.7188 44.5456L25.2438 43.0705C24.2927 42.1196 24.1405 40.6148 24.8817 39.4927L26.1233 37.6129C26.7577 36.6525 26.8563 35.4469 26.3873 34.3879C26.2766 34.138 26.1707 33.8822 26.0719 33.6275C25.6547 32.5514 24.7336 31.7715 23.6079 31.5415L21.4014 31.0905C20.0839 30.8212 19.1276 29.6495 19.1276 28.3046V26.2186C19.1276 24.8737 20.0839 23.7021 21.4014 23.4328L23.6079 22.9818C24.7336 22.7515 25.6547 21.9716 26.0719 20.8956C26.1702 20.642 26.2762 20.3861 26.3873 20.1354C26.8563 19.0764 26.7577 17.8708 26.1233 16.9104L24.8817 15.0306C24.1405 13.9084 24.2927 12.4036 25.2438 11.4528L25.9681 10.7285H6.873C4.08577 10.7285 1.82629 12.988 1.82629 15.7752V44.3274C1.82646 49.2999 2.72029 54.0632 4.35372 58.4675H80.6462C82.0844 54.5895 82.9468 50.4326 83.1328 46.1001V15.775C83.1328 12.988 80.8733 10.7283 78.0859 10.7283Z" fill="#47477F"/>
<path d="M16.0251 13.4871C16.0251 12.2631 16.7622 11.2049 17.8133 10.7285H6.873C4.08577 10.7285 1.82629 12.9879 1.82629 15.7752V44.3274C1.82646 49.2999 2.72029 54.0632 4.35372 58.4674H16.0251V13.4871Z" fill="#3B3868"/>
<path d="M59.3294 21.5575C59.8165 22.2865 60.5692 22.8021 61.4479 22.9817L63.6544 23.4328C64.9719 23.7021 65.9283 24.8736 65.9283 26.2187V28.3045C65.9283 29.6494 64.9721 30.8212 63.6544 31.0904L61.4481 31.5415C60.3223 31.7714 59.4011 32.5514 58.9839 33.6275C58.8853 33.8822 58.7792 34.138 58.6685 34.3878C58.1995 35.447 58.2982 36.6526 58.9324 37.6129L60.1741 39.4923C60.9152 40.6148 60.7629 42.1195 59.812 43.0705L58.3369 44.5455C57.3858 45.4963 55.8812 45.6485 54.7591 44.9074L52.8793 43.666C51.9191 43.0319 50.7135 42.933 49.6545 43.402C49.4033 43.5132 49.1475 43.6193 48.894 43.7174C47.8178 44.1346 47.0381 45.0557 46.8081 46.1813L46.3571 48.3878C46.0876 49.7053 44.9159 50.6617 43.571 50.6617H41.485C40.14 50.6617 38.9686 49.7054 38.6993 48.3878L38.248 46.1813C38.0179 45.0557 37.238 44.1346 36.1619 43.7174C35.9114 43.6203 35.6555 43.514 35.4017 43.4022C34.9589 43.2059 34.4908 43.1091 34.0253 43.1091C33.3775 43.1091 32.7355 43.2969 32.1767 43.6658L30.2969 44.9074C29.1746 45.6485 27.6699 45.4964 26.7189 44.5453L25.2439 43.0703C24.2929 42.1194 24.1407 40.6146 24.8818 39.4925L26.1234 37.6127C26.7576 36.6523 26.8564 35.4467 26.3874 34.3877C26.2768 34.1378 26.1707 33.882 26.0721 33.6273C25.6549 32.5512 24.7339 31.7713 23.6081 31.5413L21.4016 31.0903C20.0841 30.821 19.1279 29.6493 19.1279 28.3044V26.2184C19.1279 24.8735 20.0841 23.7019 21.4016 23.4326L23.6081 22.9816C24.4868 22.8018 25.2396 22.2863 25.7266 21.5573H6.75488V58.4674H78.2044V21.5575H59.3294Z" fill="#FFDD40"/>
<path d="M6.75488 21.5575H16.0252V58.4673H6.75488V21.5575Z" fill="#FFB332"/>
<path d="M26.0721 20.8956C26.1703 20.6419 26.2764 20.3861 26.3873 20.1354C26.8563 19.0764 26.7577 17.8708 26.1234 16.9104L25.2953 15.6568H6.87301C6.80776 15.6568 6.75464 15.7098 6.75464 15.775V21.9226H25.4448C25.7088 21.6254 25.923 21.2799 26.0721 20.8956Z" fill="#47477F"/>
<path d="M16.0251 15.6568H6.87301C6.80776 15.6568 6.75464 15.7098 6.75464 15.775V21.9226H16.0249V15.6568H16.0251Z" fill="#3B3868"/>
<path d="M43.8866 38.213C49.923 37.4714 54.2153 31.9767 53.4737 25.9402C52.732 19.9038 47.2373 15.6115 41.2009 16.3531C35.1644 17.0948 30.8722 22.5895 31.6138 28.6259C32.3554 34.6624 37.8501 38.9547 43.8866 38.213Z" fill="#E9EFFF"/>
<path d="M45.0966 35.6484C42.3831 34.769 42.8357 32.4573 43.1186 31.5823C43.1928 31.3527 43.1602 31.1029 43.0312 30.8989L40.122 26.2939C40.0396 26.1636 39.996 26.0125 39.996 25.8581C39.996 25.6549 39.9201 25.4582 39.7823 25.309C37.7031 23.055 38.0889 20.6745 38.4708 19.5128C38.5931 19.141 38.4306 18.7258 38.082 18.5478C37.619 18.3112 37.3515 17.9805 37.2054 17.6271C33.8164 19.5032 31.5209 23.1139 31.5209 27.262C31.5209 33.341 36.4489 38.269 42.5279 38.269C43.6935 38.269 44.8161 38.0863 45.8704 37.7507C45.6447 37.317 45.6227 36.8638 45.6631 36.5069C45.7062 36.1244 45.4627 35.7669 45.0966 35.6484Z" fill="#BEC8F7"/>
<path d="M78.0861 15.6568H66.607C66.5095 15.6827 66.4056 15.6839 66.304 15.6568H63.2654C62.6981 16.0765 62.0761 16.4097 61.4087 16.6468C61.0356 16.7787 60.7566 17.098 60.6805 17.4798L60.3673 19.0536C60.3125 19.3289 60.0691 19.5288 59.7885 19.5288H58.4474L58.5661 19.8741C58.598 19.9669 58.6314 20.0526 58.6683 20.1354C58.7793 20.3861 58.8854 20.6419 58.9837 20.8956C59.1326 21.2799 59.3469 21.6254 59.6107 21.9226H78.2041V15.775C78.2043 15.7098 78.1512 15.6568 78.0861 15.6568Z" fill="#47477F"/>
<path d="M78.2044 59.7708C77.4845 59.7708 76.901 59.1872 76.901 58.4674V16.9602H63.2658C62.5459 16.9602 61.9624 16.3766 61.9624 15.6568C61.9624 14.9369 62.5459 14.3534 63.2658 14.3534H78.0863C78.8703 14.3534 79.5079 14.9911 79.5079 15.775V58.4674C79.5078 59.1872 78.9242 59.7708 78.2044 59.7708Z" fill="#3B3868"/>
<path d="M6.75485 59.7708C6.03501 59.7708 5.45129 59.1872 5.45129 58.4674V15.775C5.45129 14.9911 6.08913 14.3534 6.87305 14.3534H25.2955C26.0153 14.3534 26.5989 14.9369 26.5989 15.6568C26.5989 16.3766 26.0153 16.9602 25.2955 16.9602H8.05824V58.4674C8.05824 59.1872 7.47469 59.7708 6.75485 59.7708Z" fill="#3B3868"/>
<path d="M16.0252 14.3534H6.87305C6.08913 14.3534 5.45129 14.9911 5.45129 15.775V58.4674C5.45129 59.1872 6.03484 59.7708 6.75468 59.7708C7.47453 59.7708 8.05807 59.1872 8.05807 58.4674V16.9602H16.025V14.3534H16.0252Z" fill="#2D2D59"/>
<path d="M13.0424 20.5448C12.1703 20.5448 11.4735 19.8338 11.4735 18.976C11.4735 17.9817 12.3888 17.2453 13.3483 17.4385C14.1 17.5911 14.6112 18.2422 14.6112 18.976C14.6114 19.8125 13.937 20.5448 13.0424 20.5448Z" fill="#FF4155"/>
<path d="M17.3961 20.5448C16.524 20.5448 15.8273 19.8338 15.8273 18.976C15.8273 17.9817 16.7425 17.2453 17.7021 17.4385C18.4538 17.5911 18.965 18.2422 18.965 18.976C18.965 19.8125 18.2908 20.5448 17.3961 20.5448Z" fill="#FFDD40"/>
<path d="M21.7497 20.5448C20.8776 20.5448 20.1808 19.8338 20.1808 18.976C20.1808 17.9817 21.0961 17.2453 22.0557 17.4385C22.8074 17.5911 23.3185 18.2422 23.3185 18.976C23.3187 19.8125 22.6444 20.5448 21.7497 20.5448Z" fill="#89E56A"/>
<path d="M63.7065 23.1775L61.5 22.7264C60.4636 22.5146 59.6092 21.7879 59.2269 20.8015C59.1261 20.5413 59.0194 20.284 58.9068 20.03C58.8345 19.8665 58.7782 19.6986 58.735 19.5286H58.2358C57.9552 19.5286 57.7119 19.3289 57.6572 19.0538L57.344 17.48C57.2679 17.0985 56.989 16.7793 56.6161 16.6468C55.7891 16.3533 55.0302 15.9143 54.3603 15.3417C54.155 15.1662 53.8948 15.0734 53.6324 15.0734C53.5137 15.0734 53.3946 15.0925 53.2801 15.1314L51.758 15.6479C51.4924 15.7375 51.1976 15.6269 51.0571 15.3839L50.281 14.0395C50.1405 13.7965 50.1918 13.4857 50.4027 13.3007L51.6081 12.2432C51.9005 11.9867 52.0374 11.5856 51.9657 11.1958C51.9548 11.1359 51.9461 11.0751 51.9367 11.0147C51.2284 11.2313 50.4556 11.191 49.7599 10.883C49.5057 10.7705 49.2484 10.6637 48.9882 10.5628C48.0018 10.1805 47.2753 9.32615 47.0634 8.28955L46.6124 6.0832C46.3169 4.63837 45.0457 3.60077 43.571 3.60077H41.4852H41.485C40.0103 3.60077 38.7391 4.63837 38.4438 6.0832L37.9927 8.28955C37.7807 9.32615 37.0542 10.1803 36.0677 10.5628C35.8076 10.6637 35.5504 10.7705 35.2963 10.883C34.3261 11.3124 33.2056 11.2245 32.3204 10.64L30.4406 9.39837C29.21 8.58555 27.5777 8.75074 26.5346 9.79365L25.0597 11.2685C24.017 12.3113 23.8516 13.9439 24.6645 15.1744L25.9061 17.0543C26.4908 17.9395 26.5786 19.06 26.1491 20.03C26.0366 20.2842 25.9298 20.5413 25.8291 20.8015C25.4467 21.7879 24.5924 22.5144 23.556 22.7264L21.3495 23.1775C19.9046 23.4728 18.8672 24.7442 18.8672 26.2187V26.2189V28.3047V28.3049C18.8672 29.7796 19.9046 31.0508 21.3495 31.3461L23.556 31.7972C24.5924 32.009 25.4467 32.7357 25.8291 33.7221C25.9298 33.9823 26.0366 34.2396 26.1491 34.4938C26.5786 35.4638 26.4908 36.5843 25.9061 37.4695L24.6645 39.3492C23.8516 40.5798 24.017 42.2124 25.0597 43.2551L26.5346 44.73C27.5775 45.7729 29.21 45.9379 30.4406 45.1253L32.3204 43.8836C33.2056 43.2991 34.3262 43.2111 35.2961 43.6406C35.5503 43.753 35.8074 43.8599 36.0677 43.9607C37.0542 44.343 37.7807 45.1973 37.9927 46.2337L38.4438 48.4403C38.7391 49.8851 40.0103 50.9227 41.485 50.9227H41.4852H43.571C45.0457 50.9227 46.3169 49.8851 46.6124 48.4403L47.0634 46.2337C47.2753 45.1973 48.0018 44.343 48.9882 43.9607C49.2485 43.8599 49.5057 43.7531 49.7599 43.6406C50.7299 43.2111 51.8503 43.2991 52.7355 43.8836L54.6153 45.1253C55.8458 45.9381 57.4783 45.7729 58.5212 44.7301L59.9962 43.2553C61.039 42.2125 61.2043 40.5799 60.3915 39.3492L59.1499 37.4695C58.5652 36.5843 58.4775 35.4638 58.9068 34.4938C59.0194 34.2396 59.1261 33.9823 59.2269 33.7221C59.6092 32.7357 60.4636 32.0092 61.5002 31.7972L63.7065 31.3461C65.1513 31.0508 66.1888 29.7794 66.1888 28.3049V28.3047V26.2189V26.2187C66.1889 24.744 65.1513 23.4728 63.7065 23.1775ZM42.5279 38.2688C36.4489 38.2688 31.5209 33.3408 31.5209 27.2618C31.5209 21.1828 36.4489 16.255 42.5279 16.255C48.6069 16.255 53.5349 21.183 53.5349 27.2618C53.5349 33.3406 48.6069 38.2688 42.5279 38.2688Z" fill="#746BF9"/>
<path d="M31.5209 27.2618C31.5209 23.1137 33.8164 19.503 37.2054 17.6269C37.0133 17.1619 37.0318 16.6575 37.0963 16.2755C37.1563 15.9201 36.9627 15.5769 36.641 15.4146C34.6979 14.4344 35.0002 12.1308 35.2011 11.2418C35.2254 11.1342 35.2262 11.0248 35.2073 10.919C34.258 11.305 33.1787 11.2069 32.3202 10.6398L30.4404 9.39817C29.2098 8.58536 27.5773 8.75055 26.5344 9.79346L25.0596 11.2683C24.0168 12.3111 23.8515 13.9437 24.6643 15.1742L25.9059 17.0541C26.4906 17.9393 26.5784 19.0598 26.1489 20.0298C26.0364 20.284 25.9296 20.5411 25.8289 20.8013C25.4465 21.7878 24.5922 22.5142 23.5558 22.7262L21.3493 23.1773C19.9044 23.4726 18.867 24.744 18.867 26.2185V26.2187V28.3045V28.3047C18.867 29.7794 19.9044 31.0506 21.3493 31.3459L23.5558 31.797C24.5922 32.0088 25.4465 32.7355 25.8289 33.7219C25.9296 33.9821 26.0364 34.2394 26.1489 34.4936C26.5784 35.4636 26.4906 36.5841 25.9059 37.4693L24.6643 39.349C23.8515 40.5796 24.0168 42.2122 25.0596 43.2549L26.5344 44.7298C27.5773 45.7727 29.2098 45.9377 30.4404 45.1251L32.3202 43.8834C33.2054 43.2989 34.326 43.2109 35.2959 43.6404C35.5501 43.7528 35.8072 43.8597 36.0676 43.9605C37.054 44.3428 37.7805 45.1971 37.9925 46.2336L38.4436 48.4401C38.7389 49.8849 40.0101 50.9225 41.4848 50.9225H41.485H43.5708C45.0455 50.9225 46.3167 49.8849 46.6122 48.4401L47.0633 46.2336C47.2751 45.1971 48.0016 44.3428 48.988 43.9605C49.1848 43.8843 49.378 43.8016 49.5711 43.7186C49.4806 43.6093 49.3632 43.5214 49.2243 43.4697C46.8096 42.5709 46.9975 40.6845 47.312 39.6618C47.4285 39.2826 47.2454 38.8779 46.8909 38.6999C46.367 38.437 46.0526 38.0999 45.8704 37.7502C44.8161 38.0858 43.6935 38.2685 42.5279 38.2685C36.4489 38.2688 31.5209 33.3408 31.5209 27.2618Z" fill="#5858F4"/>
<path d="M42.5279 40.0068C35.5003 40.0068 29.7828 34.2894 29.7828 27.2618C29.7828 20.2342 35.5003 14.5168 42.5279 14.5168C49.5555 14.5168 55.2729 20.2342 55.2729 27.2618C55.2729 34.2894 49.5555 40.0068 42.5279 40.0068ZM42.5279 17.9928C37.4169 17.9928 33.2589 22.1508 33.2589 27.2618C33.2589 32.3728 37.4169 36.5308 42.5279 36.5308C47.6388 36.5308 51.7969 32.3728 51.7969 27.2618C51.797 22.1508 47.6388 17.9928 42.5279 17.9928Z" fill="#8F8FF9"/>
<path d="M46.8911 38.7002C45.7175 38.1112 45.5902 37.1513 45.6631 36.5065C45.6828 36.332 45.6405 36.1639 45.5563 36.0201C44.6065 36.3495 43.5884 36.5308 42.528 36.5308C37.4171 36.5308 33.2591 32.3727 33.2591 27.2618C33.2591 23.6152 35.3766 20.455 38.4459 18.9426C38.3757 18.7767 38.2515 18.6339 38.0823 18.5476C37.0102 17.9999 36.9829 16.948 37.0965 16.2753C37.1264 16.098 37.0932 15.9236 37.0123 15.7733C32.7389 17.8334 29.783 22.2087 29.783 27.2618C29.783 34.2894 35.5004 40.0068 42.528 40.0068C44.2031 40.0068 45.8024 39.6787 47.2689 39.0887C47.1919 38.9255 47.0621 38.7861 46.8911 38.7002Z" fill="#746BF9"/>
<path d="M40.789 31.2401L37.5381 27.9891C36.8594 27.3105 36.8594 26.21 37.5381 25.5313C38.2168 24.8526 39.3173 24.8526 39.996 25.5313L42.0179 27.5534L45.2446 24.3265C45.9232 23.6478 47.0238 23.6478 47.7024 24.3265C48.3811 25.0052 48.3811 26.1057 47.7024 26.7844L43.2467 31.2401C42.5684 31.9186 41.4677 31.9187 40.789 31.2401Z" fill="#89E56A"/>
<path d="M67.7936 13.1044L66.5884 12.0469C66.3601 11.8469 66.2603 11.5412 66.3151 11.2427C66.3956 10.8056 66.4378 10.3551 66.4378 9.89453C66.4378 9.43417 66.3955 8.9836 66.3151 8.54632C66.2602 8.24782 66.3601 7.94219 66.5882 7.74197L67.7936 6.68445C68.0988 6.41684 68.1722 5.97075 67.9693 5.61913C67.6984 5.14997 67.4646 4.74506 67.1932 4.2749C66.9901 3.92345 66.5671 3.76391 66.1828 3.89439L64.6608 4.4107C64.3759 4.50749 64.0624 4.44457 63.8337 4.249C63.1505 3.66496 62.3601 3.20327 61.4958 2.89664C61.2103 2.79521 60.9956 2.55581 60.9365 2.25848L60.6233 0.684482C60.5439 0.286709 60.1946 0 59.7887 0H58.2358C57.8301 0 57.4806 0.286709 57.4014 0.684648L57.0881 2.25864C57.0289 2.55598 56.8145 2.79537 56.5288 2.89681C55.6645 3.20344 54.8741 3.66529 54.1908 4.24917C53.9621 4.44474 53.6488 4.50766 53.3637 4.41087L51.8417 3.89456C51.4572 3.76407 51.0342 3.92361 50.8313 4.27507C50.5604 4.74423 50.3266 5.14914 50.0552 5.6193C49.8522 5.97075 49.9257 6.417 50.2309 6.68462L51.4361 7.74214C51.6644 7.94235 51.7642 8.24799 51.7094 8.54632C51.6289 8.9836 51.5867 9.43417 51.5867 9.89453C51.5867 10.3551 51.629 10.8056 51.7094 11.2427C51.7643 11.5412 51.6644 11.8469 51.4361 12.0469L50.2307 13.1044C49.9256 13.3721 49.8522 13.8181 50.0552 14.1698C50.3261 14.6389 50.5599 15.0438 50.8313 15.514C51.0342 15.8654 51.4574 16.025 51.8417 15.8945L53.3637 15.378C53.6488 15.2812 53.9621 15.3443 54.1908 15.5397C54.8741 16.1238 55.6645 16.5856 56.5288 16.8923C56.8145 16.9935 57.029 17.2331 57.0881 17.5304L57.4014 19.1042C57.4806 19.5024 57.8299 19.7891 58.2358 19.7891H59.7887C60.1945 19.7891 60.5439 19.5024 60.6231 19.1042L60.9364 17.5304C60.9956 17.2329 61.21 16.9935 61.4958 16.8923C62.3601 16.5856 63.1505 16.1238 63.8337 15.5397C64.0624 15.3442 64.3757 15.2812 64.6608 15.378L66.1828 15.8945C66.5673 16.0248 66.9903 15.8653 67.1932 15.514C67.4641 15.0448 67.6979 14.6399 67.9693 14.1698C68.1723 13.8183 68.0988 13.3722 67.7936 13.1044ZM59.0123 13.6745C56.9246 13.6745 55.2322 11.9822 55.2322 9.89453C55.2322 7.80688 56.9246 6.11452 59.0123 6.11452C61.0999 6.11452 62.7923 7.80688 62.7923 9.89453C62.7923 11.9822 61.0999 13.6745 59.0123 13.6745Z" fill="#BEC8F7"/>
<path d="M62.8502 16.0408C62.0344 15.7433 61.8844 15.0573 61.8909 14.5699C61.8949 14.2687 61.7078 14.0046 61.4256 13.8992C61.0476 13.7581 60.8073 13.5414 60.6556 13.2994C60.1587 13.5398 59.6011 13.6746 59.012 13.6746C56.9244 13.6746 55.232 11.9822 55.232 9.89455C55.232 8.71136 55.7761 7.6555 56.6272 6.96222C56.4541 6.6692 56.4159 6.34115 56.4255 6.07155C56.436 5.77836 56.2829 5.49547 56.0133 5.37959C55.1567 5.01137 55.1706 4.1187 55.2294 3.70167C55.2385 3.63726 55.2354 3.57251 55.2256 3.50909C54.8593 3.72657 54.5127 3.97361 54.1905 4.24903C53.9617 4.44459 53.6484 4.50751 53.3634 4.41073L51.8413 3.89442C51.4568 3.76393 51.034 3.92347 50.831 4.27492C50.56 4.74408 50.3263 5.149 50.0548 5.61915C49.8518 5.97061 49.9254 6.41686 50.2305 6.68448L51.4358 7.74199C51.664 7.94221 51.7638 8.24784 51.709 8.54617C51.6285 8.98346 51.5863 9.43403 51.5863 9.89439C51.5863 10.3549 51.6285 10.8055 51.709 11.2426C51.764 11.5411 51.664 11.8467 51.4358 12.0468L50.2303 13.1043C49.9252 13.3719 49.8518 13.818 50.0548 14.1696C50.3258 14.6388 50.5595 15.0437 50.831 15.5138C51.0338 15.8653 51.457 16.0248 51.8413 15.8944L53.3634 15.3779C53.6484 15.2811 53.9617 15.3442 54.1905 15.5396C54.8738 16.1236 55.6642 16.5855 56.5285 16.8921C56.8142 16.9934 57.0287 17.2329 57.0878 17.5303L57.401 19.1041C57.4802 19.5022 57.8295 19.7889 58.2354 19.7889H59.7883C60.1941 19.7889 60.5435 19.5022 60.6227 19.1041L60.936 17.5303C60.9953 17.2328 61.2096 16.9934 61.4955 16.8921C62.0375 16.6997 62.5505 16.4462 63.0261 16.1401C62.9737 16.0996 62.9154 16.0647 62.8502 16.0408Z" fill="#A2B6F4"/>
<path d="M59.0122 14.9781C56.2092 14.9781 53.9288 12.6977 53.9288 9.89454C53.9288 7.09136 56.2092 4.81097 59.0122 4.81097C61.8152 4.81097 64.0958 7.09136 64.0958 9.89454C64.0958 12.6977 61.8152 14.9781 59.0122 14.9781ZM59.0122 7.41808C57.6468 7.41808 56.5356 8.52906 56.5356 9.8947C56.5356 11.2603 57.6466 12.3713 59.0122 12.3713C60.3779 12.3713 61.4889 11.2603 61.4889 9.8947C61.4889 8.52906 60.3779 7.41808 59.0122 7.41808Z" fill="#E9EFFF"/>
<path d="M61.7671 14.1635C61.6856 14.0456 61.5677 13.9522 61.4258 13.8992C60.3284 13.4898 60.3744 12.4492 60.4609 11.9694C60.4654 11.9445 60.4652 11.9196 60.4669 11.8946C60.0578 12.1929 59.5561 12.371 59.0122 12.371C57.6468 12.371 56.5356 11.2601 56.5356 9.89441C56.5356 8.95825 57.0581 8.14195 57.8265 7.72094C57.7666 7.6869 57.703 7.65851 57.6348 7.64175C56.5776 7.3816 56.4064 6.60996 56.4255 6.07157C56.4315 5.90257 56.3817 5.73804 56.2881 5.6059C54.8713 6.50902 53.9288 8.09331 53.9288 9.89458C53.9288 12.6976 56.2092 14.9781 59.0122 14.9781C60.0271 14.9781 60.9727 14.678 61.7671 14.1635Z" fill="#BEC8F7"/>
<path d="M50.1417 73.8444V69.8371H34.8174V73.8444C34.8174 76.5255 33.435 79.0173 31.1603 80.4365H53.7987C51.5241 79.0174 50.1417 76.5255 50.1417 73.8444Z" fill="#BEC8F7"/>
<path d="M38.3576 80.0728C38.7545 79.1315 38.9678 78.1073 38.9678 77.054V75.611C38.9678 74.1947 40.116 73.0467 41.5321 73.0467H50.1417V69.8371H34.8174V73.8444C34.8174 76.5255 33.435 79.0173 31.1603 80.4365H38.2347C38.2666 80.3148 38.3066 80.1933 38.3576 80.0728Z" fill="#A2B6F4"/>
<path d="M74.0431 70.0032C76.9159 66.4783 79.2094 62.4634 80.7792 58.1024H4.22076C5.79044 62.4634 8.08395 66.4783 10.9568 70.0032H74.0431Z" fill="#E9EFFF"/>
<path d="M16.0251 67.1402V58.1024H4.22076C5.79044 62.4634 8.08411 66.4783 10.9568 70.0032H18.0764C16.8871 69.5938 16.0251 68.4641 16.0251 67.1402Z" fill="#BEC8F7"/>
<path d="M56.3543 82.5359C56.3543 81.1749 55.251 80.0717 53.8902 80.0717H31.0692C29.7082 80.0717 28.605 81.1751 28.605 82.5359C28.605 82.5454 28.6063 82.5546 28.6065 82.5641C32.9416 84.1398 37.6203 85.0001 42.5 85.0001C47.3643 85.0001 52.0285 84.1449 56.3522 82.5787C56.3523 82.5643 56.3543 82.5503 56.3543 82.5359Z" fill="#E9EFFF"/>
<path d="M42.4795 66.5168C43.8405 66.5168 44.9437 65.4136 44.9437 64.0527C44.9437 62.6917 43.8405 61.5885 42.4795 61.5885C41.1186 61.5885 40.0154 62.6917 40.0154 64.0527C40.0154 65.4136 41.1186 66.5168 42.4795 66.5168Z" fill="#BEC8F7"/>
<path d="M28.6048 82.5358C28.6048 82.5455 28.6061 82.5546 28.6063 82.5642C31.7123 83.6931 34.9952 84.4523 38.4014 84.7935C35.954 82.3345 38.3574 80.0728 38.3574 80.0728L38.3564 80.0717H31.069C29.7081 80.0717 28.6048 81.1748 28.6048 82.5358Z" fill="#BEC8F7"/>
</g>
<defs>
<clipPath id="clip0_14_779">
<rect width="85" height="85" fill="white"/>
</clipPath>
</defs>
</svg>
