<svg width="20" height="19" viewBox="0 0 20 19" fill="none" xmlns="http://www.w3.org/2000/svg">
<path fill-rule="evenodd" clip-rule="evenodd" d="M9.94998 0.595215C14.9897 0.595215 19.075 4.68048 19.075 9.72022C19.075 14.76 14.9897 18.8452 9.94998 18.8452C4.91024 18.8452 0.824982 14.76 0.824982 9.72022C0.824982 4.68048 4.91024 0.595215 9.94998 0.595215ZM9.94998 2.42022C8.0139 2.42022 6.15712 3.18932 4.7881 4.55834C3.41909 5.92735 2.64998 7.78413 2.64998 9.72022C2.64998 11.6563 3.41909 13.5131 4.7881 14.8821C6.15712 16.2511 8.0139 17.0202 9.94998 17.0202C11.8861 17.0202 13.7428 16.2511 15.1119 14.8821C16.4809 13.5131 17.25 11.6563 17.25 9.72022C17.25 7.78413 16.4809 5.92735 15.1119 4.55834C13.7428 3.18932 11.8861 2.42022 9.94998 2.42022ZM9.94998 4.24522C10.1735 4.24524 10.3892 4.3273 10.5562 4.47582C10.7232 4.62434 10.8299 4.82899 10.8561 5.05095L10.8625 5.15772V9.34244L12.4201 10.9001C12.5838 11.0643 12.6788 11.2846 12.6859 11.5164C12.6929 11.7481 12.6115 11.9738 12.4582 12.1477C12.3049 12.3216 12.0911 12.4306 11.8603 12.4526C11.6295 12.4746 11.399 12.4079 11.2156 12.2661L11.1298 12.1904L9.30484 10.3654C9.16302 10.2234 9.07194 10.0387 9.04569 9.83975L9.03748 9.72022V5.15772C9.03748 4.91571 9.13362 4.68361 9.30475 4.51248C9.47587 4.34135 9.70797 4.24522 9.94998 4.24522Z" fill="#BABABA"/>
</svg>
