<svg width="17" height="13" viewBox="0 0 17 13" fill="none" xmlns="http://www.w3.org/2000/svg">
<path d="M16.8134 1.54324C16.2145 1.80812 15.5795 1.98209 14.9293 2.05937C15.6146 1.64947 16.1276 1.00438 16.3725 0.244297C15.7293 0.627078 15.0242 0.895338 14.2892 1.04045C13.7955 0.512227 13.1411 0.161908 12.4278 0.0439529C11.7145 -0.0740019 10.9822 0.047017 10.3447 0.388195C9.70727 0.729374 9.2004 1.2716 8.9029 1.93057C8.6054 2.58954 8.53395 3.32833 8.69965 4.0321C7.3953 3.96673 6.11928 3.62777 4.95443 3.03724C3.78958 2.4467 2.76195 1.6178 1.93824 0.604331C1.64668 1.10512 1.49346 1.67441 1.49428 2.2539C1.49428 3.39126 2.07315 4.39606 2.95324 4.98435C2.43241 4.96795 1.92305 4.8273 1.46761 4.57411V4.6149C1.46777 5.37238 1.72988 6.1065 2.20952 6.69279C2.68915 7.27907 3.35679 7.68144 4.09923 7.83167C3.61574 7.96269 3.10879 7.98201 2.61674 7.88815C2.82606 8.54016 3.23405 9.11038 3.78358 9.51897C4.33311 9.92757 4.99667 10.1541 5.68133 10.1668C5.00086 10.7012 4.22173 11.0963 3.38848 11.3294C2.55523 11.5625 1.6842 11.6291 0.825195 11.5253C2.32471 12.4897 4.07028 13.0017 5.85312 13C11.8874 13 15.1873 8.0011 15.1873 3.66579C15.1873 3.5246 15.1834 3.38184 15.1771 3.24222C15.8194 2.778 16.3738 2.20293 16.8141 1.54403L16.8134 1.54324Z" fill="#5192FF"/>
</svg>
