<svg width="30" height="30" viewBox="0 0 30 30" fill="none" xmlns="http://www.w3.org/2000/svg">
<circle cx="15" cy="15" r="14.5" fill="#5192FF" stroke="#5192FF"/>
<path d="M22.9882 10.5432C22.3893 10.8081 21.7543 10.9821 21.1041 11.0594C21.7894 10.6495 22.3024 10.0044 22.5473 9.2443C21.9041 9.62708 21.199 9.89534 20.464 10.0404C19.9703 9.51223 19.3159 9.16191 18.6026 9.04395C17.8893 8.926 17.157 9.04702 16.5195 9.3882C15.8821 9.72937 15.3752 10.2716 15.0777 10.9306C14.7802 11.5895 14.7088 12.3283 14.8745 13.0321C13.5701 12.9667 12.2941 12.6278 11.1292 12.0372C9.96439 11.4467 8.93675 10.6178 8.11304 9.60433C7.82148 10.1051 7.66826 10.6744 7.66908 11.2539C7.66908 12.3913 8.24796 13.3961 9.12804 13.9843C8.60722 13.968 8.09785 13.8273 7.64241 13.5741V13.6149C7.64257 14.3724 7.90469 15.1065 8.38432 15.6928C8.86396 16.2791 9.53159 16.6814 10.274 16.8317C9.79055 16.9627 9.28359 16.982 8.79154 16.8881C9.00087 17.5402 9.40886 18.1104 9.95839 18.519C10.5079 18.9276 11.1715 19.1541 11.8561 19.1668C11.1757 19.7012 10.3965 20.0963 9.56328 20.3294C8.73003 20.5625 7.859 20.6291 7 20.5253C8.49951 21.4897 10.2451 22.0017 12.0279 22C18.0622 22 21.3621 17.0011 21.3621 12.6658C21.3621 12.5246 21.3582 12.3818 21.3519 12.2422C21.9942 11.778 22.5486 11.2029 22.9889 10.544L22.9882 10.5432Z" fill="white"/>
</svg>
