<svg width="33" height="33" viewBox="0 0 33 33" fill="none" xmlns="http://www.w3.org/2000/svg">
<path d="M13.1875 14.4148C10.8498 15.2086 8.29574 15.1944 5.96783 14.3747C5.60481 14.2483 5.27867 14.0405 5.01666 13.7687C4.75464 13.4969 4.56437 13.169 4.46174 12.8124C3.84609 10.606 3.84609 8.28341 4.46174 6.07693C4.56732 5.66384 4.79099 5.28708 5.10768 4.98889C5.42438 4.69071 5.82156 4.4829 6.2547 4.38877C8.43902 3.88027 10.7176 3.87046 12.9066 4.36015C13.3633 4.46698 13.777 4.7004 14.0959 5.03121C14.4149 5.36202 14.6248 5.77552 14.6995 6.22C15.1002 8.35845 15.1002 10.5481 14.6995 12.6865C14.6247 13.0751 14.4461 13.4384 14.1811 13.7413C13.9162 14.0441 13.5738 14.2761 13.1875 14.4148V14.4148Z" fill="#29DCB2"/>
<path d="M30.2159 15.4008C27.1077 16.4984 23.7117 16.4788 20.6165 15.3454C20.1338 15.1705 19.7001 14.8832 19.3518 14.5074C19.0034 14.1316 18.7504 13.6783 18.6139 13.1853C17.7954 10.1344 17.7954 6.92308 18.6139 3.87224C18.7543 3.30107 19.0517 2.78013 19.4728 2.36784C19.8939 1.95555 20.422 1.66821 20.9979 1.53806C23.9022 0.834964 26.9319 0.821412 29.8424 1.4985C30.4497 1.6462 30.9998 1.96894 31.4238 2.42634C31.8479 2.88374 32.127 3.45549 32.2264 4.07006C32.7591 7.02683 32.7591 10.0544 32.2264 13.0112C32.1269 13.5484 31.8894 14.0508 31.5371 14.4695C31.1848 14.8882 30.7296 15.2091 30.2159 15.4008V15.4008Z" fill="#9777FA"/>
<path d="M13.3432 27.4154C11.2203 28.2084 8.90098 28.1942 6.78699 27.3754C6.4561 27.248 6.15912 27.0387 5.9211 26.7652C5.68308 26.4916 5.51098 26.1618 5.41931 25.8035C4.86023 23.5996 4.86023 21.2798 5.41931 19.0759C5.51518 18.6633 5.7183 18.2869 6.00589 17.9891C6.29348 17.6913 6.65417 17.4837 7.0475 17.3897C9.03455 16.88 11.1076 16.8702 13.099 17.3611C13.5137 17.4678 13.8894 17.7009 14.179 18.0314C14.4686 18.3618 14.6593 18.7748 14.7271 19.2188C15.091 21.3547 15.091 23.5418 14.7271 25.6778C14.6599 26.0692 14.4969 26.4354 14.2542 26.7401C14.0115 27.0448 13.6975 27.2776 13.3432 27.4154V27.4154Z" fill="#FC2E5E"/>
<path d="M28.8461 31.256C26.0864 32.2652 23.0713 32.2472 20.3231 31.2051C19.8929 31.043 19.5069 30.7766 19.1974 30.4284C18.888 30.0803 18.6643 29.6605 18.5451 29.2045C17.8183 26.3995 17.8183 23.447 18.5451 20.642C18.6697 20.1169 18.9338 19.6379 19.3077 19.2589C19.6815 18.8798 20.1504 18.6156 20.6618 18.496C23.2449 17.8472 25.9399 17.8347 28.5286 18.4596C29.0678 18.5954 29.5562 18.8921 29.9327 19.3127C30.3092 19.7332 30.5571 20.2589 30.6453 20.8239C31.1182 23.5424 31.1182 26.326 30.6453 29.0445C30.5579 29.5426 30.3459 30.0086 30.0304 30.3965C29.7149 30.7843 29.3067 31.0806 28.8461 31.256V31.256Z" fill="#FECA16"/>
</svg>
