<svg width="159" height="130" viewBox="0 0 159 130" fill="none" xmlns="http://www.w3.org/2000/svg">
<circle cx="7.07083" cy="6.24368" r="6.24368" fill="#DDDDEE"/>
<circle cx="36.2075" cy="6.24368" r="6.24368" fill="#DDDDEE"/>
<circle cx="65.3452" cy="6.24368" r="6.24368" fill="#DDDDEE"/>
<circle cx="94.482" cy="6.24368" r="6.24368" fill="#DDDDEE"/>
<circle cx="123.619" cy="6.24368" r="6.24368" fill="#DDDDEE"/>
<circle cx="152.756" cy="6.24368" r="6.24368" fill="#DDDDEE"/>
<circle cx="7.07083" cy="35.3809" r="6.24368" fill="#DDDDEE"/>
<circle cx="36.2085" cy="35.3809" r="6.24368" fill="#DDDDEE"/>
<circle cx="65.3452" cy="35.3809" r="6.24368" fill="#DDDDEE"/>
<circle cx="94.4829" cy="35.3809" r="6.24368" fill="#DDDDEE"/>
<circle cx="123.62" cy="35.3809" r="6.24368" fill="#DDDDEE"/>
<circle cx="152.757" cy="35.3809" r="6.24368" fill="#DDDDEE"/>
<circle cx="7.07083" cy="64.518" r="6.24368" fill="#DDDDEE"/>
<circle cx="36.2085" cy="64.518" r="6.24368" fill="#DDDDEE"/>
<circle cx="65.3452" cy="64.518" r="6.24368" fill="#DDDDEE"/>
<circle cx="94.4829" cy="64.518" r="6.24368" fill="#DDDDEE"/>
<circle cx="123.62" cy="64.518" r="6.24368" fill="#DDDDEE"/>
<circle cx="152.757" cy="64.518" r="6.24368" fill="#DDDDEE"/>
<circle cx="7.07083" cy="93.6552" r="6.24368" fill="#DDDDEE"/>
<circle cx="36.2085" cy="93.6552" r="6.24368" fill="#DDDDEE"/>
<circle cx="65.3452" cy="93.6552" r="6.24368" fill="#DDDDEE"/>
<circle cx="94.4829" cy="93.6552" r="6.24368" fill="#DDDDEE"/>
<circle cx="123.62" cy="93.6552" r="6.24368" fill="#DDDDEE"/>
<circle cx="152.757" cy="93.6552" r="6.24368" fill="#DDDDEE"/>
<circle cx="7.07083" cy="122.792" r="6.24368" fill="#DDDDEE"/>
<circle cx="36.2085" cy="122.792" r="6.24368" fill="#DDDDEE"/>
<circle cx="65.3452" cy="122.792" r="6.24368" fill="#DDDDEE"/>
<circle cx="94.4829" cy="122.792" r="6.24368" fill="#DDDDEE"/>
<circle cx="123.62" cy="122.792" r="6.24368" fill="#DDDDEE"/>
<circle cx="152.757" cy="122.792" r="6.24368" fill="#DDDDEE"/>
</svg>
