<svg width="116" height="538" viewBox="0 0 116 538" fill="none" xmlns="http://www.w3.org/2000/svg">
<g opacity="0.1">
<path fill-rule="evenodd" clip-rule="evenodd" d="M478.063 7.09316H201.131L115.537 270.487L339.594 433.267L563.658 270.487L478.063 7.09316ZM111.133 271.912L198.417 3.35999H480.777L568.061 271.912L339.594 437.89L111.133 271.912Z" fill="white"/>
<path fill-rule="evenodd" clip-rule="evenodd" d="M484.496 -2.13736H194.693L105.117 273.396L339.594 443.695L574.078 273.396L484.496 -2.13736ZM102.066 275.459L101.054 274.718L192.19 -5.59938H487.011L578.141 274.718L339.594 447.969L102.066 275.459Z" fill="white"/>
<path fill-rule="evenodd" clip-rule="evenodd" d="M490.926 -11.387H188.27L94.7223 276.311L339.598 454.122L584.479 276.311L490.926 -11.387ZM90.9746 277.523L185.96 -14.5588H493.241L588.22 277.523L339.597 458.049L90.9746 277.523Z" fill="white"/>
<path fill-rule="evenodd" clip-rule="evenodd" d="M594.893 279.231L497.365 -20.6236H181.837L84.3018 279.231L339.598 464.557L594.893 279.231ZM81.7471 280.959L80.8955 280.34L179.398 -22.5189L179.727 -23.5181H499.468L598.3 280.34L340.449 467.515L339.598 468.128L81.7471 280.959Z" fill="white"/>
<path fill-rule="evenodd" clip-rule="evenodd" d="M503.798 -29.8671H175.396L73.8934 282.138L339.6 474.977L605.3 282.138L503.798 -29.8671ZM70.8154 283.144L173.499 -32.4775H505.695L608.378 283.144L339.6 478.207L70.8154 283.144Z" fill="white"/>
<path fill-rule="evenodd" clip-rule="evenodd" d="M510.226 -39.1102H168.962L63.4728 285.064L339.597 485.411L615.715 285.064L510.226 -39.1102ZM61.4204 286.45L60.7363 285.96L167 -40.6312L167.265 -41.4369H511.93L618.193 285.155L618.458 285.96L339.597 488.286L61.4204 286.45Z" fill="white"/>
<path fill-rule="evenodd" clip-rule="evenodd" d="M516.666 -47.2331H162.528L53.0649 289.091L339.594 496.953L626.129 289.091L516.666 -47.2331ZM51.2575 290.309L50.6572 289.871L160.805 -48.5673L161.043 -49.2764H518.151L628.311 289.162L628.537 289.871L339.594 499.486L51.2575 290.309Z" fill="white"/>
<path fill-rule="evenodd" clip-rule="evenodd" d="M636.525 292.009L523.097 -56.457H156.105L42.67 292.009L339.598 507.38L636.525 292.009ZM41.1075 293.06L40.5781 292.68L154.62 -57.617L154.82 -58.2357H524.382L638.417 292.068L638.617 292.68L340.12 509.178L339.597 509.565L41.1075 293.06Z" fill="white"/>
<path fill-rule="evenodd" clip-rule="evenodd" d="M529.531 -65.7061H149.664L32.2489 294.925L339.595 517.814L646.94 294.925L529.531 -65.7061ZM30.9316 295.814L30.499 295.492L148.418 -66.6731L148.579 -67.1951H530.61L648.535 294.982L648.696 295.492L339.594 519.644L30.9316 295.814Z" fill="white"/>
<path fill-rule="evenodd" clip-rule="evenodd" d="M657.354 297.84L535.965 -74.9492H143.235L21.8394 297.84L339.597 528.228L657.354 297.84ZM20.7806 298.556L20.4189 298.291L142.221 -75.742L142.357 -76.1545H536.843L658.639 297.879L658.775 298.291L339.959 529.459L339.597 529.724L20.7806 298.556Z" fill="white"/>
<path fill-rule="evenodd" clip-rule="evenodd" d="M667.757 301.441L542.394 -84.1967H136.8L11.4314 301.441L339.591 539.774L667.757 301.441ZM10.6176 301.989L10.3398 301.795L136.128 -85.1139H543.066L668.854 301.795L339.862 540.723L339.591 540.923L10.6176 301.989Z" fill="white"/>
<path fill-rule="evenodd" clip-rule="evenodd" d="M129.895 -94.0735L129.824 -93.8475L0.260742 304.597L0.454516 304.739L339.597 551.002L339.785 550.86L678.934 304.597L678.869 304.378L549.306 -94.0735H129.895ZM1.01636 304.352L130.373 -93.434H548.828L678.178 304.352L339.597 550.195L1.01636 304.352Z" fill="white"/>
</g>
</svg>
