<svg width="1314" height="377" viewBox="0 0 1314 377" fill="none" xmlns="http://www.w3.org/2000/svg">
<path d="M67.3494 102.247C67.3494 88.2688 67.3494 81.2797 69.633 75.7666C72.6779 68.4157 78.5181 62.5755 85.8689 59.5307C91.3821 57.2471 98.3712 57.2471 112.349 57.2471H1200.96C1214.94 57.2471 1221.93 57.2471 1227.44 59.5307C1234.79 62.5755 1240.64 68.4157 1243.68 75.7666C1245.96 81.2797 1245.96 88.2688 1245.96 102.247V331.034C1245.96 345.012 1245.96 352.002 1243.68 357.515C1240.64 364.866 1234.79 370.706 1227.44 373.751C1221.93 376.034 1214.94 376.034 1200.96 376.034H67.3494V102.247Z" fill="#0061FF" fill-opacity="0.15"/>
<path d="M39.2872 85.4097C39.2872 71.4314 39.2872 64.4423 41.5708 58.9292C44.6156 51.5783 50.4558 45.7381 57.8067 42.6933C63.3198 40.4097 70.3089 40.4097 84.2872 40.4097H1229.03C1243 40.4097 1249.99 40.4097 1255.51 42.6933C1262.86 45.7381 1268.7 51.5783 1271.74 58.9292C1274.03 64.4423 1274.03 71.4314 1274.03 85.4097V314.197C1274.03 328.175 1274.03 335.164 1271.74 340.677C1268.7 348.028 1262.86 353.868 1255.51 356.913C1249.99 359.197 1243 359.197 1229.03 359.197H39.2872V85.4097Z" fill="#0061FF" fill-opacity="0.3"/>
<mask id="mask0_16_1531" style="mask-type:alpha" maskUnits="userSpaceOnUse" x="0" y="0" width="1314" height="337">
<path d="M0 60C0 41.3623 0 32.0435 3.04482 24.6927C7.10458 14.8915 14.8915 7.10458 24.6927 3.04482C32.0435 0 41.3623 0 60 0H1313.31V276.747C1313.31 295.385 1313.31 304.703 1310.27 312.054C1306.21 321.855 1298.42 329.642 1288.62 333.702C1281.27 336.747 1271.95 336.747 1253.31 336.747H0V60Z" fill="#0061FF"/>
</mask>
<g mask="url(#mask0_16_1531)">
<path d="M0 60C0 41.3623 0 32.0435 3.04482 24.6927C7.10458 14.8915 14.8915 7.10458 24.6927 3.04482C32.0435 0 41.3623 0 60 0H1313.31V276.747C1313.31 295.385 1313.31 304.703 1310.27 312.054C1306.21 321.855 1298.42 329.642 1288.62 333.702C1281.27 336.747 1271.95 336.747 1253.31 336.747H0V60Z" fill="#5192FF"/>
<mask id="mask1_16_1531" style="mask-type:alpha" maskUnits="userSpaceOnUse" x="-69" y="1" width="1397" height="360">
<rect x="-69" y="1.35156" width="1397" height="359.36" rx="25" fill="#5192FF"/>
</mask>
<g mask="url(#mask1_16_1531)">
<path d="M989 0.0341797H1050V102.534C1050 119.379 1036.34 133.034 1019.5 133.034C1002.66 133.034 989 119.379 989 102.534V0.0341797Z" fill="white" fill-opacity="0.2"/>
<path d="M1060 0.0341797H1122V141.034C1122 158.155 1108.12 172.034 1091 172.034C1073.88 172.034 1060 158.155 1060 141.034V0.0341797Z" fill="white" fill-opacity="0.2"/>
<path d="M1131 0.0341797H1193V193.034C1193 210.155 1179.12 224.034 1162 224.034C1144.88 224.034 1131 210.155 1131 193.034V0.0341797Z" fill="white" fill-opacity="0.2"/>
<path d="M1203 0.0341797H1264V275.534C1264 292.379 1250.34 306.034 1233.5 306.034C1216.66 306.034 1203 292.379 1203 275.534V0.0341797Z" fill="white" fill-opacity="0.2"/>
<circle cx="1042.38" cy="330.403" r="122.86" transform="rotate(-12.2795 1042.38 330.403)" stroke="white" stroke-opacity="0.3" stroke-width="2"/>
<circle cx="1031.29" cy="367.836" r="122.86" transform="rotate(-12.2795 1031.29 367.836)" stroke="white" stroke-opacity="0.3" stroke-width="2"/>
<circle cx="1019.69" cy="391.571" r="122.86" transform="rotate(-12.2795 1019.69 391.571)" stroke="white" stroke-opacity="0.3" stroke-width="2"/>
<circle cx="993.83" cy="411.009" r="122.86" transform="rotate(-12.2795 993.83 411.009)" stroke="white" stroke-opacity="0.3" stroke-width="2"/>
<circle cx="962.589" cy="430.632" r="122.86" transform="rotate(-12.2795 962.589 430.632)" stroke="white" stroke-opacity="0.3" stroke-width="2"/>
<circle cx="18.1026" cy="-42.8052" r="136.161" stroke="white" stroke-opacity="0.3" stroke-width="2"/>
<circle cx="-2.71162" cy="-4.91261" r="136.161" stroke="white" stroke-opacity="0.3" stroke-width="2"/>
<circle cx="-20.8574" cy="18.0366" r="136.161" stroke="white" stroke-opacity="0.3" stroke-width="2"/>
<circle cx="-53.413" cy="32.9805" r="136.161" stroke="white" stroke-opacity="0.3" stroke-width="2"/>
<circle cx="-91.8394" cy="46.8564" r="136.161" stroke="white" stroke-opacity="0.3" stroke-width="2"/>
<circle cx="749.103" cy="-77.8052" r="136.161" stroke="white" stroke-opacity="0.3" stroke-width="2"/>
<circle cx="728.288" cy="-39.9126" r="136.161" stroke="white" stroke-opacity="0.3" stroke-width="2"/>
<circle cx="710.143" cy="-16.9634" r="136.161" stroke="white" stroke-opacity="0.3" stroke-width="2"/>
<circle cx="677.587" cy="-2.01955" r="136.161" stroke="white" stroke-opacity="0.3" stroke-width="2"/>
<circle cx="639.161" cy="11.8564" r="136.161" stroke="white" stroke-opacity="0.3" stroke-width="2"/>
</g>
</g>
</svg>
