<svg width="395" height="350" viewBox="0 0 395 350" fill="none" xmlns="http://www.w3.org/2000/svg">
<path d="M23.087 0.240429H364.91V233.319H23.087V0.240429Z" fill="#F6F2E9"/>
<path d="M23.087 233.559H364.929C364.993 233.559 365.054 233.534 365.099 233.489C365.145 233.444 365.17 233.383 365.17 233.319V0.240451C365.17 0.176679 365.145 0.115538 365.099 0.0704445C365.054 0.0253513 364.993 0 364.929 0H23.1064C23.0424 0 22.9811 0.0253513 22.9359 0.0704445C22.8907 0.115538 22.8654 0.176679 22.8654 0.240451V233.319C22.8652 233.38 22.8878 233.438 22.929 233.482C22.9701 233.527 23.0265 233.555 23.087 233.559ZM364.669 233.078H23.328V0.480901H364.669V233.078Z" fill="black"/>
<path d="M23.087 0.240429H364.91V20.1546H23.087V0.240429Z" fill="#F6F2E9"/>
<path d="M23.087 20.395H364.929C364.993 20.395 365.054 20.3697 365.099 20.3246C365.145 20.2795 365.17 20.2184 365.17 20.1546V0.240451C365.17 0.176679 365.145 0.115538 365.099 0.0704445C365.054 0.0253513 364.993 0 364.929 0H23.1064C23.0424 0 22.9811 0.0253513 22.9359 0.0704445C22.8907 0.115538 22.8654 0.176679 22.8654 0.240451V20.1546C22.8652 20.2152 22.8878 20.2736 22.929 20.3182C22.9701 20.3627 23.0265 20.3902 23.087 20.395ZM364.669 19.9141H23.328V0.480901H364.669V19.9141Z" fill="black"/>
<path d="M349.756 14.8021C347.342 14.8021 345.385 12.8493 345.385 10.4404C345.385 8.03143 347.342 6.0786 349.756 6.0786C352.171 6.0786 354.128 8.03143 354.128 10.4404C354.128 12.8493 352.171 14.8021 349.756 14.8021Z" fill="#F45235"/>
<path d="M349.751 15.0378C350.664 15.0387 351.557 14.7695 352.316 14.2642C353.075 13.7588 353.667 13.0401 354.017 12.199C354.366 11.3578 354.458 10.4321 354.28 9.53887C354.103 8.64567 353.663 7.82522 353.018 7.18129C352.372 6.53737 351.55 6.09893 350.655 5.92151C349.76 5.74409 348.832 5.83563 347.989 6.18456C347.146 6.53349 346.425 7.12412 345.919 7.88169C345.413 8.63926 345.143 9.52971 345.144 10.4404C345.145 11.6593 345.631 12.8279 346.495 13.6898C347.358 14.5517 348.53 15.0365 349.751 15.0378ZM349.751 6.31902C350.569 6.31807 351.368 6.55898 352.047 7.01126C352.727 7.46354 353.258 8.10688 353.571 8.85987C353.884 9.61286 353.967 10.4416 353.808 11.2414C353.649 12.0412 353.256 12.776 352.679 13.3529C352.101 13.9297 351.365 14.3227 350.564 14.4821C349.762 14.6415 348.932 14.5602 348.177 14.2484C347.422 13.9366 346.776 13.4084 346.322 12.7305C345.868 12.0527 345.626 11.2557 345.626 10.4404C345.626 9.34814 346.06 8.30061 346.834 7.52785C347.607 6.75509 348.657 6.3203 349.751 6.31902Z" fill="black"/>
<path d="M336.053 14.8021C333.639 14.8021 331.682 12.8493 331.682 10.4404C331.682 8.03143 333.639 6.0786 336.053 6.0786C338.468 6.0786 340.425 8.03143 340.425 10.4404C340.425 12.8493 338.468 14.8021 336.053 14.8021Z" fill="#FEC310"/>
<path d="M336.053 15.0378C336.966 15.0378 337.858 14.7677 338.617 14.2618C339.375 13.7559 339.966 13.0368 340.315 12.1956C340.664 11.3544 340.755 10.4288 340.577 9.53593C340.399 8.64305 339.959 7.82303 339.313 7.17959C338.668 6.53615 337.845 6.09819 336.95 5.92116C336.055 5.74412 335.128 5.83596 334.285 6.18503C333.442 6.5341 332.722 7.12472 332.216 7.88219C331.71 8.63965 331.44 9.52991 331.441 10.4403C331.442 11.6601 331.929 12.8295 332.794 13.6915C333.658 14.5536 334.831 15.0378 336.053 15.0378ZM336.053 6.31902C336.87 6.31902 337.669 6.56075 338.348 7.0136C339.028 7.46646 339.557 8.11011 339.87 8.86318C340.182 9.61626 340.264 10.4449 340.105 11.2444C339.945 12.0438 339.552 12.7782 338.974 13.3546C338.397 13.931 337.661 14.3235 336.859 14.4825C336.058 14.6415 335.228 14.5599 334.473 14.248C333.718 13.936 333.073 13.4078 332.619 12.73C332.165 12.0523 331.923 11.2555 331.923 10.4403C331.924 9.3477 332.36 8.30018 333.134 7.52756C333.908 6.75493 334.958 6.32029 336.053 6.31902Z" fill="black"/>
<path d="M322.326 14.8021C319.912 14.8021 317.955 12.8493 317.955 10.4404C317.955 8.03143 319.912 6.0786 322.326 6.0786C324.741 6.0786 326.698 8.03143 326.698 10.4404C326.698 12.8493 324.741 14.8021 322.326 14.8021Z" fill="#12584F"/>
<path d="M322.327 15.0378C323.239 15.0378 324.131 14.7677 324.89 14.2618C325.648 13.7559 326.24 13.0368 326.589 12.1956C326.938 11.3544 327.029 10.4288 326.85 9.53593C326.672 8.64305 326.232 7.82303 325.586 7.17959C324.941 6.53615 324.119 6.09819 323.224 5.92116C322.328 5.74412 321.401 5.83596 320.558 6.18503C319.715 6.5341 318.995 7.12472 318.489 7.88219C317.983 8.63965 317.713 9.52991 317.714 10.4403C317.715 11.6601 318.202 12.8295 319.067 13.6915C319.932 14.5536 321.104 15.0378 322.327 15.0378ZM322.327 6.31902C323.144 6.31902 323.942 6.56075 324.621 7.0136C325.301 7.46646 325.83 8.11011 326.143 8.86318C326.455 9.61626 326.537 10.4449 326.378 11.2444C326.219 12.0438 325.825 12.7782 325.247 13.3546C324.67 13.931 323.934 14.3235 323.132 14.4825C322.331 14.6415 321.501 14.5599 320.746 14.248C319.991 13.936 319.346 13.4078 318.892 12.73C318.438 12.0523 318.196 11.2555 318.196 10.4403C318.196 9.34731 318.631 8.29905 319.406 7.52615C320.18 6.75325 321.231 6.31902 322.327 6.31902Z" fill="black"/>
<path d="M322.462 159.477H394.759V210.005H322.462V159.477Z" fill="#F6F2E9"/>
<path d="M322.461 210.24H394.759C394.823 210.24 394.884 210.215 394.929 210.17C394.975 210.125 395 210.064 395 210V159.476C395 159.413 394.975 159.352 394.929 159.306C394.884 159.261 394.823 159.236 394.759 159.236H322.461C322.398 159.236 322.336 159.261 322.291 159.306C322.246 159.352 322.22 159.413 322.22 159.476V210C322.22 210.064 322.246 210.125 322.291 210.17C322.336 210.215 322.398 210.24 322.461 210.24ZM394.518 209.76H322.702V159.717H394.518V209.76Z" fill="black"/>
<path d="M341.591 185.214H375.431C375.495 185.214 375.557 185.189 375.602 185.144C375.647 185.099 375.672 185.038 375.672 184.974C375.672 184.91 375.647 184.849 375.602 184.804C375.557 184.759 375.495 184.733 375.431 184.733H341.591C341.527 184.733 341.466 184.759 341.421 184.804C341.376 184.849 341.35 184.91 341.35 184.974C341.35 185.038 341.376 185.099 341.421 185.144C341.466 185.189 341.527 185.214 341.591 185.214Z" fill="black"/>
<path d="M340.613 197.742H355.815C356.326 197.742 356.816 197.539 357.178 197.178C357.54 196.818 357.743 196.328 357.743 195.818V174.601C357.743 174.091 357.54 173.601 357.178 173.241C356.816 172.88 356.326 172.677 355.815 172.677H340.613C340.549 172.677 340.488 172.703 340.443 172.748C340.397 172.793 340.372 172.854 340.372 172.918C340.372 172.981 340.397 173.043 340.443 173.088C340.488 173.133 340.549 173.158 340.613 173.158H355.815C356.198 173.158 356.566 173.31 356.837 173.581C357.108 173.851 357.261 174.218 357.261 174.601V195.837C357.261 196.22 357.108 196.587 356.837 196.858C356.566 197.128 356.198 197.28 355.815 197.28H340.613C340.549 197.28 340.488 197.306 340.443 197.351C340.397 197.396 340.372 197.457 340.372 197.521C340.377 197.581 340.404 197.637 340.449 197.678C340.494 197.719 340.552 197.742 340.613 197.742Z" fill="black"/>
<path d="M370.53 181.011H378.964V189.427H370.53V181.011Z" fill="#F45235"/>
<path d="M370.525 189.667H378.96C379.023 189.667 379.085 189.642 379.13 189.597C379.175 189.552 379.201 189.491 379.201 189.427V181.011C379.201 180.947 379.175 180.886 379.13 180.841C379.085 180.796 379.023 180.771 378.96 180.771H370.525C370.461 180.771 370.4 180.796 370.354 180.841C370.309 180.886 370.284 180.947 370.284 181.011V189.427C370.284 189.491 370.309 189.552 370.354 189.597C370.4 189.642 370.461 189.667 370.525 189.667ZM378.719 189.187H370.766V181.252H378.719V189.187Z" fill="black"/>
<path d="M338.261 168.729H346.696V177.145H338.261V168.729Z" fill="#2157A7"/>
<path d="M338.256 177.385H346.696C346.76 177.385 346.821 177.36 346.866 177.315C346.911 177.27 346.937 177.209 346.937 177.145V168.729C346.937 168.665 346.911 168.604 346.866 168.559C346.821 168.514 346.76 168.489 346.696 168.489H338.256C338.192 168.489 338.131 168.514 338.086 168.559C338.04 168.604 338.015 168.665 338.015 168.729V177.145C338.015 177.209 338.04 177.27 338.086 177.315C338.131 177.36 338.192 177.385 338.256 177.385ZM346.45 176.904H338.492V168.97H346.45V176.904Z" fill="black"/>
<path d="M338.261 193.294H346.696V201.709H338.261V193.294Z" fill="#2157A7"/>
<path d="M338.256 201.95H346.696C346.759 201.948 346.82 201.923 346.865 201.878C346.91 201.833 346.935 201.773 346.937 201.709V193.293C346.937 193.23 346.911 193.169 346.866 193.123C346.821 193.078 346.76 193.053 346.696 193.053H338.256C338.192 193.053 338.131 193.078 338.086 193.123C338.04 193.169 338.015 193.23 338.015 193.293V201.709C338.016 201.773 338.042 201.833 338.087 201.878C338.132 201.923 338.193 201.948 338.256 201.95ZM346.45 201.469H338.492V193.534H346.45V201.469Z" fill="black"/>
<path d="M338.261 181.011H346.696V189.427H338.261V181.011Z" fill="#2157A7"/>
<path d="M338.256 189.667H346.696C346.76 189.667 346.821 189.642 346.866 189.597C346.911 189.552 346.937 189.491 346.937 189.427V181.011C346.937 180.947 346.911 180.886 346.866 180.841C346.821 180.796 346.76 180.771 346.696 180.771H338.256C338.192 180.771 338.131 180.796 338.086 180.841C338.04 180.886 338.015 180.947 338.015 181.011V189.427C338.015 189.491 338.04 189.552 338.086 189.597C338.131 189.642 338.192 189.667 338.256 189.667ZM346.45 189.187H338.492V181.252H346.45V189.187Z" fill="black"/>
<path d="M223.539 38.7799H345.385V119.316H223.539V38.7799Z" fill="#F6F2E9"/>
<path d="M223.539 119.557H345.385C345.449 119.557 345.51 119.532 345.555 119.486C345.6 119.441 345.626 119.38 345.626 119.316V38.7799C345.626 38.7161 345.6 38.655 345.555 38.6099C345.51 38.5648 345.449 38.5394 345.385 38.5394H223.539C223.475 38.5394 223.414 38.5648 223.369 38.6099C223.324 38.655 223.298 38.7161 223.298 38.7799V119.316C223.298 119.38 223.324 119.441 223.369 119.486C223.414 119.532 223.475 119.557 223.539 119.557ZM345.144 119.076H223.78V39.0203H345.144V119.076Z" fill="black"/>
<path d="M345.385 86.4709L302.85 68.9324L277.333 86.4709L248.564 77.4828L236.514 89.7939L223.539 82.59V119.316H345.385V86.4709Z" fill="#12584F"/>
<path d="M223.539 119.557H345.385C345.449 119.557 345.51 119.532 345.555 119.486C345.6 119.441 345.626 119.38 345.626 119.316V86.4564C345.626 86.4088 345.612 86.3622 345.585 86.3227C345.559 86.2832 345.521 86.2527 345.476 86.2352L302.941 68.6967C302.905 68.679 302.866 68.6697 302.825 68.6697C302.785 68.6697 302.746 68.679 302.71 68.6967L277.295 86.1679L248.636 77.2135C248.593 77.1995 248.548 77.198 248.504 77.209C248.46 77.2201 248.421 77.2433 248.39 77.276L236.471 89.4573L223.655 82.3399C223.619 82.3188 223.578 82.3076 223.537 82.3076C223.495 82.3076 223.454 82.3188 223.419 82.3399C223.382 82.3613 223.351 82.3922 223.33 82.4294C223.308 82.4666 223.298 82.5087 223.298 82.5515V119.278C223.293 119.313 223.295 119.348 223.304 119.382C223.314 119.416 223.331 119.447 223.354 119.473C223.377 119.5 223.405 119.521 223.437 119.536C223.469 119.55 223.504 119.557 223.539 119.557ZM345.144 119.076H223.78V83.0084L236.398 90.0151C236.445 90.0414 236.498 90.0514 236.551 90.0435C236.603 90.0357 236.651 90.0104 236.688 89.9718L248.636 77.7617L277.261 86.7065C277.296 86.7187 277.334 86.7224 277.371 86.7174C277.407 86.7124 277.443 86.6988 277.473 86.6777L302.879 69.2161L345.144 86.6392V119.076Z" fill="black"/>
<path d="M223.539 140.082H345.385C345.449 140.082 345.51 140.056 345.555 140.011C345.6 139.966 345.626 139.905 345.626 139.841C345.626 139.778 345.6 139.716 345.555 139.671C345.51 139.626 345.449 139.601 345.385 139.601H223.539C223.475 139.601 223.414 139.626 223.369 139.671C223.324 139.716 223.298 139.778 223.298 139.841C223.298 139.905 223.324 139.966 223.369 140.011C223.414 140.056 223.475 140.082 223.539 140.082Z" fill="black"/>
<path d="M345.385 147.194C345.449 147.194 345.51 147.169 345.555 147.124C345.6 147.079 345.626 147.018 345.626 146.954C345.626 146.89 345.6 146.829 345.555 146.784C345.51 146.739 345.449 146.713 345.385 146.713H223.539C223.475 146.713 223.414 146.739 223.369 146.784C223.324 146.829 223.298 146.89 223.298 146.954C223.298 147.018 223.324 147.079 223.369 147.124C223.414 147.169 223.475 147.194 223.539 147.194H345.385Z" fill="black"/>
<path d="M253.528 62.5364C249.072 62.5364 245.46 58.846 245.46 54.2938C245.46 49.7415 249.072 46.0511 253.528 46.0511C257.984 46.0511 261.597 49.7415 261.597 54.2938C261.597 58.846 257.984 62.5364 253.528 62.5364Z" fill="#FEC310"/>
<path d="M253.528 62.7721C255.218 62.8103 256.88 62.3453 258.304 61.4365C259.727 60.5277 260.847 59.2163 261.52 57.6697C262.193 56.1231 262.389 54.4115 262.082 52.7533C261.776 51.0951 260.981 49.5657 259.8 48.3601C258.618 47.1546 257.104 46.3278 255.449 45.9851C253.794 45.6424 252.075 45.7995 250.51 46.4362C248.945 47.073 247.606 48.1606 246.664 49.5601C245.721 50.9597 245.218 52.6077 245.219 54.2938C245.196 56.517 246.058 58.6585 247.616 60.2481C249.174 61.8377 251.3 62.7454 253.528 62.7721ZM253.528 46.2916C255.122 46.2533 256.691 46.69 258.035 47.5457C259.379 48.4014 260.437 49.6374 261.074 51.0958C261.711 52.5543 261.897 54.1689 261.61 55.7337C261.323 57.2984 260.574 58.7422 259.461 59.8806C258.347 61.0191 256.919 61.8005 255.358 62.1252C253.797 62.4499 252.175 62.3031 250.698 61.7035C249.221 61.1039 247.957 60.0787 247.067 58.7589C246.177 57.4391 245.701 55.8846 245.701 54.2938C245.676 52.1973 246.487 50.1769 247.955 48.6764C249.422 47.176 251.427 46.3182 253.528 46.2916Z" fill="black"/>
<path d="M199.435 38.8713H210.386V49.7973H199.435V38.8713Z" fill="#FEC310"/>
<path d="M199.435 50.0378H210.386C210.45 50.0378 210.511 50.0124 210.556 49.9673C210.601 49.9222 210.627 49.8611 210.627 49.7973V38.8712C210.627 38.8075 210.601 38.7463 210.556 38.7012C210.511 38.6561 210.45 38.6308 210.386 38.6308H199.435C199.371 38.6308 199.31 38.6561 199.265 38.7012C199.22 38.7463 199.194 38.8075 199.194 38.8712V49.7973C199.194 49.8611 199.22 49.9222 199.265 49.9673C199.31 50.0124 199.371 50.0378 199.435 50.0378ZM210.145 49.5569H199.676V39.1117H210.145V49.5569Z" fill="black"/>
<path d="M199.435 49.0471H210.386V59.9732H199.435V49.0471Z" fill="#12584F"/>
<path d="M199.435 60.2137H210.386C210.45 60.2137 210.511 60.1884 210.556 60.1433C210.601 60.0982 210.627 60.037 210.627 59.9732V49.0472C210.627 48.9834 210.601 48.9222 210.556 48.8771C210.511 48.832 210.45 48.8067 210.386 48.8067H199.435C199.371 48.8067 199.31 48.832 199.265 48.8771C199.22 48.9222 199.194 48.9834 199.194 49.0472V59.9732C199.194 60.037 199.22 60.0982 199.265 60.1433C199.31 60.1884 199.371 60.2137 199.435 60.2137ZM210.145 59.7328H199.676V49.2876H210.145V59.7328Z" fill="black"/>
<path d="M199.435 58.7854H210.386V69.7115H199.435V58.7854Z" fill="#2157A7"/>
<path d="M199.435 69.9519H210.386C210.45 69.9519 210.511 69.9266 210.556 69.8815C210.601 69.8364 210.627 69.7752 210.627 69.7115V58.7854C210.627 58.7216 210.601 58.6605 210.556 58.6154C210.511 58.5703 210.45 58.545 210.386 58.545H199.435C199.371 58.545 199.31 58.5703 199.265 58.6154C199.22 58.6605 199.194 58.7216 199.194 58.7854V69.7115C199.194 69.7752 199.22 69.8364 199.265 69.8815C199.31 69.9266 199.371 69.9519 199.435 69.9519ZM210.145 69.471H199.676V59.0451H210.145V69.471Z" fill="black"/>
<path d="M0.241119 54.2938H128.02V82.3063H0.241119V54.2938Z" fill="#F6F2E9"/>
<path d="M0.241089 82.5467H128.02C128.084 82.5467 128.145 82.5214 128.19 82.4763C128.235 82.4312 128.261 82.37 128.261 82.3063V54.2938C128.261 54.23 128.235 54.1688 128.19 54.1237C128.145 54.0786 128.084 54.0533 128.02 54.0533H0.241089C0.17717 54.0533 0.115891 54.0786 0.070694 54.1237C0.0254974 54.1688 9.15527e-05 54.23 9.15527e-05 54.2938V82.3063C9.15527e-05 82.37 0.0254974 82.4312 0.070694 82.4763C0.115891 82.5214 0.17717 82.5467 0.241089 82.5467ZM127.779 82.0658H0.482079V54.5342H127.793L127.779 82.0658Z" fill="black"/>
<path d="M113.946 76.1026C109.625 76.1026 106.123 72.6082 106.123 68.2976C106.123 63.987 109.625 60.4925 113.946 60.4925C118.266 60.4925 121.768 63.987 121.768 68.2976C121.768 72.6082 118.266 76.1026 113.946 76.1026Z" fill="#F45235"/>
<path d="M113.946 76.3575C115.54 76.3575 117.099 75.8856 118.426 75.0016C119.752 74.1175 120.785 72.861 121.395 71.3909C122.006 69.9208 122.165 68.3031 121.854 66.7424C121.543 65.1817 120.775 63.7482 119.647 62.623C118.52 61.4978 117.083 60.7315 115.519 60.4211C113.955 60.1107 112.333 60.27 110.86 60.8789C109.386 61.4879 108.127 62.5191 107.241 63.8422C106.355 65.1652 105.882 66.7208 105.882 68.312C105.883 70.4454 106.733 72.4911 108.245 73.9996C109.757 75.5082 111.807 76.3562 113.946 76.3575ZM113.946 60.7474C115.445 60.7474 116.911 61.1911 118.158 62.0223C119.405 62.8535 120.376 64.0349 120.95 65.4172C121.524 66.7994 121.674 68.3204 121.382 69.7878C121.089 71.2552 120.367 72.603 119.307 73.661C118.246 74.7189 116.895 75.4394 115.425 75.7312C113.954 76.0231 112.43 75.8733 111.044 75.3008C109.659 74.7282 108.475 73.7586 107.642 72.5147C106.809 71.2707 106.364 69.8081 106.364 68.312C106.363 66.304 107.161 64.3777 108.582 62.9565C110.004 61.5353 111.933 60.7355 113.946 60.733V60.7474Z" fill="black"/>
<path d="M110.451 68.2976L116.476 71.7697V64.8303L110.451 68.2976Z" fill="black"/>
<path d="M116.476 72.0294C116.519 72.0302 116.561 72.0185 116.597 71.9957C116.633 71.9748 116.663 71.9446 116.685 71.9084C116.706 71.8721 116.717 71.8309 116.717 71.7889V64.8159C116.717 64.7733 116.706 64.7315 116.685 64.6945C116.663 64.6575 116.633 64.6264 116.597 64.6043C116.56 64.5832 116.519 64.5721 116.476 64.5721C116.434 64.5721 116.392 64.5832 116.356 64.6043L110.331 68.0764C110.295 68.0974 110.264 68.1275 110.243 68.1638C110.222 68.2001 110.211 68.2412 110.21 68.2832C110.211 68.3258 110.222 68.3676 110.243 68.4046C110.264 68.4416 110.294 68.4727 110.331 68.4948L116.356 71.9621C116.388 71.997 116.43 72.0207 116.476 72.0294ZM116.235 65.2631V71.3706L110.933 68.3169L116.235 65.2631Z" fill="black"/>
<path d="M8.12148 68.538H98.8452C98.9091 68.538 98.9704 68.5127 99.0156 68.4676C99.0608 68.4225 99.0862 68.3614 99.0862 68.2976C99.0862 68.2338 99.0608 68.1727 99.0156 68.1276C98.9704 68.0825 98.9091 68.0571 98.8452 68.0571H8.12148C8.05756 68.0571 7.99628 68.0825 7.9511 68.1276C7.9059 68.1727 7.88049 68.2338 7.88049 68.2976C7.88049 68.3614 7.9059 68.4225 7.9511 68.4676C7.99628 68.5127 8.05756 68.538 8.12148 68.538Z" fill="black"/>
<path d="M45.9474 104.822C47.3933 113.478 50.6034 119.22 55.2352 121.957C52.0686 124.337 44.9786 124.818 39.7443 126.905L35.8257 104.548L45.9474 104.822Z" fill="black"/>
<path d="M39.7443 127.146C39.7728 127.152 39.8026 127.152 39.8311 127.146C42.1491 126.301 44.525 125.625 46.9404 125.121C50.3142 124.327 53.5002 123.577 55.3799 122.168C55.4116 122.144 55.4368 122.113 55.4536 122.077C55.4704 122.041 55.4782 122.001 55.4763 121.961C55.4745 121.922 55.4625 121.883 55.4414 121.849C55.4203 121.816 55.3908 121.788 55.3558 121.769C50.6613 118.989 47.5717 113.286 46.1981 104.803C46.1891 104.748 46.1611 104.697 46.1189 104.66C46.0767 104.623 46.0228 104.602 45.9667 104.601L35.8451 104.327C35.8097 104.326 35.7746 104.333 35.7422 104.347C35.7097 104.361 35.6807 104.382 35.6571 104.409C35.6336 104.436 35.6167 104.469 35.6075 104.503C35.5983 104.538 35.5971 104.575 35.6041 104.61L39.5178 126.963C39.5244 126.998 39.5386 127.031 39.5594 127.06C39.5802 127.089 39.6071 127.114 39.6383 127.131C39.6719 127.145 39.7083 127.15 39.7443 127.146ZM54.7967 121.971C52.9652 123.193 49.9769 123.895 46.8295 124.635C44.489 125.124 42.1832 125.767 39.9275 126.559L36.115 104.784L45.7547 105.043C47.138 113.387 50.1938 119.076 54.7967 121.971Z" fill="black"/>
<path d="M28.9286 119.009C30.5239 123.337 29.6034 131.084 29.9697 135.965L43.7737 134.474L42.3277 124.933C44.9545 124.602 46.9933 122.11 47.3499 115.666L50.425 114.705C50.5366 114.675 50.6382 114.615 50.719 114.533C50.7999 114.451 50.8571 114.348 50.8847 114.236C50.9122 114.124 50.9092 114.007 50.8758 113.896C50.8425 113.786 50.78 113.686 50.6949 113.608C45.7594 110.025 47.7693 102.326 43.0362 99.2436C38.6984 96.4063 31.9024 96.9353 28.6876 102.778C26.1813 107.919 27.3284 113.531 28.9286 119.009Z" fill="#FEC310"/>
<path d="M29.748 136.23L44.0485 134.686L42.6025 125.135C45.5667 124.611 47.2392 121.49 47.5814 115.844L50.4733 114.959C50.6398 114.905 50.7885 114.807 50.9031 114.675C51.0177 114.542 51.0941 114.382 51.124 114.209C51.1519 114.065 51.1381 113.915 51.0844 113.778C51.0306 113.641 50.9391 113.522 50.8204 113.435C48.4105 111.685 47.6874 108.876 46.9934 106.164C46.2993 103.452 45.586 100.653 43.1375 99.0657C41.9228 98.2822 40.5609 97.7537 39.1348 97.5122C37.7088 97.2708 36.2483 97.3216 34.8426 97.6615C33.4795 97.9983 32.2038 98.6206 31.1002 99.487C29.9966 100.353 29.0905 101.444 28.4418 102.687C25.8005 108.083 27.1742 113.974 28.6635 119.076C29.7046 121.899 29.6275 126.357 29.6275 130.286C29.6034 132.358 29.5841 134.311 29.7046 135.96L29.748 136.23ZM43.499 134.263L30.1914 135.706C30.0902 134.128 30.1095 132.277 30.1336 130.324C30.1818 126.16 30.23 121.851 29.1696 118.946C27.7236 113.93 26.3548 108.145 28.9141 102.918C29.5311 101.736 30.393 100.698 31.4425 99.8742C32.492 99.0501 33.7052 98.4581 35.0016 98.1376C36.3429 97.8126 37.7365 97.7639 39.0973 97.9946C40.4581 98.2253 41.7574 98.7305 42.9158 99.4793C45.1908 100.96 45.8559 103.548 46.5548 106.289C47.2536 109.03 48.0008 111.983 50.5649 113.834C50.611 113.87 50.6459 113.917 50.6655 113.972C50.6852 114.026 50.6887 114.085 50.6758 114.142C50.6603 114.225 50.6232 114.302 50.5682 114.367C50.5132 114.431 50.4422 114.479 50.3625 114.507L47.1284 115.493V115.662C46.8151 121.298 45.2004 124.318 42.3085 124.703L42.0675 124.736L43.499 134.263Z" fill="black"/>
<path d="M34.6692 121.48C37.0068 123.404 39.3877 125.193 42.6508 124.784L34.6692 121.48Z" fill="#FEC310"/>
<path d="M41.7495 125.082C42.062 125.082 42.3743 125.063 42.6846 125.025L42.6219 124.544C39.5613 124.924 37.3683 123.366 34.8234 121.288L34.5149 121.658C36.4043 123.202 38.713 125.082 41.7495 125.082Z" fill="black"/>
<path d="M46.656 119.268C45.8657 119.371 45.0626 119.302 44.3014 119.066C43.5403 118.83 42.8391 118.433 42.2458 117.903" fill="#FEC310"/>
<path d="M45.9185 119.562C46.1767 119.562 46.4344 119.542 46.6897 119.504C46.7209 119.5 46.7509 119.49 46.778 119.474C46.8051 119.458 46.8288 119.437 46.8476 119.412C46.8665 119.387 46.8802 119.358 46.8878 119.328C46.8955 119.297 46.8969 119.266 46.8922 119.235C46.8826 119.172 46.8492 119.116 46.7989 119.077C46.7486 119.039 46.6853 119.021 46.6222 119.028C45.8662 119.129 45.0972 119.064 44.3688 118.838C43.6404 118.613 42.9702 118.231 42.4048 117.72C42.359 117.675 42.2976 117.651 42.2338 117.651C42.1699 117.651 42.1085 117.675 42.0627 117.72C42.0402 117.742 42.0224 117.768 42.0102 117.797C41.9981 117.826 41.9918 117.857 41.9918 117.888C41.9918 117.919 41.9981 117.951 42.0102 117.979C42.0224 118.008 42.0402 118.035 42.0627 118.056C43.1178 119.016 44.4911 119.552 45.9185 119.562Z" fill="black"/>
<path d="M42.7752 111.629C42.4227 111.597 42.1947 110.949 42.266 110.182C42.3373 109.415 42.6809 108.82 43.0334 108.852C43.3859 108.885 43.6139 109.533 43.5426 110.3C43.4713 111.067 43.1277 111.662 42.7752 111.629Z" fill="black"/>
<path d="M43.9279 107.135C43.4022 106.948 42.835 106.91 42.289 107.025C41.7429 107.139 41.2392 107.402 40.8335 107.784" fill="#FEC310"/>
<path d="M40.8528 108.044C40.9094 108.043 40.9638 108.023 41.007 107.986C41.3803 107.629 41.8463 107.384 42.3524 107.277C42.8584 107.171 43.3842 107.209 43.87 107.385C43.9001 107.396 43.9319 107.4 43.9637 107.398C43.9954 107.396 44.0265 107.388 44.0552 107.375C44.0838 107.361 44.1094 107.341 44.1306 107.318C44.1517 107.294 44.168 107.266 44.1785 107.236C44.1889 107.206 44.1933 107.174 44.1915 107.143C44.1896 107.111 44.1815 107.08 44.1677 107.051C44.1538 107.023 44.1344 106.997 44.1106 106.976C44.0869 106.955 44.0591 106.939 44.029 106.928C43.4642 106.726 42.8545 106.684 42.2669 106.805C41.6794 106.926 41.1367 107.207 40.6986 107.616C40.6595 107.647 40.6311 107.69 40.6174 107.738C40.6038 107.787 40.6056 107.838 40.6226 107.885C40.6396 107.932 40.6709 107.973 40.7122 108.001C40.7534 108.03 40.8026 108.045 40.8528 108.044Z" fill="black"/>
<path d="M34.9727 95.4157C40.3709 95.0886 45.5764 98.782 46.0583 103.678C42.805 101.326 42.7374 105.327 38.1972 105.12C35.3052 108.381 38.7177 122.789 41.547 127.468C34.7606 124.871 28.4418 128.43 24.2486 123.827C24.3498 115.883 18.6913 96.3967 34.9727 95.4157Z" fill="black"/>
<path d="M41.5566 127.703C41.5924 127.704 41.6278 127.696 41.6603 127.681C41.6929 127.666 41.7216 127.644 41.7445 127.617C41.7729 127.576 41.7881 127.527 41.7881 127.477C41.7881 127.428 41.7729 127.379 41.7445 127.338C40.3468 125.03 38.79 120.249 37.9562 115.715C36.9922 110.569 37.1368 106.813 38.2983 105.361C39.8259 105.416 41.3215 104.916 42.5061 103.952C43.5809 103.201 44.2942 102.706 45.904 103.87C45.9415 103.897 45.9859 103.912 46.032 103.915C46.0781 103.917 46.1239 103.906 46.164 103.884C46.2041 103.861 46.2368 103.827 46.2582 103.786C46.2796 103.745 46.2889 103.699 46.2848 103.654C45.8028 98.7147 40.6167 94.8386 34.9389 95.1752C31.1409 95.4061 28.2297 96.6708 26.2632 98.9407C22.176 103.711 22.9665 111.848 23.6027 118.384C23.8099 120.509 23.9883 122.351 23.9738 123.818C23.9728 123.848 23.9779 123.878 23.9887 123.906C23.9994 123.934 24.0157 123.959 24.0365 123.981C26.4946 126.679 29.7142 126.655 33.1363 126.626C35.792 126.626 38.5442 126.588 41.4312 127.689C41.4708 127.705 41.5143 127.711 41.5566 127.703ZM38.2068 104.875C38.1731 104.876 38.1399 104.884 38.1092 104.898C38.0786 104.912 38.0511 104.932 38.0285 104.957C36.2162 107.005 36.9199 112.651 37.5031 115.801C38.2839 120.047 39.6961 124.515 41.0312 127.02C38.2743 126.107 35.5751 126.126 33.1749 126.145C29.7576 126.174 26.803 126.193 24.4992 123.741C24.4992 122.264 24.3305 120.447 24.1281 118.35C23.5015 111.906 22.7207 103.884 26.6729 99.2677C28.5286 97.0988 31.3241 95.9014 34.9871 95.6705C40.207 95.358 45.0124 98.7579 45.7595 103.197C44.1545 102.235 43.2676 102.865 42.2506 103.577C41.1203 104.503 39.6819 104.972 38.2213 104.889L38.2068 104.875Z" fill="black"/>
<path d="M19.7132 104.442C16.1303 104.442 13.2258 101.544 13.2258 97.9693C13.2258 94.3944 16.1303 91.4963 19.7132 91.4963C23.2961 91.4963 26.2007 94.3944 26.2007 97.9693C26.2007 101.544 23.2961 104.442 19.7132 104.442Z" fill="black"/>
<path d="M19.713 104.687C20.2111 104.688 20.7076 104.632 21.1927 104.519C22.8644 104.138 24.3264 103.132 25.2783 101.709C26.2302 100.286 26.5998 98.5531 26.3111 96.8665C26.0225 95.1799 25.0975 93.6676 23.7263 92.6403C22.355 91.6129 20.6415 91.1484 18.9376 91.3422C17.2338 91.536 15.6691 92.3734 14.5648 93.6824C13.4604 94.9914 12.9003 96.6726 12.9996 98.3807C13.0988 100.089 13.8499 101.694 15.0984 102.867C16.3469 104.04 17.9982 104.691 19.713 104.687ZM19.713 91.7367C21.3149 91.7347 22.8568 92.3449 24.0217 93.4419C25.1867 94.5389 25.8863 96.0394 25.9769 97.6351C26.0674 99.2308 25.542 100.801 24.5085 102.022C23.4751 103.243 22.0121 104.023 20.4202 104.201C18.8283 104.379 17.2284 103.943 15.9493 102.981C14.6701 102.019 13.8089 100.604 13.5425 99.0281C13.2761 97.4521 13.6248 95.8341 14.517 94.5067C15.4091 93.1792 16.7769 92.2431 18.3394 91.8906C18.7904 91.791 19.2512 91.7426 19.713 91.7463V91.7367Z" fill="black"/>
<path d="M57.2597 139.836C65.6655 148.536 74.0038 160.515 79.9611 159.664L107.328 154.066L109.613 170.056L58.7683 177.404L57.2597 139.836Z" fill="black"/>
<path d="M58.7683 177.65H58.802L109.646 170.306C109.709 170.296 109.765 170.261 109.803 170.21C109.841 170.159 109.857 170.095 109.849 170.032L107.569 154.042C107.564 154.01 107.553 153.978 107.535 153.95C107.518 153.922 107.495 153.898 107.468 153.879C107.441 153.86 107.41 153.846 107.378 153.84C107.346 153.833 107.312 153.833 107.28 153.84L79.9129 159.438C75.5751 160.054 69.7913 153.475 63.6508 146.521C61.6217 144.222 59.525 141.842 57.438 139.678C57.4035 139.643 57.3593 139.62 57.3112 139.61C57.2631 139.601 57.2133 139.606 57.1681 139.625C57.123 139.644 57.0849 139.676 57.059 139.717C57.0331 139.759 57.0208 139.807 57.0235 139.856L58.5273 177.424C58.529 177.457 58.5375 177.49 58.5525 177.519C58.5674 177.549 58.5884 177.576 58.6141 177.597C58.6571 177.633 58.7121 177.652 58.7683 177.65ZM109.338 169.859L58.9997 177.13L57.5537 140.466C59.4817 142.496 61.4096 144.698 63.3375 146.834C69.5551 153.888 75.4305 160.554 80.0431 159.909L107.174 154.355L109.338 169.859Z" fill="black"/>
<path d="M45.7451 208.307C45.7451 208.307 24.0077 159.212 24.0077 148.07C24.0077 135.455 34.5872 127.246 50.1649 134.604C66.8174 142.438 85.7498 187.172 85.7498 187.172L45.7451 208.307Z" fill="#12584F"/>
<path d="M45.7452 208.548C45.784 208.548 45.8222 208.538 45.856 208.519L85.8606 187.359C85.9134 187.331 85.9541 187.285 85.9745 187.229C85.995 187.173 85.9939 187.111 85.9715 187.056C85.9233 186.941 81.1516 175.721 74.4039 163.684C65.3329 147.497 57.2115 137.634 50.2565 134.349C42.752 130.82 35.826 130.642 30.7555 133.869C26.3068 136.682 23.7571 141.861 23.7571 148.079C23.7571 152.729 27.4201 164.3 34.6402 182.464C40.0192 195.982 45.4608 208.293 45.5138 208.432C45.5275 208.463 45.5475 208.49 45.5724 208.512C45.5973 208.535 45.6266 208.552 45.6584 208.562C45.688 208.564 45.7177 208.559 45.7452 208.548ZM85.4413 187.037L45.856 207.975C44.2221 204.263 24.2439 158.64 24.2439 148.07C24.2439 142.02 26.7116 137.009 30.9916 134.263C35.9175 131.147 42.6798 131.334 50.0348 134.797C56.7826 137.98 65.0727 148.05 73.9605 163.915C80.2214 175.038 84.7665 185.469 85.4413 187.037Z" fill="black"/>
<path d="M125.215 160.381C128.044 158.351 130.878 159.52 134.661 158.515C138.387 157.87 137.476 153.84 140.855 153.903L150.013 154.951C151.169 155.105 152.003 153.797 150.909 152.725L153.705 153.686C154.861 154.052 155.517 152.893 154.452 152.099C149.087 148.796 144.05 145.545 139.409 145.708C133.225 145.973 113.782 153.004 105.492 155.932L103.872 173.62L125.215 160.381Z" fill="#FEC310"/>
<path d="M103.863 173.87C103.909 173.87 103.954 173.856 103.993 173.831L125.34 160.583C126.979 159.409 128.613 159.347 130.507 159.27C131.921 159.263 133.33 159.09 134.705 158.755C136.633 158.423 137.399 157.187 138.079 156.101C138.758 155.014 139.293 154.134 140.845 154.177L149.964 155.187C150.27 155.233 150.582 155.182 150.857 155.041C151.132 154.901 151.356 154.677 151.497 154.403C151.587 154.215 151.634 154.008 151.634 153.799C151.634 153.591 151.587 153.384 151.497 153.196L153.594 153.922C153.859 154.039 154.157 154.054 154.433 153.965C154.708 153.877 154.941 153.69 155.088 153.441C155.286 153.061 155.266 152.431 154.563 151.907L153.835 151.46C148.716 148.296 143.877 145.319 139.375 145.468C133.558 145.718 116.361 151.816 107.126 155.086L105.386 155.701C105.343 155.717 105.305 155.744 105.277 155.779C105.249 155.815 105.231 155.858 105.227 155.903L103.612 173.591C103.609 173.624 103.614 173.657 103.624 173.688C103.635 173.72 103.652 173.749 103.674 173.773C103.696 173.798 103.722 173.818 103.752 173.832C103.783 173.846 103.815 173.854 103.848 173.855L103.863 173.87ZM125.07 160.179L104.137 173.163L105.699 156.11L107.29 155.548C116.505 152.282 133.654 146.199 139.399 145.954C143.776 145.776 148.557 148.748 153.594 151.873L154.302 152.34C154.664 152.609 154.813 152.975 154.669 153.254C154.57 153.397 154.424 153.5 154.255 153.543C154.087 153.586 153.908 153.567 153.753 153.489L150.962 152.527C150.91 152.509 150.854 152.51 150.802 152.528C150.75 152.546 150.707 152.582 150.678 152.628C150.65 152.675 150.638 152.729 150.644 152.783C150.65 152.837 150.674 152.888 150.712 152.927C150.903 153.075 151.042 153.281 151.105 153.515C151.169 153.748 151.154 153.996 151.063 154.22C150.97 154.408 150.818 154.561 150.63 154.654C150.442 154.748 150.229 154.778 150.022 154.74L140.865 153.691C138.999 153.662 138.315 154.783 137.65 155.865C136.985 156.947 136.344 158.005 134.599 158.308C133.25 158.627 131.869 158.789 130.483 158.789C128.617 158.856 126.829 158.923 125.08 160.179H125.07Z" fill="black"/>
<path d="M151.232 153.095C151.279 153.094 151.324 153.08 151.364 153.054C151.403 153.029 151.434 152.993 151.454 152.951C151.466 152.922 151.473 152.89 151.474 152.859C151.475 152.827 151.469 152.795 151.457 152.766C151.446 152.736 151.428 152.71 151.406 152.687C151.384 152.664 151.358 152.646 151.328 152.633C148.625 151.413 145.734 150.658 142.778 150.402C142.714 150.398 142.652 150.419 142.603 150.46C142.554 150.501 142.524 150.56 142.518 150.623C142.515 150.655 142.519 150.686 142.528 150.717C142.538 150.747 142.554 150.775 142.574 150.799C142.595 150.823 142.62 150.843 142.649 150.857C142.677 150.872 142.708 150.88 142.739 150.883C145.642 151.134 148.481 151.874 151.136 153.071C151.166 153.086 151.199 153.094 151.232 153.095Z" fill="black"/>
<path d="M42.5254 134.874C51.6831 139.567 56.8693 144.973 65.6896 156.995C69.8925 162.492 76.4571 165.118 81.9083 163.372L115.262 151.167L124.26 171.316L89.0224 186.345C73.999 193.361 55.7655 190.586 45.7403 180.03C36.5392 168.301 25.7042 161.963 24.0028 151.585C22.1761 138.509 29.8299 129.411 42.5254 134.874Z" fill="#12584F"/>
<path d="M71.4492 190.466C77.5575 190.47 83.5924 189.137 89.1284 186.561L124.361 171.538C124.419 171.509 124.465 171.462 124.491 171.403C124.516 171.343 124.516 171.275 124.491 171.215L115.493 151.066C115.467 151.01 115.422 150.967 115.366 150.943C115.309 150.92 115.246 150.919 115.189 150.941L81.8311 163.151C76.4859 164.863 70.0756 162.333 65.8871 156.856C55.5631 142.765 50.3721 138.62 42.641 134.657C37.1995 132.315 32.2544 132.512 28.7118 135.205C24.6246 138.312 22.7833 144.453 23.7859 151.623C24.9137 158.481 29.9939 163.612 35.8789 169.551C39.319 172.901 42.5572 176.452 45.5764 180.184C51.9337 186.902 61.4914 190.466 71.4492 190.466ZM123.937 171.191L88.9211 186.099C74.0326 193.053 55.9438 190.427 45.9089 179.848C42.892 176.113 39.6554 172.561 36.2162 169.21C30.3891 163.329 25.3619 158.25 24.2582 151.546C23.2942 144.554 25.0535 138.562 29.001 135.581C32.3748 132.998 37.1947 132.825 42.4338 135.1C51.9096 139.957 57.2114 145.829 65.5112 157.154C69.849 162.8 76.4474 165.392 81.995 163.612L115.151 151.479L123.937 171.191Z" fill="black"/>
<path d="M81.4746 188.999C75.5462 182.42 56.2814 177.308 45.7452 180.03C50.8012 184.637 56.05 187.936 61.6217 188.999C68.0273 190.812 74.6979 190.37 81.4746 188.999Z" fill="#FEC310"/>
<path d="M70.7166 190.432C74.3496 190.393 77.9696 189.991 81.5227 189.235C81.5647 189.227 81.604 189.209 81.6363 189.181C81.6685 189.153 81.6926 189.117 81.7059 189.076C81.7193 189.036 81.7214 188.993 81.712 188.951C81.7027 188.909 81.6822 188.871 81.6529 188.84C75.5172 182.026 56.0161 177.13 45.6872 179.799C45.6454 179.81 45.6072 179.832 45.5767 179.862C45.5462 179.893 45.5244 179.931 45.5137 179.973C45.5022 180.014 45.5024 180.058 45.5143 180.1C45.5262 180.141 45.5494 180.179 45.5812 180.208C51.1722 185.301 56.4017 188.249 61.5734 189.235C64.5511 190.053 67.6281 190.456 70.7166 190.432ZM81.0022 188.85C73.3627 190.346 67.2174 190.322 61.6842 188.768C56.6861 187.806 51.6397 184.998 46.2607 180.16C56.3872 177.828 74.7412 182.396 81.0022 188.85Z" fill="black"/>
<path d="M89.7378 174.432C87.0918 174.432 84.9468 172.292 84.9468 169.652C84.9468 167.012 87.0918 164.872 89.7378 164.872C92.3837 164.872 94.5287 167.012 94.5287 169.652C94.5287 172.292 92.3837 174.432 89.7378 174.432Z" fill="#FEC310"/>
<path d="M89.7377 174.668C90.7333 174.669 91.7068 174.375 92.535 173.824C93.3633 173.273 94.009 172.489 94.3904 171.571C94.7719 170.653 94.872 169.643 94.678 168.669C94.484 167.695 94.0046 166.8 93.3006 166.097C92.5966 165.395 91.6996 164.917 90.723 164.723C89.7465 164.529 88.7343 164.629 87.8146 165.01C86.895 165.391 86.1092 166.035 85.5566 166.861C85.0041 167.688 84.7096 168.659 84.7106 169.652C84.7131 170.982 85.2436 172.256 86.1858 173.196C87.128 174.136 88.4052 174.666 89.7377 174.668ZM89.7377 165.113C90.6378 165.112 91.5179 165.377 92.2668 165.875C93.0157 166.374 93.5996 167.082 93.9447 167.912C94.2898 168.741 94.3806 169.654 94.2056 170.535C94.0306 171.416 93.5976 172.225 92.9615 172.861C92.3254 173.496 91.5147 173.929 90.6319 174.104C89.7492 174.28 88.8341 174.19 88.0024 173.847C87.1708 173.503 86.4599 172.922 85.9597 172.175C85.4596 171.428 85.1926 170.55 85.1926 169.652C85.1926 168.449 85.6712 167.295 86.5235 166.444C87.3757 165.593 88.5318 165.114 89.7377 165.113Z" fill="black"/>
<path d="M181.085 144.924L181.49 145.933C181.836 146.793 181.417 147.77 180.555 148.115L132.979 167.15C132.116 167.495 131.137 167.077 130.791 166.217L130.386 165.208C130.04 164.347 130.459 163.37 131.321 163.025L178.898 143.991C179.76 143.646 180.739 144.064 181.085 144.924Z" fill="#F6F2E9"/>
<path d="M132.377 167.474C132.623 167.476 132.867 167.428 133.095 167.334L180.667 148.305C181.14 148.115 181.518 147.745 181.718 147.278C181.919 146.81 181.925 146.282 181.737 145.809L181.332 144.804C181.141 144.332 180.771 143.955 180.302 143.755C179.833 143.555 179.304 143.548 178.83 143.737L131.258 162.766C130.784 162.956 130.405 163.326 130.205 163.795C130.004 164.264 129.998 164.793 130.189 165.267L130.593 166.267C130.782 166.74 131.152 167.118 131.62 167.32C131.86 167.42 132.117 167.472 132.377 167.474ZM179.544 144.078C179.833 144.077 180.115 144.163 180.355 144.324C180.595 144.485 180.78 144.715 180.888 144.982L181.288 145.987C181.43 146.341 181.425 146.737 181.275 147.087C181.125 147.438 180.842 147.715 180.488 147.858L132.917 166.887C132.563 167.033 132.166 167.033 131.813 166.887C131.638 166.814 131.479 166.707 131.347 166.571C131.214 166.436 131.11 166.275 131.042 166.098L130.637 165.093C130.495 164.739 130.5 164.344 130.65 163.993C130.8 163.643 131.083 163.366 131.437 163.223L179.009 144.165C179.18 144.102 179.361 144.072 179.544 144.078Z" fill="black"/>
<path d="M174.854 99.9217C174.847 99.7682 174.872 99.615 174.929 99.4721C174.985 99.3292 175.071 99.1999 175.182 99.0927C175.292 98.9854 175.424 98.9027 175.568 98.85C175.713 98.7972 175.867 98.7757 176.021 98.7867L176.363 98.8108C176.628 98.8292 176.878 98.9441 177.064 99.1338C177.251 99.3234 177.361 99.5746 177.375 99.8399L179.52 143.703L177.047 144.694L174.854 99.9217Z" fill="#F6F2E9"/>
<path d="M176.821 145.059L179.77 143.876V143.708L177.625 99.8448C177.609 99.5209 177.474 99.2142 177.247 98.9822C177.02 98.7503 176.716 98.6089 176.392 98.5848L176.049 98.5607C175.861 98.5459 175.672 98.5717 175.495 98.6364C175.318 98.7012 175.157 98.8033 175.023 98.9359C174.889 99.0667 174.784 99.2243 174.715 99.3983C174.646 99.5723 174.615 99.7588 174.623 99.9457L176.821 145.059ZM179.274 143.559L177.269 144.362L175.095 99.9265C175.09 99.8065 175.109 99.6866 175.153 99.5748C175.197 99.4629 175.265 99.3616 175.351 99.2773C175.436 99.1932 175.539 99.1286 175.652 99.0879C175.766 99.0472 175.886 99.0314 176.006 99.0417L176.348 99.0657C176.554 99.0817 176.748 99.172 176.892 99.3198C177.037 99.4675 177.123 99.6627 177.134 99.8688L179.274 143.559Z" fill="black"/>
<path d="M150.136 327.204L134.255 322.798L140.597 300.039L156.479 304.445L150.136 327.204Z" fill="#FEC310"/>
<path d="M150.326 327.571L156.799 304.348L140.455 299.813L133.982 323.031L150.326 327.571ZM156.206 304.685L149.993 326.979L134.57 322.699L140.807 300.405L156.206 304.685Z" fill="black"/>
<path d="M150.132 327.209L134.251 322.803L138.972 305.864L154.853 310.27L150.132 327.209Z" fill="#F6F2E9"/>
<path d="M150.326 327.571L155.179 310.172L138.831 305.632L133.982 323.031L150.326 327.571ZM154.582 310.504L149.993 326.979L134.57 322.699L139.168 306.228L154.582 310.504Z" fill="black"/>
<path d="M135.086 315.563L128.931 337.636L172.415 349.707L173.447 346.004C173.812 344.66 173.905 343.257 173.723 341.876C173.54 340.496 173.084 339.165 172.382 337.962C171.68 336.758 170.745 335.706 169.632 334.866C168.519 334.026 167.25 333.414 165.899 333.067L157.445 330.495C154.071 329.49 153.044 325.873 153.338 323.238L137.095 318.732C136.266 318.429 137.322 316.183 135.086 315.563Z" fill="#12584F"/>
<path d="M172.584 349.99L173.678 346.057C174.052 344.682 174.148 343.248 173.962 341.836C173.776 340.424 173.311 339.063 172.594 337.832C171.876 336.601 170.921 335.524 169.783 334.664C168.646 333.804 167.348 333.178 165.966 332.822L157.517 330.259C154.379 329.297 153.28 325.974 153.584 323.257V323.05L137.148 318.491C137.004 318.438 136.961 318.16 136.907 317.712C136.821 316.928 136.686 315.75 135.139 315.308L134.902 315.245L128.637 337.785L172.584 349.99ZM153.078 323.406C152.832 326.292 154.042 329.725 157.373 330.716L165.827 333.284C167.215 333.65 168.514 334.297 169.641 335.186C170.768 336.074 171.699 337.185 172.377 338.449C173.594 340.753 173.894 343.431 173.215 345.946L172.251 349.413L129.239 337.487L135.249 315.846C136.271 316.231 136.363 317.039 136.445 317.77C136.503 318.294 136.56 318.785 137.014 318.953L153.078 323.406Z" fill="black"/>
<path d="M172.389 349.637L128.906 337.573L129.939 333.866L173.422 345.931L172.389 349.637Z" fill="#2B7066"/>
<path d="M172.584 349.99L173.745 345.821L173.514 345.754L129.798 333.625L128.637 337.795L172.584 349.99ZM173.153 346.143L172.247 349.389L129.239 337.487L130.14 334.246L173.153 346.143Z" fill="black"/>
<path d="M153.338 323.238L154.924 317.549C150.586 316.337 147.121 317.409 146.181 320.78L146.06 321.218L153.338 323.238Z" fill="black"/>
<path d="M153.338 323.478C153.38 323.478 153.421 323.468 153.459 323.449C153.514 323.416 153.553 323.362 153.57 323.3L155.155 317.611C155.164 317.581 155.167 317.549 155.163 317.518C155.159 317.487 155.149 317.456 155.133 317.429C155.117 317.402 155.096 317.378 155.071 317.359C155.046 317.34 155.017 317.326 154.987 317.318C150.355 316.034 146.894 317.318 145.95 320.718L145.829 321.156C145.82 321.186 145.818 321.218 145.822 321.249C145.825 321.28 145.835 321.31 145.851 321.338C145.867 321.365 145.888 321.389 145.913 321.408C145.938 321.427 145.967 321.441 145.998 321.449L153.276 323.469C153.296 323.476 153.317 323.48 153.338 323.478ZM154.625 317.707L153.179 322.935L146.369 321.04L146.422 320.838C147.275 317.77 150.34 316.597 154.625 317.717V317.707Z" fill="black"/>
<path d="M139.51 332.255C137.532 332.255 135.929 330.655 135.929 328.682C135.929 326.708 137.532 325.109 139.51 325.109C141.488 325.109 143.091 326.708 143.091 328.682C143.091 330.655 141.488 332.255 139.51 332.255Z" fill="#F6F2E9"/>
<path d="M139.505 332.49C140.34 332.49 141.152 332.217 141.816 331.713C142.481 331.21 142.963 330.503 143.188 329.701C143.391 328.974 143.373 328.204 143.138 327.487C142.902 326.77 142.458 326.139 141.863 325.674C141.268 325.209 140.547 324.93 139.793 324.874C139.039 324.817 138.286 324.985 137.627 325.356C136.969 325.726 136.435 326.284 136.094 326.957C135.754 327.631 135.621 328.39 135.712 329.139C135.804 329.888 136.116 330.593 136.609 331.164C137.103 331.736 137.755 332.149 138.484 332.351C138.816 332.444 139.16 332.491 139.505 332.49ZM142.725 329.571C142.548 330.207 142.187 330.775 141.686 331.205C141.185 331.635 140.568 331.908 139.912 331.988C139.257 332.068 138.592 331.952 138.002 331.655C137.412 331.358 136.924 330.893 136.599 330.319C136.273 329.746 136.126 329.088 136.176 328.431C136.225 327.774 136.469 327.146 136.876 326.626C137.283 326.107 137.835 325.72 138.463 325.514C139.091 325.308 139.765 325.293 140.402 325.469C141.254 325.707 141.977 326.272 142.413 327.041C142.848 327.81 142.96 328.72 142.725 329.571Z" fill="black"/>
<path d="M261.711 210.554L252.835 224.413L232.886 211.693L241.762 197.834L261.711 210.554Z" fill="#FEC310"/>
<path d="M252.839 224.744L261.997 210.481L241.638 197.497L232.48 211.765L252.839 224.744ZM261.303 210.625L252.685 224.09L233.14 211.63L241.758 198.165L261.303 210.625Z" fill="black"/>
<path d="M261.712 210.552L252.836 224.411L237.988 214.944L246.864 201.085L261.712 210.552Z" fill="#F6F2E9"/>
<path d="M252.839 224.744L261.997 210.481L246.742 200.757L237.584 215.021L252.839 224.744ZM261.303 210.625L252.685 224.09L238.225 214.886L246.843 201.421L261.303 210.625Z" fill="black"/>
<path d="M246 221.503L265.351 233.838L289.653 195.89L286.409 193.823C285.228 193.081 283.911 192.58 282.534 192.35C281.157 192.12 279.748 192.165 278.389 192.483C277.03 192.801 275.748 193.384 274.617 194.2C273.486 195.017 272.528 196.049 271.8 197.237L266.86 204.547C264.932 207.466 261.144 207.394 258.705 206.34L249.629 220.513C249.094 221.219 247.248 219.551 246 221.503Z" fill="#12584F"/>
<path d="M265.428 234.17L265.559 233.968L289.985 195.818L286.539 193.621C285.331 192.862 283.984 192.349 282.577 192.114C281.169 191.878 279.728 191.924 278.338 192.248C276.948 192.573 275.637 193.169 274.48 194.003C273.323 194.837 272.343 195.892 271.598 197.107L266.662 204.417C264.845 207.134 261.312 207.201 258.801 206.119L258.613 206.037L249.427 220.383C249.33 220.508 249.055 220.464 248.607 220.383C247.836 220.238 246.679 220.022 245.797 221.373L245.667 221.575L265.428 234.17ZM289.32 195.962L265.279 233.506L246.342 221.436C247.007 220.575 247.788 220.724 248.52 220.854C249.036 220.95 249.528 221.041 249.817 220.657L258.796 206.638C261.476 207.716 265.139 207.562 267.062 204.681L271.998 197.372C272.707 196.208 273.642 195.196 274.746 194.395C275.851 193.595 277.104 193.021 278.433 192.708C279.762 192.395 281.139 192.348 282.486 192.571C283.833 192.794 285.122 193.281 286.279 194.005L289.32 195.962Z" fill="black"/>
<path d="M289.727 195.89L265.424 233.835L262.175 231.764L286.478 193.818L289.727 195.89Z" fill="#2B7066"/>
<path d="M265.428 234.17L265.559 233.968L289.985 195.818L286.332 193.486L286.202 193.688L261.77 231.842L265.428 234.17ZM289.32 195.962L265.279 233.506L262.435 231.693L286.477 194.149L289.32 195.962Z" fill="black"/>
<path d="M258.705 206.34L253.716 203.157C251.277 206.966 251.306 210.563 254.256 212.448L254.637 212.688L258.705 206.34Z" fill="black"/>
<path d="M254.637 212.934H254.69C254.721 212.927 254.75 212.915 254.776 212.896C254.801 212.878 254.823 212.855 254.839 212.828L258.907 206.48C258.942 206.426 258.953 206.361 258.94 206.299C258.926 206.237 258.888 206.183 258.835 206.148L253.846 202.964C253.793 202.93 253.727 202.918 253.665 202.932C253.603 202.945 253.548 202.983 253.514 203.037C250.925 207.081 251.157 210.769 254.126 212.655L254.507 212.9C254.546 212.923 254.591 212.934 254.637 212.934ZM258.372 206.417L254.564 212.361L254.386 212.251C251.677 210.524 251.46 207.259 253.788 203.498L258.372 206.417Z" fill="black"/>
<path d="M259.866 224.696C257.888 224.696 256.285 223.097 256.285 221.123C256.285 219.15 257.888 217.55 259.866 217.55C261.844 217.55 263.447 219.15 263.447 221.123C263.447 223.097 261.844 224.696 259.866 224.696Z" fill="#F6F2E9"/>
<path d="M259.857 224.956C260.135 224.956 260.413 224.927 260.686 224.87C261.65 224.662 262.498 224.093 263.055 223.281C263.612 222.468 263.835 221.474 263.68 220.502C263.524 219.53 263.001 218.655 262.218 218.056C261.435 217.457 260.452 217.18 259.471 217.283C258.49 217.385 257.585 217.859 256.943 218.606C256.302 219.354 255.972 220.319 256.021 221.302C256.071 222.285 256.496 223.211 257.209 223.891C257.923 224.571 258.87 224.952 259.857 224.956ZM259.857 217.815C260.706 217.819 261.521 218.147 262.135 218.732C262.749 219.318 263.114 220.115 263.157 220.961C263.2 221.807 262.916 222.638 262.365 223.281C261.813 223.925 261.035 224.334 260.19 224.423C259.346 224.512 258.5 224.276 257.825 223.761C257.15 223.247 256.698 222.495 256.562 221.658C256.427 220.822 256.617 219.966 257.094 219.265C257.571 218.565 258.3 218.073 259.129 217.892C259.367 217.833 259.611 217.801 259.857 217.795V217.815Z" fill="black"/>
<path d="M98.8741 225.23L177.187 185.859L233.01 213.828L243.556 197.126L194.876 164.151C177.192 152.854 169.359 151.619 156.365 157.625L79.9659 190.211L98.8741 225.23Z" fill="#2157A7"/>
<path d="M98.8742 225.471C98.913 225.471 98.9512 225.461 98.985 225.442L177.187 186.128L232.899 214.02C232.953 214.048 233.015 214.054 233.073 214.038C233.131 214.022 233.181 213.985 233.213 213.934L243.758 197.227C243.792 197.175 243.803 197.111 243.791 197.05C243.778 196.989 243.742 196.935 243.691 196.9L195.011 163.93C177.37 152.657 169.403 151.311 156.264 157.385L79.8695 189.966C79.8388 189.978 79.8112 189.997 79.7887 190.021C79.7662 190.045 79.7493 190.074 79.7394 190.105C79.7252 190.136 79.7177 190.17 79.7177 190.204C79.7177 190.238 79.7252 190.271 79.7394 190.302L98.6525 225.317C98.6708 225.361 98.7015 225.399 98.7408 225.426C98.7801 225.453 98.8263 225.469 98.8742 225.471ZM177.187 185.623C177.152 185.614 177.116 185.614 177.081 185.623L98.9995 224.884L80.2985 190.331L156.452 157.851C169.412 151.864 177.283 153.206 194.741 164.363L243.228 197.198L232.923 213.52L177.298 185.628C177.262 185.617 177.224 185.616 177.187 185.623Z" fill="black"/>
<path d="M81.4746 188.999L109.521 177.409L150.495 199.281L114.143 217.555L81.4746 188.999Z" fill="black"/>
<path d="M114.143 217.795C114.18 217.794 114.216 217.786 114.249 217.771L150.601 199.497C150.639 199.476 150.672 199.446 150.696 199.409C150.72 199.372 150.733 199.329 150.736 199.286C150.736 199.241 150.724 199.197 150.701 199.159C150.678 199.121 150.645 199.09 150.605 199.069L109.637 177.198C109.604 177.182 109.569 177.174 109.533 177.174C109.497 177.174 109.462 177.182 109.43 177.198L81.3878 188.787C81.3499 188.803 81.3167 188.828 81.2913 188.86C81.266 188.892 81.2494 188.93 81.2433 188.97C81.2362 189.011 81.2395 189.052 81.253 189.091C81.2665 189.13 81.2897 189.164 81.3203 189.191L113.984 217.743C114.029 217.779 114.086 217.797 114.143 217.795ZM149.964 199.276L114.172 217.266L81.9228 189.071L109.502 177.674L149.964 199.276Z" fill="black"/>
<path d="M85.7498 187.148L45.7452 208.307C47.8129 225.192 57.5152 233.699 77.0741 233.795H151.545L138.797 301.814L157.594 307.104L182.874 233.314C188.562 216.963 181.544 209.356 162.149 204.941L85.7498 187.148Z" fill="#2157A7"/>
<path d="M157.594 307.344C157.645 307.344 157.694 307.329 157.735 307.301C157.776 307.272 157.808 307.232 157.826 307.185L183.101 233.391C185.607 226.178 185.66 220.58 183.25 216.247C180.325 210.957 173.611 207.312 162.202 204.705L85.803 186.912C85.7473 186.898 85.6884 186.907 85.6391 186.936L45.6345 208.096C45.5913 208.118 45.5559 208.153 45.5327 208.196C45.5095 208.239 45.4997 208.288 45.5043 208.336C47.6443 225.774 57.6744 233.939 77.0742 234.035H151.251L138.561 301.77C138.549 301.829 138.561 301.891 138.593 301.942C138.625 301.993 138.676 302.03 138.734 302.044L157.532 307.334C157.552 307.342 157.573 307.345 157.594 307.344ZM85.7788 187.402L162.086 205.196C173.379 207.764 179.968 211.356 182.812 216.502C185.149 220.71 185.087 226.187 182.624 233.256L157.421 306.834L139.057 301.669L151.762 233.862C151.769 233.828 151.767 233.792 151.758 233.758C151.75 233.724 151.733 233.692 151.711 233.665C151.688 233.638 151.66 233.617 151.628 233.602C151.596 233.587 151.561 233.579 151.526 233.579H77.0549C58.007 233.482 48.136 225.504 45.9863 208.466L85.7788 187.402Z" fill="black"/>
<path d="M151.232 294.466C151.282 294.466 151.33 294.451 151.371 294.423C151.412 294.394 151.442 294.354 151.459 294.307C152.12 292.505 152.774 290.695 153.42 288.877C153.432 288.848 153.437 288.816 153.436 288.785C153.435 288.753 153.427 288.722 153.414 288.693C153.4 288.664 153.381 288.638 153.357 288.617C153.333 288.596 153.306 288.58 153.276 288.57C153.216 288.548 153.149 288.551 153.091 288.578C153.034 288.605 152.989 288.654 152.967 288.714C152.324 290.525 151.671 292.335 151.005 294.143C150.984 294.203 150.987 294.269 151.014 294.327C151.041 294.385 151.09 294.429 151.15 294.451C151.176 294.461 151.204 294.465 151.232 294.466ZM155.122 283.588C155.171 283.588 155.219 283.572 155.26 283.544C155.3 283.516 155.331 283.475 155.348 283.429C155.991 281.601 156.617 279.78 157.228 277.966C157.238 277.936 157.243 277.905 157.241 277.873C157.239 277.842 157.231 277.811 157.217 277.783C157.203 277.755 157.184 277.729 157.16 277.709C157.136 277.688 157.108 277.673 157.078 277.663C157.048 277.652 157.017 277.648 156.985 277.649C156.953 277.651 156.922 277.659 156.893 277.673C156.864 277.687 156.839 277.706 156.818 277.73C156.796 277.754 156.78 277.782 156.77 277.812C156.159 279.62 155.534 281.44 154.895 283.27C154.875 283.33 154.88 283.396 154.908 283.452C154.935 283.509 154.985 283.552 155.044 283.573C155.069 283.583 155.095 283.587 155.122 283.588ZM158.814 272.647C158.865 272.647 158.915 272.631 158.957 272.601C158.999 272.571 159.029 272.528 159.045 272.479C159.657 270.555 160.24 268.728 160.78 266.972C160.799 266.909 160.792 266.84 160.761 266.781C160.729 266.723 160.675 266.679 160.611 266.66C160.547 266.641 160.479 266.648 160.42 266.679C160.361 266.711 160.317 266.764 160.298 266.828C159.763 268.583 159.18 270.435 158.568 272.334C158.548 272.395 158.553 272.461 158.582 272.518C158.611 272.575 158.661 272.618 158.722 272.637L158.814 272.647ZM162.187 261.586C162.24 261.587 162.291 261.571 162.333 261.539C162.375 261.508 162.405 261.464 162.419 261.413C162.963 259.49 163.465 257.604 163.913 255.83C163.921 255.799 163.923 255.767 163.918 255.736C163.914 255.705 163.903 255.675 163.887 255.647C163.871 255.62 163.85 255.596 163.824 255.577C163.799 255.558 163.77 255.544 163.739 255.537C163.709 255.529 163.677 255.527 163.646 255.531C163.615 255.536 163.585 255.546 163.558 255.563C163.532 255.579 163.508 255.6 163.49 255.625C163.471 255.651 163.458 255.679 163.45 255.71C163.002 257.484 162.486 259.36 161.956 261.283C161.947 261.313 161.945 261.345 161.948 261.376C161.952 261.407 161.961 261.437 161.976 261.464C161.992 261.492 162.012 261.516 162.037 261.535C162.062 261.554 162.09 261.568 162.12 261.577C162.138 261.588 162.157 261.596 162.178 261.601L162.187 261.586ZM164.997 250.391C165.052 250.39 165.105 250.37 165.147 250.335C165.189 250.3 165.218 250.252 165.229 250.199C165.653 248.208 166.014 246.294 166.294 244.514C166.3 244.483 166.299 244.451 166.292 244.42C166.285 244.389 166.272 244.36 166.253 244.334C166.235 244.308 166.212 244.286 166.185 244.269C166.158 244.252 166.128 244.241 166.096 244.235C166.033 244.227 165.968 244.243 165.916 244.281C165.864 244.318 165.829 244.374 165.817 244.437C165.537 246.212 165.181 248.116 164.756 250.098C164.745 250.161 164.758 250.226 164.793 250.279C164.828 250.333 164.882 250.371 164.944 250.386L164.997 250.391ZM166.747 238.984C166.808 238.984 166.866 238.961 166.911 238.92C166.956 238.879 166.983 238.823 166.988 238.763C167.089 237.464 167.137 236.228 167.137 235.079C167.137 234.353 167.137 233.636 167.08 232.963C167.074 232.9 167.044 232.842 166.996 232.8C166.949 232.758 166.887 232.736 166.824 232.737C166.792 232.739 166.761 232.747 166.733 232.761C166.704 232.775 166.679 232.794 166.658 232.818C166.637 232.841 166.621 232.869 166.61 232.899C166.6 232.929 166.596 232.96 166.598 232.992C166.636 233.66 166.655 234.363 166.655 235.079C166.655 236.214 166.607 237.44 166.511 238.729C166.508 238.76 166.512 238.792 166.522 238.822C166.532 238.852 166.547 238.879 166.568 238.903C166.589 238.927 166.614 238.946 166.642 238.96C166.67 238.974 166.701 238.982 166.733 238.984H166.747ZM165.677 227.625C165.72 227.624 165.762 227.611 165.798 227.587C165.825 227.571 165.849 227.55 165.869 227.525C165.888 227.5 165.902 227.471 165.91 227.441C165.917 227.41 165.919 227.378 165.913 227.347C165.908 227.316 165.897 227.286 165.879 227.26C165.075 225.923 163.619 224.61 161.542 223.359C161.515 223.343 161.485 223.331 161.453 223.326C161.422 223.321 161.39 223.322 161.359 223.329C161.328 223.336 161.299 223.349 161.273 223.368C161.248 223.386 161.226 223.41 161.209 223.436C161.176 223.491 161.166 223.556 161.18 223.618C161.195 223.68 161.233 223.734 161.286 223.768C163.282 224.98 164.66 226.24 165.451 227.51C165.471 227.549 165.503 227.582 165.541 227.605C165.579 227.627 165.623 227.639 165.667 227.639L165.677 227.625ZM156.249 221.253C156.313 221.265 156.379 221.252 156.433 221.215C156.487 221.178 156.524 221.122 156.536 221.058C156.548 220.995 156.535 220.929 156.498 220.875C156.461 220.821 156.405 220.784 156.341 220.772C154.736 220.109 152.9 219.44 150.89 218.791C150.858 218.781 150.825 218.778 150.792 218.781C150.759 218.784 150.727 218.793 150.697 218.809C150.668 218.824 150.642 218.845 150.621 218.87C150.6 218.896 150.584 218.925 150.574 218.957C150.564 218.988 150.561 219.022 150.564 219.055C150.567 219.087 150.576 219.119 150.592 219.149C150.607 219.178 150.628 219.204 150.654 219.225C150.679 219.246 150.709 219.262 150.74 219.272C152.736 219.916 154.562 220.58 156.158 221.239C156.18 221.253 156.204 221.263 156.23 221.268L156.249 221.253ZM145.265 217.632C145.318 217.632 145.369 217.614 145.411 217.582C145.453 217.55 145.483 217.505 145.496 217.454C145.505 217.424 145.508 217.392 145.504 217.361C145.5 217.329 145.49 217.299 145.474 217.272C145.459 217.244 145.437 217.22 145.412 217.201C145.387 217.182 145.358 217.168 145.328 217.161C143.583 216.68 141.694 216.199 139.713 215.718C139.651 215.705 139.586 215.716 139.532 215.749C139.478 215.782 139.439 215.835 139.423 215.896C139.409 215.958 139.42 216.023 139.453 216.077C139.486 216.131 139.54 216.17 139.602 216.184C141.578 216.665 143.458 217.146 145.202 217.627L145.265 217.632ZM134.016 214.91C134.07 214.91 134.124 214.892 134.167 214.858C134.21 214.824 134.24 214.776 134.252 214.722C134.259 214.692 134.26 214.66 134.254 214.629C134.249 214.598 134.237 214.569 134.22 214.542C134.203 214.516 134.181 214.493 134.155 214.475C134.129 214.457 134.099 214.445 134.069 214.439C132.271 214.049 130.362 213.65 128.396 213.261C128.332 213.248 128.265 213.261 128.211 213.297C128.157 213.333 128.119 213.389 128.106 213.453C128.094 213.517 128.107 213.583 128.143 213.637C128.179 213.691 128.235 213.729 128.299 213.741C130.266 214.131 132.155 214.53 133.963 214.915L134.016 214.91ZM122.665 212.64C122.696 212.643 122.728 212.64 122.759 212.63C122.789 212.621 122.817 212.605 122.842 212.585C122.866 212.565 122.886 212.54 122.901 212.512C122.916 212.484 122.925 212.453 122.928 212.421C122.93 212.39 122.927 212.358 122.917 212.328C122.908 212.297 122.893 212.269 122.872 212.245C122.852 212.221 122.827 212.201 122.799 212.186C122.771 212.171 122.74 212.162 122.708 212.159C120.838 211.808 118.934 211.467 117.011 211.125C116.948 211.115 116.883 211.131 116.831 211.167C116.779 211.204 116.743 211.26 116.732 211.323C116.726 211.354 116.727 211.386 116.734 211.417C116.741 211.448 116.754 211.477 116.772 211.503C116.791 211.529 116.814 211.551 116.841 211.568C116.868 211.585 116.898 211.596 116.929 211.601C118.857 211.938 120.755 212.281 122.621 212.631L122.665 212.64ZM111.266 210.625C111.33 210.63 111.393 210.61 111.442 210.568C111.491 210.527 111.521 210.468 111.526 210.404C111.531 210.34 111.511 210.277 111.469 210.228C111.428 210.18 111.368 210.149 111.304 210.144C109.415 209.824 107.511 209.503 105.593 209.183C105.53 209.173 105.466 209.188 105.415 209.225C105.364 209.262 105.329 209.317 105.318 209.38C105.313 209.411 105.314 209.442 105.321 209.473C105.328 209.504 105.341 209.533 105.359 209.558C105.377 209.584 105.401 209.605 105.428 209.622C105.455 209.638 105.485 209.649 105.516 209.654L111.227 210.616L111.266 210.625ZM99.8477 208.759C99.9116 208.764 99.9747 208.743 100.023 208.701C100.071 208.659 100.101 208.599 100.106 208.536C100.11 208.472 100.089 208.409 100.047 208.361C100.005 208.312 99.9454 208.283 99.8814 208.278L94.1651 207.374C94.102 207.366 94.0381 207.382 93.9869 207.42C93.9357 207.458 93.9011 207.514 93.8904 207.576C93.8856 207.608 93.8871 207.639 93.8946 207.67C93.9022 207.701 93.9158 207.73 93.9346 207.755C93.9534 207.781 93.977 207.802 94.0042 207.819C94.0313 207.835 94.0615 207.846 94.0928 207.85L99.8091 208.755L99.8477 208.759ZM88.4054 206.961C88.4371 206.963 88.4689 206.96 88.4991 206.95C88.5293 206.94 88.5573 206.924 88.5815 206.904C88.6056 206.883 88.6255 206.858 88.64 206.83C88.6544 206.802 88.6631 206.771 88.6657 206.74C88.6682 206.708 88.6645 206.676 88.6547 206.646C88.645 206.616 88.6293 206.588 88.6087 206.564C88.5881 206.54 88.563 206.52 88.5348 206.506C88.5065 206.491 88.4756 206.482 88.444 206.48L83.8025 205.754C83.7394 205.745 83.6755 205.762 83.6243 205.799C83.573 205.837 83.5384 205.893 83.5278 205.956C83.5223 205.987 83.523 206.018 83.5301 206.049C83.5371 206.08 83.5502 206.109 83.5686 206.134C83.587 206.16 83.6104 206.181 83.6373 206.198C83.6642 206.214 83.6941 206.225 83.7253 206.23L88.3668 206.956L88.4054 206.961Z" fill="#619DE5"/>
<path d="M54.2571 226.832L62.6435 219.459C68.9382 223.917 74.0039 229.765 74.0039 233.704C66.3934 232.915 59.1733 231.554 54.2571 226.832Z" fill="#619DE5"/>
<path d="M74.0039 233.944C74.0332 233.945 74.0624 233.939 74.0897 233.929C74.117 233.918 74.1419 233.902 74.1629 233.882C74.1888 233.86 74.2096 233.832 74.2237 233.802C74.2379 233.771 74.2451 233.737 74.2449 233.704C74.2449 229.342 68.49 223.307 62.7833 219.277C62.7407 219.243 62.6881 219.225 62.6339 219.225C62.5797 219.225 62.527 219.243 62.4844 219.277L54.0979 226.654C54.0738 226.676 54.0547 226.703 54.0416 226.733C54.0284 226.764 54.0217 226.796 54.0217 226.829C54.0217 226.862 54.0284 226.895 54.0416 226.925C54.0547 226.955 54.0738 226.982 54.0979 227.005C58.8262 231.544 65.4679 233.059 73.9846 233.944H74.0039ZM62.6628 219.767C69.1503 224.398 73.546 229.828 73.7484 233.439C65.5547 232.573 59.1732 231.092 54.6088 226.841L62.6628 219.767Z" fill="black"/>
</svg>
