<svg width="29" height="31" viewBox="0 0 29 31" fill="none" xmlns="http://www.w3.org/2000/svg">
<path d="M9.18748 14.4148C6.8498 15.2086 4.29574 15.1944 1.96783 14.3747C1.60481 14.2483 1.27867 14.0405 1.01666 13.7687C0.754643 13.4969 0.564372 13.169 0.461741 12.8124C-0.153914 10.606 -0.153914 8.28341 0.461741 6.07693C0.567315 5.66384 0.79099 5.28708 1.10768 4.98889C1.42438 4.69071 1.82156 4.4829 2.2547 4.38877C4.43902 3.88027 6.71758 3.87046 8.90658 4.36015C9.36333 4.46698 9.77703 4.7004 10.0959 5.03121C10.4149 5.36202 10.6248 5.77552 10.6995 6.22C11.1002 8.35845 11.1002 10.5481 10.6995 12.6865C10.6247 13.0751 10.4461 13.4384 10.1811 13.7413C9.91616 14.0441 9.57384 14.2761 9.18748 14.4148V14.4148Z" fill="#29DCB2"/>
<path d="M26.2159 14.4008C23.1077 15.4984 19.7117 15.4788 16.6165 14.3454C16.1338 14.1705 15.7001 13.8832 15.3518 13.5074C15.0034 13.1316 14.7504 12.6783 14.6139 12.1853C13.7954 9.13442 13.7954 5.92308 14.6139 2.87224C14.7543 2.30107 15.0517 1.78013 15.4728 1.36784C15.8939 0.955545 16.422 0.668212 16.9979 0.538058C19.9022 -0.165036 22.9319 -0.178588 25.8424 0.498496C26.4497 0.646203 26.9998 0.968944 27.4238 1.42634C27.8479 1.88374 28.127 2.45549 28.2264 3.07006C28.7591 6.02683 28.7591 9.0544 28.2264 12.0112C28.1269 12.5484 27.8894 13.0508 27.5371 13.4695C27.1848 13.8882 26.7296 14.2091 26.2159 14.4008V14.4008Z" fill="#9777FA"/>
<path d="M9.34318 27.4154C7.22033 28.2084 4.90098 28.1942 2.78699 27.3754C2.4561 27.248 2.15912 27.0387 1.9211 26.7652C1.68308 26.4916 1.51098 26.1618 1.41931 25.8035C0.86023 23.5996 0.86023 21.2798 1.41931 19.0759C1.51518 18.6633 1.7183 18.2869 2.00589 17.9891C2.29348 17.6913 2.65417 17.4837 3.0475 17.3897C5.03455 16.88 7.10765 16.8702 9.09895 17.3611C9.51373 17.4678 9.88942 17.7009 10.179 18.0314C10.4686 18.3618 10.6593 18.7748 10.7271 19.2188C11.091 21.3547 11.091 23.5418 10.7271 25.6778C10.6599 26.0692 10.4969 26.4354 10.2542 26.7401C10.0115 27.0448 9.69745 27.2776 9.34318 27.4154V27.4154Z" fill="#FC2E5E"/>
<path d="M24.8461 30.256C22.0864 31.2652 19.0713 31.2472 16.3231 30.2051C15.8929 30.043 15.5069 29.7766 15.1974 29.4284C14.888 29.0803 14.6643 28.6605 14.5451 28.2045C13.8183 25.3995 13.8183 22.447 14.5451 19.642C14.6697 19.1169 14.9338 18.6379 15.3077 18.2589C15.6815 17.8798 16.1504 17.6156 16.6618 17.496C19.2449 16.8472 21.9399 16.8347 24.5286 17.4596C25.0678 17.5954 25.5562 17.8921 25.9327 18.3127C26.3092 18.7332 26.5571 19.2589 26.6453 19.8239C27.1182 22.5424 27.1182 25.326 26.6453 28.0445C26.5579 28.5426 26.3459 29.0086 26.0304 29.3965C25.7149 29.7843 25.3067 30.0806 24.8461 30.256V30.256Z" fill="#FECA16"/>
</svg>
