<svg width="138" height="43" viewBox="0 0 138 43" fill="none" xmlns="http://www.w3.org/2000/svg">
<path d="M13.1875 19.4148C10.8498 20.2086 8.29574 20.1944 5.96783 19.3747C5.60481 19.2483 5.27867 19.0405 5.01666 18.7687C4.75464 18.4969 4.56437 18.169 4.46174 17.8124C3.84609 15.606 3.84609 13.2834 4.46174 11.0769C4.56732 10.6638 4.79099 10.2871 5.10768 9.98889C5.42438 9.69071 5.82156 9.4829 6.2547 9.38877C8.43902 8.88027 10.7176 8.87046 12.9066 9.36015C13.3633 9.46698 13.777 9.7004 14.0959 10.0312C14.4149 10.362 14.6248 10.7755 14.6995 11.22C15.1002 13.3584 15.1002 15.5481 14.6995 17.6865C14.6247 18.0751 14.4461 18.4384 14.1811 18.7413C13.9162 19.0441 13.5738 19.2761 13.1875 19.4148Z" fill="#29DCB2"/>
<path d="M30.2159 19.4008C27.1077 20.4984 23.7117 20.4788 20.6165 19.3454C20.1338 19.1705 19.7001 18.8832 19.3518 18.5074C19.0034 18.1316 18.7504 17.6783 18.6139 17.1853C17.7954 14.1344 17.7954 10.9231 18.6139 7.87224C18.7543 7.30107 19.0517 6.78013 19.4728 6.36784C19.8939 5.95555 20.422 5.66821 20.9979 5.53806C23.9022 4.83496 26.9319 4.82141 29.8424 5.4985C30.4497 5.6462 30.9998 5.96894 31.4238 6.42634C31.8479 6.88374 32.127 7.45549 32.2264 8.07006C32.7591 11.0268 32.7591 14.0544 32.2264 17.0112C32.1269 17.5484 31.8894 18.0508 31.5371 18.4695C31.1848 18.8882 30.7296 19.2091 30.2159 19.4008Z" fill="#9777FA"/>
<path d="M13.3432 32.4154C11.2203 33.2084 8.90098 33.1942 6.78699 32.3754C6.4561 32.248 6.15912 32.0387 5.9211 31.7652C5.68308 31.4916 5.51098 31.1618 5.41931 30.8035C4.86023 28.5996 4.86023 26.2798 5.41931 24.0759C5.51518 23.6633 5.7183 23.2869 6.00589 22.9891C6.29348 22.6913 6.65417 22.4837 7.0475 22.3897C9.03455 21.88 11.1076 21.8702 13.099 22.3611C13.5137 22.4678 13.8894 22.7009 14.179 23.0314C14.4686 23.3618 14.6593 23.7748 14.7271 24.2188C15.091 26.3547 15.091 28.5418 14.7271 30.6778C14.6599 31.0692 14.4969 31.4354 14.2542 31.7401C14.0115 32.0448 13.6975 32.2776 13.3432 32.4154Z" fill="#FC2E5E"/>
<path d="M28.8461 35.256C26.0864 36.2652 23.0713 36.2472 20.3231 35.2051C19.8929 35.043 19.5069 34.7766 19.1974 34.4284C18.888 34.0803 18.6643 33.6605 18.5451 33.2045C17.8183 30.3995 17.8183 27.447 18.5451 24.642C18.6697 24.1169 18.9338 23.6379 19.3077 23.2589C19.6815 22.8798 20.1504 22.6156 20.6618 22.496C23.2449 21.8472 25.9399 21.8347 28.5286 22.4596C29.0678 22.5954 29.5562 22.8921 29.9327 23.3127C30.3092 23.7332 30.5571 24.2589 30.6453 24.8239C31.1182 27.5424 31.1182 30.326 30.6453 33.0445C30.5579 33.5426 30.3459 34.0086 30.0304 34.3965C29.7149 34.7843 29.3067 35.0806 28.8461 35.256Z" fill="#FECA16"/>
<path d="M51.3484 11.8352H56.5281V25.5877C56.5281 26.9357 56.2141 28.1129 55.5863 29.1193C54.9677 30.1165 54.1275 30.892 53.0657 31.446C52.0039 32 50.8129 32.277 49.4925 32.277C48.1353 32.277 46.9258 32.0462 45.864 31.5845C44.8022 31.1229 43.9666 30.4165 43.3572 29.4656C42.7479 28.5053 42.4432 27.282 42.4432 25.7955H47.6644C47.6644 26.7372 47.8214 27.3558 48.1353 27.6513C48.4492 27.9467 48.9016 28.0945 49.4925 28.0945C50.1019 28.0945 50.5636 27.8729 50.8775 27.4297C51.1914 26.9773 51.3484 26.3633 51.3484 25.5877V11.8352ZM58.6609 24.3828C58.6609 22.9148 58.9379 21.6083 59.4918 20.4634C60.0458 19.3093 60.8629 18.3999 61.9432 17.7351C63.0234 17.0703 64.353 16.7379 65.9318 16.7379C67.5291 16.7379 68.8679 17.0703 69.9482 17.7351C71.0376 18.3999 71.8548 19.3093 72.3995 20.4634C72.9535 21.6083 73.2305 22.9148 73.2305 24.3828V24.646C73.2305 26.1048 72.9535 27.4112 72.3995 28.5653C71.8548 29.7195 71.0423 30.6289 69.962 31.2937C68.8817 31.9492 67.5476 32.277 65.9595 32.277C64.3714 32.277 63.0327 31.9492 61.9432 31.2937C60.8629 30.6289 60.0458 29.7195 59.4918 28.5653C58.9379 27.4112 58.6609 26.1048 58.6609 24.646V24.3828ZM63.6605 24.646C63.6605 25.68 63.8082 26.5433 64.1037 27.2358C64.4084 27.919 65.027 28.2607 65.9595 28.2607C66.8736 28.2607 67.483 27.919 67.7876 27.2358C68.0923 26.5433 68.2447 25.68 68.2447 24.646V24.3828C68.2447 23.718 68.18 23.1133 68.0508 22.5685C67.9308 22.0146 67.7045 21.576 67.3722 21.2528C67.0398 20.9205 66.5597 20.7543 65.9318 20.7543C65.3224 20.7543 64.8516 20.9205 64.5192 21.2528C64.196 21.576 63.9698 22.0146 63.8406 22.5685C63.7205 23.1133 63.6605 23.718 63.6605 24.3828V24.646ZM89.2681 24.6183C89.2681 26.1325 89.0604 27.4666 88.6449 28.6207C88.2386 29.7749 87.6062 30.6751 86.7475 31.3214C85.8888 31.9585 84.7855 32.277 83.4375 32.277C82.6527 32.277 81.9695 32.12 81.3878 31.8061C80.8061 31.4922 80.3029 31.0536 79.8782 30.4904L79.6705 32H75.2109V10.7273H80.1967V18.1229C80.603 17.6889 81.0692 17.3519 81.5955 17.1119C82.1218 16.8626 82.7266 16.7379 83.4098 16.7379C84.767 16.7379 85.875 17.0703 86.7337 17.7351C87.6016 18.3999 88.2386 19.3047 88.6449 20.4496C89.0604 21.5852 89.2681 22.8778 89.2681 24.3274V24.6183ZM84.2823 24.3274C84.2823 23.6811 84.2315 23.0902 84.13 22.5547C84.0284 22.0099 83.8253 21.576 83.5206 21.2528C83.2251 20.9205 82.7681 20.7543 82.1495 20.7543C81.2077 20.7543 80.5568 21.0682 80.1967 21.696V27.3466C80.5661 27.9744 81.2262 28.2884 82.1772 28.2884C82.8143 28.2884 83.2805 28.1406 83.576 27.8452C83.8714 27.5405 84.0607 27.1112 84.1438 26.5572C84.2362 26.0032 84.2823 25.3569 84.2823 24.6183V24.3274ZM77.8285 24.3967V24.5629C77.8285 24.5352 77.8331 24.5075 77.8423 24.4798L77.8285 24.3967ZM96.0543 32H91.0547V10.7273H96.0543V18.483C96.516 17.929 97.0607 17.4996 97.6886 17.195C98.3164 16.8903 99.0043 16.7379 99.7521 16.7379C100.74 16.7379 101.613 16.9364 102.37 17.3335C103.136 17.7212 103.732 18.3583 104.156 19.2447C104.59 20.131 104.807 21.3175 104.807 22.804V32H99.7937V22.7763C99.7937 21.9638 99.6183 21.4237 99.2674 21.1559C98.9258 20.8881 98.441 20.7543 97.8132 20.7543C97.0007 20.7543 96.4144 20.962 96.0543 21.3775V32ZM115.887 17.0149H120.886V32H116.219L116.081 30.4212C115.619 31.0028 115.06 31.4599 114.405 31.7923C113.749 32.1154 113.006 32.277 112.175 32.277C110.689 32.277 109.479 31.8477 108.547 30.989C107.623 30.1211 107.162 28.6992 107.162 26.7234V17.0149H112.147V26.7511C112.147 27.2219 112.286 27.5913 112.563 27.859C112.849 28.1268 113.274 28.2607 113.837 28.2607C114.354 28.2607 114.774 28.1776 115.097 28.0114C115.43 27.8452 115.693 27.619 115.887 27.3327V17.0149ZM137.409 24.6183C137.409 26.1325 137.201 27.4666 136.786 28.6207C136.379 29.7749 135.747 30.6751 134.888 31.3214C134.029 31.9585 132.926 32.277 131.578 32.277C130.793 32.277 130.11 32.12 129.528 31.8061C128.947 31.4922 128.444 31.0536 128.019 30.4904L127.811 32H123.352V10.7273H128.337V18.1229C128.744 17.6889 129.21 17.3519 129.736 17.1119C130.262 16.8626 130.867 16.7379 131.55 16.7379C132.908 16.7379 134.016 17.0703 134.874 17.7351C135.742 18.3999 136.379 19.3047 136.786 20.4496C137.201 21.5852 137.409 22.8778 137.409 24.3274V24.6183ZM132.423 24.3274C132.423 23.6811 132.372 23.0902 132.271 22.5547C132.169 22.0099 131.966 21.576 131.661 21.2528C131.366 20.9205 130.909 20.7543 130.29 20.7543C129.348 20.7543 128.697 21.0682 128.337 21.696V27.3466C128.707 27.9744 129.367 28.2884 130.318 28.2884C130.955 28.2884 131.421 28.1406 131.717 27.8452C132.012 27.5405 132.201 27.1112 132.284 26.5572C132.377 26.0032 132.423 25.3569 132.423 24.6183V24.3274ZM125.969 24.3967V24.5629C125.969 24.5352 125.974 24.5075 125.983 24.4798L125.969 24.3967Z" fill="#112940"/>
</svg>
