<svg width="76" height="40" viewBox="0 0 76 40" fill="none" xmlns="http://www.w3.org/2000/svg">
<g clip-path="url(#clip0_2_2)">
<rect width="1920" height="6070" transform="translate(-1505 -5564)" fill="white"/>
<path d="M-1134.65 -233.753C-1134.65 -247.731 -1134.65 -254.72 -1132.37 -260.233C-1129.32 -267.584 -1123.48 -273.424 -1116.13 -276.469C-1110.62 -278.753 -1103.63 -278.753 -1089.65 -278.753H-1.03648C12.9418 -278.753 19.9309 -278.753 25.4441 -276.469C32.7949 -273.424 38.6351 -267.584 41.6799 -260.233C43.9636 -254.72 43.9636 -247.731 43.9636 -233.753V-4.96584C43.9636 9.0124 43.9636 16.0015 41.6799 21.5147C38.6351 28.8655 32.7949 34.7057 25.4441 37.7505C19.9309 40.0341 12.9418 40.0341 -1.03644 40.0341H-1134.65V-233.753Z" fill="#0061FF" fill-opacity="0.15"/>
<path d="M-1162.71 -250.59C-1162.71 -264.569 -1162.71 -271.558 -1160.43 -277.071C-1157.38 -284.422 -1151.54 -290.262 -1144.19 -293.307C-1138.68 -295.59 -1131.69 -295.59 -1117.71 -295.59H27.0259C41.0042 -295.59 47.9933 -295.59 53.5064 -293.307C60.8573 -290.262 66.6975 -284.422 69.7423 -277.071C72.0259 -271.558 72.0259 -264.569 72.0259 -250.59V-21.8032C72.0259 -7.825 72.0259 -0.835882 69.7423 4.67725C66.6975 12.0281 60.8573 17.8683 53.5064 20.9131C47.9933 23.1967 41.0042 23.1967 27.0259 23.1967H-1162.71V-250.59Z" fill="#0061FF" fill-opacity="0.3"/>
<mask id="mask0_2_2" style="mask-type:alpha" maskUnits="userSpaceOnUse" x="-1202" y="-336" width="1314" height="337">
<path d="M-1202 -276C-1202 -294.638 -1202 -303.956 -1198.96 -311.307C-1194.9 -321.108 -1187.11 -328.895 -1177.31 -332.955C-1169.96 -336 -1160.64 -336 -1142 -336H111.313V-59.2531C111.313 -40.6154 111.313 -31.2966 108.268 -23.9457C104.208 -14.1446 96.4214 -6.35766 86.6203 -2.2979C79.2695 0.746918 69.9507 0.746918 51.313 0.746918H-1202V-276Z" fill="#0061FF"/>
</mask>
<g mask="url(#mask0_2_2)">
<path d="M-1202 -276C-1202 -294.638 -1202 -303.956 -1198.96 -311.307C-1194.9 -321.108 -1187.11 -328.895 -1177.31 -332.955C-1169.96 -336 -1160.64 -336 -1142 -336H111.313V-59.2531C111.313 -40.6154 111.313 -31.2966 108.268 -23.9457C104.208 -14.1446 96.4214 -6.35766 86.6203 -2.2979C79.2695 0.746918 69.9507 0.746918 51.313 0.746918H-1202V-276Z" fill="#5192FF"/>
<mask id="mask1_2_2" style="mask-type:alpha" maskUnits="userSpaceOnUse" x="-1271" y="-335" width="1397" height="360">
<rect x="-1271" y="-334.648" width="1397" height="359.36" rx="25" fill="#5192FF"/>
</mask>
<g mask="url(#mask1_2_2)">
</g>
</g>
</g>
<defs>
<clipPath id="clip0_2_2">
<rect width="1920" height="6070" fill="white" transform="translate(-1505 -5564)"/>
</clipPath>
</defs>
</svg>
