<svg width="411" height="366" viewBox="0 0 411 366" fill="none" xmlns="http://www.w3.org/2000/svg">
<path d="M296.514 252.747L255.372 362.441C255.015 363.387 254.379 364.203 253.548 364.779C252.716 365.354 251.73 365.663 250.719 365.663C249.951 365.662 249.194 365.483 248.507 365.14C247.82 364.797 247.222 364.299 246.759 363.686C246.296 363.072 245.981 362.36 245.84 361.605C245.698 360.85 245.732 360.072 245.941 359.332L276.16 252.747H296.514Z" fill="#CF6D30"/>
<path d="M250.719 365.918C249.91 365.919 249.111 365.732 248.386 365.372C247.661 365.012 247.029 364.489 246.54 363.844C246.05 363.198 245.717 362.448 245.566 361.652C245.416 360.856 245.451 360.036 245.67 359.256L275.883 252.666C275.9 252.608 275.935 252.558 275.983 252.523C276.031 252.487 276.09 252.469 276.149 252.47H296.503C296.547 252.47 296.59 252.481 296.628 252.501C296.667 252.52 296.7 252.549 296.726 252.584C296.752 252.62 296.769 252.661 296.774 252.705C296.78 252.749 296.775 252.793 296.758 252.834L255.627 362.517C255.248 363.514 254.577 364.373 253.7 364.98C252.824 365.587 251.785 365.914 250.719 365.918ZM276.361 253.003L246.213 359.392C245.882 360.559 246.015 361.809 246.584 362.88C247.152 363.951 248.113 364.761 249.264 365.14C250.415 365.519 251.668 365.437 252.761 364.913C253.854 364.389 254.702 363.462 255.128 362.327L296.134 253.003H276.361Z" fill="black"/>
<path d="M228.4 274.44L204.756 340.623C204.502 341.333 204.422 342.094 204.523 342.841C204.624 343.589 204.903 344.301 205.337 344.918C205.771 345.535 206.347 346.038 207.015 346.386C207.684 346.733 208.427 346.915 209.181 346.915C210.093 346.916 210.986 346.65 211.751 346.151C212.515 345.653 213.118 344.942 213.486 344.106L245.751 270.892L228.4 274.44Z" fill="#CF6D30"/>
<path d="M209.18 347.187C208.383 347.187 207.598 346.995 206.89 346.627C206.183 346.259 205.574 345.726 205.115 345.074C204.656 344.421 204.361 343.668 204.254 342.877C204.147 342.086 204.232 341.281 204.501 340.53L228.145 274.348C228.161 274.305 228.188 274.266 228.223 274.236C228.258 274.206 228.3 274.184 228.345 274.174L245.719 270.626C245.767 270.615 245.818 270.618 245.865 270.635C245.912 270.651 245.953 270.68 245.985 270.718C246.016 270.757 246.035 270.804 246.042 270.854C246.049 270.904 246.042 270.954 246.023 271.001L213.757 344.22C213.364 345.106 212.722 345.858 211.91 346.385C211.097 346.911 210.149 347.19 209.18 347.187ZM228.606 274.679L205.011 340.715C204.772 341.384 204.696 342.101 204.792 342.805C204.887 343.51 205.151 344.181 205.559 344.762C205.968 345.343 206.51 345.817 207.141 346.145C207.771 346.472 208.47 346.643 209.18 346.644C210.04 346.645 210.882 346.395 211.602 345.925C212.322 345.455 212.89 344.785 213.236 343.997L245.268 271.261L228.606 274.679Z" fill="black"/>
<path d="M363.184 250.302L410.32 345.763C410.625 346.382 410.768 347.068 410.735 347.757C410.702 348.446 410.494 349.115 410.131 349.702C409.769 350.288 409.263 350.773 408.661 351.109C408.06 351.446 407.383 351.624 406.694 351.627C405.977 351.629 405.272 351.441 404.651 351.083C404.03 350.724 403.515 350.206 403.159 349.583L348.998 254.921L363.184 250.302Z" fill="#CF6D30"/>
<path d="M406.678 351.898C405.916 351.898 405.168 351.696 404.508 351.315C403.849 350.933 403.301 350.385 402.921 349.725L348.765 255.062C348.747 255.026 348.738 254.986 348.738 254.945C348.738 254.905 348.747 254.865 348.765 254.828C348.78 254.79 348.804 254.756 348.834 254.728C348.864 254.7 348.899 254.679 348.938 254.665L363.103 250.03C363.165 250.011 363.232 250.014 363.292 250.04C363.352 250.066 363.401 250.113 363.429 250.171L410.559 345.671C410.881 346.33 411.031 347.061 410.995 347.794C410.958 348.527 410.737 349.239 410.352 349.863C409.966 350.488 409.429 351.004 408.791 351.365C408.152 351.725 407.433 351.918 406.699 351.926L406.678 351.898ZM349.4 255.073L403.393 349.475C403.723 350.049 404.197 350.527 404.768 350.862C405.34 351.196 405.989 351.376 406.65 351.382C407.292 351.377 407.922 351.208 408.482 350.893C409.041 350.578 409.512 350.126 409.849 349.58C410.187 349.033 410.381 348.41 410.413 347.769C410.445 347.127 410.314 346.487 410.033 345.91L363.049 250.633L349.4 255.073Z" fill="black"/>
<path d="M358.054 252.731L348.998 254.915L403.16 349.583L406.694 351.627L358.054 252.731Z" fill="black"/>
<path d="M406.694 351.898C406.646 351.899 406.599 351.886 406.558 351.86L403.024 349.817C402.982 349.791 402.946 349.756 402.92 349.714L348.765 255.051C348.746 255.013 348.736 254.971 348.736 254.929C348.736 254.887 348.746 254.845 348.765 254.807C348.782 254.768 348.807 254.734 348.839 254.707C348.871 254.68 348.909 254.66 348.949 254.649L358.005 252.475C358.066 252.461 358.129 252.467 358.186 252.494C358.242 252.521 358.288 252.566 358.314 252.622L406.954 351.524C406.981 351.575 406.99 351.633 406.98 351.69C406.97 351.747 406.942 351.799 406.9 351.839C406.842 351.885 406.768 351.907 406.694 351.898ZM403.355 349.382L406.069 350.942L357.918 253.046L349.421 255.095L403.355 349.382Z" fill="black"/>
<path d="M245.751 270.892L233.009 273.397L209.18 346.937C210.82 347.064 212.255 346.127 213.486 344.128L245.751 270.892Z" fill="black"/>
<path d="M209.474 347.198H209.164C209.123 347.195 209.084 347.183 209.048 347.162C209.013 347.142 208.982 347.113 208.959 347.079C208.936 347.045 208.921 347.006 208.915 346.966C208.91 346.925 208.913 346.884 208.925 346.845L232.754 273.305C232.769 273.258 232.796 273.217 232.832 273.184C232.869 273.152 232.913 273.13 232.96 273.12L245.697 270.636C245.746 270.626 245.797 270.63 245.844 270.647C245.891 270.664 245.933 270.694 245.963 270.734C245.994 270.773 246.014 270.819 246.02 270.867C246.027 270.916 246.02 270.966 246.001 271.011L213.736 344.231C212.514 346.214 211.086 347.198 209.474 347.198ZM233.221 273.614L209.555 346.655C210.934 346.617 212.177 345.714 213.258 343.937L245.29 271.229L233.221 273.614Z" fill="black"/>
<path d="M388.083 363.174L334.399 252.747H353.341L396.101 359.637C396.369 360.303 396.469 361.025 396.392 361.739C396.316 362.453 396.066 363.137 395.664 363.732C395.262 364.327 394.721 364.814 394.087 365.151C393.453 365.487 392.747 365.663 392.03 365.663C391.204 365.662 390.396 365.428 389.698 364.987C389 364.547 388.44 363.919 388.083 363.174Z" fill="#CF6D30"/>
<path d="M392.03 365.919C391.156 365.914 390.301 365.667 389.561 365.203C388.821 364.739 388.224 364.078 387.838 363.294L334.165 252.845C334.144 252.805 334.133 252.76 334.133 252.714C334.133 252.669 334.144 252.624 334.165 252.584C334.189 252.545 334.223 252.513 334.263 252.491C334.303 252.469 334.348 252.458 334.393 252.459H353.336C353.39 252.459 353.442 252.474 353.487 252.505C353.531 252.535 353.566 252.578 353.586 252.628L396.346 359.523C396.629 360.231 396.735 360.999 396.653 361.759C396.57 362.518 396.303 363.245 395.874 363.877C395.445 364.509 394.868 365.025 394.193 365.381C393.518 365.737 392.765 365.922 392.002 365.919H392.03ZM388.327 363.055C388.667 363.748 389.194 364.332 389.848 364.742C390.502 365.152 391.258 365.371 392.03 365.375C392.701 365.372 393.361 365.205 393.952 364.887C394.544 364.57 395.049 364.113 395.424 363.556C395.799 362.999 396.032 362.358 396.102 361.69C396.173 361.022 396.08 360.347 395.83 359.724L353.168 253.002H334.844L388.327 363.055Z" fill="black"/>
<path d="M215.723 265.528C215.723 265.528 220.908 279.608 236.842 280.499C252.777 281.39 262.49 259.556 276.16 258.86C289.831 258.165 346.522 258.665 347.858 258.86C349.193 259.056 392.057 259.502 399.196 210.35C406.336 161.198 409.908 106.145 409.908 106.145C409.908 95.6625 401.976 88.9948 393.322 88.0547C383.3 86.9679 372.311 93.5595 371.551 110.78L364.417 187.315C358.13 211.692 319.393 212.746 268.82 214.784C227.466 215.98 215.701 247.438 215.723 265.528Z" fill="#12584F"/>
<path d="M237.798 280.798C237.477 280.798 237.152 280.798 236.826 280.798C220.902 279.907 215.522 265.795 215.468 265.653C215.462 265.621 215.462 265.588 215.468 265.555C215.468 248.443 226.57 215.762 268.825 214.54L271.887 214.415C296.628 213.426 317.992 212.567 334.198 208.981C351.837 205.057 361.344 198.167 364.167 187.282L371.296 110.791C371.654 102.64 374.347 96.206 379.081 92.1413C381.035 90.4738 383.313 89.2296 385.772 88.487C388.23 87.7444 390.816 87.5195 393.365 87.8265C401.471 88.7069 410.196 94.8257 410.196 106.183C410.158 106.726 406.542 161.829 399.484 210.426C395.759 236.032 382.208 247.922 371.491 253.388C359.145 259.692 347.934 259.181 347.836 259.165C346.522 258.975 290.016 258.464 276.171 259.165C269.9 259.486 264.498 264.306 258.798 269.403C252.473 274.989 245.963 280.798 237.798 280.798ZM215.994 265.479C216.336 266.338 221.733 279.38 236.858 280.228C245.252 280.7 251.946 274.734 258.418 268.963C264.211 263.795 269.678 258.915 276.144 258.589C289.988 257.877 346.582 258.399 347.901 258.589C347.994 258.589 359.015 259.1 371.247 252.867C381.845 247.433 395.26 235.684 398.936 210.312C405.993 161.736 409.609 106.678 409.642 106.129C409.642 95.1246 401.172 89.1796 393.3 88.3265C390.823 88.0275 388.312 88.2454 385.923 88.9665C383.535 89.6876 381.322 90.8963 379.423 92.5162C374.808 96.4831 372.181 102.803 371.822 110.791L364.688 187.342C361.816 198.482 352.163 205.503 334.285 209.47C318.03 213.078 296.639 213.937 271.849 214.904L268.787 215.029C250.763 215.572 236.288 222.093 226.923 233.961C219.952 242.998 216.115 254.063 215.994 265.479Z" fill="black"/>
<path d="M158.454 336.059L180.09 344.467L192.155 313.364L170.519 304.955L158.454 336.059Z" fill="#FEC310"/>
<path d="M180.303 344.774L180.048 344.676L158.157 336.167L158.255 335.917L170.422 304.556L170.677 304.659L192.567 313.164L192.47 313.419L180.303 344.774ZM158.863 335.857L179.993 344.073L191.862 313.474L170.747 305.263L158.863 335.857Z" fill="black"/>
<path d="M158.447 336.062L180.083 344.471L189.062 321.326L167.425 312.917L158.447 336.062Z" fill="#F6F2E9"/>
<path d="M180.303 344.774L180.048 344.677L158.157 336.167L158.255 335.917L167.338 312.517L167.588 312.615L189.478 321.125L189.38 321.375L180.303 344.774ZM158.863 335.857L179.993 344.073L188.778 321.435L167.647 313.218L158.863 335.857Z" fill="black"/>
<path d="M185.406 335.476L173.701 365.647L114.458 342.617L116.423 337.563C117.146 335.734 118.225 334.067 119.597 332.658C120.97 331.25 122.608 330.128 124.416 329.359C126.225 328.59 128.169 328.187 130.134 328.176C132.099 328.164 134.047 328.544 135.865 329.292L147.57 333.515C152.218 335.221 156.436 331.999 158.331 328.765L180.46 337.367C181.655 337.726 182.36 334.292 185.406 335.476Z" fill="#F49FC4"/>
<path d="M173.853 366L173.598 365.897L114.11 342.774L116.168 337.465C116.905 335.603 118.004 333.906 119.401 332.473C120.798 331.039 122.465 329.897 124.307 329.113C126.148 328.329 128.126 327.918 130.127 327.905C132.128 327.892 134.111 328.277 135.963 329.037L147.663 333.259C152.006 334.862 156.132 331.982 158.097 328.629L158.217 328.428L180.558 337.123C180.819 337.199 181.101 336.911 181.557 336.427C182.35 335.585 183.441 334.428 185.504 335.232L185.754 335.33L185.656 335.585L173.853 366ZM114.827 342.465L173.56 365.288L185.064 335.634C183.511 335.145 182.692 336.014 181.97 336.786C181.476 337.329 181.009 337.808 180.401 337.623L158.461 329.097C156.344 332.553 152.066 335.438 147.494 333.765L135.789 329.542C134.004 328.807 132.091 328.434 130.161 328.444C128.231 328.454 126.322 328.849 124.545 329.603C122.768 330.358 121.159 331.458 119.81 332.841C118.462 334.223 117.401 335.86 116.689 337.656L114.827 342.465Z" fill="black"/>
<path d="M114.398 342.665L173.638 365.687L175.603 360.622L116.364 337.599L114.398 342.665Z" fill="#FBD9DF"/>
<path d="M173.853 366L173.598 365.897L114.11 342.775L116.282 337.199L116.532 337.297L176.025 360.425L173.853 366ZM114.827 342.465L173.56 365.288L175.33 360.729L116.597 337.905L114.827 342.465Z" fill="black"/>
<path d="M158.331 328.765L161.349 320.989C167.289 323.299 170.27 327.412 168.478 332.026L168.25 332.618L158.331 328.765Z" fill="black"/>
<path d="M168.25 332.89C168.216 332.895 168.181 332.895 168.147 332.89L158.233 329.037C158.167 329.007 158.113 328.955 158.081 328.89C158.054 328.824 158.054 328.75 158.081 328.684L161.095 320.908C161.107 320.874 161.126 320.843 161.151 320.817C161.176 320.791 161.206 320.77 161.239 320.756C161.272 320.742 161.307 320.734 161.343 320.734C161.379 320.734 161.414 320.741 161.447 320.755C164.466 321.924 166.746 323.57 168.038 325.51C168.7 326.469 169.11 327.578 169.231 328.736C169.352 329.895 169.181 331.065 168.733 332.14L168.5 332.732C168.488 332.766 168.469 332.797 168.445 332.823C168.421 332.849 168.391 332.87 168.359 332.884C168.323 332.893 168.286 332.895 168.25 332.89ZM158.684 328.613L168.093 332.27L168.228 331.928C168.642 330.933 168.8 329.85 168.688 328.779C168.576 327.707 168.198 326.681 167.588 325.793C166.393 324.005 164.292 322.467 161.502 321.342L158.684 328.613Z" fill="black"/>
<path d="M169.336 351.632C172.118 351.632 174.374 349.374 174.374 346.589C174.374 343.804 172.118 341.546 169.336 341.546C166.553 341.546 164.298 343.804 164.298 346.589C164.298 349.374 166.553 351.632 169.336 351.632Z" fill="#F6F2E9"/>
<path d="M169.33 351.904C168.468 351.903 167.618 351.692 166.855 351.289C166.092 350.886 165.439 350.302 164.951 349.589C164.464 348.877 164.158 348.056 164.059 347.198C163.961 346.34 164.072 345.471 164.384 344.666C164.734 343.764 165.324 342.974 166.089 342.383C166.854 341.792 167.766 341.42 168.726 341.31C169.687 341.199 170.659 341.353 171.538 341.754C172.418 342.156 173.171 342.79 173.717 343.589C174.263 344.388 174.58 345.32 174.635 346.286C174.69 347.252 174.481 348.215 174.03 349.071C173.578 349.926 172.902 350.643 172.074 351.142C171.246 351.641 170.297 351.905 169.33 351.904ZM164.889 344.839C164.548 345.719 164.474 346.68 164.678 347.601C164.883 348.522 165.355 349.362 166.036 350.015C166.717 350.667 167.576 351.103 168.504 351.267C169.432 351.431 170.388 351.316 171.251 350.936C172.114 350.556 172.845 349.929 173.352 349.133C173.859 348.337 174.118 347.409 174.098 346.466C174.078 345.523 173.779 344.607 173.238 343.833C172.698 343.06 171.941 342.465 171.062 342.122C169.884 341.666 168.572 341.696 167.415 342.205C166.258 342.714 165.35 343.661 164.889 344.839Z" fill="black"/>
<path d="M107.479 268.52L118.618 288.901L147.864 272.888L136.725 252.507L107.479 268.52Z" fill="#FEC310"/>
<path d="M118.503 289.27L107.101 268.414L136.826 252.111L148.227 272.968L118.503 289.27ZM107.84 268.62L118.698 288.531L147.473 272.772L136.614 252.867L107.84 268.62Z" fill="black"/>
<path d="M107.475 268.524L118.614 288.905L140.376 276.989L129.237 256.609L107.475 268.524Z" fill="#F6F2E9"/>
<path d="M118.503 289.27L107.101 268.414L129.361 256.236L140.762 277.092L118.503 289.27ZM107.84 268.62L118.698 288.531L139.986 276.875L129.127 256.969L107.84 268.62Z" fill="black"/>
<path d="M128.4 285.444L100.027 300.981L69.5312 245.177L74.2872 242.569C76.0181 241.637 77.9167 241.059 79.8727 240.867C81.8287 240.675 83.8032 240.874 85.6819 241.451C87.5606 242.029 89.306 242.974 90.817 244.233C92.3279 245.491 93.5742 247.036 94.4838 248.78L100.711 259.556C103.17 263.86 108.475 264.11 111.998 262.86L123.4 283.705C124.056 284.749 126.825 282.581 128.4 285.444Z" fill="#F49FC4"/>
<path d="M99.9184 301.35L99.7827 301.111L69.1567 245.069L74.1516 242.352C80.6231 238.803 90.0862 240.178 94.7173 248.666L100.95 259.437C103.257 263.48 108.247 263.92 111.911 262.621L112.129 262.545L123.633 283.591C123.78 283.814 124.176 283.781 124.844 283.705C125.989 283.57 127.558 283.385 128.644 285.336L128.774 285.575L128.541 285.705L99.9184 301.35ZM69.8951 245.281L100.13 300.611L128.014 285.341C127.14 283.966 125.957 284.102 124.904 284.227C124.192 284.309 123.514 284.39 123.166 283.852L111.873 263.202C108.03 264.479 102.894 263.931 100.472 259.703L94.2395 248.943C89.7713 240.792 80.6666 239.423 74.4122 242.835L69.8951 245.281Z" fill="black"/>
<path d="M69.5264 245.175L100.024 300.978L104.788 298.37L74.2895 242.567L69.5264 245.175Z" fill="#FBD9DF"/>
<path d="M99.9184 301.35L99.7827 301.111L69.1567 245.069L74.3959 242.199L74.5262 242.439L105.158 298.481L99.9184 301.35ZM69.8951 245.281L100.13 300.611L104.419 298.263L74.1787 242.966L69.8951 245.281Z" fill="black"/>
<path d="M111.998 262.86L119.311 258.861C122.373 264.452 122.026 269.522 117.683 271.902L117.14 272.207L111.998 262.86Z" fill="black"/>
<path d="M117.107 272.473C117.058 272.474 117.01 272.461 116.968 272.436C116.926 272.411 116.891 272.375 116.868 272.332L111.765 262.991C111.73 262.928 111.721 262.854 111.74 262.784C111.76 262.715 111.806 262.656 111.868 262.621L119.181 258.622C119.212 258.603 119.246 258.592 119.282 258.587C119.317 258.582 119.353 258.585 119.388 258.595C119.422 258.604 119.454 258.621 119.482 258.643C119.51 258.665 119.533 258.693 119.55 258.725C121.103 261.572 121.793 264.3 121.532 266.615C121.42 267.774 121.019 268.886 120.367 269.849C119.714 270.813 118.83 271.597 117.797 272.131L117.254 272.44C117.209 272.464 117.158 272.475 117.107 272.473ZM112.368 262.969L117.216 271.832L117.536 271.658C118.493 271.165 119.311 270.439 119.915 269.548C120.519 268.656 120.891 267.628 120.995 266.555C121.228 264.414 120.615 261.887 119.203 259.225L112.368 262.969Z" fill="black"/>
<path d="M108.947 288.634C111.73 288.634 113.985 286.376 113.985 283.591C113.985 280.806 111.73 278.548 108.947 278.548C106.165 278.548 103.909 280.806 103.909 283.591C103.909 286.376 106.165 288.634 108.947 288.634Z" fill="#F6F2E9"/>
<path d="M108.958 288.906C107.666 288.907 106.417 288.437 105.447 287.582C104.477 286.727 103.852 285.548 103.69 284.264C103.527 282.981 103.838 281.683 104.565 280.613C105.291 279.543 106.382 278.775 107.634 278.454C108.886 278.133 110.212 278.28 111.363 278.868C112.514 279.456 113.411 280.444 113.886 281.648C114.36 282.851 114.379 284.186 113.94 285.402C113.5 286.619 112.632 287.633 111.499 288.254C110.72 288.682 109.846 288.906 108.958 288.906ZM108.958 278.815C107.745 278.813 106.577 279.27 105.689 280.096C104.8 280.921 104.257 282.053 104.168 283.263C104.08 284.474 104.453 285.672 105.212 286.618C105.972 287.564 107.061 288.187 108.261 288.362C109.461 288.536 110.682 288.249 111.679 287.558C112.675 286.867 113.374 285.824 113.633 284.638C113.892 283.453 113.692 282.213 113.075 281.169C112.457 280.125 111.467 279.353 110.304 279.01C109.861 278.885 109.402 278.825 108.942 278.831L108.958 278.815Z" fill="black"/>
<path d="M130.984 253.057L144.22 278.782L236.842 226.886L226.239 182.761L130.984 253.057Z" fill="#CF6D30"/>
<path d="M144.22 279.054H144.139C144.069 279.031 144.011 278.982 143.976 278.918L130.745 253.193C130.714 253.136 130.705 253.07 130.719 253.007C130.733 252.944 130.769 252.889 130.821 252.85L226.076 182.538C226.112 182.511 226.154 182.493 226.199 182.487C226.243 182.48 226.289 182.485 226.331 182.5C226.374 182.516 226.412 182.542 226.443 182.576C226.473 182.61 226.494 182.651 226.505 182.696L237.108 226.821C237.122 226.879 237.116 226.94 237.092 226.994C237.067 227.048 237.025 227.092 236.972 227.12L144.351 279.016C144.312 279.041 144.267 279.055 144.22 279.054ZM131.332 253.138L144.334 278.407L236.533 226.75L226.071 183.217L131.332 253.138Z" fill="black"/>
<path d="M226.239 182.761L209.186 195.346L169.336 264.713L236.842 226.886L226.239 182.761Z" fill="black"/>
<path d="M169.336 264.979C169.263 264.979 169.192 264.95 169.141 264.898C169.099 264.856 169.072 264.801 169.064 264.742C169.056 264.683 169.068 264.623 169.097 264.572L208.947 195.21C208.968 195.178 208.994 195.148 209.023 195.124L226.076 182.538C226.112 182.511 226.154 182.493 226.199 182.487C226.244 182.48 226.289 182.485 226.331 182.5C226.374 182.516 226.412 182.542 226.443 182.576C226.473 182.61 226.494 182.651 226.505 182.696L237.108 226.821C237.122 226.879 237.117 226.94 237.092 226.994C237.067 227.048 237.025 227.092 236.973 227.12L169.466 264.947C169.426 264.968 169.381 264.98 169.336 264.979ZM209.392 195.531L170.058 264.001L236.533 226.761L226.071 183.228L209.392 195.531Z" fill="black"/>
<path d="M370.074 148.232C370.074 184.364 362.718 217.702 318.497 217.246H265.242C246.43 216.844 217.053 274.304 193.083 318.321L167.566 308.539L211.542 204.204C225.658 169.143 228.449 167.252 264.449 167.252C282.143 167.252 298.588 160.378 306.281 148.232H370.074Z" fill="#CF6D30"/>
<path d="M193.083 318.593H192.985L167.468 308.811C167.434 308.799 167.402 308.78 167.376 308.754C167.35 308.729 167.329 308.698 167.316 308.664C167.301 308.631 167.293 308.595 167.293 308.558C167.293 308.522 167.301 308.486 167.316 308.452L211.292 204.117C225.376 169.1 228.356 167.018 264.449 167.018C282.735 167.018 298.653 159.769 306.053 148.107C306.076 148.068 306.11 148.035 306.15 148.012C306.19 147.989 306.235 147.977 306.281 147.977H370.074C370.146 147.977 370.215 148.006 370.266 148.057C370.317 148.108 370.345 148.177 370.345 148.249C370.345 167.496 368.537 191.379 354.438 205.345C345.995 213.708 334.214 217.697 318.491 217.534H265.046C247.928 217.534 222.091 265.3 199.288 307.458C197.269 311.191 195.276 314.876 193.316 318.468C193.292 318.507 193.257 318.539 193.216 318.561C193.175 318.583 193.129 318.594 193.083 318.593ZM167.924 308.387L192.958 317.984C194.874 314.457 196.829 310.844 198.811 307.186C221.684 264.892 247.603 216.98 265.046 216.98H318.502C334.084 217.143 345.729 213.203 354.063 204.948C367.951 191.189 369.808 167.605 369.808 148.51H306.433C298.919 160.258 282.849 167.529 264.449 167.529C246.131 167.529 236.761 168.045 229.941 172.8C223.122 177.555 218.953 186.489 211.792 204.318L167.924 308.387Z" fill="black"/>
<path d="M353.749 50.7874C351.577 56.3954 352.196 60.884 353.206 68.1766L333.992 70.6492L336.12 58.205C332.705 57.7105 330.36 53.3524 330.061 44.9077L326.071 43.6035C325.924 43.5631 325.791 43.4838 325.686 43.374C325.581 43.2642 325.508 43.1279 325.474 42.9797C325.44 42.8315 325.447 42.6769 325.493 42.5322C325.54 42.3875 325.625 42.2582 325.739 42.158C332.254 37.5933 330.685 28.4477 335.832 24.5949C341.544 20.992 350.421 21.8778 354.471 29.5834C357.609 36.3435 355.975 43.6578 353.749 50.7874Z" fill="#FEC310"/>
<path d="M333.666 70.9753L335.838 58.4278C332.26 57.6942 330.132 52.9937 329.822 45.1033L326.022 43.8589C325.813 43.7885 325.627 43.6612 325.486 43.4913C325.345 43.3215 325.255 43.1157 325.224 42.8971C325.192 42.7156 325.212 42.5289 325.283 42.3586C325.353 42.1884 325.47 42.0415 325.62 41.9352C329.024 39.5605 330.175 35.9142 331.288 32.3874C332.287 29.2193 333.232 26.2306 335.707 24.3775C337.312 23.3814 339.102 22.723 340.969 22.4427C342.836 22.1624 344.74 22.2661 346.566 22.7473C348.33 23.2224 349.973 24.0675 351.387 25.2263C352.8 26.3852 353.951 27.8315 354.764 29.4693C358.065 36.5772 356.132 44.2502 354.058 50.8798C351.886 56.4009 352.516 60.7917 353.515 68.0626L353.564 68.4104L333.666 70.9753ZM343.021 22.8288C340.527 22.8186 338.081 23.5117 335.963 24.8286C333.639 26.562 332.705 29.4693 331.75 32.5505C330.61 36.1642 329.431 39.8974 325.881 42.3808C325.812 42.4296 325.76 42.497 325.729 42.5752C325.698 42.6533 325.69 42.7387 325.707 42.821C325.72 42.943 325.767 43.0588 325.843 43.155C325.919 43.2512 326.02 43.3239 326.136 43.3644L330.305 44.7284V44.9186C330.582 52.8198 332.656 57.4497 336.136 57.9605L336.408 57.9985L334.296 70.3612L352.88 67.9756C351.87 60.7319 351.251 56.3194 353.461 50.7222C355.502 44.2013 357.408 36.6369 354.194 29.7193C353.416 28.151 352.314 26.7662 350.96 25.6569C349.607 24.5476 348.033 23.7392 346.343 23.2853C345.26 22.9893 344.143 22.8358 343.021 22.8288Z" fill="black"/>
<path d="M331.63 51.396C331.336 51.3942 331.043 51.3761 330.751 51.3417C330.679 51.3331 330.613 51.2962 330.568 51.2391C330.524 51.182 330.503 51.1095 330.512 51.0374C330.521 50.9653 330.557 50.8997 330.614 50.8548C330.672 50.81 330.744 50.7897 330.816 50.7983C331.814 50.9134 332.825 50.8092 333.779 50.4929C334.732 50.1766 335.606 49.6559 336.337 48.967C336.363 48.9398 336.394 48.9181 336.428 48.9033C336.462 48.8885 336.499 48.8809 336.536 48.8809C336.573 48.881 336.61 48.8887 336.644 48.9036C336.678 48.9185 336.709 48.9402 336.734 48.9675C336.76 48.9947 336.779 49.0269 336.791 49.062C336.804 49.0971 336.809 49.1344 336.806 49.1716C336.804 49.2087 336.794 49.245 336.776 49.278C336.759 49.3111 336.736 49.3402 336.707 49.3637C335.329 50.6542 333.517 51.3796 331.63 51.396Z" fill="black"/>
<path d="M335.715 40.8134C336.174 40.7631 336.458 39.9121 336.348 38.9127C336.239 37.9133 335.778 37.1439 335.319 37.1942C334.86 37.2445 334.577 38.0955 334.686 39.0949C334.796 40.0943 335.256 40.8638 335.715 40.8134Z" fill="black"/>
<path d="M338.232 35.6099C338.171 35.6091 338.112 35.5881 338.064 35.5501C336.815 34.572 335.577 34.3274 334.263 34.8111C334.199 34.8274 334.13 34.8194 334.071 34.7884C334.012 34.7575 333.966 34.7058 333.943 34.6433C333.919 34.5808 333.919 34.5119 333.944 34.4496C333.968 34.3873 334.014 34.3361 334.073 34.3057C335.572 33.7623 336.983 34.0177 338.417 35.1208C338.474 35.1658 338.511 35.2315 338.52 35.3037C338.529 35.3759 338.51 35.4488 338.466 35.5066C338.437 35.541 338.402 35.5682 338.361 35.5862C338.321 35.6041 338.276 35.6122 338.232 35.6099Z" fill="black"/>
<path d="M358.939 27.0131C355.361 20.6551 348.732 21.7854 343.911 16.0198C339.568 10.8465 328.215 -1.57048 320.115 7.40128C312.449 15.8948 324.062 27.5945 332.179 29.4041C337.814 30.9637 345.057 33.8384 344.953 36.4685L344.78 39.3105L347.695 39.1475C347.847 38.543 348.157 37.9901 348.594 37.5459C349.031 37.1018 349.579 36.7824 350.18 36.6209C350.782 36.4594 351.415 36.4616 352.015 36.6273C352.616 36.793 353.161 37.1162 353.595 37.5634C354.028 38.0106 354.335 38.5657 354.483 39.1712C354.63 39.7767 354.614 40.4107 354.435 41.0077C354.255 41.6046 353.92 42.1428 353.464 42.5667C353.007 42.9906 352.446 43.2847 351.838 43.4187L351.631 43.4513L354.835 47.0487C354.835 47.0487 363.69 35.4577 358.939 27.0131Z" fill="black"/>
<path d="M354.834 47.3367C354.796 47.3358 354.757 47.3271 354.722 47.3112C354.687 47.2954 354.655 47.2727 354.628 47.2444L351.425 43.647C351.392 43.6108 351.37 43.5661 351.362 43.5181C351.353 43.4701 351.358 43.4206 351.376 43.3753C351.392 43.3298 351.421 43.2896 351.458 43.2589C351.495 43.2283 351.54 43.2084 351.588 43.2014H351.648H351.778C352.341 43.0814 352.861 42.8128 353.285 42.4235C353.71 42.0342 354.022 41.5384 354.19 40.9875C354.358 40.4367 354.376 39.8508 354.242 39.2906C354.108 38.7305 353.826 38.2166 353.426 37.8022C353.026 37.3878 352.523 37.088 351.969 36.934C351.414 36.7799 350.828 36.7772 350.272 36.9261C349.717 37.075 349.211 37.3701 348.807 37.7808C348.403 38.1915 348.117 38.7028 347.977 39.2616C347.963 39.3183 347.932 39.369 347.887 39.4062C347.842 39.4434 347.786 39.4651 347.728 39.4681L344.812 39.6311C344.774 39.6348 344.735 39.6293 344.699 39.6151C344.663 39.601 344.631 39.5785 344.606 39.5496C344.553 39.4941 344.524 39.42 344.524 39.3431L344.698 36.5011C344.785 34.235 338.444 31.4527 332.124 29.703C326.847 28.5237 319.854 23.1005 317.884 16.9056C317.303 15.2652 317.187 13.4962 317.549 11.794C317.91 10.0918 318.734 8.52266 319.93 7.25998C321.928 5.04828 324.274 3.95602 326.896 3.99949C331.815 4.09187 337.619 8.08597 344.134 15.8731C346.338 18.5086 348.938 19.677 351.452 20.8182C354.427 22.1658 357.234 23.432 359.194 26.9153C363.972 35.4142 355.155 47.1357 355.062 47.2552C355.039 47.2874 355.008 47.3136 354.972 47.3315C354.936 47.3495 354.896 47.3587 354.856 47.3585L354.834 47.3367ZM352.12 43.6361L354.791 46.6303C356.227 44.5951 357.436 42.4084 358.396 40.1093C359.851 36.5608 361.078 31.4147 358.684 27.1707C356.811 23.845 354.08 22.6114 351.191 21.3072C348.618 20.1443 345.963 18.9434 343.678 16.2154C339.269 10.9443 332.776 4.64073 326.847 4.53204C324.371 4.49944 322.178 5.52106 320.294 7.60777C319.164 8.80198 318.385 10.2854 318.044 11.8945C317.703 13.5035 317.813 15.1756 318.361 16.7262C320.278 22.7418 327.048 28.0129 332.217 29.1595C334.421 29.7682 345.339 32.9635 345.203 36.5119L345.051 39.0551L347.467 38.9193C347.659 38.2957 348.01 37.7327 348.485 37.2853C348.959 36.838 349.542 36.5216 350.175 36.3671C350.809 36.2126 351.472 36.2253 352.099 36.4039C352.726 36.5826 353.296 36.921 353.753 37.3862C354.21 37.8514 354.539 38.4274 354.708 39.0579C354.876 39.6884 354.878 40.3518 354.713 40.9832C354.549 41.6147 354.223 42.1926 353.769 42.6605C353.314 43.1283 352.746 43.4701 352.12 43.6524V43.6361Z" fill="black"/>
<path d="M352.136 41.9569C352.095 41.9571 352.055 41.9479 352.018 41.93C351.982 41.9121 351.95 41.886 351.925 41.8536C351.88 41.7958 351.861 41.7229 351.87 41.6507C351.879 41.5785 351.916 41.5128 351.973 41.4678C352.211 41.269 352.381 41.0011 352.46 40.7012C352.539 40.4013 352.522 40.0843 352.413 39.7941C352.298 39.4244 352.071 39.0995 351.764 38.864C351.457 38.6285 351.084 38.494 350.698 38.4791C350.625 38.4748 350.557 38.4423 350.508 38.3884C350.46 38.3345 350.434 38.2636 350.437 38.191C350.437 38.1551 350.444 38.1195 350.459 38.0866C350.473 38.0537 350.494 38.0242 350.521 38.0001C350.548 37.976 350.579 37.9578 350.613 37.9467C350.648 37.9356 350.684 37.9318 350.719 37.9356C351.217 37.9544 351.697 38.1269 352.092 38.4296C352.488 38.7322 352.78 39.15 352.929 39.6256C353.072 40.0233 353.089 40.4555 352.977 40.8632C352.866 41.2708 352.631 41.6339 352.305 41.9026C352.256 41.939 352.197 41.9581 352.136 41.9569Z" fill="black"/>
<path d="M276.443 93.8367C276.443 93.8367 266.518 93.1683 252.962 90.7772C239.405 88.3862 216.125 71.5458 216.125 71.5458C212.807 67.6713 212.46 62.8512 208.111 59.8516C205.304 57.9007 203.54 61.0362 201.053 58.6669L192.193 50.0538C190.021 48.0812 187.306 50.532 189.017 52.2872L195.879 59.8352L194.093 73.3173C194.674 76.1105 200.032 78.9634 205.825 80.7186L240.686 110.916C249.047 119.067 266.54 117.861 282.143 117.345L276.443 93.8367Z" fill="#FEC310"/>
<path d="M267.534 117.981C256.512 117.981 246.36 116.818 240.496 111.09L205.679 80.9741C200.364 79.3438 194.473 76.5181 193.816 73.3663C193.811 73.3357 193.811 73.3044 193.816 73.2739L195.592 59.895L188.816 52.4775C188.624 52.3094 188.469 52.1032 188.36 51.8721C188.252 51.6409 188.192 51.3897 188.185 51.1344C188.179 50.8791 188.225 50.6251 188.321 50.3886C188.418 50.1522 188.562 49.9383 188.745 49.7604C189.538 48.929 191.08 48.6736 192.372 49.8473L201.249 58.4496C202.421 59.569 203.388 59.3516 204.506 59.1071C205.625 58.8625 206.808 58.5963 208.263 59.607C210.875 61.4166 212.064 63.8022 213.291 66.3236C214.08 68.1129 215.097 69.7932 216.315 71.323C217.216 71.9697 239.872 88.1688 253.01 90.4892C266.393 92.8531 276.356 93.5378 276.459 93.5432C276.517 93.5477 276.572 93.5707 276.616 93.6088C276.66 93.647 276.691 93.6983 276.703 93.7551L282.409 117.231C282.418 117.27 282.418 117.311 282.41 117.35C282.401 117.389 282.384 117.426 282.361 117.459C282.336 117.491 282.305 117.517 282.269 117.536C282.234 117.555 282.194 117.566 282.154 117.568L279.185 117.671C275.286 117.828 271.356 117.981 267.534 117.981ZM194.359 73.3174C194.902 75.7084 199.419 78.5124 205.896 80.4741C205.932 80.4846 205.966 80.5032 205.994 80.5285L240.86 110.693C248.624 118.247 264.151 117.693 279.163 117.16L281.801 117.068L276.226 94.1084C274.749 93.9943 265.286 93.2389 252.913 91.0544C239.454 88.6797 216.201 71.9425 215.994 71.7741L215.951 71.7306C214.692 70.162 213.642 68.4357 212.829 66.5953C211.618 64.1391 210.478 61.8187 207.981 60.0744C206.721 59.1995 205.717 59.4223 204.653 59.6559C203.485 59.9168 202.286 60.1994 200.901 58.8626L192.03 50.2658C190.988 49.3202 189.799 49.4941 189.163 50.1571C189.032 50.2861 188.928 50.4413 188.86 50.6127C188.792 50.784 188.761 50.9678 188.768 51.1521C188.775 51.3364 188.821 51.5171 188.902 51.6827C188.983 51.8483 189.098 51.995 189.239 52.1134L196.107 59.6288C196.134 59.6575 196.154 59.6921 196.165 59.7298C196.177 59.7675 196.179 59.8073 196.172 59.8462L194.359 73.3174Z" fill="black"/>
<path d="M189.408 66.8018C188.675 67.5572 188.566 68.6386 189.163 69.22L196.015 75.8768C196.612 76.4583 197.687 76.317 198.42 75.5616C199.153 74.8063 199.267 73.7249 198.67 73.1434L191.813 66.4866C191.221 65.9052 190.14 66.0465 189.408 66.8018Z" fill="#FEC310"/>
<path d="M196.943 76.5018C196.738 76.5073 196.533 76.4722 196.341 76.3986C196.149 76.3249 195.974 76.2141 195.825 76.0725L188.973 69.4157C188.797 69.2378 188.665 69.0217 188.586 68.7842C188.506 68.5467 188.483 68.2942 188.517 68.0462C188.583 67.5041 188.828 66.9994 189.212 66.6116C190.048 65.753 191.302 65.6063 192.003 66.291L198.86 72.9478C199.56 73.6326 199.452 74.8878 198.615 75.7519C198.4 75.9818 198.142 76.1666 197.855 76.2953C197.568 76.4241 197.258 76.4943 196.943 76.5018ZM189.603 66.992C189.303 67.292 189.111 67.6843 189.06 68.106C189.035 68.2713 189.049 68.4403 189.099 68.5995C189.15 68.7588 189.237 68.9042 189.353 69.0244L196.205 75.6866C196.694 76.1594 197.6 76.0182 198.225 75.3715C198.849 74.7248 198.968 73.8119 198.48 73.3391L191.628 66.6769C191.139 66.2041 190.233 66.3453 189.603 66.992Z" fill="black"/>
<path d="M191.52 63.5413C190.792 64.2967 190.678 65.3781 191.275 65.9596L198.127 72.6218C198.724 73.1978 199.804 73.0565 200.532 72.3012C201.259 71.5458 201.379 70.4644 200.782 69.8884L193.925 63.2262C193.333 62.6447 192.253 62.7914 191.52 63.5413Z" fill="#FEC310"/>
<path d="M199.055 73.2467C198.641 73.2543 198.24 73.1004 197.937 72.8174L191.085 66.1551C190.385 65.4704 190.493 64.2151 191.329 63.3565C192.166 62.4979 193.414 62.3512 194.115 63.0305L200.972 69.6927C201.147 69.87 201.279 70.0852 201.358 70.3217C201.437 70.5581 201.461 70.8096 201.428 71.0567C201.36 71.5996 201.114 72.1045 200.727 72.4913C200.513 72.722 200.254 72.9076 199.967 73.0373C199.68 73.167 199.37 73.2382 199.055 73.2467ZM193.007 63.1392C192.519 63.1601 192.058 63.3729 191.726 63.7315C191.101 64.3781 190.987 65.2911 191.476 65.7638L198.328 72.4261C198.816 72.8989 199.723 72.7576 200.353 72.1109C200.649 71.8188 200.84 71.4366 200.896 71.0241C200.921 70.8588 200.907 70.6899 200.856 70.5306C200.806 70.3713 200.719 70.2259 200.602 70.1057L193.751 63.4435C193.553 63.2476 193.285 63.1382 193.007 63.1392Z" fill="black"/>
<path d="M193.474 60.1287C192.741 60.8841 192.627 61.9654 193.224 62.5415L200.065 69.2037C200.657 69.7852 201.737 69.6439 202.47 68.8885C203.203 68.1332 203.312 67.0518 202.714 66.4704L195.879 59.8353C195.282 59.2321 194.207 59.3734 193.474 60.1287Z" fill="#FEC310"/>
<path d="M201.004 69.8341C200.6 69.8341 200.211 69.6784 199.918 69.3993L193.061 62.7371C192.886 62.5598 192.754 62.3446 192.675 62.1082C192.596 61.8717 192.572 61.6203 192.605 61.3731C192.673 60.8302 192.919 60.3253 193.306 59.9385C194.142 59.0799 195.391 58.9332 196.096 59.6125L202.948 66.2747C203.648 66.9594 203.54 68.2147 202.709 69.0733C202.333 69.4733 201.834 69.7355 201.292 69.8178L201.004 69.8341ZM194.945 59.7211C194.704 59.7314 194.467 59.7896 194.248 59.8922C194.029 59.9948 193.832 60.1398 193.67 60.3189C193.373 60.6108 193.182 60.9932 193.127 61.4057C193.101 61.5719 193.114 61.7418 193.165 61.9022C193.216 62.0625 193.303 62.2088 193.42 62.3295L200.277 68.9864C200.4 69.0986 200.547 69.181 200.707 69.2272C200.867 69.2734 201.036 69.2821 201.2 69.2526C201.616 69.1871 201.998 68.9844 202.286 68.6766C202.91 68.03 203.024 67.117 202.535 66.6443L195.684 59.982C195.481 59.8023 195.216 59.7087 194.945 59.7211Z" fill="black"/>
<path d="M203.263 59.6831C200.152 63.0903 200.51 65.7965 200.983 69.3505C201.575 71.2578 203.236 70.5948 203.697 69.671L205.549 64.8238C204.523 69.1113 208.068 70.4264 210.978 71.5458" fill="#FEC310"/>
<path d="M210.956 71.8176C210.926 71.8257 210.894 71.8257 210.864 71.8176H210.782C208.323 70.8775 205.353 69.7418 205.092 66.7747L203.931 69.8124C203.774 70.142 203.526 70.4197 203.216 70.6123C202.906 70.805 202.547 70.9045 202.182 70.8992C201.791 70.8992 201.097 70.6493 200.722 69.4864C200.239 65.8727 199.87 63.0523 203.062 59.5527C203.111 59.4994 203.179 59.4677 203.251 59.4647C203.287 59.4632 203.323 59.4687 203.356 59.481C203.39 59.4933 203.421 59.5122 203.447 59.5365C203.474 59.5607 203.495 59.5899 203.51 59.6225C203.525 59.655 203.534 59.6901 203.535 59.726C203.537 59.7618 203.531 59.7976 203.519 59.8313C203.507 59.865 203.488 59.8959 203.464 59.9223C200.44 63.2316 200.782 65.8074 201.249 69.3668C201.439 69.97 201.791 70.3232 202.226 70.3558C202.476 70.3543 202.721 70.2835 202.934 70.1511C203.147 70.0187 203.319 69.83 203.431 69.6059L205.272 64.7804C205.297 64.7172 205.345 64.6657 205.406 64.6356C205.467 64.6055 205.537 64.599 205.603 64.6174C205.669 64.6376 205.726 64.6827 205.76 64.7434C205.795 64.8041 205.804 64.8758 205.787 64.9434C204.826 68.9593 208.095 70.2091 210.978 71.3122L211.054 71.3448C211.087 71.3575 211.118 71.3767 211.144 71.4013C211.17 71.426 211.191 71.4556 211.206 71.4885C211.221 71.5214 211.229 71.5568 211.23 71.5928C211.23 71.6288 211.224 71.6645 211.211 71.6981C211.184 71.7399 211.146 71.7733 211.101 71.7944C211.056 71.8155 211.005 71.8236 210.956 71.8176Z" fill="black"/>
<path d="M330.327 69.9373L272.653 92.2173L280.243 125.023L313.817 118.654L330.327 69.9373Z" fill="#2157A7"/>
<path d="M280.243 125.295C280.183 125.295 280.124 125.275 280.077 125.237C280.029 125.2 279.996 125.147 279.983 125.088L272.382 92.2771C272.367 92.213 272.376 92.1458 272.407 92.0879C272.438 92.0299 272.489 91.9852 272.55 91.9619L330.224 69.6819C330.273 69.6625 330.326 69.6578 330.377 69.6684C330.428 69.679 330.475 69.7045 330.512 69.7417C330.549 69.7772 330.576 69.8227 330.588 69.8727C330.601 69.9228 330.599 69.9753 330.582 70.0243L314.078 118.741C314.062 118.787 314.034 118.827 313.998 118.858C313.962 118.89 313.918 118.911 313.871 118.921L280.303 125.289L280.243 125.295ZM272.968 92.3858L280.45 124.708L313.611 118.415L329.898 70.3992L272.968 92.3858Z" fill="black"/>
<path d="M369.58 163.084C369.58 163.084 381.166 67.905 353.477 64.4923C328.704 61.4329 321.901 76.5452 317.341 87.3809C312.34 99.2599 306.281 148.216 306.281 148.216L369.58 163.084Z" fill="#2157A7"/>
<path d="M369.58 163.372H369.52L306.222 148.504C306.157 148.489 306.099 148.449 306.061 148.394C306.023 148.339 306.007 148.272 306.015 148.205C306.075 147.716 312.134 99.0752 317.085 87.2994C321.472 76.8713 328.101 61.1069 353.515 64.2424C365.15 65.677 371.431 82.7836 372.186 115.084C372.729 139.049 369.879 162.905 369.852 163.138C369.847 163.176 369.834 163.213 369.815 163.246C369.795 163.278 369.769 163.307 369.738 163.328C369.691 163.358 369.636 163.373 369.58 163.372ZM306.602 148.026L369.363 162.769C370.047 156.856 379.792 68.0245 353.461 64.7749C328.487 61.6938 321.928 77.2245 317.628 87.5059C312.845 98.7872 307.052 144.276 306.585 148.026H306.602Z" fill="black"/>
<path d="M283.43 157.579C279.401 155.628 276.079 157.731 271.073 157.291C266.219 157.291 266.48 151.982 262.223 152.802L250.882 156.139C249.459 156.585 248.113 155.112 249.253 153.514L245.931 155.362C244.546 156.079 243.466 154.753 244.638 153.514C250.692 148.14 256.344 142.907 262.256 142.103C280.232 139.777 318.958 154.291 322.455 143.445L329.871 117.328L360.426 123.013L345.768 159.231C342.63 172.121 329.92 175.392 313.323 169.708L283.43 157.579Z" fill="#FEC310"/>
<path d="M327.65 172.664C323.378 172.664 318.54 171.762 313.263 169.947L283.338 157.824C280.998 156.688 278.907 156.965 276.491 157.28C274.698 157.583 272.876 157.672 271.062 157.546C268.554 157.546 267.332 156.155 266.257 154.927C265.182 153.699 264.281 152.678 262.289 153.058L250.974 156.389C250.604 156.511 250.206 156.514 249.834 156.399C249.462 156.283 249.135 156.053 248.9 155.742C248.741 155.515 248.636 155.255 248.592 154.981C248.549 154.707 248.569 154.426 248.651 154.161L246.088 155.585C245.787 155.787 245.423 155.873 245.064 155.824C244.705 155.776 244.376 155.598 244.139 155.324C243.819 154.9 243.71 154.118 244.465 153.313L245.285 152.585C251.061 147.45 256.512 142.603 262.245 141.815C269.613 140.858 280.411 142.711 290.857 144.532C305.956 147.124 320.223 149.569 322.221 143.369L329.638 117.258C329.656 117.193 329.697 117.137 329.755 117.102C329.812 117.066 329.881 117.054 329.947 117.068L360.502 122.752C360.542 122.759 360.58 122.775 360.612 122.799C360.645 122.822 360.673 122.852 360.692 122.888C360.708 122.924 360.717 122.964 360.717 123.004C360.717 123.045 360.708 123.084 360.692 123.121L346.034 159.34C344.812 164.361 342.119 168.034 338.042 170.295C335.148 171.871 331.641 172.664 327.65 172.664ZM283.549 157.329L313.453 169.442C323.513 172.893 331.94 173.017 337.798 169.806C341.734 167.632 344.313 164.062 345.534 159.155L360.074 123.208L330.088 117.627L322.726 143.521C320.555 150.178 306.086 147.694 290.748 145.059C280.346 143.276 269.575 141.429 262.3 142.374C256.735 143.141 251.338 147.939 245.627 153.014L244.828 153.726C244.416 154.166 244.286 154.683 244.557 155.02C244.719 155.186 244.935 155.289 245.167 155.309C245.398 155.329 245.629 155.265 245.817 155.128L249.134 153.286C249.188 153.255 249.25 153.244 249.312 153.254C249.373 153.264 249.429 153.294 249.47 153.34C249.509 153.389 249.53 153.45 249.53 153.512C249.53 153.574 249.509 153.634 249.47 153.683C249.256 153.919 249.124 154.219 249.096 154.537C249.067 154.855 249.144 155.173 249.313 155.443C249.48 155.664 249.712 155.825 249.976 155.905C250.241 155.985 250.523 155.98 250.784 155.889L262.131 152.553C264.449 152.101 265.557 153.368 266.632 154.59C267.707 155.813 268.766 157.03 271.057 157.03C272.835 157.146 274.62 157.057 276.377 156.764C278.788 156.432 281.052 156.128 283.538 157.329H283.549Z" fill="black"/>
<path d="M337.57 76.73L319.393 121.6L363 129.305L369.998 83.8433C371.583 62.7317 343.558 57.879 337.57 76.73Z" fill="#2157A7"/>
<path d="M363 129.577H362.94L319.333 121.877C319.293 121.869 319.256 121.853 319.223 121.83C319.19 121.806 319.163 121.776 319.143 121.741C319.124 121.705 319.115 121.665 319.115 121.624C319.115 121.584 319.124 121.543 319.143 121.507L337.314 76.6431C340.474 66.7095 349.53 63.6555 356.61 65.0249C364.01 66.4595 371.106 72.8392 370.28 83.865L363.271 129.349C363.266 129.384 363.254 129.419 363.235 129.45C363.217 129.48 363.192 129.507 363.163 129.528C363.116 129.563 363.058 129.58 363 129.577ZM319.773 121.393L362.777 129.001L369.743 83.8107C370.536 73.1381 363.668 66.9649 356.507 65.5683C349.65 64.2369 340.887 67.1986 337.83 76.8224L319.773 121.393Z" fill="black"/>
<path d="M249.047 153.917C249.002 153.916 248.958 153.905 248.919 153.884C248.879 153.863 248.845 153.834 248.819 153.797C248.78 153.736 248.767 153.661 248.782 153.59C248.797 153.519 248.84 153.457 248.9 153.417C252.049 151.277 255.537 149.688 259.216 148.716C259.25 148.707 259.286 148.705 259.322 148.71C259.357 148.715 259.391 148.727 259.422 148.745C259.453 148.763 259.48 148.787 259.501 148.816C259.523 148.844 259.538 148.877 259.547 148.912C259.563 148.982 259.552 149.056 259.514 149.118C259.476 149.18 259.416 149.225 259.346 149.243C255.728 150.202 252.299 151.767 249.204 153.873C249.157 153.901 249.102 153.916 249.047 153.917Z" fill="black"/>
<path d="M275.064 163.106H219.572C218.966 163.106 218.475 163.597 218.475 164.203V166.176C218.475 166.782 218.966 167.274 219.572 167.274H275.064C275.669 167.274 276.16 166.782 276.16 166.176V164.203C276.16 163.597 275.669 163.106 275.064 163.106Z" fill="#F6F2E9"/>
<path d="M275.058 167.545H219.572C219.209 167.545 218.861 167.401 218.605 167.144C218.348 166.887 218.204 166.539 218.204 166.176V164.198C218.204 163.835 218.348 163.486 218.605 163.23C218.861 162.973 219.209 162.828 219.572 162.828H275.058C275.421 162.828 275.77 162.973 276.027 163.229C276.285 163.486 276.43 163.834 276.432 164.198V166.176C276.43 166.54 276.285 166.888 276.027 167.145C275.77 167.401 275.421 167.545 275.058 167.545ZM219.572 163.372C219.353 163.372 219.143 163.459 218.988 163.614C218.834 163.769 218.747 163.979 218.747 164.198V166.176C218.747 166.395 218.834 166.605 218.988 166.76C219.143 166.915 219.353 167.002 219.572 167.002H275.058C275.278 167.002 275.488 166.915 275.644 166.76C275.799 166.606 275.887 166.395 275.889 166.176V164.198C275.887 163.978 275.799 163.768 275.644 163.613C275.488 163.459 275.278 163.372 275.058 163.372H219.572Z" fill="black"/>
<path d="M222.792 163.084H219.409L199.158 116.807C199.09 116.65 199.054 116.48 199.053 116.309C199.052 116.137 199.086 115.967 199.152 115.809C199.219 115.651 199.317 115.508 199.44 115.389C199.563 115.27 199.709 115.177 199.87 115.117L200.413 114.916C200.714 114.801 201.048 114.807 201.346 114.932C201.643 115.058 201.88 115.293 202.009 115.589L222.792 163.084Z" fill="#F6F2E9"/>
<path d="M222.792 163.372H219.409C219.356 163.373 219.304 163.358 219.259 163.329C219.215 163.3 219.18 163.258 219.159 163.209L198.909 116.932C198.826 116.741 198.783 116.535 198.782 116.327C198.781 116.118 198.822 115.912 198.902 115.72C198.983 115.528 199.102 115.355 199.251 115.21C199.4 115.065 199.578 114.952 199.772 114.878L200.315 114.677C200.682 114.538 201.089 114.546 201.45 114.698C201.812 114.851 202.101 115.137 202.258 115.497L223.041 162.991C223.063 163.032 223.074 163.076 223.074 163.122C223.074 163.167 223.063 163.212 223.041 163.252C223.014 163.293 222.977 163.325 222.933 163.346C222.889 163.367 222.84 163.376 222.792 163.372ZM219.588 162.828H222.379L201.748 115.714C201.648 115.479 201.462 115.291 201.227 115.19C200.992 115.089 200.728 115.082 200.489 115.171L199.946 115.372C199.821 115.421 199.707 115.494 199.612 115.588C199.516 115.682 199.441 115.795 199.39 115.919C199.339 116.043 199.314 116.176 199.316 116.31C199.319 116.444 199.348 116.576 199.403 116.698L219.588 162.828Z" fill="black"/>
<path d="M176.003 41.7179H0.271484V161.921H176.003V41.7179Z" fill="#F6F2E9"/>
<path d="M176.003 162.193H0.271459C0.199463 162.193 0.130437 162.164 0.0795289 162.113C0.0286205 162.062 0 161.993 0 161.921V41.7124C0 41.6403 0.0286205 41.5712 0.0795289 41.5203C0.130437 41.4693 0.199463 41.4407 0.271459 41.4407H176.003C176.075 41.4421 176.143 41.4711 176.193 41.5218C176.244 41.5724 176.273 41.6408 176.274 41.7124V161.921C176.273 161.993 176.244 162.061 176.193 162.111C176.143 162.162 176.075 162.191 176.003 162.193ZM0.542917 161.649H175.732V41.9841H0.542917V161.649Z" fill="black"/>
<path d="M176.003 41.7179H0.271484V59.2158H176.003V41.7179Z" fill="#F6F2E9"/>
<path d="M176.003 59.482H0.271459C0.199463 59.482 0.130437 59.4534 0.0795289 59.4024C0.0286205 59.3515 0 59.2824 0 59.2103V41.7124C0 41.6403 0.0286205 41.5712 0.0795289 41.5203C0.130437 41.4693 0.199463 41.4407 0.271459 41.4407H176.003C176.075 41.4421 176.143 41.4711 176.193 41.5218C176.244 41.5724 176.273 41.6408 176.274 41.7124V59.2103C176.274 59.2824 176.246 59.3515 176.195 59.4024C176.144 59.4534 176.075 59.482 176.003 59.482ZM0.542917 58.9386H175.732V41.9841H0.542917V58.9386Z" fill="black"/>
<path d="M10.0058 53.9066C11.9068 53.9066 13.4479 52.3641 13.4479 50.4614C13.4479 48.5586 11.9068 47.0161 10.0058 47.0161C8.1048 47.0161 6.56372 48.5586 6.56372 50.4614C6.56372 52.3641 8.1048 53.9066 10.0058 53.9066Z" fill="#F45235"/>
<path d="M10.0006 54.1783C9.26639 54.1773 8.54895 53.9583 7.93898 53.5493C7.329 53.1402 6.85384 52.5593 6.5736 51.88C6.29336 51.2008 6.2206 50.4536 6.3645 49.7329C6.5084 49.0123 6.86251 48.3505 7.38207 47.8312C7.90164 47.3119 8.56333 46.9584 9.28354 46.8155C10.0038 46.6725 10.7501 46.7464 11.4284 47.0279C12.1066 47.3094 12.6863 47.7858 13.0941 48.3969C13.5019 49.008 13.7196 49.7265 13.7196 50.4614C13.7182 51.4477 13.3257 52.3931 12.6284 53.09C11.9311 53.7869 10.986 54.1783 10.0006 54.1783ZM10.0006 47.2878C9.37377 47.2889 8.76128 47.4759 8.24059 47.8253C7.7199 48.1747 7.31437 48.6707 7.07523 49.2507C6.83608 49.8307 6.77406 50.4686 6.89701 51.0838C7.01997 51.6991 7.32236 52.264 7.766 52.7073C8.20964 53.1506 8.77456 53.4523 9.38945 53.5743C10.0043 53.6963 10.6416 53.6332 11.2206 53.3928C11.7996 53.1525 12.2946 52.7457 12.6427 52.2239C12.9909 51.7022 13.1767 51.0888 13.1767 50.4614C13.1752 49.6192 12.84 48.812 12.2445 48.217C11.6491 47.622 10.842 47.2878 10.0006 47.2878Z" fill="black"/>
<path d="M20.7993 53.9066C22.7003 53.9066 24.2414 52.3641 24.2414 50.4614C24.2414 48.5586 22.7003 47.0161 20.7993 47.0161C18.8983 47.0161 17.3572 48.5586 17.3572 50.4614C17.3572 52.3641 18.8983 53.9066 20.7993 53.9066Z" fill="#FEC310"/>
<path d="M20.7938 54.1783C20.0596 54.1773 19.3422 53.9583 18.7322 53.5493C18.1222 53.1402 17.647 52.5593 17.3668 51.88C17.0866 51.2008 17.0138 50.4536 17.1577 49.7329C17.3016 49.0123 17.6557 48.3505 18.1753 47.8312C18.6949 47.3119 19.3565 46.9584 20.0768 46.8155C20.797 46.6725 21.5433 46.7464 22.2216 47.0279C22.8998 47.3094 23.4795 47.7858 23.8873 48.3969C24.2951 49.008 24.5128 49.7265 24.5128 50.4614C24.5114 51.4477 24.1189 52.3931 23.4216 53.09C22.7243 53.7869 21.7792 54.1783 20.7938 54.1783ZM20.7938 47.2878C20.167 47.2889 19.5545 47.4759 19.0338 47.8253C18.5131 48.1747 18.1075 48.6707 17.8684 49.2507C17.6292 49.8307 17.5673 50.4686 17.6902 51.0838C17.8132 51.6991 18.1156 52.264 18.5592 52.7073C19.0029 53.1506 19.5678 53.4523 20.1827 53.5743C20.7976 53.6963 21.4348 53.6332 22.0138 53.3928C22.5929 53.1525 23.0878 52.7457 23.4359 52.2239C23.7841 51.7022 23.9699 51.0888 23.9699 50.4614C23.9685 49.6192 23.6332 48.812 23.0377 48.217C22.4422 47.622 21.6353 47.2878 20.7938 47.2878Z" fill="black"/>
<path d="M31.614 53.9066C33.515 53.9066 35.0561 52.3641 35.0561 50.4614C35.0561 48.5586 33.515 47.0161 31.614 47.0161C29.713 47.0161 28.1719 48.5586 28.1719 50.4614C28.1719 52.3641 29.713 53.9066 31.614 53.9066Z" fill="#12584F"/>
<path d="M31.6139 54.1783C30.8794 54.1783 30.1615 53.9603 29.5508 53.5519C28.9401 53.1435 28.4641 52.563 28.183 51.8838C27.902 51.2046 27.8285 50.4573 27.9718 49.7362C28.115 49.0152 28.4687 48.3529 28.9881 47.8331C29.5074 47.3133 30.1691 46.9593 30.8895 46.8159C31.6098 46.6724 32.3565 46.746 33.035 47.0274C33.7136 47.3087 34.2936 47.7851 34.7016 48.3964C35.1097 49.0076 35.3275 49.7262 35.3275 50.4614C35.326 51.4467 34.9344 52.3913 34.2382 53.0881C33.5421 53.7848 32.5984 54.1769 31.6139 54.1783ZM31.6139 47.2878C30.9868 47.2878 30.3738 47.474 29.8524 47.8227C29.331 48.1714 28.9246 48.667 28.6847 49.2469C28.4447 49.8268 28.3819 50.4649 28.5042 51.0805C28.6265 51.6961 28.9285 52.2616 29.3719 52.7054C29.8154 53.1492 30.3803 53.4515 30.9954 53.5739C31.6104 53.6964 32.2479 53.6335 32.8273 53.3933C33.4066 53.1531 33.9018 52.7464 34.2502 52.2245C34.5986 51.7026 34.7845 51.089 34.7845 50.4614C34.7831 49.6201 34.4486 48.8138 33.8543 48.2189C33.26 47.6241 32.4544 47.2893 31.6139 47.2878Z" fill="black"/>
<path d="M68.1525 69.3178H8.09497V106.748H68.1525V69.3178Z" fill="#FEC310"/>
<path d="M68.1361 107.02H8.09494C8.02295 107.02 7.95386 106.991 7.90295 106.94C7.85204 106.889 7.82349 106.82 7.82349 106.748V69.3178C7.82349 69.2458 7.85204 69.1767 7.90295 69.1257C7.95386 69.0747 8.02295 69.0461 8.09494 69.0461H68.1361C68.2081 69.0461 68.2772 69.0747 68.3281 69.1257C68.379 69.1767 68.4076 69.2458 68.4076 69.3178V106.748C68.4076 106.82 68.379 106.889 68.3281 106.94C68.2772 106.991 68.2081 107.02 68.1361 107.02ZM8.35553 106.476H67.8647V69.6167H8.3664L8.35553 106.476Z" fill="black"/>
<path d="M68.1361 107.02C68.0864 107.021 68.0374 107.008 67.9949 106.982L7.9374 69.5461C7.90724 69.5277 7.88106 69.5035 7.86033 69.4749C7.83959 69.4464 7.82474 69.4139 7.81665 69.3795C7.80857 69.3451 7.80739 69.3095 7.81321 69.2746C7.81903 69.2398 7.8317 69.2064 7.85052 69.1765C7.86885 69.1456 7.89329 69.1187 7.92229 69.0974C7.9513 69.0762 7.98424 69.0611 8.01925 69.0529C8.05426 69.0448 8.09057 69.0439 8.12595 69.0502C8.16134 69.0565 8.1951 69.0699 8.22517 69.0896L68.2827 106.52C68.3318 106.552 68.3694 106.599 68.3898 106.653C68.4102 106.708 68.4123 106.768 68.3959 106.825C68.3794 106.881 68.3452 106.93 68.2984 106.965C68.2516 107.001 68.1946 107.02 68.1361 107.02Z" fill="black"/>
<path d="M8.09491 107.02C8.04866 107.02 8.00307 107.009 7.96229 106.987C7.92151 106.965 7.88681 106.934 7.86142 106.895C7.84247 106.865 7.82967 106.831 7.82378 106.796C7.81789 106.76 7.81902 106.724 7.82709 106.689C7.83516 106.655 7.85004 106.622 7.87083 106.593C7.89163 106.563 7.91796 106.539 7.94831 106.52L68.0058 69.0733C68.0356 69.0492 68.0702 69.0317 68.1072 69.0219C68.1443 69.0121 68.1829 69.0103 68.2207 69.0166C68.2585 69.0229 68.2946 69.0371 68.3265 69.0583C68.3584 69.0795 68.3855 69.1072 68.4059 69.1397C68.4263 69.1721 68.4398 69.2085 68.4451 69.2465C68.4505 69.2844 68.4478 69.3231 68.4372 69.3599C68.4266 69.3968 68.4083 69.431 68.3835 69.4602C68.3587 69.4895 68.3281 69.5132 68.2936 69.5297L8.23607 106.965C8.19542 106.997 8.14629 107.016 8.09491 107.02Z" fill="black"/>
<path d="M68.1525 124.137H8.09497V132.631H68.1525V124.137Z" fill="#F6F2E9"/>
<path d="M68.1361 132.903H8.09494C8.02295 132.903 7.95386 132.874 7.90295 132.823C7.85204 132.772 7.82349 132.703 7.82349 132.631V124.137C7.82349 124.065 7.85204 123.996 7.90295 123.945C7.95386 123.894 8.02295 123.866 8.09494 123.866H68.1361C68.2081 123.866 68.2772 123.894 68.3281 123.945C68.379 123.996 68.4076 124.065 68.4076 124.137V132.653C68.4021 132.721 68.3711 132.785 68.3208 132.831C68.2705 132.877 68.2045 132.903 68.1361 132.903ZM8.35553 132.359H67.8647V124.409H8.3664L8.35553 132.359Z" fill="black"/>
<path d="M68.1525 139.206H8.09497V147.7H68.1525V139.206Z" fill="#F6F2E9"/>
<path d="M68.1361 147.972H8.09494C8.02295 147.972 7.95386 147.943 7.90295 147.892C7.85204 147.841 7.82349 147.772 7.82349 147.7V139.206C7.82349 139.134 7.85204 139.065 7.90295 139.014C7.95386 138.963 8.02295 138.935 8.09494 138.935H68.1361C68.2081 138.935 68.2772 138.963 68.3281 139.014C68.379 139.065 68.4076 139.134 68.4076 139.206V147.7C68.4076 147.736 68.4006 147.771 68.3869 147.804C68.3733 147.837 68.3533 147.867 68.3281 147.892C68.3029 147.917 68.2729 147.937 68.24 147.951C68.2071 147.965 68.1718 147.972 68.1361 147.972ZM8.35553 147.428H67.8647V139.478H8.3664L8.35553 147.428Z" fill="black"/>
<path d="M84.5757 147.7C88.1372 134.848 98.6426 111.987 108.773 111.987C119.187 111.987 116.374 124.137 129.877 124.137C143.949 124.137 153.765 99.0806 161.111 76.2681" fill="#F6F2E9"/>
<path d="M84.5757 147.972H84.5051C84.4358 147.951 84.3771 147.905 84.3416 147.842C84.3061 147.779 84.2967 147.704 84.3151 147.635C86.5927 139.686 89.8383 132.048 93.979 124.893C97.5406 118.883 102.997 111.72 108.774 111.72C113.779 111.72 115.799 114.437 117.943 117.312C120.343 120.54 122.83 123.871 129.888 123.871C143.792 123.871 153.743 98.3904 160.834 76.192C160.857 76.1244 160.906 76.0686 160.97 76.0362C161.034 76.0037 161.107 75.9973 161.176 76.0181C161.21 76.0286 161.242 76.0459 161.27 76.0688C161.297 76.0918 161.32 76.12 161.337 76.1518C161.354 76.1837 161.364 76.2185 161.367 76.2543C161.37 76.2901 161.366 76.3262 161.355 76.3604C153.754 100.124 144.031 124.415 129.866 124.415C122.536 124.415 119.86 120.817 117.493 117.638C115.441 114.872 113.497 112.264 108.763 112.264C98.8001 112.264 88.2567 135.397 84.8254 147.781C84.8093 147.835 84.7765 147.883 84.7316 147.917C84.6867 147.951 84.6321 147.97 84.5757 147.972Z" fill="black"/>
<path d="M160.97 78.0994C162.328 78.0994 163.429 76.9973 163.429 75.6378C163.429 74.2782 162.328 73.1761 160.97 73.1761C159.611 73.1761 158.51 74.2782 158.51 75.6378C158.51 76.9973 159.611 78.0994 160.97 78.0994Z" fill="#FEC310"/>
<path d="M160.975 78.3712C160.438 78.3712 159.913 78.2118 159.467 77.9133C159.021 77.6147 158.673 77.1904 158.467 76.6939C158.262 76.1974 158.208 75.6511 158.313 75.124C158.417 74.5969 158.676 74.1128 159.056 73.7328C159.435 73.3528 159.919 73.0941 160.445 72.9892C160.972 72.8844 161.518 72.9382 162.014 73.1438C162.51 73.3495 162.934 73.6978 163.232 74.1446C163.53 74.5914 163.69 75.1167 163.69 75.6541C163.69 76.3747 163.404 77.0658 162.895 77.5753C162.385 78.0849 161.695 78.3712 160.975 78.3712ZM160.975 73.4424C160.546 73.4424 160.126 73.5699 159.769 73.8087C159.411 74.0476 159.133 74.3871 158.969 74.7842C158.804 75.1814 158.761 75.6185 158.845 76.0401C158.929 76.4618 159.136 76.8491 159.44 77.1531C159.743 77.457 160.13 77.6641 160.551 77.7479C160.973 77.8318 161.409 77.7888 161.806 77.6243C162.203 77.4597 162.542 77.1811 162.781 76.8237C163.019 76.4662 163.147 76.046 163.147 75.616C163.15 75.3288 163.096 75.0438 162.988 74.7776C162.88 74.5113 162.72 74.2691 162.518 74.065C162.316 73.8608 162.076 73.6988 161.811 73.5882C161.546 73.4776 161.262 73.4206 160.975 73.4207V73.4424Z" fill="black"/>
<path d="M84.5756 150.167C85.9339 150.167 87.035 149.065 87.035 147.705C87.035 146.346 85.9339 145.244 84.5756 145.244C83.2173 145.244 82.1162 146.346 82.1162 147.705C82.1162 149.065 83.2173 150.167 84.5756 150.167Z" fill="#FEC310"/>
<path d="M84.5757 150.439C84.0388 150.439 83.514 150.279 83.0675 149.981C82.6211 149.682 82.2732 149.258 82.0677 148.761C81.8623 148.265 81.8085 147.719 81.9132 147.192C82.018 146.664 82.2765 146.18 82.6562 145.8C83.0358 145.42 83.5195 145.162 84.0461 145.057C84.5727 144.952 85.1184 145.006 85.6145 145.211C86.1105 145.417 86.5345 145.765 86.8328 146.212C87.1311 146.659 87.2903 147.184 87.2903 147.722C87.2903 148.442 87.0043 149.133 86.4952 149.643C85.9861 150.152 85.2956 150.439 84.5757 150.439ZM84.5757 145.51C84.1462 145.51 83.7263 145.637 83.3692 145.876C83.012 146.115 82.7337 146.455 82.5693 146.852C82.4049 147.249 82.3619 147.686 82.4457 148.108C82.5295 148.529 82.7363 148.917 83.04 149.221C83.3437 149.525 83.7307 149.732 84.152 149.815C84.5732 149.899 85.0099 149.856 85.4068 149.692C85.8036 149.527 86.1427 149.249 86.3813 148.891C86.6199 148.534 86.7473 148.113 86.7473 147.684C86.7473 147.107 86.5185 146.554 86.1112 146.147C85.704 145.739 85.1516 145.51 84.5757 145.51Z" fill="black"/>
<path d="M109.289 114.448C110.648 114.448 111.749 113.346 111.749 111.987C111.749 110.627 110.648 109.525 109.289 109.525C107.931 109.525 106.83 110.627 106.83 111.987C106.83 113.346 107.931 114.448 109.289 114.448Z" fill="#FEC310"/>
<path d="M109.289 114.72C108.752 114.72 108.228 114.561 107.781 114.262C107.335 113.964 106.987 113.539 106.781 113.043C106.576 112.546 106.522 112 106.627 111.473C106.732 110.946 106.99 110.462 107.37 110.082C107.749 109.702 108.233 109.443 108.76 109.338C109.286 109.233 109.832 109.287 110.328 109.493C110.824 109.698 111.248 110.047 111.546 110.493C111.845 110.94 112.004 111.466 112.004 112.003C112.004 112.724 111.718 113.415 111.209 113.924C110.7 114.434 110.009 114.72 109.289 114.72ZM109.289 109.791C108.86 109.791 108.44 109.919 108.083 110.158C107.726 110.396 107.447 110.736 107.283 111.133C107.119 111.53 107.076 111.967 107.159 112.389C107.243 112.811 107.45 113.198 107.754 113.502C108.057 113.806 108.444 114.013 108.866 114.097C109.287 114.181 109.724 114.138 110.12 113.973C110.517 113.809 110.856 113.53 111.095 113.173C111.334 112.815 111.461 112.395 111.461 111.965C111.461 111.388 111.232 110.836 110.825 110.428C110.418 110.02 109.865 109.791 109.289 109.791Z" fill="black"/>
<path d="M129.877 126.599C131.235 126.599 132.336 125.497 132.336 124.137C132.336 122.778 131.235 121.676 129.877 121.676C128.518 121.676 127.417 122.778 127.417 124.137C127.417 125.497 128.518 126.599 129.877 126.599Z" fill="#FEC310"/>
<path d="M129.877 126.876C129.34 126.876 128.815 126.717 128.369 126.418C127.922 126.12 127.574 125.695 127.369 125.199C127.163 124.703 127.11 124.156 127.214 123.629C127.319 123.102 127.578 122.618 127.957 122.238C128.337 121.858 128.821 121.599 129.347 121.494C129.874 121.389 130.42 121.443 130.916 121.649C131.412 121.855 131.836 122.203 132.134 122.65C132.432 123.097 132.591 123.622 132.591 124.159C132.591 124.88 132.305 125.571 131.796 126.08C131.287 126.59 130.597 126.876 129.877 126.876ZM129.877 121.948C129.447 121.948 129.027 122.075 128.67 122.314C128.313 122.553 128.035 122.892 127.87 123.289C127.706 123.687 127.663 124.124 127.747 124.545C127.831 124.967 128.037 125.354 128.341 125.658C128.645 125.962 129.032 126.169 129.453 126.253C129.874 126.337 130.311 126.294 130.708 126.129C131.105 125.965 131.444 125.686 131.682 125.329C131.921 124.971 132.048 124.551 132.048 124.121C132.048 123.545 131.82 122.992 131.412 122.584C131.005 122.177 130.453 121.948 129.877 121.948Z" fill="black"/>
<path d="M186.416 129.577L176.28 170.442L160.79 166.04L151.132 177.718L148.07 160.106L130.251 152.688L186.416 129.577Z" fill="#F49FC4"/>
<path d="M150.964 178.343L147.831 160.296L129.54 152.688L186.807 129.126L176.492 170.784L160.883 166.344L150.964 178.343ZM130.962 152.688L148.336 159.91L151.316 177.088L160.714 165.73L176.106 170.078L186.041 130.001L130.962 152.688Z" fill="black"/>
<path d="M185.276 130.686L155.443 164.546L150.958 177.718L148.227 160.155L185.276 130.686Z" fill="black"/>
<path d="M150.958 177.99C150.897 177.984 150.84 177.958 150.795 177.916C150.751 177.873 150.722 177.817 150.714 177.756L147.999 160.193C147.991 160.145 147.996 160.097 148.013 160.052C148.03 160.007 148.059 159.967 148.097 159.938L185.108 130.479C185.161 130.435 185.228 130.413 185.296 130.417C185.365 130.421 185.429 130.451 185.477 130.501C185.524 130.55 185.551 130.616 185.552 130.684C185.553 130.753 185.528 130.819 185.482 130.87L155.682 164.692L151.203 177.805C151.185 177.857 151.153 177.902 151.109 177.935C151.065 177.968 151.013 177.987 150.958 177.99ZM148.521 160.264L151.056 176.566L155.188 164.437C155.198 164.402 155.217 164.371 155.242 164.345L183.045 132.789L148.521 160.264Z" fill="black"/>
<path d="M150.958 177.718L160.942 166.007L155.443 164.546L150.958 177.718Z" fill="#FBD9DF"/>
<path d="M150.242 178.973L155.269 164.214L161.431 165.844L150.242 178.973ZM155.617 164.845L151.675 176.43L160.454 166.105L155.617 164.845Z" fill="black"/>
<path d="M228.221 0.287952H193.697V22.5516H228.221V0.287952Z" fill="#2157A7"/>
<path d="M228.221 22.8234H193.697C193.625 22.8234 193.555 22.7947 193.505 22.7438C193.454 22.6928 193.425 22.6237 193.425 22.5517V0.271707C193.425 0.199646 193.454 0.130523 193.505 0.0795684C193.555 0.0286135 193.625 0 193.697 0H228.221C228.293 0 228.362 0.0286135 228.413 0.0795684C228.463 0.130523 228.492 0.199646 228.492 0.271707V22.5517C228.492 22.6237 228.463 22.6928 228.413 22.7438C228.362 22.7947 228.293 22.8234 228.221 22.8234ZM193.968 22.28H227.949V0.543414H193.968V22.28Z" fill="black"/>
<path d="M208.23 4.77118L200.657 11.4226L208.23 18.0739" fill="#2157A7"/>
<path d="M208.209 18.3402C208.143 18.3409 208.08 18.3177 208.03 18.275L200.429 11.6236C200.399 11.5981 200.376 11.5664 200.36 11.5307C200.344 11.495 200.336 11.4562 200.336 11.4171C200.336 11.3789 200.344 11.3411 200.36 11.3063C200.376 11.2716 200.4 11.2408 200.429 11.2161L208.03 4.56468C208.08 4.51489 208.149 4.487 208.22 4.487C208.291 4.487 208.359 4.51489 208.41 4.56468C208.435 4.58994 208.455 4.61997 208.469 4.65308C208.483 4.68619 208.49 4.72171 208.49 4.75758C208.49 4.79345 208.483 4.82896 208.469 4.86207C208.455 4.89518 208.435 4.92524 208.41 4.9505L201.064 11.3954L208.41 17.8457C208.436 17.8701 208.456 17.8996 208.471 17.9323C208.485 17.965 208.492 18.0002 208.492 18.0359C208.492 18.0715 208.485 18.1068 208.471 18.1395C208.456 18.1722 208.436 18.2017 208.41 18.2261C208.388 18.2602 208.359 18.2885 208.324 18.3084C208.289 18.3283 208.249 18.3393 208.209 18.3402Z" fill="black"/>
<path d="M213.687 4.77118L221.26 11.4226L213.687 18.0739" fill="#2157A7"/>
<path d="M213.687 18.3402C213.648 18.3413 213.609 18.3336 213.573 18.3176C213.538 18.3016 213.506 18.2778 213.481 18.2479C213.455 18.2231 213.435 18.1935 213.422 18.1608C213.408 18.1282 213.401 18.0931 213.401 18.0577C213.401 18.0222 213.408 17.9872 213.422 17.9545C213.435 17.9219 213.455 17.8923 213.481 17.8675L220.821 11.4171L213.508 4.95052C213.458 4.89882 213.43 4.82962 213.43 4.75761C213.43 4.68559 213.458 4.61641 213.508 4.56471C213.56 4.51458 213.629 4.48653 213.701 4.48653C213.773 4.48653 213.842 4.51458 213.893 4.56471L221.467 11.2161C221.496 11.2408 221.52 11.2716 221.535 11.3063C221.551 11.3411 221.56 11.3789 221.559 11.4171C221.56 11.4562 221.552 11.495 221.536 11.5307C221.52 11.5664 221.497 11.5981 221.467 11.6236L213.893 18.275C213.865 18.2989 213.832 18.317 213.797 18.3282C213.761 18.3394 213.724 18.3435 213.687 18.3402Z" fill="black"/>
</svg>
